<?xml version="1.0" encoding="UTF-8"?><svg id="a" xmlns="http://www.w3.org/2000/svg" xmlns:xlink="http://www.w3.org/1999/xlink" viewBox="0 0 340 683"><defs><mask id="b" x="0" y="60.1172" width="339.116" height="622.7763" maskUnits="userSpaceOnUse"><g id="c"><path d="M338.616,577.409h-118.311l-23.195-21.512-.753-.698-.085,1.024-1.769,21.186h-58.065l-7.722-7.164-.751-.697-.088,1.02-.585,6.841h-16.53l-4.251-8.25-.263-.512-.47.332-11.9489,8.43h-15.5303l-14.8613-28.743-.7969-1.543-.1455,1.731-2.3945,28.555h-14.8447l-28.1563-13.377-.6523-.309-.0606.719-1.0791,12.967H.5v-158.913c15.593,3.981,35.0391,7.343,57.2715,9.882v.001c2.7068.332,5.466.627,8.2764.907l13.8115,11.178.8154.659v-10.489c3.4054.296,6.8759.562,10.3848.804l33.4954,27.106.814.659v-26.034c10.813.369,21.952.543,33.292.543h2.831l7.594,24.582.977-.148v-24.502c4.383-.038,8.735-.114,13.025-.234l-.001-.001c2.982-.062,5.92-.141,8.847-.239l-.001-.001c5.763-.183,11.452-.418,17.046-.712l4.865,7.872.299.483.441-.358,11.098-8.981c5.254-.371,10.384-.784,15.431-1.231l17.415,28.176.925,1.497v-31.517c3.651-.415,7.232-.861,10.752-1.316l33.255,13.456.687.278v-19.383c5.644-1.181,10.895-2.42,15.743-3.733l5.785,4.683.304-.378.314.387.012-.009.479-.389-.001-.001,11.833-9.575v164.991Z" style="fill:#c59b6d; stroke:#c59b6d;"/></g></mask><mask id="d" x=".4833" y="60.3129" width="339.116" height="622.7765" maskUnits="userSpaceOnUse"><g id="e"><path d="M339.0993,577.6052h-118.311l-23.195-21.512-.753-.698-.085,1.023-1.769,21.187h-58.065l-7.722-7.164-.751-.698-.088,1.021-.585,6.841h-16.53l-4.251-8.25-.263-.512-.47.332-11.9489,8.43h-15.5303l-14.8613-28.743-.7969-1.543-.1455,1.73-2.3945,28.556h-14.8447l-28.1563-13.377-.6523-.31-.0606.72-1.0791,12.967H.9833v-158.913c15.593,3.98,35.0391,7.342,57.2715,9.881v.001c2.7068.332,5.466.628,8.2764.908l13.8115,11.177.8154.66v-10.49c3.4054.296,6.8759.562,10.3848.804l33.4954,27.106.814.66v-26.035c10.813.37,21.952.543,33.292.543h2.831l7.594,24.582.977-.147v-24.503c4.383-.037,8.735-.114,13.025-.233l-.001-.001c2.982-.062,5.92-.142,8.847-.24l-.001-.001c5.763-.183,11.452-.417,17.046-.711l4.865,7.872.299.482.441-.357,11.098-8.982c5.254-.371,10.384-.784,15.431-1.23l17.415,28.176.925,1.497v-31.517c3.651-.416,7.232-.862,10.752-1.316l33.255,13.456.687.278v-19.384c5.644-1.18,10.895-2.419,15.743-3.732l5.785,4.682.304-.378.314.387.012-.009.479-.388-.001-.001,11.833-9.575v164.991Z" style="fill:#c59b6d; stroke:#c59b6d;"/></g></mask></defs><path d="M83.1052,77.7881l.0604,7.1189c.0604,7.3691,4.789,13.2972,10.5531,13.2454l5.4535-.0518c4.7458-.0431,8.9138,4.0034,10.1818,9.8454,3.616,16.663,9.924,53.56,9.009,104.937-1.208,67.944-27.3279,124.006-30.8485,130.141-.1898.336-.3624.664-.5263,1.018L11.2521,461.421c-.7679,1.226-3.8744,9.527-4.2713,11.011-.7162,2.709-.7248,5.678,0,8.439,7.9127,30.201,56.8646,193.659,113.5132,195.411,80.767,2.502,116.75,2.485,123.489-1.58.794-.474,1.51-1.061,2.183-1.777,9.526-10.096,74.528-104.013,87.048-199.406.389-2.977-.474-5.988-1.82-8.473-22.272-41.152-68.074-91.13-85.815-129.624-18.336-39.771-29.787-100.726-29.977-122.505-.146-16.973.061-78.118.915-104.28.224-6.826,4.452-12.3053,9.794-12.6936,6.187-.4487,11.399-7.3001,11.571-15.2214l.061-2.7354c.163-7.533-4.591-13.7718-10.485-13.7718l-133.955.1208c-5.79,0-10.4496,6.0317-10.3806,13.4353l-.0172.0172Z" style="fill:#dcd6cb; stroke:#dcd6cb; stroke-miterlimit:10; stroke-width:9px;"/><path d="M126.354,59.2268v-15.3077c-8.94,0-16.128-6.0144-15.938-13.3317l.268-10.1304c.258-10.0095,10.277-18.0085,22.504-17.9568l58.763.0863c11.14.0173,20.183,7.3777,20.286,16.4985l.13,12.3567c.077,7.1878-6.852,13.1073-15.619,13.3489v14.626l-70.394-.1812v-.0086Z" style="fill:#cdb43a; stroke:#cdb43a; stroke-miterlimit:10; stroke-width:5px;"/><path d="M116.033,120.535c8.025,27.561,11.356,56.347,11.995,84.995,1.527,71.784-19.148,144.914-63.5438,201.934-8.836,11.321-18.3968,22.047-28.7257,31.962,9.6386-10.579,18.7248-21.633,27.0258-33.222,8.232-11.588,15.8341-23.729,22.4784-36.302,40.0383-75.252,48.3303-166.555,30.7703-249.367Z" style="fill:#e2e3e2;"/><path d="M303.384,435.949c-78.255-69.67-109.889-173.881-95.142-276.359,2.123-14.298,4.901-28.553,9.311-42.324-.915,3.494-1.674,7.015-2.382,10.553-4.901,24.696-7.067,49.944-6.972,75.089.345,88.938,32.298,169.808,95.177,233.041h.008Z" style="fill:#e2e3e2;"/><path d="M89.301,653.07c46.139,9.82,94.996,15.791,141.54,5.704,6.627-1.519,13.151-3.469,19.631-5.704-6.109,3.107-12.521,5.635-19.079,7.749-44.214,13.366-98.904,7.361-142.092-7.749Z" style="fill:#e2e3e2;"/><path d="M22.1763,460.98c-1.7948,8.871-3.279,17.664-.9923,26.509.2502,1.354.7421,2.562.9923,3.943-.5436-.44-1.0441-.923-1.5446-1.424-7.4812-7.861-6.0661-21.745,1.5446-29.028Z" style="fill:#e2e3e2;"/><path d="M315.724,489.147c1.338-4.919,2.433-9.984,2.149-15.101-.164-5.194-1.148-10.104-2.149-15.351,8.154,7.732,9.104,23.074,0,30.452Z" style="fill:#e2e3e2;"/><path d="M94.4697,403.538s52.8613-61.654,121.5473-1.381c68.686,60.273-121.5473,1.381-121.5473,1.381Z" style="fill:#75b13b;"/><path d="M37.8988,493.204c6.2992,29.856,21.7363,94.383,43.9126,129.684,4.9875,7.947,12.7622,18.483,21.5726,20.218,37.026,7.291,99.526,4.038,128.899,1.915,10.794-.776,20.571-12.149,26.188-22.029,12.115-21.288,32.186-64.605,42.739-131.816,1.338-8.517-.207-17.275-4.444-24.627-17.197-29.856-41.151-59.539-61.532-78.506-5.359-4.987-12.038-8.18-19.139-8.706-8.845-.656-18.44,1.432-27.889,3.926-15.756,4.168-31.892,6.472-48.123,6.756-19.562.345-38.27,7.223-53.681,19.277-7.7574,6.066-14.6778,13.444-20.4505,21.961l-22.5215,33.204c-5.6261,8.292-7.6366,18.751-5.5312,28.734v.009Z" style="fill:#41810b;"/><g style="opacity:.5;"><g style="opacity:.5;"><path d="M152.507,271.805s.035,0,.026.026l-1.795,5.341s-.034.043-.06.052l-5.255.957s-.034-.008-.026-.034l1.881-4.591s.035-.043.061-.051l5.168-1.692v-.008Z" style="fill:#92b6da;"/></g><g style="opacity:.5;"><path d="M153.051,262.108s.018-.034.035-.017l4.47,3.425s.034.044.025.069l-.793,5.281s-.018.026-.044.018l-3.736-3.262s-.034-.052-.034-.069l.069-5.436.008-.009Z" style="fill:#92b6da;"/></g><g style="opacity:.5;"><path d="M151.239,250.353s.035-.009.035.017l.595,5.6s-.009.052-.035.069l-4.374,3.064s-.035,0-.035-.018l-.207-4.953s.009-.06.026-.069l3.986-3.693.009-.017Z" style="fill:#92b6da;"/></g><g style="opacity:.5;"><path d="M141.549,269.926s.034,0,.026.026l-1.795,5.341s-.035.043-.06.052l-5.255.958s-.035-.009-.026-.035l1.881-4.591s.034-.043.06-.051l5.169-1.692v-.008Z" style="fill:#92b6da;"/></g><g style="opacity:.5;"><path d="M142.101,260.225s.017-.034.034-.017l4.47,3.426s.035.043.026.069l-.794,5.281s-.017.025-.043.017l-3.736-3.262s-.035-.052-.035-.069l.069-5.436.009-.009Z" style="fill:#92b6da;"/></g><g style="opacity:.5;"><path d="M140.289,248.474s.034-.009.034.017l.596,5.6s-.009.052-.035.069l-4.375,3.064s-.034,0-.034-.017l-.207-4.953s.008-.061.026-.07l3.986-3.693.009-.017Z" style="fill:#92b6da;"/></g><g style="opacity:.5;"><path d="M126.465,239.613s.035,0,.026.026l-1.795,5.341s-.034.044-.06.052l-5.255.958s-.034-.009-.026-.034l1.881-4.591s.035-.043.061-.052l5.168-1.691v-.009Z" style="fill:#92b6da;"/></g><g style="opacity:.5;"><path d="M127.018,229.924s.017-.034.034-.017l4.47,3.426s.035.043.026.069l-.794,5.281s-.017.026-.043.017l-3.736-3.262s-.035-.051-.035-.069l.069-5.436.009-.009Z" style="fill:#92b6da;"/></g><g style="opacity:.5;"><path d="M125.206,218.169s.034-.008.034.018l.596,5.6s-.009.052-.035.069l-4.375,3.063s-.034,0-.034-.017l-.207-4.953s.008-.061.025-.069l3.987-3.693.009-.018Z" style="fill:#92b6da;"/></g><g style="opacity:.5;"><path d="M115.515,237.734s.035,0,.026.026l-1.795,5.342s-.034.043-.06.051l-5.255.958s-.034-.008-.026-.034l1.881-4.591s.035-.043.061-.052l5.168-1.691v-.009Z" style="fill:#92b6da;"/></g><g style="opacity:.5;"><path d="M116.068,228.046s.017-.035.034-.018l4.47,3.426s.034.043.026.069l-.794,5.281s-.017.026-.043.017l-3.736-3.262s-.035-.051-.035-.069l.069-5.436.009-.008Z" style="fill:#92b6da;"/></g><g style="opacity:.5;"><path d="M114.255,216.29s.035-.008.035.018l.595,5.6s-.008.052-.034.069l-4.375,3.063s-.035,0-.035-.017l-.207-4.953s.009-.06.026-.069l3.987-3.693.008-.018Z" style="fill:#92b6da;"/></g><g style="opacity:.5;"><path d="M149.22,242.977s.034,0,.026.025l-1.795,5.342s-.035.043-.061.052l-5.255.957s-.034-.008-.025-.034l1.881-4.591s.034-.043.06-.052l5.169-1.691v-.008Z" style="fill:#92b6da;"/></g><g style="opacity:.5;"><path d="M149.772,233.28s.017-.035.035-.017l4.47,3.425s.034.043.025.069l-.793,5.281s-.018.026-.044.018l-3.736-3.262s-.034-.052-.034-.069l.069-5.436.008-.009Z" style="fill:#92b6da;"/></g><g style="opacity:.5;"><path d="M147.96,221.525s.035-.009.035.017l.595,5.6s-.009.052-.035.069l-4.374,3.064s-.035,0-.035-.018l-.207-4.953s.009-.06.026-.069l3.986-3.693.009-.017Z" style="fill:#92b6da;"/></g><g style="opacity:.5;"><path d="M138.27,241.098s.034,0,.026.026l-1.795,5.341s-.035.043-.061.052l-5.255.957s-.034-.008-.025-.034l1.881-4.591s.034-.043.06-.051l5.169-1.692v-.008Z" style="fill:#92b6da;"/></g><g style="opacity:.5;"><path d="M138.813,231.405s.018-.035.035-.017l4.47,3.425s.034.043.025.069l-.793,5.281s-.018.026-.044.017l-3.736-3.261s-.034-.052-.034-.069l.069-5.436.008-.009Z" style="fill:#92b6da;"/></g><g style="opacity:.5;"><path d="M137.001,219.642s.035-.009.035.017l.595,5.6s-.008.052-.034.069l-4.375,3.064s-.035,0-.035-.018l-.207-4.953s.009-.06.026-.069l3.987-3.693.008-.017Z" style="fill:#92b6da;"/></g><g style="opacity:.5;"><path d="M129.123,270.34s.035,0,.026.026l-1.795,5.341s-.034.043-.06.052l-5.255.958s-.035-.009-.026-.035l1.881-4.59s.034-.044.06-.052l5.169-1.692v-.008Z" style="fill:#92b6da;"/></g><g style="opacity:.5;"><path d="M129.675,260.651s.018-.035.035-.017l4.47,3.425s.034.044.025.069l-.793,5.281s-.018.026-.044.018l-3.736-3.262s-.034-.052-.034-.069l.069-5.436.008-.009Z" style="fill:#92b6da;"/></g><g style="opacity:.5;"><path d="M127.863,248.896s.035-.009.035.017l.595,5.6s-.009.052-.034.069l-4.375,3.064s-.035,0-.035-.018l-.207-4.953s.009-.06.026-.069l3.987-3.693.008-.017Z" style="fill:#92b6da;"/></g><g style="opacity:.5;"><path d="M118.173,268.469s.034,0,.026.026l-1.795,5.341s-.035.043-.06.052l-5.255.958s-.035-.009-.026-.035l1.881-4.591s.034-.043.06-.051l5.169-1.692v-.008Z" style="fill:#92b6da;"/></g><g style="opacity:.5;"><path d="M118.717,258.772s.017-.034.034-.017l4.47,3.426s.034.043.026.069l-.794,5.28s-.017.026-.043.018l-3.737-3.262s-.034-.052-.034-.069l.069-5.436.009-.009Z" style="fill:#92b6da;"/></g><g style="opacity:.5;"><path d="M116.904,247.017s.035-.009.035.017l.595,5.6s-.008.052-.034.069l-4.375,3.064s-.035,0-.035-.018l-.207-4.953s.009-.06.026-.069l3.987-3.693.008-.017Z" style="fill:#92b6da;"/></g><g style="opacity:.5;"><path d="M170.266,246.781s.034,0,.026.026l-1.795,5.341s-.035.044-.061.052l-5.255.958s-.034-.009-.026-.035l1.882-4.59s.034-.043.06-.052l5.169-1.691v-.009Z" style="fill:#92b6da;"/></g><g style="opacity:.5;"><path d="M170.809,237.092s.018-.034.035-.017l4.47,3.426s.034.043.026.069l-.794,5.281s-.018.026-.043.017l-3.737-3.262s-.034-.052-.034-.069l.069-5.436.008-.009Z" style="fill:#92b6da;"/></g><g style="opacity:.5;"><path d="M168.997,225.333s.035-.008.035.018l.595,5.6s-.009.052-.034.069l-4.375,3.063s-.035,0-.035-.017l-.207-4.953s.009-.061.026-.069l3.987-3.693.008-.018Z" style="fill:#92b6da;"/></g><g style="opacity:.5;"><path d="M159.307,244.902s.034,0,.026.026l-1.795,5.342s-.035.043-.06.051l-5.255.958s-.035-.009-.026-.034l1.881-4.591s.034-.043.06-.052l5.169-1.691v-.009Z" style="fill:#92b6da;"/></g><g style="opacity:.5;"><path d="M159.859,235.214s.018-.035.035-.018l4.47,3.426s.034.043.026.069l-.794,5.281s-.018.026-.043.017l-3.737-3.262s-.034-.051-.034-.069l.069-5.436.008-.008Z" style="fill:#92b6da;"/></g><g style="opacity:.5;"><path d="M158.047,223.458s.035-.008.035.018l.595,5.6s-.009.052-.034.069l-4.375,3.063s-.035,0-.035-.017l-.207-4.953s.009-.061.026-.069l3.987-3.693.008-.018Z" style="fill:#92b6da;"/></g><g style="opacity:.5;"><path d="M173.363,255.619s.035-.009.035.017l.595,5.6s-.008.052-.034.069l-4.375,3.063s-.035,0-.035-.017l-.207-4.953s.009-.06.026-.069l3.987-3.693.008-.017Z" style="fill:#92b6da;"/></g><g style="opacity:.5;"><path d="M163.673,275.191s.035,0,.026.026l-1.795,5.342s-.034.043-.06.051l-5.255.958s-.035-.008-.026-.034l1.881-4.591s.035-.043.06-.052l5.169-1.691v-.009Z" style="fill:#92b6da;"/></g><g style="opacity:.5;"><path d="M164.226,265.491s.017-.035.034-.017l4.47,3.425s.034.043.026.069l-.794,5.281s-.017.026-.043.017l-3.737-3.261s-.034-.052-.034-.069l.069-5.437.009-.008Z" style="fill:#92b6da;"/></g><g style="opacity:.5;"><path d="M162.413,253.74s.035-.009.035.017l.595,5.6s-.008.052-.034.069l-4.375,3.063s-.035,0-.035-.017l-.207-4.953s.009-.06.026-.069l3.987-3.693.008-.017Z" style="fill:#92b6da;"/></g><g style="opacity:.5;"><path d="M168.583,214.949s.035,0,.026.026l-1.795,5.341s-.034.044-.06.052l-5.255.958s-.035-.009-.026-.035l1.881-4.59s.034-.043.06-.052l5.169-1.691v-.009Z" style="fill:#92b6da;"/></g><g style="opacity:.5;"><path d="M157.633,213.078s.035,0,.026.026l-1.795,5.341s-.034.043-.06.052l-5.255.958s-.035-.009-.026-.035l1.881-4.59s.034-.043.06-.052l5.169-1.691v-.009Z" style="fill:#92b6da;"/></g><g style="opacity:.5;"><path d="M158.185,203.381s.018-.034.035-.017l4.47,3.426s.034.043.026.069l-.794,5.281s-.018.026-.043.017l-3.737-3.262s-.034-.051-.034-.069l.069-5.436.008-.009Z" style="fill:#92b6da;"/></g><g style="opacity:.5;"><path d="M156.365,191.626s.034-.008.034.018l.596,5.6s-.009.052-.035.069l-4.375,3.063s-.034,0-.034-.017l-.207-4.953s.008-.061.025-.069l3.987-3.693.009-.018Z" style="fill:#92b6da;"/></g><g style="opacity:.5;"><path d="M146.174,211.395s.034,0,.026.025l-1.795,5.342s-.035.043-.06.051l-5.255.958s-.035-.008-.026-.034l1.881-4.591s.034-.043.06-.052l5.169-1.691v-.008Z" style="fill:#92b6da;"/></g><g style="opacity:.5;"><path d="M146.718,201.706s.017-.035.034-.018l4.47,3.426s.034.043.026.069l-.794,5.281s-.017.026-.043.017l-3.737-3.261s-.034-.052-.034-.069l.069-5.437.009-.008Z" style="fill:#92b6da;"/></g><g style="opacity:.5;"><path d="M144.905,189.951s.035-.009.035.017l.595,5.6s-.008.052-.034.069l-4.375,3.063s-.035,0-.035-.017l-.207-4.953s.009-.06.026-.069l3.987-3.693.008-.017Z" style="fill:#92b6da;"/></g><g style="opacity:.5;"><path d="M135.215,209.523s.035,0,.026.026l-1.795,5.342s-.034.043-.06.051l-5.255.958s-.035-.008-.026-.034l1.881-4.591s.035-.043.06-.052l5.169-1.691v-.009Z" style="fill:#92b6da;"/></g><g style="opacity:.5;"><path d="M135.767,199.823s.018-.035.035-.017l4.47,3.425s.034.043.026.069l-.794,5.281s-.018.026-.043.017l-3.737-3.261s-.034-.052-.034-.069l.069-5.436.008-.009Z" style="fill:#92b6da;"/></g><g style="opacity:.5;"><path d="M133.955,188.072s.035-.009.035.017l.595,5.6s-.009.052-.034.069l-4.375,3.063s-.035,0-.035-.017l-.207-4.953s.009-.06.026-.069l3.987-3.693.008-.017Z" style="fill:#92b6da;"/></g><g style="opacity:.5;"><path d="M123.764,208.023s.035,0,.026.026l-1.794,5.342s-.035.043-.061.051l-5.255.958s-.034-.008-.026-.034l1.881-4.591s.035-.043.061-.052l5.168-1.691v-.009Z" style="fill:#92b6da;"/></g><g style="opacity:.5;"><path d="M124.317,198.323s.017-.035.034-.017l4.47,3.425s.035.043.026.069l-.794,5.281s-.017.026-.043.017l-3.736-3.261s-.035-.052-.035-.069l.069-5.437.009-.008Z" style="fill:#92b6da;"/></g><g style="opacity:.5;"><path d="M122.496,186.572s.034-.009.034.017l.596,5.6s-.009.052-.035.069l-4.375,3.063s-.034,0-.034-.017l-.207-4.953s.008-.06.026-.069l3.986-3.693.009-.017Z" style="fill:#92b6da;"/></g><g style="opacity:.5;"><path d="M112.815,206.141s.034,0,.025.026l-1.794,5.341s-.035.043-.061.052l-5.255.957s-.034-.008-.026-.034l1.881-4.591s.035-.043.061-.051l5.169-1.692v-.008Z" style="fill:#92b6da;"/></g><g style="opacity:.5;"><path d="M113.358,196.44s.017-.034.034-.017l4.47,3.425s.035.044.026.07l-.794,5.28s-.017.026-.043.018l-3.736-3.262s-.035-.052-.035-.069l.069-5.436.009-.009Z" style="fill:#92b6da;"/></g><g style="opacity:.5;"><path d="M149.298,359.727s.034,0,.026.025l-1.795,5.342s-.035.043-.061.052l-5.255.957s-.034-.008-.026-.034l1.882-4.591s.034-.043.06-.052l5.169-1.691v-.008Z" style="fill:#92b6da;"/></g><g style="opacity:.5;"><path d="M149.85,350.038s.017-.035.034-.018l4.47,3.426s.035.043.026.069l-.794,5.281s-.017.026-.043.017l-3.736-3.261s-.035-.052-.035-.069l.069-5.437.009-.008Z" style="fill:#92b6da;"/></g><g style="opacity:.5;"><path d="M148.038,338.279s.034-.009.034.017l.596,5.6s-.009.052-.035.069l-4.375,3.063s-.034,0-.034-.017l-.207-4.953s.008-.06.025-.069l3.987-3.693.009-.017Z" style="fill:#92b6da;"/></g><g style="opacity:.5;"><path d="M138.347,357.848s.035,0,.026.026l-1.794,5.341s-.035.043-.061.052l-5.255.957s-.034-.008-.026-.034l1.881-4.591s.035-.043.061-.051l5.168-1.692v-.008Z" style="fill:#92b6da;"/></g><g style="opacity:.5;"><path d="M138.9,348.159s.017-.035.034-.017l4.47,3.425s.034.043.026.069l-.794,5.281s-.017.026-.043.017l-3.736-3.261s-.035-.052-.035-.069l.069-5.437.009-.008Z" style="fill:#92b6da;"/></g><g style="opacity:.5;"><path d="M137.079,336.404s.034-.009.034.017l.596,5.6s-.009.052-.035.069l-4.375,3.063s-.034,0-.034-.017l-.207-4.953s.008-.06.026-.069l3.986-3.693.009-.017Z" style="fill:#92b6da;"/></g><g style="opacity:.5;"><path d="M123.264,327.539s.034,0,.026.026l-1.795,5.341s-.034.043-.06.052l-5.255.958s-.035-.009-.026-.035l1.881-4.59s.034-.043.06-.052l5.169-1.691v-.009Z" style="fill:#92b6da;"/></g><g style="opacity:.5;"><path d="M123.816,317.842s.018-.034.035-.017l4.47,3.426s.034.043.026.069l-.794,5.281s-.018.026-.043.017l-3.737-3.262s-.034-.051-.034-.069l.069-5.436.008-.009Z" style="fill:#92b6da;"/></g><g style="opacity:.5;"><path d="M122.004,306.087s.034-.008.034.018l.596,5.6s-.009.052-.035.069l-4.374,3.063s-.035,0-.035-.017l-.207-4.953s.009-.061.026-.069l3.986-3.693.009-.018Z" style="fill:#92b6da;"/></g><g style="opacity:.5;"><path d="M112.314,325.66s.035,0,.026.026l-1.795,5.341s-.034.043-.06.052l-5.255.958s-.035-.009-.026-.035l1.881-4.59s.034-.043.06-.052l5.169-1.691v-.009Z" style="fill:#92b6da;"/></g><g style="opacity:.5;"><path d="M112.866,315.96s.017-.035.034-.018l4.47,3.426s.035.043.026.069l-.794,5.281s-.017.026-.043.017l-3.736-3.262s-.035-.051-.035-.069l.069-5.436.009-.008Z" style="fill:#92b6da;"/></g><g style="opacity:.5;"><path d="M111.045,304.208s.035-.008.035.018l.595,5.6s-.008.052-.034.069l-4.375,3.063s-.034,0-.034-.017l-.208-4.953s.009-.061.026-.069l3.987-3.693.008-.018Z" style="fill:#92b6da;"/></g><g style="opacity:.5;"><path d="M146.019,330.898s.034,0,.025.026l-1.794,5.342s-.035.043-.061.051l-5.255.958s-.034-.008-.026-.034l1.881-4.591s.035-.043.061-.052l5.169-1.691v-.009Z" style="fill:#92b6da;"/></g><g style="opacity:.5;"><path d="M144.75,309.455s.035-.009.035.017l.595,5.6s-.009.052-.035.069l-4.374,3.063s-.035,0-.035-.017l-.207-4.953s.009-.06.026-.069l3.986-3.693.009-.017Z" style="fill:#92b6da;"/></g><g style="opacity:.5;"><path d="M135.068,329.016s.035,0,.026.026l-1.795,5.341s-.034.043-.06.052l-5.255.957s-.034-.008-.026-.034l1.881-4.591s.035-.043.061-.051l5.168-1.692v-.008Z" style="fill:#92b6da;"/></g><g style="opacity:.5;"><path d="M135.612,319.327s.017-.035.035-.017l4.469,3.425s.035.043.026.069l-.794,5.281s-.017.026-.043.017l-3.736-3.261s-.035-.052-.035-.069l.069-5.437.009-.008Z" style="fill:#92b6da;"/></g><g style="opacity:.5;"><path d="M133.8,307.576s.034-.009.034.017l.596,5.6s-.009.052-.035.069l-4.375,3.063s-.034,0-.034-.017l-.207-4.953s.008-.06.026-.069l3.986-3.693.009-.017Z" style="fill:#92b6da;"/></g><g style="opacity:.5;"><path d="M126.474,348.569s.017-.035.035-.017l4.469,3.425s.035.044.026.069l-.794,5.281s-.017.026-.043.018l-3.736-3.262s-.035-.052-.035-.069l.07-5.436.008-.009Z" style="fill:#92b6da;"/></g><g style="opacity:.5;"><path d="M124.653,336.818s.035-.009.035.017l.595,5.6s-.009.052-.034.069l-4.375,3.064s-.035,0-.035-.018l-.207-4.953s.009-.06.026-.069l3.987-3.693.008-.017Z" style="fill:#92b6da;"/></g><g style="opacity:.5;"><path d="M115.515,346.698s.017-.035.035-.017l4.469,3.425s.035.043.026.069l-.794,5.281s-.017.026-.043.017l-3.736-3.261s-.034-.052-.034-.069l.069-5.436.008-.009Z" style="fill:#92b6da;"/></g><g style="opacity:.5;"><path d="M113.703,334.943s.035-.009.035.017l.595,5.6s-.009.052-.034.069l-4.375,3.064s-.035,0-.035-.018l-.207-4.953s.009-.06.026-.069l3.987-3.693.008-.017Z" style="fill:#92b6da;"/></g><g style="opacity:.5;"><path d="M171.422,364.988s.034,0,.026.026l-1.795,5.341s-.035.044-.06.052l-5.255.958s-.035-.009-.026-.034l1.881-4.591s.034-.043.06-.052l5.169-1.691v-.009Z" style="fill:#92b6da;"/></g><g style="opacity:.5;"><path d="M160.472,363.109s.034,0,.026.026l-1.795,5.342s-.034.043-.06.051l-5.255.958s-.035-.008-.026-.034l1.881-4.591s.034-.043.06-.052l5.169-1.691v-.009Z" style="fill:#92b6da;"/></g><g style="opacity:.5;"><path d="M161.024,353.421s.017-.035.035-.018l4.469,3.426s.035.043.026.069l-.793,5.281s-.018.026-.044.017l-3.736-3.262s-.034-.051-.034-.069l.069-5.436.008-.008Z" style="fill:#92b6da;"/></g><g style="opacity:.5;"><path d="M159.203,341.665s.035-.008.035.018l.595,5.6s-.008.052-.034.069l-4.375,3.063s-.035,0-.035-.017l-.207-4.953s.009-.06.026-.069l3.987-3.693.008-.018Z" style="fill:#92b6da;"/></g><g style="opacity:.5;"><path d="M164.122,281.427s.034-.008.034.017l.596,5.601s-.009.051-.035.069l-4.375,3.063s-.034,0-.034-.017l-.207-4.953s.008-.061.026-.069l3.986-3.694.009-.017Z" style="fill:#92b6da;"/></g><g style="opacity:.5;"><path d="M154.432,300.996s.034,0,.026.026l-1.795,5.341s-.035.043-.061.052l-5.255.958s-.034-.009-.026-.035l1.882-4.59s.034-.043.06-.052l5.169-1.691v-.009Z" style="fill:#92b6da;"/></g><g style="opacity:.5;"><path d="M154.975,291.307s.017-.034.035-.017l4.469,3.426s.035.043.026.069l-.794,5.281s-.017.025-.043.017l-3.736-3.262s-.035-.052-.035-.069l.069-5.436.009-.009Z" style="fill:#92b6da;"/></g><g style="opacity:.5;"><path d="M153.163,279.552s.035-.008.035.017l.595,5.601s-.009.051-.034.069l-4.375,3.063s-.035,0-.035-.017l-.207-4.953s.009-.061.026-.069l3.987-3.694.008-.017Z" style="fill:#92b6da;"/></g><g style="opacity:.5;"><path d="M142.964,299.324s.034,0,.026.026l-1.795,5.341s-.035.044-.06.052l-5.255.958s-.035-.009-.026-.035l1.881-4.59s.034-.043.06-.052l5.169-1.691v-.009Z" style="fill:#92b6da;"/></g><g style="opacity:.5;"><path d="M143.516,289.635s.017-.034.035-.017l4.469,3.426s.035.043.026.069l-.794,5.281s-.017.026-.043.017l-3.736-3.262s-.035-.052-.035-.069l.069-5.436.009-.009Z" style="fill:#92b6da;"/></g><g style="opacity:.5;"><path d="M141.704,277.876s.034-.008.034.018l.596,5.6s-.009.052-.035.069l-4.375,3.063s-.034,0-.034-.017l-.207-4.953s.008-.061.026-.069l3.986-3.693.009-.018Z" style="fill:#92b6da;"/></g><g style="opacity:.5;"><path d="M132.014,297.445s.034,0,.026.026l-1.795,5.342s-.035.043-.061.051l-5.255.958s-.034-.009-.026-.034l1.882-4.591s.034-.043.06-.052l5.169-1.691v-.009Z" style="fill:#92b6da;"/></g><g style="opacity:.5;"><path d="M132.566,287.756s.017-.034.035-.017l4.469,3.426s.035.043.026.069l-.794,5.281s-.017.026-.043.017l-3.736-3.262s-.034-.051-.034-.069l.069-5.436.008-.009Z" style="fill:#92b6da;"/></g><g style="opacity:.5;"><path d="M130.745,276.001s.035-.008.035.018l.595,5.6s-.009.052-.034.069l-4.375,3.063s-.035,0-.035-.017l-.207-4.953s.009-.061.026-.069l3.987-3.693.008-.018Z" style="fill:#92b6da;"/></g><g style="opacity:.5;"><path d="M120.563,295.941s.035,0,.026.026l-1.795,5.342s-.034.043-.06.051l-5.255.958s-.035-.008-.026-.034l1.881-4.591s.035-.043.061-.052l5.168-1.691v-.009Z" style="fill:#92b6da;"/></g><g style="opacity:.5;"><path d="M121.107,286.253s.017-.035.034-.018l4.47,3.426s.035.043.026.069l-.794,5.281s-.017.026-.043.017l-3.736-3.262s-.035-.051-.035-.069l.069-5.436.009-.008Z" style="fill:#92b6da;"/></g><g style="opacity:.5;"><path d="M119.295,274.49s.034-.009.034.017l.596,5.6s-.009.052-.035.069l-4.375,3.063s-.034,0-.034-.017l-.207-4.953s.008-.06.026-.069l3.986-3.693.009-.017Z" style="fill:#92b6da;"/></g><g style="opacity:.5;"><path d="M109.605,294.059s.034,0,.025.025l-1.794,5.342s-.035.043-.061.052l-5.255.957s-.034-.008-.026-.034l1.881-4.591s.035-.043.061-.052l5.169-1.691v-.008Z" style="fill:#92b6da;"/></g><g style="opacity:.5;"><path d="M110.157,284.37s.017-.035.034-.018l4.47,3.426s.035.043.026.069l-.794,5.281s-.017.026-.043.017l-3.736-3.261s-.035-.052-.035-.069l.069-5.437.009-.008Z" style="fill:#92b6da;"/></g><g style="opacity:.5;"><path d="M108.345,272.619s.034-.009.034.017l.595,5.6s-.008.052-.034.069l-4.375,3.063s-.034,0-.034-.017l-.208-4.953s.009-.06.026-.069l3.987-3.693.009-.017Z" style="fill:#92b6da;"/></g></g><g style="opacity:.5;"><g style="opacity:.5;"><path d="M114.256,145.208s-.035.017-.035,0l-1.614-5.402s0-.052.018-.069l3.736-3.805s.035-.009.043.008l1.113,4.833s0,.06-.017.077l-3.244,4.367v-.009Z" style="fill:#92b6da;"/></g><g style="opacity:.5;"><path d="M119.398,153.449s0,.034-.017.034l-5.626-.216s-.052-.017-.06-.043l-2.399-4.772s0-.034.026-.034l4.936.5s.051.018.069.044l3.08,4.478-.009.009Z" style="fill:#92b6da;"/></g><g style="opacity:.5;"><path d="M127.656,161.998s-.026.026-.034.009l-3.719-4.229s-.026-.051-.018-.069l1.804-5.022s.026-.026.043,0l3.029,3.926s.026.052.017.078l-1.13,5.324.008-.017Z" style="fill:#92b6da;"/></g><g style="opacity:.5;"><path d="M124.282,140.427s-.034.017-.034,0l-1.614-5.402s0-.052.017-.069l3.737-3.805s.034-.009.043.008l1.113,4.832s0,.061-.017.078l-3.245,4.366v-.008Z" style="fill:#92b6da;"/></g><g style="opacity:.5;"><path d="M129.425,148.656s0,.034-.017.034l-5.626-.216s-.052-.017-.06-.043l-2.399-4.771s0-.035.026-.035l4.935.5s.052.018.069.044l3.081,4.478-.009.009Z" style="fill:#92b6da;"/></g><g style="opacity:.5;"><path d="M137.692,157.209s-.026.026-.035.008l-3.719-4.228s-.026-.051-.017-.069l1.803-5.022s.026-.026.044,0l3.028,3.926s.026.052.018.078l-1.131,5.324.009-.017Z" style="fill:#92b6da;"/></g><g style="opacity:.5;"><path d="M133.567,166.868s-.034.017-.034,0l-1.614-5.402s0-.051.017-.069l3.737-3.805s.034-.009.043.009l1.113,4.832s0,.06-.017.077l-3.245,4.367v-.009Z" style="fill:#92b6da;"/></g><g style="opacity:.5;"><path d="M138.71,175.097s0,.035-.018.035l-5.626-.216s-.051-.017-.06-.043l-2.399-4.772s0-.035.026-.035l4.936.501s.052.017.069.043l3.08,4.478-.008.009Z" style="fill:#92b6da;"/></g><g style="opacity:.5;"><path d="M146.976,183.65s-.026.026-.034.009l-3.719-4.228s-.026-.052-.018-.069l1.804-5.022s.026-.026.043,0l3.029,3.926s.026.052.017.077l-1.13,5.324.008-.017Z" style="fill:#92b6da;"/></g><g style="opacity:.5;"><path d="M143.594,162.075s-.035.017-.035,0l-1.613-5.402s0-.051.017-.069l3.736-3.805s.035-.009.044.009l1.113,4.832s0,.06-.018.078l-3.244,4.366v-.009Z" style="fill:#92b6da;"/></g><g style="opacity:.5;"><path d="M148.745,170.308s0,.035-.017.035l-5.626-.216s-.052-.017-.061-.043l-2.398-4.772s0-.035.025-.035l4.936.501s.052.017.069.043l3.081,4.478-.009.009Z" style="fill:#92b6da;"/></g><g style="opacity:.5;"><path d="M157.003,178.857s-.026.026-.034.009l-3.719-4.228s-.026-.052-.018-.069l1.804-5.022s.026-.026.043,0l3.029,3.926s.025.052.017.077l-1.131,5.325.009-.018Z" style="fill:#92b6da;"/></g><g style="opacity:.5;"><path d="M134.188,132.911s-.034.017-.034,0l-1.614-5.402s0-.051.017-.069l3.737-3.805s.034-.009.043.009l1.113,4.832s0,.06-.017.077l-3.245,4.367v-.009Z" style="fill:#92b6da;"/></g><g style="opacity:.5;"><path d="M139.331,141.144s0,.034-.017.034l-5.626-.215s-.052-.018-.061-.043l-2.398-4.772s0-.035.025-.035l4.936.501s.052.017.069.043l3.081,4.478-.009.009Z" style="fill:#92b6da;"/></g><g style="opacity:.5;"><path d="M147.598,149.701s-.026.026-.035.009l-3.719-4.229s-.026-.051-.017-.069l1.803-5.022s.026-.025.043,0l3.029,3.927s.026.051.017.077l-1.13,5.324.009-.017Z" style="fill:#92b6da;"/></g><g style="opacity:.5;"><path d="M144.224,128.13s-.035.017-.035,0l-1.613-5.402s0-.052.017-.069l3.736-3.805s.035-.009.043.008l1.114,4.833s0,.06-.018.077l-3.244,4.366v-.008Z" style="fill:#92b6da;"/></g><g style="opacity:.5;"><path d="M149.367,136.363s0,.034-.018.034l-5.626-.216s-.051-.017-.06-.043l-2.399-4.771s0-.035.026-.035l4.936.5s.052.018.069.044l3.08,4.478-.008.009Z" style="fill:#92b6da;"/></g><g style="opacity:.5;"><path d="M157.624,144.912s-.025.026-.034.009l-3.719-4.229s-.026-.051-.017-.069l1.803-5.022s.026-.026.043,0l3.029,3.927s.026.051.017.077l-1.13,5.324.008-.017Z" style="fill:#92b6da;"/></g><g style="opacity:.5;"><path d="M114.186,175.888s-.034.017-.034,0l-1.614-5.402s0-.052.018-.069l3.736-3.805s.034-.009.043.008l1.113,4.832s0,.061-.017.078l-3.245,4.366v-.008Z" style="fill:#92b6da;"/></g><g style="opacity:.5;"><path d="M119.329,184.132s0,.035-.017.035l-5.626-.216s-.052-.017-.06-.043l-2.399-4.772s0-.034.026-.034l4.935.5s.052.017.069.043l3.081,4.479-.009.008Z" style="fill:#92b6da;"/></g><g style="opacity:.5;"><path d="M127.596,192.681s-.026.026-.035.009l-3.719-4.228s-.026-.052-.017-.069l1.803-5.022s.026-.026.044,0l3.028,3.926s.026.052.018.078l-1.131,5.324.009-.018Z" style="fill:#92b6da;"/></g><g style="opacity:.5;"><path d="M124.213,171.11s-.034.018-.034,0l-1.614-5.401s0-.052.017-.069l3.737-3.806s.034-.008.043.009l1.113,4.832s0,.06-.017.078l-3.245,4.366v-.009Z" style="fill:#92b6da;"/></g><g style="opacity:.5;"><path d="M129.356,179.339s0,.035-.017.035l-5.626-.216s-.052-.017-.06-.043l-2.399-4.772s0-.034.026-.034l4.935.5s.052.017.069.043l3.081,4.479-.009.008Z" style="fill:#92b6da;"/></g><g style="opacity:.5;"><path d="M137.623,187.892s-.026.026-.035.009l-3.719-4.228s-.026-.052-.017-.069l1.803-5.022s.026-.026.043,0l3.029,3.926s.026.052.017.078l-1.13,5.324.009-.018Z" style="fill:#92b6da;"/></g><g style="opacity:.5;"><path d="M106.55,170.463s-.026.026-.035.008l-3.719-4.228s-.026-.052-.017-.069l1.804-5.022s.025-.026.043,0l3.028,3.926s.026.052.018.078l-1.131,5.324.009-.017Z" style="fill:#92b6da;"/></g><g style="opacity:.5;"><path d="M103.176,148.892s-.035.017-.035,0l-1.613-5.402s0-.052.017-.069l3.736-3.806s.035-.008.044.009l1.113,4.832s0,.061-.018.078l-3.244,4.366v-.008Z" style="fill:#92b6da;"/></g><g style="opacity:.5;"><path d="M108.319,157.121s0,.034-.017.034l-5.626-.216s-.052-.017-.061-.043l-2.399-4.772s0-.034.026-.034l4.936.5s.052.018.069.043l3.08,4.479-.008.009Z" style="fill:#92b6da;"/></g><g style="opacity:.5;"><path d="M116.585,165.681s-.026.026-.034.009l-3.719-4.228s-.026-.052-.018-.069l1.804-5.022s.026-.026.043,0l3.029,3.926s.025.052.017.078l-1.131,5.324.009-.018Z" style="fill:#92b6da;"/></g><g style="opacity:.5;"><path d="M79.5414,88.3416s-.0259.0259-.0345.0087l-3.7191-4.2282s-.0259-.0518-.0172-.069l1.8034-5.0221s.0259-.0259.0431,0l3.0288,3.9262s.0259.0518.0173.0777l-1.1304,5.324.0086-.0173Z" style="fill:#92b6da;"/></g><g style="opacity:.5;"><path d="M76.1674,66.7587s-.0345.0173-.0345,0l-1.6136-5.4017s0-.0518.0172-.069l3.7364-3.8054s.0345-.0086.0431.0087l1.1131,4.8322s0,.0604-.0172.0776l-3.2445,4.3662v-.0086Z" style="fill:#92b6da;"/></g><g style="opacity:.5;"><path d="M81.3101,75.0033s0,.0345-.0173.0345l-5.626-.2157s-.0518-.0172-.0604-.0431l-2.3989-4.7718s0-.0345.0259-.0345l4.9357.5004s.0518.0173.0691.0432l3.0805,4.4784-.0086.0086Z" style="fill:#92b6da;"/></g><g style="opacity:.5;"><path d="M89.5766,83.5526s-.0259.0259-.0346.0086l-3.719-4.2282s-.0259-.0517-.0173-.069l1.8035-5.022s.0258-.0259.0431,0l3.0288,3.9261s.0258.0518.0172.0777l-1.1304,5.324.0087-.0172Z" style="fill:#92b6da;"/></g><g style="opacity:.5;"><path d="M105.972,82.8173s-.035.0173-.035,0l-1.614-5.4017s0-.0518.018-.069l3.736-3.8054s.035-.0086.043.0086l1.113,4.8322s0,.0605-.017.0777l-3.244,4.3662v-.0086Z" style="fill:#92b6da;"/></g><g style="opacity:.5;"><path d="M111.115,91.0502s0,.0345-.018.0345l-5.626-.2157s-.052-.0173-.06-.0432l-2.399-4.7717s0-.0346.026-.0346l4.936.5005s.051.0173.069.0432l3.08,4.4784-.008.0086Z" style="fill:#92b6da;"/></g><g style="opacity:.5;"><path d="M119.381,99.6112s-.026.0259-.035.0086l-3.719-4.2282s-.025-.0517-.017-.069l1.804-5.022s.025-.0259.043,0l3.029,3.9261s.025.0518.017.0777l-1.131,5.324.009-.0172Z" style="fill:#92b6da;"/></g><g style="opacity:.5;"><path d="M116.007,78.0283s-.035.0172-.035,0l-1.613-5.4018s0-.0517.017-.069l3.736-3.8053s.035-.0087.044.0086l1.113,4.8322s0,.0604-.018.0776l-3.244,4.3663v-.0086Z" style="fill:#92b6da;"/></g><g style="opacity:.5;"><path d="M121.15,86.2689s0,.0346-.017.0346l-5.626-.2158s-.052-.0172-.061-.0431l-2.399-4.7718s0-.0345.026-.0345l4.936.5005s.052.0172.069.0431l3.081,4.4784-.009.0086Z" style="fill:#92b6da;"/></g><g style="opacity:.5;"><path d="M129.408,94.8221s-.026.0259-.035.0086l-3.719-4.2281s-.026-.0518-.017-.0691l1.803-5.022s.026-.0259.044,0l3.028,3.9262s.026.0517.018.0776l-1.131,5.3241.009-.0173Z" style="fill:#92b6da;"/></g><g style="opacity:.5;"><path d="M85.4521,93.2001s-.0345.0173-.0345,0l-1.6136-5.4017s0-.0518.0172-.069l3.7363-3.8054s.0346-.0086.0432.0087l1.1131,4.8322s0,.0604-.0172.0776l-3.2445,4.3662v-.0086Z" style="fill:#92b6da;"/></g><g style="opacity:.5;"><path d="M98.8615,109.994s-.0259.026-.0345.009l-3.7191-4.229s-.0259-.051-.0173-.069l1.8035-5.022s.0259-.026.0431,0l3.0288,3.927s.0259.051.0172.077l-1.1304,5.324.0087-.017Z" style="fill:#92b6da;"/></g><g style="opacity:.5;"><path d="M95.4789,88.4189s-.0345.0172-.0345,0l-1.6136-5.4017s0-.0518.0173-.0691l3.7363-3.8053s.0345-.0086.0431.0086l1.1132,4.8322s0,.0604-.0173.0777l-3.2445,4.3662v-.0086Z" style="fill:#92b6da;"/></g><g style="opacity:.5;"><path d="M100.63,96.6518s0,.0345-.017.0345l-5.6259-.2158s-.0518-.0172-.0604-.0431l-2.3989-4.7718s0-.0345.0259-.0345l4.9358.5005s.0517.0172.069.0431l3.0805,4.4784-.009.0087Z" style="fill:#92b6da;"/></g><g style="opacity:.5;"><path d="M108.888,105.205s-.026.026-.034.009l-3.719-4.229s-.026-.051-.018-.069l1.804-5.0217s.026-.0259.043,0l3.029,3.9262s.026.0518.017.0776l-1.13,5.3239.008-.017Z" style="fill:#92b6da;"/></g><g style="opacity:.5;"><path d="M91.2161,67.4838s0,.0345-.0173.0345l-5.626-.2157s-.0518-.0173-.0604-.0432l-2.3989-4.7718s0-.0345.0259-.0345l4.9358.5005s.0517.0173.069.0431l3.0805,4.4785-.0086.0086Z" style="fill:#92b6da;"/></g><g style="opacity:.5;"><path d="M99.4826,76.037s-.0259.0258-.0346.0086l-3.719-4.2282s-.0259-.0518-.0173-.069l1.8035-5.0221s.0259-.0258.0431,0l3.0287,3.9262s.026.0518.017.0777l-1.1301,5.324.0087-.0172Z" style="fill:#92b6da;"/></g><g style="opacity:.5;"><path d="M101.251,62.7064s0,.0346-.017.0346l-5.6258-.2158s-.0518-.0172-.0604-.0431l-2.3989-4.7718s0-.0345.0259-.0345l4.9358.5005s.0517.0172.069.0431l3.0804,4.4784-.009.0086Z" style="fill:#92b6da;"/></g><g style="opacity:.5;"><path d="M109.51,71.2557s-.026.0259-.035.0086l-3.719-4.2281s-.026-.0518-.017-.0691l1.803-5.022s.026-.0259.043,0l3.029,3.9262s.026.0517.017.0776l-1.13,5.3241.009-.0173Z" style="fill:#92b6da;"/></g><g style="opacity:.5;"><path d="M99.2067,144.049s-.0259.026-.0345.008l-3.7191-4.228s-.0259-.052-.0173-.069l1.8035-5.022s.0259-.026.0431,0l3.0286,3.926s.026.052.017.078l-1.1299,5.324.0086-.017Z" style="fill:#92b6da;"/></g><g style="opacity:.5;"><path d="M95.8327,122.477s-.0345.018-.0345,0l-1.6136-5.401s0-.052.0172-.069l3.7364-3.806s.0345-.008.0431.009l1.1131,4.832s0,.061-.0172.078l-3.2445,4.366v-.009Z" style="fill:#92b6da;"/></g><g style="opacity:.5;"><path d="M100.976,130.71s0,.035-.018.035l-5.6257-.216s-.0518-.017-.0604-.043l-2.3989-4.772s0-.034.0259-.034l4.9358.5s.0518.017.069.043l3.0803,4.479-.008.008Z" style="fill:#92b6da;"/></g><g style="opacity:.5;"><path d="M109.242,139.26s-.026.026-.034.008l-3.719-4.228s-.026-.052-.018-.069l1.804-5.022s.026-.026.043,0l3.029,3.926s.025.052.017.078l-1.131,5.324.009-.017Z" style="fill:#92b6da;"/></g><g style="opacity:.5;"><path d="M106.162,117.231s-.035.018-.035,0l-1.614-5.401s0-.052.018-.069l3.736-3.806s.035-.008.043.009l1.113,4.832s0,.061-.017.078l-3.244,4.366v-.009Z" style="fill:#92b6da;"/></g><g style="opacity:.5;"><path d="M111.304,125.464s0,.035-.017.035l-5.626-.216s-.052-.017-.061-.043l-2.398-4.772s0-.034.026-.034l4.935.5s.052.017.069.043l3.081,4.479-.009.008Z" style="fill:#92b6da;"/></g><g style="opacity:.5;"><path d="M119.571,134.017s-.026.026-.035.009l-3.719-4.228s-.026-.052-.017-.069l1.803-5.022s.026-.026.043,0l3.029,3.926s.026.052.017.078l-1.13,5.324.009-.018Z" style="fill:#92b6da;"/></g><g style="opacity:.5;"><path d="M116.188,112.442s-.034.018-.034,0l-1.614-5.401s0-.052.017-.069l3.737-3.806s.034-.008.043.009l1.113,4.832s0,.06-.017.078l-3.245,4.366v-.009Z" style="fill:#92b6da;"/></g><g style="opacity:.5;"><path d="M121.34,120.675s0,.035-.018.035l-5.626-.216s-.051-.017-.06-.043l-2.399-4.772s0-.034.026-.034l4.936.5s.051.017.069.043l3.08,4.479-.008.008Z" style="fill:#92b6da;"/></g><g style="opacity:.5;"><path d="M129.598,129.236s-.026.026-.035.009l-3.719-4.228s-.026-.052-.017-.069l1.803-5.022s.026-.026.044,0l3.028,3.926s.026.052.018.077l-1.131,5.324.009-.017Z" style="fill:#92b6da;"/></g><g style="opacity:.5;"><path d="M126.414,107.067s-.035.018-.035,0l-1.614-5.401s0-.052.018-.069l3.736-3.8058s.034-.0086.043.0087l1.113,4.8321s0,.06-.017.078l-3.244,4.366v-.009Z" style="fill:#92b6da;"/></g><g style="opacity:.5;"><path d="M131.556,115.296s0,.035-.017.035l-5.626-.216s-.052-.017-.06-.043l-2.399-4.772s0-.034.026-.034l4.935.5s.052.017.07.043l3.08,4.479-.009.008Z" style="fill:#92b6da;"/></g><g style="opacity:.5;"><path d="M139.823,123.849s-.026.026-.035.009l-3.719-4.228s-.026-.052-.017-.069l1.803-5.022s.026-.026.044,0l3.028,3.926s.026.052.018.078l-1.131,5.324.009-.018Z" style="fill:#92b6da;"/></g><g style="opacity:.5;"><path d="M136.44,102.278s-.034.018-.034,0l-1.614-5.4015s0-.0517.018-.069l3.736-3.8053s.034-.0087.043.0086l1.113,4.8322s0,.0604-.017.0776l-3.245,4.3664v-.009Z" style="fill:#92b6da;"/></g><g style="opacity:.5;"><path d="M141.592,110.507s0,.035-.017.035l-5.627-.216s-.051-.017-.06-.043l-2.399-4.772s0-.034.026-.034l4.936.5s.052.017.069.043l3.08,4.479-.008.008Z" style="fill:#92b6da;"/></g><g style="opacity:.5;"><path d="M149.85,119.072s-.026.026-.035.009l-3.719-4.228s-.026-.052-.017-.069l1.803-5.022s.026-.026.043,0l3.029,3.926s.026.051.017.077l-1.13,5.324.009-.017Z" style="fill:#92b6da;"/></g></g><g style="mask:url(#b);"><path d="M83.3901,78.1905l.0604,7.1189c.0604,7.3691,4.789,13.2971,10.5532,13.2453l5.4534-.0517c4.7459-.0432,8.9139,4.004,10.1819,9.846,3.616,16.662,9.924,53.559,9.009,104.936-1.208,67.944-27.3279,124.006-30.8485,130.141-.1899.337-.3624.665-.5264,1.019L11.537,461.824c-.7679,1.225-3.8743,9.526-4.2713,11.01-.7162,2.71-.7248,5.678,0,8.439,7.9128,30.202,56.8646,193.659,113.5133,195.411,80.767,2.502,116.75,2.485,123.489-1.579.794-.475,1.51-1.061,2.183-1.778,9.526-10.095,74.528-104.013,87.048-199.405.389-2.977-.474-5.989-1.82-8.474-22.272-41.151-68.074-91.13-85.815-129.624-18.336-39.77-29.787-100.725-29.977-122.505-.147-16.973.061-78.117.915-104.28.224-6.826,4.452-12.305,9.794-12.6933,6.187-.4487,11.398-7.3,11.571-15.2214l.06-2.7353c.164-7.5331-4.59-13.7718-10.484-13.7718l-133.9551.1208c-5.79,0-10.4496,6.0316-10.3806,13.4352l-.0172.0173Z" style="fill:#c59b6d; stroke:#c59b6d; stroke-miterlimit:10; stroke-width:9px;"/></g><path d="M187.451,558.04c-3.934,4.063-9.244,4.349-13.16.48-8.099-8.007-10.768-19.864-12.494-31.537-12.837-2.881-29.46-5.495-34.927-17.518-.886-13.114,21.85-18.839,34.936-20.585,1.163-10.038,3.721-19.495,8.948-27.945,1.967-3.176,4.784-5.744,8.432-6.584,4.802-.619,8.33,2.364,10.925,6.27,5.513,8.293,7.858,17.972,9.391,28.204,11.775,1.985,26.569,5.079,33.514,14.461,2.114,3.399,1.653,6.871-.794,9.882-7.148,8.791-21.444,11.377-32.83,13.713-1.441,10.805-4.618,23.586-11.941,31.15v.009Z" style="fill:#603813;"/><rect x="94.3076" y="577.797" width="15.9762" height=".1016" style="fill:#215523; stroke:#41810b; stroke-width:.1016px;"/><rect x="94.5403" y="577.686" width="15.6811" height=".1368" style="fill:#215523; stroke:#41810b; stroke-width:.1368px;"/><line x1="110.0425" y1="577.8544" x2="110.3636" y2="577.6977" style="fill:none; stroke:#41810b; stroke-miterlimit:4; stroke-width:1px;"/><line x1="94.2472" y1="578.1491" x2="94.0473" y2="577.8625" style="fill:none; stroke:#41810b; stroke-miterlimit:4; stroke-width:1px;"/><path d="M83.5886,77.9839l.0604,7.1188c.0604,7.3691,4.789,13.2972,10.5532,13.2454l5.4534-.0518c4.7457-.0431,8.9137,4.0039,10.1817,9.8457,3.616,16.6624,9.924,53.5592,9.009,104.9362-1.208,67.944-27.3277,124.006-30.8483,130.141-.1899.337-.3624.665-.5264,1.019L11.7356,461.6172c-.768,1.225-3.8744,9.526-4.2714,11.01-.7162,2.71-.7248,5.678,0,8.439,7.9128,30.202,56.8646,193.659,113.5131,195.411,80.767,2.502,116.75,2.485,123.489-1.579.794-.475,1.51-1.061,2.183-1.778,9.526-10.095,74.528-104.013,87.049-199.405.388-2.977-.475-5.989-1.821-8.474-22.271-41.151-68.074-91.13-85.815-129.624-18.336-39.77-29.787-100.725-29.977-122.504-.146-16.973.061-78.118.915-104.2809.224-6.8255,4.453-12.3049,9.794-12.6932,6.187-.4487,11.399-7.3,11.571-15.2214l.061-2.7354c.164-7.533-4.591-13.7717-10.484-13.7717l-133.9559.1208c-5.79,0-10.4496,6.0316-10.3805,13.4352l-.0173.0173Z" style="fill:#dcd6cb; stroke:#dcd6cb; stroke-miterlimit:10; stroke-width:9px;"/><path d="M116.5173,120.7309c8.024,27.5608,11.355,56.3473,11.994,84.9953,1.527,71.784-19.148,144.914-63.5437,201.934-8.836,11.321-18.3968,22.046-28.7256,31.961,9.6385-10.579,18.7247-21.633,27.0257-33.221,8.232-11.589,15.8341-23.73,22.4784-36.302,40.0382-75.253,48.3302-166.556,30.7712-249.3673Z" style="fill:#e2e3e2;"/><path d="M303.8674,436.1442c-78.255-69.669-109.889-173.881-95.142-276.358,2.123-14.2981,4.901-28.5531,9.31-42.3248-.914,3.4947-1.674,7.0153-2.381,10.5531-4.901,24.696-7.067,49.9447-6.972,75.0887.345,88.938,32.298,169.809,95.177,233.041h.008Z" style="fill:#e2e3e2;"/><path d="M22.6596,461.1762c-1.7948,8.871-3.279,17.663-.9923,26.508.2502,1.355.7421,2.563.9923,3.943-.5436-.44-1.0441-.923-1.5446-1.423-7.4812-7.861-6.0661-21.745,1.5446-29.028Z" style="fill:#e2e3e2;"/><path d="M316.2073,489.3422c1.338-4.918,2.433-9.983,2.149-15.1-.164-5.195-1.148-10.105-2.149-15.351,8.154,7.731,9.104,23.074,0,30.451Z" style="fill:#e2e3e2;"/><path d="M94.9532,403.7342s52.8612-61.654,121.5472-1.381-121.5472,1.381-121.5472,1.381Z" style="fill:#f7e79d;"/><path d="M38.382,493.4002c6.2991,29.856,21.7363,94.383,43.9126,129.684,4.9875,7.947,12.7622,18.483,21.5727,20.217,37.026,7.292,99.526,4.038,128.898,1.916,10.795-.777,20.572-12.15,26.189-22.03,12.115-21.287,32.186-64.605,42.739-131.815,1.338-8.517-.207-17.275-4.444-24.627-17.197-29.856-41.151-59.54-61.532-78.506-5.359-4.988-12.038-8.18-19.139-8.707-8.845-.656-18.44,1.433-27.889,3.926-15.757,4.168-31.893,6.472-48.124,6.757-19.561.345-38.269,7.222-53.6801,19.277-7.7574,6.066-14.6778,13.444-20.4506,21.96l-22.5214,33.205c-5.6261,8.292-7.6366,18.75-5.5312,28.734v.009Z" style="fill:#efd000;"/><g style="opacity:.5;"><g style="opacity:.5;"><path d="M152.9904,272.0002s.035,0,.026.026l-1.794,5.341s-.035.044-.061.052l-5.255.958s-.034-.009-.026-.035l1.881-4.59s.035-.043.061-.052l5.168-1.691v-.009Z" style="fill:#92b6da;"/></g><g style="opacity:.5;"><path d="M153.5343,262.3042s.017-.035.035-.018l4.469,3.426s.035.043.026.069l-.794,5.281s-.017.026-.043.017l-3.736-3.262s-.035-.051-.035-.069l.069-5.436.009-.008Z" style="fill:#92b6da;"/></g><g style="opacity:.5;"><path d="M151.7223,250.5482s.034-.008.034.018l.596,5.6s-.009.052-.035.069l-4.375,3.063s-.034,0-.034-.017l-.207-4.953s.008-.06.026-.069l3.986-3.693.009-.018Z" style="fill:#92b6da;"/></g><g style="opacity:.5;"><path d="M142.0323,270.1212s.034,0,.026.026l-1.795,5.342s-.035.043-.061.051l-5.255.958s-.034-.009-.026-.034l1.882-4.591s.034-.043.06-.052l5.169-1.691v-.009Z" style="fill:#92b6da;"/></g><g style="opacity:.5;"><path d="M142.5843,260.4212s.017-.035.034-.018l4.47,3.426s.035.043.026.069l-.794,5.281s-.017.026-.043.017l-3.736-3.261s-.035-.052-.035-.069l.069-5.437.009-.008Z" style="fill:#92b6da;"/></g><g style="opacity:.5;"><path d="M140.7723,248.6702s.034-.009.034.017l.596,5.6s-.009.052-.035.069l-4.375,3.063s-.034,0-.034-.017l-.207-4.953s.008-.06.026-.069l3.986-3.693.009-.017Z" style="fill:#92b6da;"/></g><g style="opacity:.5;"><path d="M126.9483,239.8092s.035,0,.026.026l-1.795,5.341s-.034.043-.06.052l-5.255.958s-.034-.009-.026-.035l1.881-4.591s.035-.043.061-.051l5.168-1.692v-.008Z" style="fill:#92b6da;"/></g><g style="opacity:.5;"><path d="M127.5013,230.1202s.017-.035.034-.017l4.47,3.425s.035.044.026.069l-.794,5.281s-.017.026-.043.018l-3.736-3.262s-.035-.052-.035-.069l.069-5.436.009-.009Z" style="fill:#92b6da;"/></g><g style="opacity:.5;"><path d="M125.6893,218.3652s.034-.009.034.017l.595,5.6s-.008.052-.034.069l-4.375,3.064s-.034,0-.034-.018l-.208-4.953s.009-.06.026-.069l3.987-3.693.009-.017Z" style="fill:#92b6da;"/></g><g style="opacity:.5;"><path d="M115.9983,237.9302s.035,0,.026.026l-1.795,5.341s-.034.043-.06.052l-5.255.958s-.035-.009-.026-.035l1.881-4.59s.035-.044.061-.052l5.168-1.691v-.009Z" style="fill:#92b6da;"/></g><g style="opacity:.5;"><path d="M116.5503,228.2412s.018-.034.035-.017l4.47,3.425s.034.044.025.07l-.793,5.28s-.018.026-.044.018l-3.736-3.262s-.034-.052-.034-.069l.069-5.436.008-.009Z" style="fill:#92b6da;"/></g><g style="opacity:.5;"><path d="M114.7393,216.4862s.034-.009.034.017l.595,5.6s-.008.052-.034.069l-4.375,3.064s-.034,0-.034-.018l-.208-4.953s.009-.06.026-.069l3.987-3.693.009-.017Z" style="fill:#92b6da;"/></g><g style="opacity:.5;"><path d="M149.7033,243.1722s.034,0,.026.026l-1.795,5.341s-.035.043-.061.052l-5.255.958s-.034-.009-.026-.035l1.882-4.59s.034-.043.06-.052l5.169-1.691v-.009Z" style="fill:#92b6da;"/></g><g style="opacity:.5;"><path d="M150.2554,233.4752s.017-.034.034-.017l4.47,3.426s.035.043.026.069l-.794,5.281s-.017.026-.043.017l-3.736-3.262s-.035-.051-.035-.069l.069-5.436.009-.009Z" style="fill:#92b6da;"/></g><g style="opacity:.5;"><path d="M148.4434,221.7202s.034-.008.034.018l.596,5.6s-.009.052-.035.069l-4.375,3.063s-.034,0-.034-.017l-.207-4.953s.008-.061.026-.069l3.986-3.693.009-.018Z" style="fill:#92b6da;"/></g><g style="opacity:.5;"><path d="M138.7534,241.2932s.034,0,.025.026l-1.794,5.341s-.035.044-.061.052l-5.255.958s-.034-.009-.026-.035l1.881-4.59s.035-.043.061-.052l5.169-1.691v-.009Z" style="fill:#92b6da;"/></g><g style="opacity:.5;"><path d="M139.2964,231.6002s.017-.034.035-.017l4.469,3.426s.035.043.026.069l-.794,5.281s-.017.026-.043.017l-3.736-3.262s-.035-.051-.035-.069l.069-5.436.009-.009Z" style="fill:#92b6da;"/></g><g style="opacity:.5;"><path d="M137.4844,219.8382s.035-.009.035.017l.595,5.6s-.009.052-.035.069l-4.374,3.063s-.035,0-.035-.017l-.207-4.953s.009-.06.026-.069l3.986-3.693.009-.017Z" style="fill:#92b6da;"/></g><g style="opacity:.5;"><path d="M129.6063,270.5352s.035,0,.026.026l-1.795,5.342s-.034.043-.06.051l-5.255.958s-.035-.008-.026-.034l1.881-4.591s.034-.043.06-.052l5.169-1.691v-.009Z" style="fill:#92b6da;"/></g><g style="opacity:.5;"><path d="M130.1584,260.8472s.018-.035.035-.018l4.47,3.426s.034.043.026.069l-.794,5.281s-.018.026-.043.017l-3.737-3.262s-.034-.051-.034-.069l.069-5.436.008-.008Z" style="fill:#92b6da;"/></g><g style="opacity:.5;"><path d="M128.3463,249.0912s.035-.008.035.018l.595,5.6s-.008.052-.034.069l-4.375,3.063s-.035,0-.035-.017l-.207-4.953s.009-.06.026-.069l3.987-3.693.008-.018Z" style="fill:#92b6da;"/></g><g style="opacity:.5;"><path d="M118.6563,268.6642s.035,0,.026.026l-1.795,5.341s-.034.044-.06.052l-5.255.958s-.035-.009-.026-.034l1.881-4.591s.035-.043.06-.052l5.169-1.691v-.009Z" style="fill:#92b6da;"/></g><g style="opacity:.5;"><path d="M119.1994,258.9682s.018-.035.035-.018l4.47,3.426s.034.043.026.069l-.794,5.281s-.018.026-.043.017l-3.737-3.261s-.034-.052-.034-.07l.069-5.436.008-.008Z" style="fill:#92b6da;"/></g><g style="opacity:.5;"><path d="M117.3883,247.2132s.034-.009.034.017l.596,5.6s-.009.052-.035.069l-4.375,3.063s-.034,0-.034-.017l-.207-4.953s.008-.06.025-.069l3.987-3.693.009-.017Z" style="fill:#92b6da;"/></g><g style="opacity:.5;"><path d="M170.7494,246.9772s.034,0,.025.026l-1.794,5.341s-.035.043-.061.052l-5.255.958s-.034-.009-.026-.035l1.881-4.591s.035-.043.061-.051l5.169-1.692v-.008Z" style="fill:#92b6da;"/></g><g style="opacity:.5;"><path d="M171.2924,237.2882s.018-.035.035-.017l4.47,3.425s.034.043.026.069l-.794,5.281s-.018.026-.043.018l-3.737-3.262s-.034-.052-.034-.069l.069-5.436.008-.009Z" style="fill:#92b6da;"/></g><g style="opacity:.5;"><path d="M169.4803,225.5292s.035-.009.035.017l.595,5.6s-.009.052-.035.069l-4.374,3.064s-.035,0-.035-.018l-.207-4.953s.009-.06.026-.069l3.986-3.693.009-.017Z" style="fill:#92b6da;"/></g><g style="opacity:.5;"><path d="M159.7904,245.0982s.034,0,.026.026l-1.795,5.341s-.035.043-.06.052l-5.255.958s-.035-.009-.026-.035l1.881-4.59s.034-.044.06-.052l5.169-1.691v-.009Z" style="fill:#92b6da;"/></g><g style="opacity:.5;"><path d="M160.3423,235.4092s.017-.034.035-.017l4.469,3.425s.035.044.026.069l-.794,5.281s-.017.026-.043.018l-3.736-3.262s-.035-.052-.035-.069l.07-5.436.008-.009Z" style="fill:#92b6da;"/></g><g style="opacity:.5;"><path d="M158.5303,223.6542s.034-.009.034.017l.596,5.6s-.009.052-.035.069l-4.375,3.064s-.034,0-.034-.018l-.207-4.953s.009-.06.026-.069l3.986-3.693.009-.017Z" style="fill:#92b6da;"/></g><g style="opacity:.5;"><path d="M173.8464,255.8142s.035-.009.035.017l.595,5.601s-.008.051-.034.069l-4.375,3.063s-.035,0-.035-.017l-.207-4.953s.009-.061.026-.069l3.987-3.694.008-.017Z" style="fill:#92b6da;"/></g><g style="opacity:.5;"><path d="M164.1564,275.3872s.035,0,.026.026l-1.795,5.341s-.034.043-.06.052l-5.255.958s-.034-.009-.026-.035l1.881-4.59s.035-.044.061-.052l5.168-1.691v-.009Z" style="fill:#92b6da;"/></g><g style="opacity:.5;"><path d="M164.7093,265.6862s.017-.034.034-.017l4.47,3.426s.034.043.026.069l-.794,5.281s-.017.026-.043.017l-3.737-3.262s-.034-.052-.034-.069l.069-5.436.009-.009Z" style="fill:#92b6da;"/></g><g style="opacity:.5;"><path d="M162.8963,253.9352s.035-.008.035.017l.595,5.601s-.008.051-.034.069l-4.375,3.063s-.035,0-.035-.017l-.207-4.953s.009-.061.026-.069l3.987-3.694.008-.017Z" style="fill:#92b6da;"/></g><g style="opacity:.5;"><path d="M169.0663,215.1452s.034,0,.026.026l-1.795,5.341s-.035.043-.061.052l-5.255.958s-.034-.009-.025-.035l1.881-4.591s.034-.043.06-.051l5.169-1.692v-.008Z" style="fill:#92b6da;"/></g><g style="opacity:.5;"><path d="M158.1163,213.2742s.034,0,.025.026l-1.794,5.341s-.035.043-.061.052l-5.255.957s-.034-.008-.026-.034l1.881-4.591s.035-.043.061-.051l5.169-1.692v-.008Z" style="fill:#92b6da;"/></g><g style="opacity:.5;"><path d="M158.6683,203.5772s.017-.035.035-.017l4.469,3.425s.035.044.026.069l-.793,5.281s-.018.026-.044.018l-3.736-3.262s-.034-.052-.034-.069l.069-5.436.008-.009Z" style="fill:#92b6da;"/></g><g style="opacity:.5;"><path d="M156.8473,191.8222s.035-.009.035.017l.595,5.6s-.008.052-.034.069l-4.375,3.064s-.035,0-.035-.018l-.207-4.953s.009-.06.026-.069l3.987-3.693.008-.017Z" style="fill:#92b6da;"/></g><g style="opacity:.5;"><path d="M146.6564,211.5902s.035,0,.026.026l-1.794,5.341s-.035.043-.061.052l-5.255.958s-.034-.009-.026-.035l1.881-4.59s.035-.043.061-.052l5.168-1.691v-.009Z" style="fill:#92b6da;"/></g><g style="opacity:.5;"><path d="M147.2003,201.9012s.018-.034.035-.017l4.47,3.426s.034.043.025.069l-.793,5.281s-.018.025-.044.017l-3.736-3.262s-.034-.052-.034-.069l.069-5.436.008-.009Z" style="fill:#92b6da;"/></g><g style="opacity:.5;"><path d="M145.3883,190.1462s.035-.008.035.017l.595,5.601s-.009.051-.035.069l-4.374,3.063s-.035,0-.035-.017l-.207-4.953s.009-.061.026-.069l3.986-3.694.009-.017Z" style="fill:#92b6da;"/></g><g style="opacity:.5;"><path d="M135.6983,209.7192s.034,0,.026.026l-1.795,5.341s-.035.043-.06.052l-5.255.958s-.035-.009-.026-.035l1.881-4.59s.034-.044.06-.052l5.169-1.691v-.009Z" style="fill:#92b6da;"/></g><g style="opacity:.5;"><path d="M136.2503,200.0182s.018-.034.035-.017l4.47,3.426s.034.043.026.069l-.794,5.281s-.018.026-.043.017l-3.737-3.262s-.034-.052-.034-.069l.069-5.436.008-.009Z" style="fill:#92b6da;"/></g><g style="opacity:.5;"><path d="M134.4383,188.2672s.035-.008.035.017l.595,5.601s-.009.051-.035.069l-4.374,3.063s-.035,0-.035-.017l-.207-4.953s.009-.061.026-.069l3.986-3.694.009-.017Z" style="fill:#92b6da;"/></g><g style="opacity:.5;"><path d="M124.2473,208.2192s.035,0,.026.026l-1.795,5.341s-.034.043-.06.052l-5.255.958s-.035-.009-.026-.035l1.881-4.59s.035-.044.06-.052l5.169-1.691v-.009Z" style="fill:#92b6da;"/></g><g style="opacity:.5;"><path d="M124.8003,198.5182s.017-.034.034-.017l4.47,3.426s.034.043.026.069l-.794,5.281s-.017.026-.043.017l-3.737-3.262s-.034-.051-.034-.069l.069-5.436.009-.009Z" style="fill:#92b6da;"/></g><g style="opacity:.5;"><path d="M122.9794,186.7672s.034-.008.034.017l.596,5.601s-.009.051-.035.069l-4.375,3.063s-.034,0-.034-.017l-.207-4.953s.008-.061.026-.069l3.986-3.694.009-.017Z" style="fill:#92b6da;"/></g><g style="opacity:.5;"><path d="M113.2974,206.3362s.035,0,.026.026l-1.795,5.341s-.034.043-.06.052l-5.255.958s-.035-.009-.026-.035l1.881-4.59s.034-.043.06-.052l5.169-1.691v-.009Z" style="fill:#92b6da;"/></g><g style="opacity:.5;"><path d="M113.8413,196.6362s.017-.035.034-.018l4.47,3.426s.034.043.026.069l-.794,5.281s-.017.026-.043.017l-3.736-3.262s-.035-.051-.035-.069l.069-5.436.009-.008Z" style="fill:#92b6da;"/></g><g style="opacity:.5;"><path d="M149.7803,359.9222s.035,0,.026.026l-1.795,5.341s-.034.043-.06.052l-5.255.958s-.034-.009-.026-.035l1.881-4.59s.035-.043.061-.052l5.168-1.691v-.009Z" style="fill:#92b6da;"/></g><g style="opacity:.5;"><path d="M150.3334,350.2332s.017-.034.035-.017l4.469,3.426s.035.043.026.069l-.794,5.281s-.017.025-.043.017l-3.736-3.262s-.035-.052-.035-.069l.069-5.436.009-.009Z" style="fill:#92b6da;"/></g><g style="opacity:.5;"><path d="M148.5213,338.4742s.034-.008.034.018l.596,5.6s-.009.051-.035.069l-4.375,3.063s-.034,0-.034-.017l-.207-4.953s.008-.061.025-.069l3.987-3.693.009-.018Z" style="fill:#92b6da;"/></g><g style="opacity:.5;"><path d="M138.8314,358.0432s.034,0,.025.026l-1.794,5.341s-.035.044-.061.052l-5.255.958s-.034-.009-.026-.035l1.881-4.59s.035-.043.061-.052l5.169-1.691v-.009Z" style="fill:#92b6da;"/></g><g style="opacity:.5;"><path d="M139.3833,348.3542s.017-.034.034-.017l4.47,3.426s.034.043.026.069l-.794,5.281s-.017.026-.043.017l-3.737-3.262s-.034-.052-.034-.069l.069-5.436.009-.009Z" style="fill:#92b6da;"/></g><g style="opacity:.5;"><path d="M137.5623,336.5992s.034-.008.034.018l.596,5.6s-.009.051-.035.069l-4.374,3.063s-.035,0-.035-.017l-.207-4.953s.009-.061.026-.069l3.986-3.693.009-.018Z" style="fill:#92b6da;"/></g><g style="opacity:.5;"><path d="M123.7473,327.7352s.034,0,.026.025l-1.795,5.342s-.035.043-.06.052l-5.256.957s-.034-.008-.025-.034l1.881-4.591s.034-.043.06-.052l5.169-1.691v-.008Z" style="fill:#92b6da;"/></g><g style="opacity:.5;"><path d="M124.2994,318.0382s.017-.035.035-.017l4.469,3.425s.035.044.026.069l-.794,5.281s-.017.026-.043.018l-3.736-3.262s-.035-.052-.035-.069l.069-5.436.009-.009Z" style="fill:#92b6da;"/></g><g style="opacity:.5;"><path d="M122.4873,306.2832s.035-.009.035.017l.595,5.6s-.009.052-.035.069l-4.374,3.064s-.035,0-.035-.018l-.207-4.953s.009-.06.026-.069l3.986-3.693.009-.017Z" style="fill:#92b6da;"/></g><g style="opacity:.5;"><path d="M112.7974,325.8562s.034,0,.026.026l-1.795,5.341s-.035.043-.061.052l-5.255.957s-.034-.008-.026-.034l1.882-4.591s.034-.043.06-.051l5.169-1.692v-.008Z" style="fill:#92b6da;"/></g><g style="opacity:.5;"><path d="M113.3493,316.1552s.017-.034.034-.017l4.47,3.426s.035.043.026.069l-.794,5.28s-.017.026-.043.018l-3.736-3.262s-.035-.052-.035-.069l.069-5.436.009-.009Z" style="fill:#92b6da;"/></g><g style="opacity:.5;"><path d="M111.5283,304.4042s.035-.009.035.017l.595,5.6s-.009.052-.034.069l-4.375,3.064s-.035,0-.035-.018l-.207-4.953s.009-.06.026-.069l3.986-3.693.009-.017Z" style="fill:#92b6da;"/></g><g style="opacity:.5;"><path d="M146.5014,331.0942s.035,0,.026.026l-1.795,5.341s-.034.043-.06.052l-5.255.958s-.034-.009-.026-.035l1.881-4.59s.035-.044.061-.052l5.168-1.691v-.009Z" style="fill:#92b6da;"/></g><g style="opacity:.5;"><path d="M145.2333,309.6502s.035-.009.035.017l.595,5.6s-.009.052-.035.069l-4.374,3.064s-.035,0-.035-.017l-.207-4.954s.009-.06.026-.069l3.986-3.693.009-.017Z" style="fill:#92b6da;"/></g><g style="opacity:.5;"><path d="M135.5523,329.2112s.034,0,.025.026l-1.794,5.341s-.035.043-.061.052l-5.255.958s-.034-.009-.026-.035l1.881-4.59s.035-.043.061-.052l5.169-1.691v-.009Z" style="fill:#92b6da;"/></g><g style="opacity:.5;"><path d="M136.0953,319.5222s.017-.034.034-.017l4.47,3.426s.035.043.026.069l-.794,5.281s-.017.026-.043.017l-3.736-3.262s-.035-.052-.035-.069l.069-5.436.009-.009Z" style="fill:#92b6da;"/></g><g style="opacity:.5;"><path d="M134.2834,307.7712s.035-.008.035.017l.595,5.601s-.009.051-.035.069l-4.374,3.063s-.035,0-.035-.017l-.207-4.953s.009-.061.026-.069l3.986-3.694.009-.017Z" style="fill:#92b6da;"/></g><g style="opacity:.5;"><path d="M126.9573,348.7642s.017-.034.035-.017l4.469,3.426s.035.043.026.069l-.794,5.281s-.017.026-.043.017l-3.736-3.262s-.035-.051-.035-.069l.069-5.436.009-.009Z" style="fill:#92b6da;"/></g><g style="opacity:.5;"><path d="M125.1363,337.0132s.035-.008.035.018l.595,5.6s-.008.052-.034.069l-4.375,3.063s-.035,0-.035-.017l-.207-4.953s.009-.061.026-.069l3.987-3.693.008-.018Z" style="fill:#92b6da;"/></g><g style="opacity:.5;"><path d="M115.9983,346.8932s.017-.034.035-.017l4.469,3.426s.035.043.026.069l-.794,5.281s-.017.026-.043.017l-3.736-3.262s-.034-.052-.034-.069l.069-5.436.008-.009Z" style="fill:#92b6da;"/></g><g style="opacity:.5;"><path d="M114.1864,335.1382s.035-.008.035.018l.595,5.6s-.009.052-.034.069l-4.375,3.063s-.035,0-.035-.017l-.207-4.953s.009-.061.026-.069l3.987-3.693.008-.018Z" style="fill:#92b6da;"/></g><g style="opacity:.5;"><path d="M171.9053,365.1842s.035,0,.026.026l-1.795,5.341s-.034.043-.06.052l-5.255.958s-.035-.009-.026-.035l1.881-4.591s.034-.043.06-.051l5.169-1.692v-.008Z" style="fill:#92b6da;"/></g><g style="opacity:.5;"><path d="M160.9553,363.3052s.034,0,.026.026l-1.795,5.341s-.034.043-.06.052l-5.255.958s-.035-.009-.026-.035l1.881-4.59s.034-.044.06-.052l5.169-1.691v-.009Z" style="fill:#92b6da;"/></g><g style="opacity:.5;"><path d="M161.5074,353.6162s.017-.034.035-.017l4.469,3.425s.035.044.026.07l-.794,5.28s-.017.026-.043.018l-3.736-3.262s-.035-.052-.035-.069l.069-5.436.009-.009Z" style="fill:#92b6da;"/></g><g style="opacity:.5;"><path d="M159.6864,341.8612s.035-.009.035.017l.595,5.6s-.008.052-.034.069l-4.375,3.064s-.035,0-.035-.018l-.207-4.953s.009-.06.026-.069l3.987-3.693.008-.017Z" style="fill:#92b6da;"/></g><g style="opacity:.5;"><path d="M164.6053,281.6232s.034-.009.034.017l.596,5.6s-.009.052-.035.069l-4.375,3.063s-.034,0-.034-.017l-.207-4.953s.008-.06.026-.069l3.986-3.693.009-.017Z" style="fill:#92b6da;"/></g><g style="opacity:.5;"><path d="M154.9154,301.1922s.034,0,.026.026l-1.795,5.341s-.035.043-.061.052l-5.255.957s-.034-.008-.026-.034l1.882-4.591s.034-.043.06-.051l5.169-1.692v-.008Z" style="fill:#92b6da;"/></g><g style="opacity:.5;"><path d="M155.4584,291.5032s.018-.035.035-.017l4.47,3.425s.034.043.026.069l-.794,5.281s-.018.026-.043.017l-3.737-3.261s-.034-.052-.034-.069l.069-5.437.008-.008Z" style="fill:#92b6da;"/></g><g style="opacity:.5;"><path d="M153.6463,279.7482s.035-.009.035.017l.595,5.6s-.008.052-.034.069l-4.375,3.063s-.035,0-.035-.017l-.207-4.953s.009-.06.026-.069l3.987-3.693.008-.017Z" style="fill:#92b6da;"/></g><g style="opacity:.5;"><path d="M143.4474,299.5202s.034,0,.026.026l-1.795,5.341s-.035.043-.06.052l-5.255.958s-.035-.009-.026-.035l1.881-4.591s.034-.043.06-.051l5.169-1.692v-.008Z" style="fill:#92b6da;"/></g><g style="opacity:.5;"><path d="M143.9994,289.8312s.018-.035.035-.017l4.47,3.425s.034.043.026.069l-.794,5.281s-.018.026-.044.018l-3.736-3.262s-.034-.052-.034-.069l.069-5.436.008-.009Z" style="fill:#92b6da;"/></g><g style="opacity:.5;"><path d="M142.1873,278.0722s.035-.009.035.017l.595,5.6s-.009.052-.034.069l-4.375,3.064s-.035,0-.035-.018l-.207-4.953s.009-.06.026-.069l3.986-3.693.009-.017Z" style="fill:#92b6da;"/></g><g style="opacity:.5;"><path d="M132.4974,297.6412s.034,0,.026.026l-1.795,5.341s-.035.043-.06.052l-5.255.958s-.035-.009-.026-.035l1.881-4.59s.034-.044.06-.052l5.169-1.692v-.008Z" style="fill:#92b6da;"/></g><g style="opacity:.5;"><path d="M133.0493,287.9522s.018-.035.035-.017l4.47,3.425s.034.044.025.069l-.793,5.281s-.018.026-.044.018l-3.736-3.262s-.034-.052-.034-.069l.069-5.436.008-.009Z" style="fill:#92b6da;"/></g><g style="opacity:.5;"><path d="M131.2294,276.1972s.034-.009.034.017l.595,5.6s-.008.052-.034.069l-4.375,3.064s-.034,0-.034-.018l-.208-4.953s.009-.06.026-.069l3.987-3.693.009-.017Z" style="fill:#92b6da;"/></g><g style="opacity:.5;"><path d="M121.0464,296.1372s.035,0,.026.026l-1.795,5.341s-.034.043-.06.052l-5.255.958s-.035-.009-.026-.035l1.881-4.59s.034-.044.06-.052l5.169-1.691v-.009Z" style="fill:#92b6da;"/></g><g style="opacity:.5;"><path d="M121.5904,286.4482s.017-.034.034-.017l4.47,3.426s.035.043.026.069l-.794,5.28s-.017.026-.043.018l-3.736-3.262s-.035-.052-.035-.069l.069-5.436.009-.009Z" style="fill:#92b6da;"/></g><g style="opacity:.5;"><path d="M119.7783,274.6852s.034-.008.034.017l.596,5.601s-.009.051-.035.069l-4.375,3.063s-.034,0-.034-.017l-.207-4.953s.008-.061.026-.069l3.986-3.694.009-.017Z" style="fill:#92b6da;"/></g><g style="opacity:.5;"><path d="M110.0884,294.2542s.034,0,.025.026l-1.794,5.341s-.035.043-.061.052l-5.255.958s-.034-.009-.026-.035l1.881-4.59s.035-.043.061-.052l5.169-1.691v-.009Z" style="fill:#92b6da;"/></g><g style="opacity:.5;"><path d="M110.6403,284.5652s.017-.034.034-.017l4.47,3.426s.034.043.026.069l-.794,5.281s-.017.026-.043.017l-3.737-3.262s-.034-.052-.034-.069l.069-5.436.009-.009Z" style="fill:#92b6da;"/></g><g style="opacity:.5;"><path d="M108.8283,272.8142s.034-.009.034.017l.596,5.601s-.009.051-.035.069l-4.375,3.063s-.034,0-.034-.017l-.207-4.953s.008-.061.026-.069l3.986-3.694.009-.017Z" style="fill:#92b6da;"/></g></g><g style="mask:url(#d);"><path d="M83.8734,78.3862l.0604,7.1189c.0604,7.3691,4.789,13.2971,10.5532,13.2454l5.4534-.0518c4.7459-.0431,8.9139,4.0038,10.1819,9.8456,3.616,16.6625,9.924,53.5599,9.009,104.9359-1.208,67.945-27.3279,124.007-30.8485,130.142-.1899.336-.3624.664-.5264,1.018L12.0203,462.0192c-.7679,1.226-3.8743,9.527-4.2713,11.011-.7162,2.709-.7248,5.678,0,8.439,7.9128,30.201,56.8646,193.659,113.5133,195.41,80.767,2.503,116.75,2.486,123.489-1.579.794-.474,1.51-1.061,2.183-1.777,9.526-10.096,74.528-104.013,87.048-199.406.389-2.977-.474-5.988-1.82-8.474-22.272-41.151-68.074-91.13-85.815-129.623-18.336-39.771-29.787-100.726-29.977-122.505-.147-16.973.061-78.1177.915-104.2806.224-6.8255,4.452-12.3048,9.794-12.6931,6.187-.4487,11.398-7.3001,11.571-15.2214l.06-2.7354c.164-7.5331-4.59-13.7718-10.484-13.7718l-133.9551.1208c-5.79,0-10.4496,6.0316-10.3806,13.4353l-.0172.0172Z" style="fill:#c59b6d; stroke:#c59b6d; stroke-miterlimit:10; stroke-width:9px;"/></g><line x1="110.5258" y1="578.0495" x2="110.847" y2="577.8929" style="fill:none; stroke:#41810b; stroke-miterlimit:4; stroke-width:1px;"/><line x1="94.7306" y1="578.3443" x2="94.5308" y2="578.0577" style="fill:none; stroke:#41810b; stroke-miterlimit:4; stroke-width:1px;"/><path d="M151.8016,496.7539c1.0385-2.1744.1924-3.5671-1.7594-5.4016-.6063-.5698-1.2475-1.0005-1.9603-1.4295-1.258-.7572-3.6522-2.5473-5.3382-3.4198-6.2623-3.2246-11.496-5.5816-14.2297-8.9432-2.8785-3.5397,1.4889-8.4316,5.4397-6.1499,6.3134,3.6462,15.3556,8.8683,19.3838,11.1947,1.322.7635,5.9921,3.6226,7.1469,2.6241.648-.5603,1.2432-1.1529,1.7921-1.7907.975-1.133-1.8793-5.7647-2.5984-7.0752l-11.5416-21.0358c-.2421-.4427-.3811-.9257-.4316-1.4314-.4468-4.4703,5.7618-6.2279,8.0197-2.3439l11.5711,19.9047c.7519,1.2934,3.2225,5.9903,4.6996,5.7533l2.3576-.3783c1.7538-.2814,2.0437-5.7947,2.0437-7.571v-21.4234c0-.245.0099-.4868.0293-.7249.4573-5.6026,8.9298-5.078,8.9357.5432l.0226,21.5629c.0019,1.8133.3463,7.3449,2.144,7.5818l2.102.277c1.4625.1928,3.8956-4.5221,4.6213-5.8064l9.516-16.8406c.1311-.2321.2691-.4578.4134-.6767,3.1973-4.8507,10.5859-.1165,7.6944,4.9225l-10.0382,17.4937c-.7122,1.2412-2.6434,4.7972-1.7827,5.9404.5574.7404,1.2714,1.4361,1.9818,2.0205,1.0683.8789,4.5416-.9221,5.7972-1.5027,9.5163-4.4006,19.9329-13.1993,24.2111-11.7598l.0671.0225c3.5732,1.2008,4.0403,6.0643.761,7.9233l-20.2241,11.4648c-1.3138.7448-4.0204,2.2254-3.7912,3.7181.1564,1.0184.4349,2.0568.832,2.9405.5653,1.258,3.8167,2.0658,5.1954,2.0995,5.5371.1353,23.7958.5823,23.7958.5823.3797.0095.75.0675,1.1084.1677,4.701,1.3142,3.5248,8.4018-1.3561,8.4628l-26.4063-.6825c-1.89.026-3.262,6.118-1.631,7.058l19.949,11.976c.2349.1357.4629.2793.6834.4304,4.6069,3.1573.0153,10.2107-4.8531,7.4737l-18.139-10.1981c-1.2807-.72-3.8726-1.6008-5.0208-.6841-.6676.5329-1.3267,1.1507-1.8516,1.7987-.917,1.1323-.004,3.7272.7135,4.9954l8.9236,15.7721c.1611.2843.3151.5713.4615.8605,2.5918,5.1205-4.9998,9.185-7.9516,4.2633l-10.3289-17.2218c-.8136-1.3573-3.54-2.3197-5.4983-1.5211-1.3378.5456-1.9619,3.2423-1.9712,4.687l-.1325,20.5981c-.0004.0502-.0011,1.1003-.0021,1.1504-.1209,5.7454-8.809,5.5802-8.8595-.1663l-.18-21.489c-.0118-1.3407-.4867-4.9009-1.7483-5.3546-.9602-.3453-1.9753-.5675-3.0055-.6768-1.3842-.1469-3.2633,2.5665-3.9758,3.7623-3.0789,5.1678-11.7228,19.676-11.7228,19.676-.1074.1804-.2239.3532-.3486.5185-3.2989,4.3742-10.0383-.4561-7.2177-5.153l10.6128-17.6726c1.6469-2.7425,2.5764-5.3291,1.7009-6.5003-.6796-.9092-1.4696-1.663-2.3934-2.3724-1.1546-.8867-3.7448.0421-5.0001.7792l-17.0799,10.0287c-.2551.1496-.5135.2885-.7747.4166-5.1222,2.5136-9.0406-5.1614-4.109-8.031l17.3055-10.07c1.3716-.7981,4.0627-3.3972,3.7041-4.943l-.3635-1.567c-.3751-1.6174-3.8034-1.7717-5.4636-1.799l-21.3008-.3505c-.045-.0008-.0899-.002-.1348-.0035-5.5851-.1947-5.347-8.6315.2414-8.6597l22.3374-.1128c1.588,0,3.82-1.398,4.2-2.485v-.026Z" style="fill:#603813;"/></svg>