<?xml version="1.0" encoding="UTF-8"?><svg id="a" xmlns="http://www.w3.org/2000/svg" xmlns:xlink="http://www.w3.org/1999/xlink" viewBox="0 0 340 683"><defs><mask id="b" x="0" y="60.0508" width="339.12" height="622.7671" maskUnits="userSpaceOnUse"><g id="c"><path d="M338.62,577.337h-118.311l-23.197-21.512-.753-.698-.085,1.022-1.769,21.188h-58.065l-7.723-7.165-.751-.696-.087,1.02-.586,6.841h-16.53l-4.251-8.251-.263-.511-.47.331-11.9499,8.431h-15.5303l-14.8603-28.744-.7979-1.542-.1445,1.73-2.3945,28.556h-14.8428l-28.1592-13.377-.6523-.311-.0606.721-1.0791,12.967H.5v-158.911c15.5941,3.981,35.0419,7.343,57.2764,9.883v-.001c2.706.331,5.4639.628,8.2734.908l13.8106,11.177.8144.659v-10.489c3.4057.296,6.8766.563,10.3857.804l33.4955,27.106.814.659v-26.033c10.813.369,21.953.542,33.293.542h2.831l7.594,24.582.977-.148v-24.502c4.383-.037,8.735-.114,13.025-.234l-.001-.001c2.981-.062,5.919-.142,8.846-.239,5.763-.183,11.452-.418,17.047-.712l4.865,7.871.298.483.441-.357,11.098-8.982c5.254-.371,10.385-.784,15.432-1.23l17.414,28.176.926,1.497v-31.518c3.65-.415,7.231-.861,10.751-1.315l33.256,13.456.688.278v-19.385c5.644-1.18,10.894-2.418,15.742-3.731l5.786,4.682.304-.377.314.386.491-.397-.001-.001,11.833-9.575v164.989Z" style="fill:#c59b6d; stroke:#c59b6d;"/></g></mask><mask id="d" x=".098" y="61.3991" width="339.12" height="622.7669" maskUnits="userSpaceOnUse"><g id="e"><path d="M338.718,578.6855h-118.311l-23.197-21.512-.753-.698-.085,1.022-1.769,21.188h-58.065l-7.723-7.165-.751-.697-.087,1.021-.586,6.8409h-16.53l-4.251-8.251-.263-.511-.47.331-11.9499,8.431h-15.5303l-14.8603-28.744-.7979-1.542-.1445,1.73-2.3945,28.556h-14.8428l-28.1592-13.377-.6523-.311-.0606.721-1.0791,12.967H.598v-158.911c15.5941,3.98,35.0419,7.343,57.2764,9.882v-.001c2.706.332,5.4639.629,8.2734.909l13.8106,11.176.8144.66v-10.489c3.4057.296,6.8766.562,10.3857.804l33.4955,27.105.814.66v-26.034c10.813.37,21.953.542,33.293.542h2.831l7.594,24.582.977-.147v-24.502c4.383-.037,8.735-.115,13.025-.234l-.001-.001c2.981-.062,5.919-.142,8.846-.24,5.763-.183,11.452-.417,17.047-.711l4.865,7.871.298.483.441-.357,11.098-8.982c5.254-.371,10.385-.784,15.432-1.23l17.414,28.175.926,1.498v-31.518c3.65-.416,7.231-.861,10.751-1.315l33.256,13.456.688.278v-19.385c5.644-1.18,10.894-2.419,15.742-3.731l5.786,4.682.304-.378.314.387.491-.397-.001-.001,11.833-9.576v164.99Z" style="fill:#c59b6d; stroke:#c59b6d;"/></g></mask></defs><path d="M83.8735,77.7957l.0604,7.1188c.0604,7.369,4.7891,13.297,10.5533,13.2452l5.4535-.0518c4.7463-.0431,8.9133,4.0041,10.1823,9.8451,3.616,16.663,9.923,53.559,9.009,104.935-1.208,67.943-27.3284,124.005-30.8491,130.14-.1898.336-.3624.664-.5263,1.018L12.0198,461.423c-.768,1.226-3.8745,9.526-4.2714,11.011-.7162,2.709-.7248,5.677,0,8.439,7.9128,30.2,56.8652,193.656,113.5146,195.407,80.768,2.502,116.751,2.485,123.49-1.579.794-.475,1.51-1.061,2.183-1.777,9.526-10.096,74.529-104.012,87.049-199.403.389-2.977-.474-5.989-1.82-8.474-22.272-41.15-68.075-91.128-85.816-129.621-18.337-39.77-29.787-100.724-29.977-122.503-.147-16.973.06-78.117.915-104.279.224-6.826,4.452-12.305,9.794-12.6933,6.187-.4487,11.398-7.2999,11.571-15.2212l.06-2.7353c.164-7.5329-4.59-13.7715-10.484-13.7715l-133.9565.1208c-5.7901,0-10.4498,6.0315-10.3807,13.435l-.0173.0172Z" style="fill:#dcd6cb; stroke:#dcd6cb; stroke-miterlimit:10; stroke-width:9px;"/><path d="M127.122,59.2259v-15.3075c-8.939,0-16.127-6.0142-15.937-13.3314l.267-10.1302c.259-10.0094,10.277-18.0083,22.505-17.9566l58.763.0863c11.14.0173,20.183,7.3776,20.287,16.4983l.129,12.3564c.078,7.1878-6.851,13.1072-15.618,13.3488v14.6258l-70.396-.1812v-.0087Z" style="fill:#cdb43a; stroke:#cdb43a; stroke-miterlimit:10; stroke-width:5px;"/><path d="M116.793,120.543c8.025,27.56,11.356,56.346,11.995,84.994,1.527,71.783-19.148,144.912-63.5442,201.931-8.8361,11.321-18.3971,22.046-28.726,31.961,9.6386-10.579,18.725-21.633,27.0261-33.221,8.2321-11.589,15.8342-23.738,22.4785-36.302,40.0386-75.251,48.3316-166.553,30.7706-249.363Z" style="fill:#e2e3e2;"/><path d="M304.147,435.94c-78.257-69.669-109.891-173.879-95.144-276.354,2.123-14.298,4.902-28.553,9.311-42.324-.915,3.494-1.674,7.015-2.382,10.553-4.901,24.695-7.067,49.943-6.972,75.087.345,88.937,32.298,169.806,95.187,233.038Z" style="fill:#e2e3e2;"/><path d="M90.061,653.07c46.139,9.82,94.997,15.791,141.542,5.704,6.627-1.519,13.15-3.469,19.631-5.704-6.11,3.107-12.521,5.635-19.079,7.749-44.215,13.366-98.906,7.36-142.094-7.749Z" style="fill:#e2e3e2;"/><path d="M22.9444,460.977c-1.7948,8.87-3.2789,17.663-.9923,26.507.2503,1.355.7421,2.563.9923,3.944-.5436-.441-1.0441-.924-1.5445-1.424-7.4726-7.861-6.0661-21.745,1.5445-29.027Z" style="fill:#e2e3e2;"/><path d="M316.495,489.151c.604-2.554,1.406-5.1,1.726-7.705.785-5.005.457-9.872-.311-14.894-.397-2.537-.889-5.108-1.415-7.861,8.154,7.732,9.103,23.074,0,30.451v.009Z" style="fill:#e2e3e2;"/><path d="M95.2385,403.541s52.8615-61.652,121.5485-1.38-121.5485,1.38-121.5485,1.38Z" style="fill:#866893;"/><path d="M38.6664,493.194c6.2992,29.856,21.7365,94.382,43.9131,129.683,4.9875,7.947,12.7623,18.482,21.5725,20.217,37.027,7.291,99.527,4.038,128.9,1.915,10.795-.776,20.572-12.149,26.189-22.029,12.115-21.287,32.186-64.604,42.74-131.813,1.337-8.517-.207-17.275-4.444-24.627-17.198-29.856-41.152-59.539-61.534-78.505-5.358-4.987-12.037-8.18-19.139-8.706-8.845-.656-18.44,1.432-27.889,3.926-15.756,4.168-31.893,6.472-48.124,6.756-19.562.345-38.27,7.223-53.6809,19.277-7.7575,6.066-14.6779,13.444-20.4508,21.96l-22.5217,33.204c-5.6261,8.292-7.6366,18.75-5.5312,28.734v.008Z" style="fill:#511e68;"/><g style="opacity:.5;"><g style="opacity:.5;"><path d="M153.268,271.805s.035,0,.026.026l-1.795,5.341s-.034.043-.06.052l-5.255.957s-.035-.008-.026-.034l1.881-4.591s.034-.043.06-.051l5.169-1.692v-.008Z" style="fill:#92b6da;"/></g><g style="opacity:.5;"><path d="M153.821,262.116s.017-.035.034-.017l4.47,3.425s.035.043.026.069l-.794,5.281s-.017.026-.043.017l-3.736-3.261s-.035-.052-.035-.069l.069-5.437.009-.008Z" style="fill:#92b6da;"/></g><g style="opacity:.5;"><path d="M152,250.365s.034-.009.034.017l.596,5.6s-.009.052-.035.069l-4.375,3.063s-.034,0-.034-.017l-.207-4.953s.008-.06.026-.069l3.986-3.693.009-.017Z" style="fill:#92b6da;"/></g><g style="opacity:.5;"><path d="M142.318,269.926s.035,0,.026.026l-1.795,5.341s-.034.043-.06.052l-5.255.957s-.035-.008-.026-.034l1.881-4.591s.035-.043.06-.051l5.169-1.692v-.008Z" style="fill:#92b6da;"/></g><g style="opacity:.5;"><path d="M142.862,260.237s.017-.035.034-.017l4.47,3.425s.035.043.026.069l-.794,5.281s-.017.026-.043.017l-3.736-3.261s-.035-.052-.035-.069l.069-5.436.009-.009Z" style="fill:#92b6da;"/></g><g style="opacity:.5;"><path d="M141.05,248.482s.034-.009.034.017l.595,5.6s-.008.052-.034.069l-4.375,3.063s-.034,0-.034-.017l-.207-4.953s.008-.06.025-.069l3.987-3.693.009-.017Z" style="fill:#92b6da;"/></g><g style="opacity:.5;"><path d="M127.234,239.625s.035,0,.026.026l-1.795,5.341s-.034.043-.06.052l-5.255.958s-.034-.009-.026-.035l1.881-4.59s.035-.043.061-.052l5.168-1.691v-.009Z" style="fill:#92b6da;"/></g><g style="opacity:.5;"><path d="M127.787,229.924s.017-.034.034-.017l4.47,3.426s.035.043.026.069l-.794,5.281s-.017.026-.043.017l-3.736-3.262s-.035-.052-.035-.069l.069-5.436.009-.009Z" style="fill:#92b6da;"/></g><g style="opacity:.5;"><path d="M125.966,218.169s.034-.008.034.018l.596,5.6s-.009.051-.035.069l-4.375,3.063s-.034,0-.034-.017l-.207-4.953s.008-.061.026-.069l3.986-3.693.009-.018Z" style="fill:#92b6da;"/></g><g style="opacity:.5;"><path d="M116.284,237.742s.035,0,.026.026l-1.795,5.341s-.034.043-.06.052l-5.255.958s-.035-.009-.026-.035l1.881-4.59s.035-.043.06-.052l5.169-1.691v-.009Z" style="fill:#92b6da;"/></g><g style="opacity:.5;"><path d="M116.828,228.049s.017-.034.034-.017l4.47,3.426s.034.043.026.069l-.794,5.281s-.017.026-.043.017l-3.736-3.262s-.035-.052-.035-.069l.069-5.436.009-.009Z" style="fill:#92b6da;"/></g><g style="opacity:.5;"><path d="M115.016,216.29s.034-.008.034.018l.596,5.6s-.009.052-.035.069l-4.375,3.063s-.034,0-.034-.017l-.207-4.953s.008-.061.026-.069l3.986-3.693.009-.018Z" style="fill:#92b6da;"/></g><g style="opacity:.5;"><path d="M149.989,242.977s.035,0,.026.025l-1.795,5.342s-.034.043-.06.051l-5.255.958s-.035-.008-.026-.034l1.881-4.591s.035-.043.061-.052l5.168-1.691v-.008Z" style="fill:#92b6da;"/></g><g style="opacity:.5;"><path d="M150.533,233.288s.017-.035.035-.018l4.469,3.426s.035.043.026.069l-.794,5.281s-.017.026-.043.017l-3.736-3.261s-.035-.052-.035-.07l.069-5.436.009-.008Z" style="fill:#92b6da;"/></g><g style="opacity:.5;"><path d="M148.721,221.533s.034-.009.034.017l.596,5.6s-.009.052-.035.069l-4.374,3.063s-.035,0-.035-.017l-.207-4.953s.009-.06.026-.069l3.986-3.693.009-.017Z" style="fill:#92b6da;"/></g><g style="opacity:.5;"><path d="M139.03,241.105s.035,0,.026.026l-1.795,5.342s-.034.043-.06.051l-5.255.958s-.035-.009-.026-.034l1.881-4.591s.035-.043.061-.052l5.168-1.691v-.009Z" style="fill:#92b6da;"/></g><g style="opacity:.5;"><path d="M139.583,231.409s.017-.035.034-.017l4.47,3.425s.035.043.026.069l-.794,5.281s-.017.026-.043.017l-3.736-3.261s-.035-.052-.035-.069l.069-5.437.009-.008Z" style="fill:#92b6da;"/></g><g style="opacity:.5;"><path d="M137.771,219.654s.034-.009.034.017l.595,5.6s-.008.052-.034.069l-4.375,3.063s-.034,0-.034-.017l-.207-4.953s.008-.06.025-.069l3.987-3.693.009-.017Z" style="fill:#92b6da;"/></g><g style="opacity:.5;"><path d="M129.892,270.352s.035,0,.026.025l-1.795,5.342s-.034.043-.06.051l-5.255.958s-.034-.008-.026-.034l1.881-4.591s.035-.043.061-.052l5.168-1.691v-.008Z" style="fill:#92b6da;"/></g><g style="opacity:.5;"><path d="M130.436,260.663s.017-.035.035-.018l4.469,3.426s.035.043.026.069l-.794,5.281s-.017.026-.043.017l-3.736-3.261s-.035-.052-.035-.07l.069-5.436.009-.008Z" style="fill:#92b6da;"/></g><g style="opacity:.5;"><path d="M128.624,248.9s.034-.009.034.017l.596,5.6s-.009.052-.035.069l-4.375,3.063s-.034,0-.034-.017l-.207-4.953s.008-.06.026-.069l3.986-3.693.009-.017Z" style="fill:#92b6da;"/></g><g style="opacity:.5;"><path d="M118.933,268.469s.035,0,.026.026l-1.795,5.341s-.034.043-.06.052l-5.255.957s-.034-.008-.026-.034l1.881-4.591s.035-.043.061-.051l5.168-1.692v-.008Z" style="fill:#92b6da;"/></g><g style="opacity:.5;"><path d="M119.486,258.78s.017-.035.034-.017l4.47,3.425s.034.043.026.069l-.794,5.281s-.017.026-.043.017l-3.737-3.261s-.034-.052-.034-.069l.069-5.436.009-.009Z" style="fill:#92b6da;"/></g><g style="opacity:.5;"><path d="M117.674,247.025s.034-.009.034.017l.596,5.6s-.009.052-.035.069l-4.375,3.063s-.034,0-.034-.017l-.207-4.953s.008-.06.025-.069l3.987-3.693.009-.017Z" style="fill:#92b6da;"/></g><g style="opacity:.5;"><path d="M171.027,246.781s.034,0,.025.026l-1.794,5.341s-.035.044-.061.052l-5.255.958s-.034-.009-.026-.035l1.882-4.59s.034-.043.06-.052l5.169-1.691v-.009Z" style="fill:#92b6da;"/></g><g style="opacity:.5;"><path d="M171.579,237.092s.018-.034.035-.017l4.47,3.426s.034.043.025.069l-.793,5.281s-.018.026-.044.017l-3.736-3.262s-.034-.052-.034-.069l.069-5.436.008-.009Z" style="fill:#92b6da;"/></g><g style="opacity:.5;"><path d="M169.767,225.341s.034-.008.034.017l.596,5.601s-.009.051-.035.069l-4.375,3.063s-.034,0-.034-.017l-.207-4.953s.008-.061.025-.069l3.987-3.694.009-.017Z" style="fill:#92b6da;"/></g><g style="opacity:.5;"><path d="M160.077,244.91s.034,0,.026.026l-1.795,5.341s-.035.043-.061.052l-5.255.958s-.034-.009-.026-.035l1.882-4.59s.034-.043.06-.052l5.169-1.691v-.009Z" style="fill:#92b6da;"/></g><g style="opacity:.5;"><path d="M160.62,235.213s.017-.034.035-.017l4.469,3.426s.035.043.026.069l-.794,5.281s-.017.026-.043.017l-3.736-3.262s-.035-.051-.035-.069l.07-5.436.008-.009Z" style="fill:#92b6da;"/></g><g style="opacity:.5;"><path d="M158.808,223.458s.035-.008.035.018l.595,5.6s-.009.052-.034.069l-4.375,3.063s-.035,0-.035-.017l-.207-4.953s.009-.061.026-.069l3.986-3.693.009-.018Z" style="fill:#92b6da;"/></g><g style="opacity:.5;"><path d="M174.133,255.63s.035-.008.035.018l.595,5.6s-.008.051-.034.069l-4.375,3.063s-.035,0-.035-.017l-.207-4.953s.009-.061.026-.069l3.987-3.693.008-.018Z" style="fill:#92b6da;"/></g><g style="opacity:.5;"><path d="M164.443,275.191s.034,0,.026.026l-1.795,5.342s-.035.043-.06.051l-5.255.958s-.035-.009-.026-.034l1.881-4.591s.034-.043.06-.052l5.169-1.691v-.009Z" style="fill:#92b6da;"/></g><g style="opacity:.5;"><path d="M164.986,265.503s.018-.035.035-.018l4.47,3.426s.034.043.025.069l-.793,5.281s-.018.026-.044.017l-3.736-3.262s-.034-.051-.034-.069l.069-5.436.008-.008Z" style="fill:#92b6da;"/></g><g style="opacity:.5;"><path d="M163.174,253.747s.035-.008.035.018l.595,5.6s-.008.052-.034.069l-4.375,3.063s-.035,0-.035-.017l-.207-4.953s.009-.061.026-.069l3.987-3.693.008-.018Z" style="fill:#92b6da;"/></g><g style="opacity:.5;"><path d="M169.353,214.961s.034,0,.026.026l-1.795,5.341s-.035.043-.061.052l-5.255.958s-.034-.009-.025-.035l1.881-4.59s.034-.044.06-.052l5.169-1.691v-.009Z" style="fill:#92b6da;"/></g><g style="opacity:.5;"><path d="M158.394,213.078s.034,0,.026.026l-1.795,5.341s-.035.043-.061.052l-5.255.958s-.034-.009-.025-.035l1.881-4.59s.034-.043.06-.052l5.169-1.691v-.009Z" style="fill:#92b6da;"/></g><g style="opacity:.5;"><path d="M158.946,203.389s.017-.034.035-.017l4.469,3.426s.035.043.026.069l-.794,5.281s-.017.025-.043.017l-3.736-3.262s-.035-.052-.035-.069l.069-5.436.009-.009Z" style="fill:#92b6da;"/></g><g style="opacity:.5;"><path d="M157.134,191.638s.034-.009.034.017l.596,5.6s-.009.052-.035.069l-4.375,3.064s-.034,0-.034-.018l-.207-4.952s.008-.061.026-.07l3.986-3.693.009-.017Z" style="fill:#92b6da;"/></g><g style="opacity:.5;"><path d="M146.934,211.406s.035,0,.026.026l-1.794,5.341s-.035.044-.061.052l-5.255.958s-.034-.009-.026-.035l1.881-4.59s.035-.043.061-.052l5.168-1.691v-.009Z" style="fill:#92b6da;"/></g><g style="opacity:.5;"><path d="M147.487,201.717s.017-.034.035-.017l4.469,3.426s.035.043.026.069l-.794,5.281s-.017.026-.043.017l-3.736-3.262s-.035-.052-.035-.069l.069-5.436.009-.009Z" style="fill:#92b6da;"/></g><g style="opacity:.5;"><path d="M145.675,189.962s.034-.008.034.018l.595,5.6s-.008.051-.034.069l-4.375,3.063s-.034,0-.034-.017l-.207-4.953s.008-.061.025-.069l3.987-3.693.009-.018Z" style="fill:#92b6da;"/></g><g style="opacity:.5;"><path d="M135.984,209.523s.035,0,.026.026l-1.795,5.342s-.034.043-.06.051l-5.255.958s-.034-.009-.026-.034l1.881-4.591s.035-.043.061-.052l5.168-1.691v-.009Z" style="fill:#92b6da;"/></g><g style="opacity:.5;"><path d="M136.528,199.835s.017-.035.034-.018l4.47,3.426s.035.043.026.069l-.794,5.281s-.017.026-.043.017l-3.736-3.262s-.035-.051-.035-.069l.069-5.436.009-.008Z" style="fill:#92b6da;"/></g><g style="opacity:.5;"><path d="M134.716,188.08s.034-.009.034.017l.596,5.6s-.009.052-.035.069l-4.375,3.063s-.034,0-.034-.017l-.207-4.953s.008-.06.026-.069l3.986-3.693.009-.017Z" style="fill:#92b6da;"/></g><g style="opacity:.5;"><path d="M124.525,208.023s.034,0,.026.026l-1.795,5.342s-.035.043-.06.051l-5.255.958s-.035-.009-.026-.034l1.881-4.591s.034-.043.06-.052l5.169-1.691v-.009Z" style="fill:#92b6da;"/></g><g style="opacity:.5;"><path d="M125.078,198.335s.017-.035.034-.018l4.47,3.426s.034.043.026.069l-.794,5.281s-.017.026-.043.017l-3.736-3.262s-.035-.051-.035-.069l.069-5.436.009-.008Z" style="fill:#92b6da;"/></g><g style="opacity:.5;"><path d="M123.265,186.58s.035-.009.035.017l.595,5.6s-.009.052-.034.069l-4.375,3.063s-.035,0-.035-.017l-.207-4.953s.009-.06.026-.069l3.987-3.693.008-.017Z" style="fill:#92b6da;"/></g><g style="opacity:.5;"><path d="M113.575,206.145s.034,0,.026.025l-1.795,5.342s-.035.043-.06.051l-5.255.958s-.035-.008-.026-.034l1.881-4.591s.034-.043.06-.052l5.169-1.691v-.008Z" style="fill:#92b6da;"/></g><g style="opacity:.5;"><path d="M114.127,196.452s.017-.035.034-.017l4.47,3.425s.035.043.026.069l-.794,5.281s-.017.026-.043.017l-3.736-3.261s-.035-.052-.035-.069l.069-5.437.009-.008Z" style="fill:#92b6da;"/></g><g style="opacity:.5;"><path d="M150.067,359.738s.035,0,.026.026l-1.795,5.341s-.034.044-.06.052l-5.255.958s-.035-.009-.026-.035l1.881-4.59s.035-.043.06-.052l5.169-1.691v-.009Z" style="fill:#92b6da;"/></g><g style="opacity:.5;"><path d="M150.611,350.042s.017-.035.034-.018l4.47,3.426s.035.043.026.069l-.794,5.281s-.017.026-.043.017l-3.736-3.262s-.035-.051-.035-.069l.069-5.436.009-.008Z" style="fill:#92b6da;"/></g><g style="opacity:.5;"><path d="M148.799,338.287s.034-.009.034.017l.596,5.6s-.009.052-.035.069l-4.375,3.063s-.034,0-.034-.017l-.207-4.953s.008-.06.025-.069l3.987-3.693.009-.017Z" style="fill:#92b6da;"/></g><g style="opacity:.5;"><path d="M139.108,357.859s.035,0,.026.026l-1.795,5.341s-.034.044-.06.052l-5.255.958s-.035-.009-.026-.034l1.881-4.591s.035-.043.06-.052l5.169-1.691v-.009Z" style="fill:#92b6da;"/></g><g style="opacity:.5;"><path d="M139.661,348.167s.017-.035.034-.018l4.47,3.426s.034.043.026.069l-.794,5.281s-.017.026-.043.017l-3.736-3.262s-.035-.051-.035-.069l.069-5.436.009-.008Z" style="fill:#92b6da;"/></g><g style="opacity:.5;"><path d="M137.848,336.404s.035-.009.035.017l.595,5.6s-.009.052-.034.069l-4.375,3.063s-.035,0-.035-.017l-.207-4.953s.009-.06.026-.069l3.987-3.693.008-.017Z" style="fill:#92b6da;"/></g><g style="opacity:.5;"><path d="M124.033,327.543s.034,0,.026.026l-1.795,5.341s-.035.043-.06.052l-5.255.958s-.035-.009-.026-.035l1.881-4.59s.034-.044.06-.052l5.169-1.691v-.009Z" style="fill:#92b6da;"/></g><g style="opacity:.5;"><path d="M124.577,317.854s.017-.034.035-.017l4.469,3.425s.035.044.026.07l-.794,5.28s-.017.026-.043.018l-3.736-3.262s-.034-.052-.034-.069l.069-5.436.008-.009Z" style="fill:#92b6da;"/></g><g style="opacity:.5;"><path d="M122.765,306.099s.034-.009.034.017l.596,5.6s-.009.052-.035.069l-4.375,3.064s-.034,0-.034-.018l-.207-4.953s.008-.06.026-.069l3.986-3.693.009-.017Z" style="fill:#92b6da;"/></g><g style="opacity:.5;"><path d="M113.074,325.66s.035,0,.026.026l-1.794,5.341s-.035.043-.061.052l-5.255.958s-.034-.009-.026-.035l1.881-4.59s.035-.043.061-.052l5.168-1.691v-.009Z" style="fill:#92b6da;"/></g><g style="opacity:.5;"><path d="M113.626,315.971s.018-.034.035-.017l4.47,3.426s.034.043.026.069l-.794,5.281s-.018.025-.043.017l-3.737-3.262s-.034-.052-.034-.069l.069-5.436.008-.009Z" style="fill:#92b6da;"/></g><g style="opacity:.5;"><path d="M111.814,304.22s.035-.008.035.017l.595,5.6s-.008.052-.034.069l-4.375,3.064s-.034,0-.034-.018l-.208-4.952s.009-.061.026-.069l3.987-3.694.008-.017Z" style="fill:#92b6da;"/></g><g style="opacity:.5;"><path d="M146.779,330.91s.035,0,.026.026l-1.795,5.341s-.034.043-.06.052l-5.255.958s-.035-.009-.026-.035l1.881-4.59s.035-.043.061-.052l5.168-1.691v-.009Z" style="fill:#92b6da;"/></g><g style="opacity:.5;"><path d="M145.519,309.458s.035-.008.035.018l.595,5.6s-.008.052-.034.069l-4.375,3.063s-.035,0-.035-.017l-.207-4.953s.009-.061.026-.069l3.987-3.693.008-.018Z" style="fill:#92b6da;"/></g><g style="opacity:.5;"><path d="M135.829,329.027s.035,0,.026.026l-1.795,5.341s-.034.044-.06.052l-5.255.958s-.035-.009-.026-.034l1.881-4.591s.035-.043.06-.052l5.169-1.691v-.009Z" style="fill:#92b6da;"/></g><g style="opacity:.5;"><path d="M136.381,319.339s.017-.035.035-.018l4.469,3.426s.035.043.026.069l-.794,5.281s-.017.026-.043.017l-3.736-3.262s-.035-.051-.035-.069l.07-5.436.008-.008Z" style="fill:#92b6da;"/></g><g style="opacity:.5;"><path d="M134.569,307.576s.035-.009.035.017l.595,5.6s-.009.052-.034.069l-4.375,3.063s-.035,0-.035-.017l-.207-4.953s.009-.06.026-.069l3.986-3.693.009-.017Z" style="fill:#92b6da;"/></g><g style="opacity:.5;"><path d="M127.235,348.581s.017-.035.034-.018l4.47,3.426s.034.043.026.069l-.794,5.281s-.017.026-.043.017l-3.736-3.262s-.035-.051-.035-.069l.069-5.436.009-.008Z" style="fill:#92b6da;"/></g><g style="opacity:.5;"><path d="M125.422,336.826s.035-.009.035.017l.595,5.6s-.008.052-.034.069l-4.375,3.063s-.035,0-.035-.017l-.207-4.953s.009-.06.026-.069l3.987-3.693.008-.017Z" style="fill:#92b6da;"/></g><g style="opacity:.5;"><path d="M116.284,346.698s.017-.035.035-.017l4.469,3.425s.035.043.026.069l-.794,5.281s-.017.026-.043.017l-3.736-3.261s-.034-.052-.034-.069l.069-5.436.008-.009Z" style="fill:#92b6da;"/></g><g style="opacity:.5;"><path d="M114.472,334.947s.035-.009.035.017l.595,5.6s-.009.052-.034.069l-4.375,3.063s-.035,0-.035-.017l-.207-4.953s.009-.06.026-.069l3.987-3.693.008-.017Z" style="fill:#92b6da;"/></g><g style="opacity:.5;"><path d="M172.191,365s.035,0,.026.026l-1.795,5.341s-.034.043-.06.052l-5.255.958s-.034-.009-.026-.035l1.881-4.59s.035-.043.061-.052l5.168-1.691v-.009Z" style="fill:#92b6da;"/></g><g style="opacity:.5;"><path d="M161.233,363.121s.034,0,.026.026l-1.795,5.341s-.035.043-.06.052l-5.255.958s-.035-.009-.026-.035l1.881-4.59s.034-.043.06-.052l5.169-1.691v-.009Z" style="fill:#92b6da;"/></g><g style="opacity:.5;"><path d="M161.785,353.421s.017-.035.034-.018l4.47,3.426s.035.043.026.069l-.794,5.281s-.017.026-.043.017l-3.736-3.262s-.035-.051-.035-.069l.069-5.436.009-.008Z" style="fill:#92b6da;"/></g><g style="opacity:.5;"><path d="M159.973,341.665s.035-.008.035.018l.595,5.6s-.009.052-.034.069l-4.375,3.063s-.035,0-.035-.017l-.207-4.953s.009-.061.026-.069l3.987-3.693.008-.018Z" style="fill:#92b6da;"/></g><g style="opacity:.5;"><path d="M164.883,281.439s.034-.009.034.017l.596,5.6s-.009.052-.035.069l-4.375,3.063s-.034,0-.034-.017l-.207-4.953s.008-.06.026-.069l3.986-3.693.009-.017Z" style="fill:#92b6da;"/></g><g style="opacity:.5;"><path d="M155.193,301.008s.034,0,.025.026l-1.794,5.341s-.035.043-.061.052l-5.255.958s-.034-.009-.026-.035l1.882-4.591s.034-.043.06-.051l5.169-1.692v-.008Z" style="fill:#92b6da;"/></g><g style="opacity:.5;"><path d="M155.745,291.311s.017-.034.034-.017l4.47,3.426s.034.043.026.069l-.794,5.28s-.017.026-.043.018l-3.736-3.262s-.035-.052-.035-.069l.069-5.436.009-.009Z" style="fill:#92b6da;"/></g><g style="opacity:.5;"><path d="M153.933,279.556s.034-.009.034.017l.596,5.6s-.009.052-.035.069l-4.375,3.064s-.034,0-.034-.018l-.207-4.953s.008-.06.026-.069l3.986-3.693.009-.017Z" style="fill:#92b6da;"/></g><g style="opacity:.5;"><path d="M143.733,299.328s.034,0,.026.026l-1.795,5.341s-.035.043-.06.052l-5.255.958s-.035-.009-.026-.035l1.881-4.59s.034-.043.06-.052l5.169-1.691v-.009Z" style="fill:#92b6da;"/></g><g style="opacity:.5;"><path d="M144.277,289.639s.017-.034.035-.017l4.469,3.426s.035.043.026.069l-.794,5.28s-.017.026-.043.018l-3.736-3.262s-.035-.052-.035-.069l.07-5.436.008-.009Z" style="fill:#92b6da;"/></g><g style="opacity:.5;"><path d="M142.465,277.884s.034-.008.034.017l.596,5.601s-.009.051-.035.069l-4.375,3.063s-.034,0-.034-.017l-.207-4.953s.008-.061.025-.069l3.987-3.694.009-.017Z" style="fill:#92b6da;"/></g><g style="opacity:.5;"><path d="M132.774,297.457s.035,0,.026.026l-1.795,5.341s-.034.043-.06.052l-5.255.958s-.034-.009-.026-.035l1.881-4.59s.035-.043.061-.052l5.168-1.691v-.009Z" style="fill:#92b6da;"/></g><g style="opacity:.5;"><path d="M133.327,287.756s.017-.034.034-.017l4.47,3.426s.034.043.026.069l-.794,5.281s-.017.026-.043.017l-3.736-3.262s-.035-.051-.035-.069l.069-5.436.009-.009Z" style="fill:#92b6da;"/></g><g style="opacity:.5;"><path d="M131.515,276.005s.034-.008.034.018l.596,5.6s-.009.051-.035.069l-4.375,3.063s-.034,0-.034-.017l-.207-4.953s.008-.061.026-.069l3.986-3.693.009-.018Z" style="fill:#92b6da;"/></g><g style="opacity:.5;"><path d="M121.323,295.953s.035,0,.026.026l-1.794,5.341s-.035.043-.061.052l-5.255.958s-.034-.009-.026-.035l1.881-4.59s.035-.043.061-.052l5.168-1.691v-.009Z" style="fill:#92b6da;"/></g><g style="opacity:.5;"><path d="M121.876,286.253s.018-.035.035-.018l4.47,3.426s.034.043.026.069l-.794,5.281s-.018.026-.043.017l-3.737-3.262s-.034-.051-.034-.069l.069-5.436.008-.008Z" style="fill:#92b6da;"/></g><g style="opacity:.5;"><path d="M120.064,274.501s.034-.008.034.018l.596,5.6s-.009.051-.035.069l-4.375,3.063s-.034,0-.034-.017l-.207-4.953s.008-.061.026-.069l3.986-3.693.009-.018Z" style="fill:#92b6da;"/></g><g style="opacity:.5;"><path d="M110.374,294.074s.034,0,.026.026l-1.795,5.341s-.035.043-.061.052l-5.255.958s-.034-.009-.025-.035l1.881-4.59s.034-.043.06-.052l5.169-1.691v-.009Z" style="fill:#92b6da;"/></g><g style="opacity:.5;"><path d="M110.917,284.381s.017-.034.035-.017l4.469,3.426s.035.043.026.069l-.793,5.281s-.018.026-.044.017l-3.736-3.262s-.034-.052-.034-.069l.069-5.436.008-.009Z" style="fill:#92b6da;"/></g><g style="opacity:.5;"><path d="M109.105,272.619s.035-.009.035.017l.595,5.6s-.008.052-.034.069l-4.375,3.063s-.035,0-.035-.017l-.207-4.953s.009-.06.026-.069l3.987-3.693.008-.017Z" style="fill:#92b6da;"/></g></g><g style="opacity:.5;"><g style="opacity:.5;"><path d="M115.016,145.216s-.035.017-.035,0l-1.613-5.402s0-.052.017-.069l3.736-3.805s.035-.009.044.008l1.113,4.832s0,.061-.018.078l-3.244,4.366v-.008Z" style="fill:#92b6da;"/></g><g style="opacity:.5;"><path d="M120.159,153.445s0,.034-.017.034l-5.626-.216s-.052-.017-.061-.043l-2.399-4.771s0-.035.026-.035l4.936.501s.052.017.069.043l3.08,4.478-.008.009Z" style="fill:#92b6da;"/></g><g style="opacity:.5;"><path d="M128.426,162.006s-.026.025-.035.008l-3.719-4.228s-.026-.052-.017-.069l1.803-5.022s.026-.026.043,0l3.029,3.926s.026.052.017.078l-1.13,5.324.009-.017Z" style="fill:#92b6da;"/></g><g style="opacity:.5;"><path d="M125.052,140.427s-.035.017-.035,0l-1.613-5.402s0-.052.017-.069l3.736-3.805s.035-.009.043.008l1.114,4.832s0,.061-.018.078l-3.244,4.366v-.008Z" style="fill:#92b6da;"/></g><g style="opacity:.5;"><path d="M130.194,148.663s0,.035-.017.035l-5.626-.216s-.052-.017-.06-.043l-2.399-4.772s0-.034.026-.034l4.935.5s.052.018.069.043l3.081,4.479-.009.008Z" style="fill:#92b6da;"/></g><g style="opacity:.5;"><path d="M138.452,157.216s-.025.026-.034.009l-3.719-4.228s-.026-.052-.017-.069l1.803-5.022s.026-.026.043,0l3.029,3.926s.026.052.017.078l-1.13,5.324.008-.018Z" style="fill:#92b6da;"/></g><g style="opacity:.5;"><path d="M134.336,166.864s-.034.017-.034,0l-1.614-5.402s0-.051.018-.069l3.736-3.805s.034-.009.043.009l1.113,4.832s0,.06-.017.078l-3.245,4.366v-.009Z" style="fill:#92b6da;"/></g><g style="opacity:.5;"><path d="M139.479,175.097s0,.035-.017.035l-5.626-.216s-.052-.017-.061-.043l-2.399-4.772s0-.035.026-.035l4.936.501s.052.017.069.043l3.081,4.478-.009.009Z" style="fill:#92b6da;"/></g><g style="opacity:.5;"><path d="M147.737,183.658s-.026.026-.034.009l-3.719-4.229s-.026-.051-.018-.069l1.804-5.022s.026-.025.043,0l3.029,3.927s.026.051.017.077l-1.13,5.324.008-.017Z" style="fill:#92b6da;"/></g><g style="opacity:.5;"><path d="M144.363,162.083s-.034.017-.034,0l-1.614-5.402s0-.052.018-.069l3.736-3.805s.034-.009.043.008l1.113,4.833s0,.06-.017.077l-3.245,4.366v-.008Z" style="fill:#92b6da;"/></g><g style="opacity:.5;"><path d="M149.506,170.316s0,.034-.017.034l-5.626-.215s-.052-.018-.061-.044l-2.398-4.771s0-.035.025-.035l4.936.501s.052.017.069.043l3.081,4.478-.009.009Z" style="fill:#92b6da;"/></g><g style="opacity:.5;"><path d="M157.773,178.865s-.026.026-.035.009l-3.719-4.229s-.026-.051-.017-.069l1.803-5.022s.026-.025.044,0l3.028,3.927s.026.051.018.077l-1.131,5.324.009-.017Z" style="fill:#92b6da;"/></g><g style="opacity:.5;"><path d="M134.957,132.919s-.034.017-.034,0l-1.614-5.402s0-.052.018-.069l3.736-3.805s.034-.009.043.008l1.113,4.833s0,.06-.017.077l-3.245,4.366v-.008Z" style="fill:#92b6da;"/></g><g style="opacity:.5;"><path d="M140.1,141.148s0,.034-.017.034l-5.626-.215s-.052-.018-.06-.044l-2.399-4.771s0-.035.026-.035l4.935.501s.052.017.069.043l3.081,4.478-.009.009Z" style="fill:#92b6da;"/></g><g style="opacity:.5;"><path d="M148.358,149.701s-.025.026-.034.009l-3.719-4.229s-.026-.051-.017-.069l1.803-5.022s.026-.025.043,0l3.029,3.927s.026.051.017.077l-1.13,5.324.008-.017Z" style="fill:#92b6da;"/></g><g style="opacity:.5;"><path d="M144.985,128.13s-.035.017-.035,0l-1.614-5.402s0-.052.018-.069l3.736-3.805s.034-.009.043.008l1.113,4.832s0,.061-.017.078l-3.244,4.366v-.008Z" style="fill:#92b6da;"/></g><g style="opacity:.5;"><path d="M150.127,136.359s0,.034-.017.034l-5.626-.215s-.052-.018-.061-.044l-2.398-4.771s0-.035.026-.035l4.935.501s.052.017.069.043l3.081,4.478-.009.009Z" style="fill:#92b6da;"/></g><g style="opacity:.5;"><path d="M158.394,144.92s-.026.026-.034.008l-3.719-4.228s-.026-.052-.018-.069l1.804-5.022s.026-.026.043,0l3.029,3.926s.025.052.017.078l-1.131,5.324.009-.017Z" style="fill:#92b6da;"/></g><g style="opacity:.5;"><path d="M114.947,175.895s-.035.018-.035,0l-1.613-5.401s0-.052.017-.069l3.736-3.806s.035-.008.044.009l1.113,4.832s0,.06-.018.078l-3.244,4.366v-.009Z" style="fill:#92b6da;"/></g><g style="opacity:.5;"><path d="M120.09,184.128s-.001.035-.018.035l-5.626-.216s-.052-.017-.06-.043l-2.399-4.772s0-.034.026-.034l4.936.5s.051.017.069.043l3.08,4.479-.008.008Z" style="fill:#92b6da;"/></g><g style="opacity:.5;"><path d="M128.357,192.681s-.026.026-.035.009l-3.719-4.228s-.026-.052-.017-.069l1.803-5.022s.026-.026.043,0l3.029,3.926s.026.052.017.078l-1.13,5.324.009-.018Z" style="fill:#92b6da;"/></g><g style="opacity:.5;"><path d="M124.983,171.106s-.035.017-.035,0l-1.614-5.401s0-.052.018-.069l3.736-3.806s.035-.008.043.009l1.113,4.832s0,.06-.017.078l-3.244,4.366v-.009Z" style="fill:#92b6da;"/></g><g style="opacity:.5;"><path d="M130.125,179.347s0,.035-.017.035l-5.626-.216s-.052-.017-.06-.043l-2.399-4.772s0-.035.026-.035l4.935.501s.052.017.069.043l3.081,4.478-.009.009Z" style="fill:#92b6da;"/></g><g style="opacity:.5;"><path d="M138.383,187.9s-.026.026-.034.009l-3.719-4.228s-.026-.052-.017-.069l1.803-5.022s.026-.026.043,0l3.029,3.926s.026.052.017.077l-1.13,5.324.008-.017Z" style="fill:#92b6da;"/></g><g style="opacity:.5;"><path d="M107.319,170.47s-.026.026-.034.009l-3.719-4.228s-.026-.052-.018-.069l1.804-5.022s.026-.026.043,0l3.029,3.926s.026.052.017.078l-1.13,5.324.008-.018Z" style="fill:#92b6da;"/></g><g style="opacity:.5;"><path d="M103.936,148.899s-.034.017-.034,0l-1.614-5.401s0-.052.017-.069l3.737-3.806s.034-.008.043.009l1.113,4.832s0,.06-.017.078l-3.245,4.366v-.009Z" style="fill:#92b6da;"/></g><g style="opacity:.5;"><path d="M109.088,157.128s0,.035-.018.035l-5.626-.216s-.051-.017-.06-.043l-2.399-4.772s0-.034.026-.034l4.936.5s.051.017.069.043l3.08,4.479-.008.008Z" style="fill:#92b6da;"/></g><g style="opacity:.5;"><path d="M117.346,165.681s-.026.026-.035.009l-3.719-4.228s-.026-.052-.017-.069l1.803-5.022s.026-.026.044,0l3.028,3.926s.026.052.018.078l-1.131,5.324.009-.018Z" style="fill:#92b6da;"/></g><g style="opacity:.5;"><path d="M80.3101,88.3415s-.0259.0259-.0345.0086l-3.719-4.2281s-.0259-.0517-.0172-.069l1.8034-5.022s.0258-.0259.0431,0l3.0287,3.9261s.0259.0518.0173.0777l-1.1304,5.324.0086-.0173Z" style="fill:#92b6da;"/></g><g style="opacity:.5;"><path d="M76.9276,66.7703s-.0345.0173-.0345,0l-1.6136-5.4016s0-.0518.0173-.0691l3.7363-3.8053s.0345-.0086.0431.0087l1.1131,4.8321s0,.0604-.0172.0777l-3.2445,4.3661v-.0086Z" style="fill:#92b6da;"/></g><g style="opacity:.5;"><path d="M82.079,74.9993s0,.0346-.0173.0346l-5.626-.2158s-.0517-.0172-.0603-.0431l-2.3988-4.7717s0-.0345.0258-.0345l4.9357.5004s.0518.0173.069.0432l3.0805,4.4783-.0086.0086Z" style="fill:#92b6da;"/></g><g style="opacity:.5;"><path d="M90.3367,83.5642s-.0258.0258-.0345.0086l-3.719-4.2281s-.0259-.0518-.0172-.0691l1.8034-5.0219s.0259-.0259.0431,0l3.0287,3.9261s.0259.0518.0173.0777l-1.1304,5.3239.0086-.0172Z" style="fill:#92b6da;"/></g><g style="opacity:.5;"><path d="M106.741,82.8289s-.035.0173-.035,0l-1.613-5.4016s0-.0518.017-.0691l3.736-3.8053s.035-.0086.043.0087l1.114,4.8321s0,.0604-.018.0777l-3.244,4.3661v-.0086Z" style="fill:#92b6da;"/></g><g style="opacity:.5;"><path d="M111.884,91.0579s0,.0345-.018.0345l-5.626-.2157s-.051-.0172-.06-.0431l-2.399-4.7717s0-.0346.026-.0346l4.936.5005s.052.0173.069.0432l3.08,4.4783-.008.0086Z" style="fill:#92b6da;"/></g><g style="opacity:.5;"><path d="M120.141,99.611s-.025.0259-.034.0087l-3.719-4.2281s-.026-.0518-.017-.0691l1.803-5.0219s.026-.0259.043,0l3.029,3.9261s.026.0517.017.0776l-1.13,5.324.008-.0173Z" style="fill:#92b6da;"/></g><g style="opacity:.5;"><path d="M116.768,78.0359s-.035.0173-.035,0l-1.613-5.4016s0-.0518.017-.069l3.736-3.8053s.035-.0087.043.0086l1.113,4.8321s0,.0604-.017.0777l-3.244,4.3662v-.0087Z" style="fill:#92b6da;"/></g><g style="opacity:.5;"><path d="M121.91,86.2689s0,.0345-.017.0345l-5.626-.2157s-.052-.0173-.06-.0432l-2.399-4.7717s0-.0345.026-.0345l4.935.5005s.052.0172.069.0431l3.081,4.4783-.009.0087Z" style="fill:#92b6da;"/></g><g style="opacity:.5;"><path d="M130.177,94.8298s-.026.0259-.034.0086l-3.719-4.2281s-.026-.0518-.018-.069l1.804-5.022s.026-.0259.043,0l3.029,3.9261s.025.0518.017.0777l-1.131,5.3239.009-.0172Z" style="fill:#92b6da;"/></g><g style="opacity:.5;"><path d="M86.2123,93.2078s-.0345.0173-.0345,0l-1.6136-5.4016s0-.0518.0173-.0691l3.7362-3.8053s.0345-.0086.0432.0087l1.1131,4.8321s0,.0604-.0173.0777l-3.2444,4.3661v-.0086Z" style="fill:#92b6da;"/></g><g style="opacity:.5;"><path d="M99.6217,109.99s-.0259.026-.0345.009l-3.719-4.229s-.0259-.051-.0173-.069l1.8034-5.022s.0259-.025.0432,0l3.0285,3.927s.026.051.017.077l-1.13,5.324.0087-.017Z" style="fill:#92b6da;"/></g><g style="opacity:.5;"><path d="M96.248,88.4187s-.0346.0173-.0346,0l-1.6135-5.4016s0-.0518.0172-.069l3.7363-3.8053s.0345-.0086.0431.0086l1.1131,4.8321s0,.0604-.0172.0777l-3.2444,4.3662v-.0087Z" style="fill:#92b6da;"/></g><g style="opacity:.5;"><path d="M101.391,96.6517s0,.0345-.018.0345l-5.6257-.2157s-.0518-.0173-.0604-.0432l-2.3988-4.7717s0-.0345.0259-.0345l4.9356.5005s.0518.0172.0691.0431l3.0803,4.4784-.008.0086Z" style="fill:#92b6da;"/></g><g style="opacity:.5;"><path d="M109.657,105.213s-.026.025-.034.008l-3.719-4.228s-.026-.052-.017-.069l1.803-5.0219s.026-.0259.043,0l3.029,3.9261s.026.0518.017.0777l-1.13,5.3241.008-.017Z" style="fill:#92b6da;"/></g><g style="opacity:.5;"><path d="M91.9848,67.4954s0,.0345-.0173.0345l-5.626-.2157s-.0517-.0172-.0604-.0431l-2.3988-4.7717s0-.0346.0259-.0346l4.9357.5005s.0518.0173.069.0432l3.0805,4.4783-.0086.0086Z" style="fill:#92b6da;"/></g><g style="opacity:.5;"><path d="M100.243,76.0446s-.026.0259-.034.0087l-3.7195-4.2281s-.0259-.0518-.0173-.0691l1.8035-5.0219s.0258-.0259.0431,0l3.0292,3.9261s.025.0517.017.0776l-1.131,5.324.009-.0173Z" style="fill:#92b6da;"/></g><g style="opacity:.5;"><path d="M102.012,62.7025s0,.0345-.017.0345l-5.6261-.2157s-.0518-.0173-.0604-.0432l-2.3988-4.7717s0-.0345.0259-.0345l4.9356.5004s.0518.0173.0691.0432l3.0807,4.4783-.009.0087Z" style="fill:#92b6da;"/></g><g style="opacity:.5;"><path d="M110.279,71.2556s-.026.0259-.035.0086l-3.719-4.2281s-.026-.0518-.017-.069l1.803-5.022s.026-.0259.043,0l3.029,3.9261s.026.0518.017.0777l-1.13,5.3239.009-.0172Z" style="fill:#92b6da;"/></g><g style="opacity:.5;"><path d="M99.9757,144.049s-.0259.025-.0345.008l-3.719-4.228s-.0259-.052-.0173-.069l1.8034-5.022s.0259-.026.0432,0l3.0285,3.926s.026.052.017.078l-1.1299,5.324.0086-.017Z" style="fill:#92b6da;"/></g><g style="opacity:.5;"><path d="M96.6017,122.477s-.0345.018-.0345,0l-1.6136-5.401s0-.052.0173-.069l3.7362-3.806s.0345-.008.0432.009l1.1131,4.832s0,.061-.0173.078l-3.2444,4.366v-.009Z" style="fill:#92b6da;"/></g><g style="opacity:.5;"><path d="M101.745,130.718s0,.035-.018.035l-5.6257-.216s-.0518-.017-.0604-.043l-2.3988-4.772s0-.034.0259-.034l4.9356.5s.0518.017.0691.043l3.0803,4.478-.008.009Z" style="fill:#92b6da;"/></g><g style="opacity:.5;"><path d="M110.002,139.267s-.026.026-.034.009l-3.719-4.228s-.026-.052-.018-.069l1.804-5.022s.026-.026.043,0l3.029,3.926s.026.052.017.078l-1.13,5.324.008-.018Z" style="fill:#92b6da;"/></g><g style="opacity:.5;"><path d="M106.931,117.231s-.035.017-.035,0l-1.614-5.401s0-.052.018-.069l3.736-3.806s.035-.008.043.009l1.113,4.832s0,.06-.017.078l-3.244,4.366v-.009Z" style="fill:#92b6da;"/></g><g style="opacity:.5;"><path d="M112.073,125.472s0,.035-.017.035l-5.626-.216s-.052-.017-.06-.043l-2.399-4.772s0-.035.026-.035l4.936.501s.051.017.069.043l3.08,4.478-.009.009Z" style="fill:#92b6da;"/></g><g style="opacity:.5;"><path d="M120.331,134.025s-.026.026-.034.009l-3.719-4.228s-.026-.052-.018-.069l1.804-5.022s.026-.026.043,0l3.029,3.926s.026.052.017.077l-1.13,5.324.008-.017Z" style="fill:#92b6da;"/></g><g style="opacity:.5;"><path d="M116.957,112.45s-.034.017-.034,0l-1.614-5.402s0-.051.017-.069l3.737-3.805s.034-.009.043.009l1.113,4.832s0,.06-.017.077l-3.245,4.367v-.009Z" style="fill:#92b6da;"/></g><g style="opacity:.5;"><path d="M122.1,120.683s0,.034-.017.034l-5.626-.215s-.052-.018-.061-.043l-2.398-4.772s0-.035.025-.035l4.936.501s.052.017.069.043l3.081,4.478-.009.009Z" style="fill:#92b6da;"/></g><g style="opacity:.5;"><path d="M130.367,129.236s-.026.026-.034.009l-3.719-4.228s-.026-.052-.018-.069l1.804-5.022s.026-.026.043,0l3.029,3.926s.025.051.017.077l-1.131,5.324.009-.017Z" style="fill:#92b6da;"/></g><g style="opacity:.5;"><path d="M127.174,107.067s-.034.017-.034,0l-1.614-5.401s0-.052.017-.069l3.737-3.8058s.034-.0086.043.0086l1.113,4.8322s0,.06-.017.078l-3.245,4.366v-.009Z" style="fill:#92b6da;"/></g><g style="opacity:.5;"><path d="M132.326,115.308s0,.034-.018.034l-5.626-.215s-.051-.018-.06-.043l-2.399-4.772s0-.035.026-.035l4.936.501s.051.017.069.043l3.08,4.478-.008.009Z" style="fill:#92b6da;"/></g><g style="opacity:.5;"><path d="M140.583,123.857s-.026.026-.034.009l-3.719-4.228s-.026-.052-.017-.069l1.803-5.022s.026-.026.043,0l3.029,3.926s.026.052.017.077l-1.13,5.324.008-.017Z" style="fill:#92b6da;"/></g><g style="opacity:.5;"><path d="M137.21,102.286s-.035.017-.035,0l-1.613-5.4017s0-.0518.017-.069l3.736-3.8053s.035-.0087.043.0086l1.113,4.8321s0,.0604-.017.0777l-3.244,4.3666v-.009Z" style="fill:#92b6da;"/></g><g style="opacity:.5;"><path d="M142.352,110.515s0,.034-.017.034l-5.626-.215s-.052-.017-.06-.043l-2.399-4.772s0-.035.026-.035l4.936.501s.051.017.069.043l3.08,4.478-.009.009Z" style="fill:#92b6da;"/></g><g style="opacity:.5;"><path d="M150.619,119.068s-.026.026-.034.009l-3.719-4.228s-.026-.052-.018-.069l1.804-5.022s.026-.026.043,0l3.029,3.926s.026.051.017.077l-1.13,5.324.008-.017Z" style="fill:#92b6da;"/></g></g><g style="mask:url(#b);"><path d="M83.3909,78.1239l.0603,7.1187c.0604,7.369,4.7892,13.297,10.5533,13.2452l5.4536-.0517c4.7459-.0432,8.9139,4.0039,10.1819,9.8459,3.616,16.662,9.924,53.558,9.009,104.934-1.208,67.943-27.3281,124.005-30.8487,130.14-.1899.336-.3624.664-.5264,1.018L11.5371,461.751c-.768,1.226-3.8744,9.527-4.2714,11.011-.7162,2.709-.7248,5.677,0,8.439,7.9128,30.2,56.8652,193.656,113.5143,195.407,80.768,2.5031,116.751,2.485,123.49-1.579.794-.474,1.51-1.061,2.183-1.777,9.527-10.096,74.529-104.012,87.05-199.403.388-2.977-.475-5.988-1.821-8.474-22.272-41.15-68.074-91.128-85.816-129.621-18.336-39.77-29.787-100.724-29.977-122.503-.146-16.973.061-78.117.915-104.279.224-6.826,4.453-12.3049,9.794-12.6931,6.187-.4487,11.399-7.3,11.571-15.2212l.061-2.7354c.164-7.5329-4.591-13.7715-10.484-13.7715l-133.9572.1208c-5.7901,0-10.4497,6.0315-10.3807,13.435l-.0172.0173Z" style="fill:#c59b6d; stroke:#c59b6d; stroke-miterlimit:10; stroke-width:9px;"/></g><path d="M191.415,530.844c.521,11.045,2.784,20.577,1.71,31.174l-34.189.021c-.876-10.576.573-20.15,1.961-31.373-8.814,6.352-16.167,12.412-25.794,17.626l-17.668-30.12c9.418-5.591,18.805-9.408,28.797-13.528-10.054-4.255-19.368-7.499-28.588-13.537l17.219-29.84c9.606,4.808,17.293,10.899,26.044,17.825-4.892-3.901-1.669-.647-1.669-.647h33.585c-.084,5.841.81-5.056,1.467.326,8.563-6.101,13.145-12.654,22.459-17.744l17.679,30.069c-9.273,5.893-18.399,9.262-28.662,13.6,10.159,4.037,19.462,7.937,28.662,13.538l-17.335,30.142c-9.011-4.787-16.542-10.628-25.668-17.522l-.01-.01Z" style="fill:#603813;"/><path d="M160.577,478.719c-.521-11.045-2.784-20.578-1.71-31.174l34.189-.021c.876,10.575-.573,20.15-1.961,31.372,8.814-6.351,16.167-12.411,25.794-17.626l17.668,30.121c-9.418,5.59-18.805,9.408-28.797,13.527,10.054,4.256,19.368,7.499,28.588,13.538l-17.22,29.839c-9.606-4.808-17.292-10.899-26.043-17.824,4.892,3.901,1.669.647,1.669.647h-33.585c.084-5.841-1.845,5.381-2.502,0-8.563,6.101-12.11,12.327-21.424,17.417l-17.679-30.069c9.273-5.892,18.399-9.261,28.662-13.6-10.159-4.036-19.462-7.937-28.662-13.538l17.335-30.141c9.011,4.787,16.542,10.627,25.668,17.522l.01.01Z" style="fill:#603813;"/><rect x="94.2947" y="577.723" width="15.9762" height=".1016" style="fill:#215523; stroke:#511e68; stroke-width:.1016px;"/><rect x="94.5274" y="577.611" width="15.6811" height=".1368" style="fill:#215523; stroke:#511e68; stroke-width:.1368px;"/><line x1="110.0295" y1="577.7804" x2="110.3506" y2="577.6237" style="fill:none; stroke:#511e68; stroke-miterlimit:4; stroke-width:1px;"/><line x1="94.2342" y1="578.075" x2="94.0343" y2="577.7885" style="fill:none; stroke:#511e68; stroke-miterlimit:4; stroke-width:1px;"/><path d="M83.9717,79.1441l.0603,7.1187c.0604,7.369,4.7891,13.297,10.5533,13.2452l5.4536-.0518c4.7461-.0431,8.9141,4.0038,10.1821,9.8455,3.616,16.6622,9.923,53.5588,9.009,104.9348-1.208,67.943-27.3283,124.004-30.8489,130.139-.1899.337-.3624.665-.5264,1.019L12.1179,462.7715c-.768,1.225-3.8744,9.526-4.2714,11.01-.7162,2.71-.7248,5.678,0,8.439,7.9128,30.201,56.8652,193.656,113.5145,195.408,80.768,2.502,116.751,2.485,123.49-1.579.794-.475,1.51-1.061,2.183-1.778,9.526-10.095,74.529-104.011,87.049-199.402.389-2.977-.474-5.989-1.82-8.474-22.272-41.151-68.075-91.129-85.816-129.622-18.336-39.77-29.787-100.723-29.977-122.503-.147-16.972.06-78.116.915-104.2785.224-6.8254,4.452-12.3047,9.794-12.693,6.187-.4487,11.399-7.2999,11.571-15.2211l.061-2.7354c.164-7.5329-4.591-13.7715-10.485-13.7715l-133.9564.1208c-5.7901,0-10.4497,6.0315-10.3807,13.435l-.0172.0173Z" style="fill:#dcd6cb; stroke:#dcd6cb; stroke-miterlimit:10; stroke-width:9px;"/><path d="M116.891,121.8913c8.025,27.5603,11.356,56.3462,11.995,84.9932,1.527,71.783-19.148,144.912-63.5444,201.931-8.8361,11.321-18.397,22.047-28.7259,31.961,9.6386-10.578,18.725-21.632,27.0261-33.22,8.232-11.589,15.8342-23.738,22.4785-36.302,40.0387-75.251,48.3307-166.553,30.7707-249.3632Z" style="fill:#e2e3e2;"/><path d="M304.245,437.2885c-78.257-69.669-109.891-173.879-95.144-276.354,2.123-14.2982,4.902-28.5529,9.311-42.3245-.915,3.4947-1.674,7.0152-2.382,10.553-4.901,24.6956-7.067,49.9435-6.972,75.0875.345,88.937,32.298,169.806,95.187,233.038Z" style="fill:#e2e3e2;"/><path d="M90.1591,654.4185c46.1389,9.82,94.9969,15.791,141.5419,5.704,6.627-1.519,13.15-3.469,19.631-5.704-6.11,3.106-12.521,5.635-19.079,7.749-44.215,13.366-98.906,7.36-142.0939-7.749Z" style="fill:#e2e3e2;"/><path d="M23.0423,462.3245c-1.7948,8.871-3.2789,17.663-.9923,26.508.2502,1.355.7421,2.563.9923,3.943-.5436-.44-1.0441-.923-1.5446-1.423-7.4725-7.861-6.066-21.745,1.5446-29.028Z" style="fill:#e2e3e2;"/><path d="M316.593,490.4995c.604-2.554,1.406-5.1,1.726-7.706.785-5.004.457-9.871-.311-14.893-.397-2.537-.889-5.108-1.415-7.861,8.154,7.732,9.103,23.074,0,30.451v.009Z" style="fill:#e2e3e2;"/><path d="M95.3365,404.8895s52.8615-61.652,121.5485-1.38-121.5485,1.38-121.5485,1.38Z" style="fill:#f18cb8;"/><path d="M38.7644,494.5425c6.2992,29.856,21.7365,94.382,43.9131,129.682,4.9875,7.947,12.7623,18.483,21.5725,20.218,37.027,7.291,99.527,4.038,128.9,1.915,10.795-.776,20.572-12.149,26.189-22.0291,12.115-21.287,32.186-64.604,42.74-131.814,1.337-8.516-.207-17.274-4.444-24.626-17.198-29.856-41.152-59.539-61.534-78.505-5.358-4.987-12.037-8.18-19.139-8.706-8.845-.656-18.44,1.432-27.889,3.926-15.756,4.168-31.893,6.471-48.124,6.756-19.562.345-38.27,7.222-53.6809,19.277-7.7575,6.066-14.6779,13.444-20.4508,21.96l-22.5217,33.204c-5.6261,8.292-7.6366,18.75-5.5312,28.734v.008Z" style="fill:#d0518e;"/><g style="opacity:.5;"><g style="opacity:.5;"><path d="M153.366,273.1535s.034-.001.026.025l-1.795,5.342s-.035.043-.06.051l-5.255.958s-.035-.008-.026-.034l1.881-4.591s.034-.043.06-.052l5.169-1.691v-.008Z" style="fill:#92b6da;"/></g><g style="opacity:.5;"><path d="M153.919,263.4645s.017-.035.034-.018l4.47,3.426s.034.043.026.069l-.794,5.281s-.017.026-.043.017l-3.737-3.262s-.034-.051-.034-.069l.069-5.436.009-.008Z" style="fill:#92b6da;"/></g><g style="opacity:.5;"><path d="M152.098,251.7125s.034-.008.034.018l.596,5.6s-.009.052-.035.069l-4.375,3.063s-.034,0-.034-.017l-.207-4.953s.008-.061.025-.069l3.987-3.693.009-.018Z" style="fill:#92b6da;"/></g><g style="opacity:.5;"><path d="M142.4159,271.2745s.034,0,.026.025l-1.795,5.342s-.035.043-.06.051l-5.255.958s-.035-.008-.026-.034l1.881-4.591s.034-.043.06-.052l5.169-1.691v-.008Z" style="fill:#92b6da;"/></g><g style="opacity:.5;"><path d="M142.96,261.5855s.017-.035.034-.018l4.47,3.426s.034.043.026.069l-.794,5.281s-.017.026-.043.017l-3.736-3.261s-.035-.052-.035-.069l.069-5.437.009-.008Z" style="fill:#92b6da;"/></g><g style="opacity:.5;"><path d="M141.147,249.8305s.035-.009.035.017l.595,5.6s-.008.052-.034.069l-4.375,3.063s-.035,0-.035-.017l-.207-4.953s.009-.06.026-.069l3.987-3.693.008-.017Z" style="fill:#92b6da;"/></g><g style="opacity:.5;"><path d="M127.332,240.9735s.035,0,.026.026l-1.795,5.341s-.034.043-.06.052l-5.255.957s-.035-.008-.026-.034l1.881-4.591s.035-.043.061-.051l5.168-1.692v-.008Z" style="fill:#92b6da;"/></g><g style="opacity:.5;"><path d="M127.885,231.2725s.017-.034.034-.017l4.47,3.426s.035.043.026.069l-.794,5.28s-.017.026-.043.018l-3.736-3.262s-.035-.052-.035-.069l.069-5.436.009-.009Z" style="fill:#92b6da;"/></g><g style="opacity:.5;"><path d="M126.064,219.5175s.034-.008.034.017l.596,5.601s-.009.051-.035.069l-4.375,3.063s-.034,0-.034-.018l-.207-4.952s.008-.061.026-.069l3.986-3.694.009-.017Z" style="fill:#92b6da;"/></g><g style="opacity:.5;"><path d="M116.382,239.0905s.035,0,.026.026l-1.795,5.341s-.034.043-.06.052l-5.255.958s-.035-.009-.026-.035l1.881-4.59s.034-.043.06-.052l5.169-1.691v-.009Z" style="fill:#92b6da;"/></g><g style="opacity:.5;"><path d="M116.926,229.3975s.017-.034.034-.017l4.47,3.426s.034.043.026.069l-.794,5.28s-.017.026-.043.018l-3.737-3.262s-.034-.052-.034-.069l.069-5.436.009-.009Z" style="fill:#92b6da;"/></g><g style="opacity:.5;"><path d="M115.114,217.6385s.034-.008.034.018l.595,5.6s-.008.051-.034.069l-4.375,3.063s-.034,0-.034-.017l-.207-4.953s.008-.061.025-.069l3.987-3.693.009-.018Z" style="fill:#92b6da;"/></g><g style="opacity:.5;"><path d="M150.087,244.3245s.035,0,.026.026l-1.795,5.341s-.034.044-.06.052l-5.255.958s-.035-.009-.026-.034l1.881-4.591s.035-.043.06-.052l5.169-1.691v-.009Z" style="fill:#92b6da;"/></g><g style="opacity:.5;"><path d="M150.631,234.6365s.017-.035.035-.018l4.469,3.426s.035.043.026.069l-.794,5.281s-.017.026-.043.017l-3.736-3.262s-.035-.051-.035-.069l.069-5.436.009-.008Z" style="fill:#92b6da;"/></g><g style="opacity:.5;"><path d="M148.8189,222.8805s.034-.008.034.018l.596,5.6s-.009.052-.035.069l-4.375,3.063s-.034,0-.034-.017l-.207-4.953s.009-.061.026-.069l3.986-3.693.009-.018Z" style="fill:#92b6da;"/></g><g style="opacity:.5;"><path d="M139.128,242.4535s.035,0,.026.026l-1.795,5.341s-.034.044-.06.052l-5.255.958s-.035-.009-.026-.035l1.881-4.59s.035-.043.061-.052l5.168-1.691v-.009Z" style="fill:#92b6da;"/></g><g style="opacity:.5;"><path d="M139.6809,232.7575s.017-.035.034-.018l4.47,3.426s.035.043.026.069l-.794,5.281s-.017.026-.043.017l-3.736-3.262s-.035-.051-.035-.069l.069-5.436.009-.008Z" style="fill:#92b6da;"/></g><g style="opacity:.5;"><path d="M137.868,221.0025s.035-.009.035.017l.595,5.6s-.008.052-.034.069l-4.375,3.063s-.034,0-.034-.017l-.208-4.953s.009-.06.026-.069l3.987-3.693.008-.017Z" style="fill:#92b6da;"/></g><g style="opacity:.5;"><path d="M129.99,271.6995s.035,0,.026.026l-1.795,5.341s-.034.044-.06.052l-5.255.958s-.035-.009-.026-.034l1.881-4.591s.034-.043.06-.052l5.169-1.691v-.009Z" style="fill:#92b6da;"/></g><g style="opacity:.5;"><path d="M130.534,262.0115s.017-.035.035-.018l4.469,3.426s.035.043.026.069l-.794,5.281s-.017.026-.043.017l-3.736-3.262s-.035-.051-.035-.069l.069-5.436.009-.008Z" style="fill:#92b6da;"/></g><g style="opacity:.5;"><path d="M128.7219,250.2485s.034-.009.034.017l.596,5.6s-.009.052-.035.069l-4.375,3.063s-.034,0-.034-.017l-.207-4.953s.008-.06.025-.069l3.987-3.693.009-.017Z" style="fill:#92b6da;"/></g><g style="opacity:.5;"><path d="M119.031,269.8175s.035,0,.026.025l-1.795,5.342s-.034.043-.06.051l-5.255.958s-.035-.008-.026-.034l1.881-4.591s.035-.043.061-.052l5.168-1.691v-.008Z" style="fill:#92b6da;"/></g><g style="opacity:.5;"><path d="M119.584,260.1285s.017-.035.034-.018l4.47,3.426s.034.043.026.069l-.794,5.281s-.017.026-.043.017l-3.737-3.261s-.034-.052-.034-.07l.069-5.436.009-.008Z" style="fill:#92b6da;"/></g><g style="opacity:.5;"><path d="M117.771,248.3735s.035-.009.035.017l.595,5.6s-.008.052-.034.069l-4.375,3.063s-.034,0-.034-.017l-.208-4.953s.009-.06.026-.069l3.987-3.693.008-.017Z" style="fill:#92b6da;"/></g><g style="opacity:.5;"><path d="M171.124,248.1295s.035,0,.026.026l-1.795,5.341s-.034.043-.06.052l-5.255.958s-.034-.009-.026-.035l1.881-4.59s.035-.043.061-.052l5.168-1.691v-.009Z" style="fill:#92b6da;"/></g><g style="opacity:.5;"><path d="M171.677,238.4405s.017-.034.035-.017l4.469,3.426s.035.043.026.069l-.794,5.28s-.017.026-.043.018l-3.736-3.262s-.035-.052-.035-.069l.069-5.436.009-.009Z" style="fill:#92b6da;"/></g><g style="opacity:.5;"><path d="M169.864,226.6895s.035-.009.035.017l.595,5.6s-.008.052-.034.069l-4.375,3.064s-.035,0-.035-.018l-.207-4.953s.009-.06.026-.069l3.987-3.693.008-.017Z" style="fill:#92b6da;"/></g><g style="opacity:.5;"><path d="M160.174,246.2585s.035,0,.026.026l-1.795,5.341s-.034.043-.06.052l-5.255.958s-.034-.009-.026-.035l1.881-4.59s.035-.044.061-.052l5.168-1.691v-.009Z" style="fill:#92b6da;"/></g><g style="opacity:.5;"><path d="M160.718,236.5615s.017-.034.034-.017l4.47,3.426s.035.043.026.069l-.794,5.281s-.017.025-.043.017l-3.736-3.262s-.035-.052-.035-.069l.069-5.436.009-.009Z" style="fill:#92b6da;"/></g><g style="opacity:.5;"><path d="M158.906,224.8065s.034-.008.034.017l.596,5.601s-.009.051-.035.069l-4.375,3.063s-.034,0-.034-.017l-.207-4.953s.008-.061.026-.069l3.986-3.694.009-.017Z" style="fill:#92b6da;"/></g><g style="opacity:.5;"><path d="M174.231,256.9785s.035-.009.035.017l.595,5.6s-.008.052-.034.069l-4.375,3.064s-.035,0-.035-.018l-.207-4.952s.009-.061.026-.07l3.987-3.693.008-.017Z" style="fill:#92b6da;"/></g><g style="opacity:.5;"><path d="M164.5409,276.5395s.034,0,.026.026l-1.795,5.341s-.035.043-.061.052l-5.255.958s-.034-.009-.025-.035l1.881-4.59s.034-.043.06-.052l5.169-1.691v-.009Z" style="fill:#92b6da;"/></g><g style="opacity:.5;"><path d="M165.0839,266.8505s.017-.034.035-.017l4.469,3.426s.035.043.026.069l-.793,5.281s-.018.025-.044.017l-3.736-3.262s-.034-.052-.034-.069l.069-5.436.008-.009Z" style="fill:#92b6da;"/></g><g style="opacity:.5;"><path d="M163.272,255.0955s.035-.008.035.018l.595,5.6s-.009.051-.034.069l-4.375,3.063s-.035,0-.035-.017l-.207-4.953s.009-.061.026-.069l3.987-3.693.008-.018Z" style="fill:#92b6da;"/></g><g style="opacity:.5;"><path d="M169.451,216.3095s.034,0,.026.026l-1.795,5.341s-.035.043-.061.052l-5.255.957s-.034-.008-.026-.034l1.882-4.591s.034-.043.06-.051l5.169-1.692v-.008Z" style="fill:#92b6da;"/></g><g style="opacity:.5;"><path d="M158.492,214.4265s.034,0,.026.026l-1.795,5.341s-.035.043-.061.052l-5.255.958s-.034-.009-.025-.035l1.881-4.59s.034-.044.06-.052l5.169-1.691v-.009Z" style="fill:#92b6da;"/></g><g style="opacity:.5;"><path d="M159.044,204.7375s.017-.034.035-.017l4.469,3.425s.035.044.026.069l-.794,5.281s-.017.026-.043.018l-3.736-3.262s-.035-.052-.035-.069l.07-5.436.008-.009Z" style="fill:#92b6da;"/></g><g style="opacity:.5;"><path d="M157.232,192.9865s.034-.009.034.017l.596,5.6s-.009.052-.035.069l-4.375,3.064s-.034,0-.034-.018l-.207-4.953s.008-.06.026-.069l3.986-3.693.009-.017Z" style="fill:#92b6da;"/></g><g style="opacity:.5;"><path d="M147.032,212.7545s.035,0,.026.026l-1.794,5.341s-.035.043-.061.052l-5.255.958s-.034-.009-.026-.035l1.881-4.59s.035-.043.061-.052l5.168-1.691v-.009Z" style="fill:#92b6da;"/></g><g style="opacity:.5;"><path d="M147.585,203.0655s.017-.034.035-.017l4.469,3.426s.035.043.026.069l-.794,5.28s-.017.026-.043.018l-3.736-3.262s-.035-.052-.035-.069l.069-5.436.009-.009Z" style="fill:#92b6da;"/></g><g style="opacity:.5;"><path d="M145.773,191.3105s.034-.009.034.017l.596,5.6s-.009.052-.035.07l-4.375,3.063s-.034,0-.034-.018l-.207-4.952s.008-.061.026-.069l3.986-3.694.009-.017Z" style="fill:#92b6da;"/></g><g style="opacity:.5;"><path d="M136.0819,210.8715s.035,0,.026.026l-1.795,5.341s-.034.044-.06.052l-5.255.958s-.035-.009-.026-.035l1.881-4.59s.035-.043.061-.052l5.168-1.691v-.009Z" style="fill:#92b6da;"/></g><g style="opacity:.5;"><path d="M136.626,201.1825s.017-.034.034-.017l4.47,3.426s.035.043.026.069l-.794,5.281s-.017.026-.043.017l-3.736-3.262s-.035-.052-.035-.069l.069-5.436.009-.009Z" style="fill:#92b6da;"/></g><g style="opacity:.5;"><path d="M134.814,189.4275s.034-.008.034.018l.596,5.6s-.009.051-.035.069l-4.375,3.063s-.034,0-.034-.017l-.207-4.953s.008-.061.026-.069l3.986-3.693.009-.018Z" style="fill:#92b6da;"/></g><g style="opacity:.5;"><path d="M124.623,209.3715s.034,0,.026.026l-1.795,5.341s-.035.044-.061.052l-5.255.958s-.034-.009-.025-.035l1.881-4.59s.034-.043.06-.052l5.169-1.691v-.009Z" style="fill:#92b6da;"/></g><g style="opacity:.5;"><path d="M125.175,199.6825s.018-.034.035-.017l4.47,3.426s.034.043.026.069l-.794,5.281s-.017.026-.043.017l-3.737-3.262s-.034-.052-.034-.069l.069-5.436.008-.009Z" style="fill:#92b6da;"/></g><g style="opacity:.5;"><path d="M123.363,187.9275s.035-.008.035.018l.595,5.6s-.009.051-.035.069l-4.374,3.063s-.035,0-.035-.017l-.207-4.953s.009-.061.026-.069l3.986-3.693.009-.018Z" style="fill:#92b6da;"/></g><g style="opacity:.5;"><path d="M113.673,207.4925s.034,0,.026.026l-1.795,5.341s-.035.044-.061.052l-5.254.958s-.035-.009-.026-.034l1.881-4.591s.034-.043.06-.052l5.169-1.691v-.009Z" style="fill:#92b6da;"/></g><g style="opacity:.5;"><path d="M114.225,197.8005s.017-.035.034-.018l4.47,3.426s.035.043.026.069l-.794,5.281s-.017.026-.043.017l-3.736-3.262s-.035-.051-.035-.069l.069-5.436.009-.008Z" style="fill:#92b6da;"/></g><g style="opacity:.5;"><path d="M150.165,361.0865s.034,0,.026.026l-1.795,5.341s-.034.043-.06.052l-5.255.958s-.035-.009-.026-.035l1.881-4.59s.034-.043.06-.052l5.169-1.691v-.009Z" style="fill:#92b6da;"/></g><g style="opacity:.5;"><path d="M150.7089,351.3895s.017-.034.034-.017l4.47,3.426s.035.043.026.069l-.794,5.281s-.017.026-.043.017l-3.736-3.262s-.035-.052-.035-.069l.069-5.436.009-.009Z" style="fill:#92b6da;"/></g><g style="opacity:.5;"><path d="M148.897,339.6345s.034-.008.034.018l.595,5.6s-.008.051-.034.069l-4.375,3.063s-.034,0-.034-.017l-.207-4.953s.008-.061.025-.069l3.987-3.693.009-.018Z" style="fill:#92b6da;"/></g><g style="opacity:.5;"><path d="M139.206,359.2075s.035,0,.026.026l-1.795,5.341s-.034.043-.06.052l-5.255.958s-.035-.009-.026-.035l1.881-4.59s.035-.043.06-.052l5.169-1.691v-.009Z" style="fill:#92b6da;"/></g><g style="opacity:.5;"><path d="M139.759,349.5145s.017-.034.034-.017l4.47,3.426s.034.043.026.069l-.794,5.281s-.017.026-.043.017l-3.736-3.262s-.035-.052-.035-.069l.069-5.436.009-.009Z" style="fill:#92b6da;"/></g><g style="opacity:.5;"><path d="M137.946,337.7525s.035-.009.035.017l.595,5.6s-.009.052-.034.069l-4.375,3.063s-.035,0-.035-.017l-.207-4.953s.009-.06.026-.069l3.987-3.693.008-.017Z" style="fill:#92b6da;"/></g><g style="opacity:.5;"><path d="M124.131,328.8915s.034,0,.026.026l-1.795,5.341s-.035.043-.061.052l-5.254.957s-.035-.008-.026-.034l1.881-4.591s.034-.043.06-.051l5.169-1.692v-.008Z" style="fill:#92b6da;"/></g><g style="opacity:.5;"><path d="M124.675,319.2025s.017-.035.035-.017l4.469,3.425s.035.043.026.069l-.794,5.281s-.017.026-.043.017l-3.736-3.261s-.035-.052-.035-.069l.069-5.436.009-.009Z" style="fill:#92b6da;"/></g><g style="opacity:.5;"><path d="M122.863,307.4475s.034-.009.034.017l.595,5.6s-.008.052-.034.069l-4.375,3.063s-.034,0-.034-.017l-.207-4.953s.008-.06.025-.069l3.987-3.693.009-.017Z" style="fill:#92b6da;"/></g><g style="opacity:.5;"><path d="M113.172,327.0085s.035,0,.026.026l-1.795,5.341s-.034.043-.06.052l-5.255.958s-.034-.009-.026-.035l1.881-4.59s.035-.044.061-.052l5.168-1.691v-.009Z" style="fill:#92b6da;"/></g><g style="opacity:.5;"><path d="M113.724,317.3195s.018-.034.035-.017l4.47,3.425s.034.044.025.07l-.793,5.28s-.018.026-.044.018l-3.736-3.262s-.034-.052-.034-.069l.069-5.436.008-.009Z" style="fill:#92b6da;"/></g><g style="opacity:.5;"><path d="M111.912,305.5685s.035-.009.035.017l.595,5.6s-.008.052-.034.069l-4.375,3.064s-.035,0-.035-.018l-.207-4.953s.009-.06.026-.069l3.987-3.693.008-.017Z" style="fill:#92b6da;"/></g><g style="opacity:.5;"><path d="M146.877,332.2585s.035,0,.026.026l-1.795,5.341s-.034.043-.06.052l-5.255.958s-.035-.009-.026-.035l1.881-4.59s.035-.044.061-.052l5.168-1.691v-.009Z" style="fill:#92b6da;"/></g><g style="opacity:.5;"><path d="M145.617,310.8065s.035-.008.035.017l.595,5.601s-.008.051-.034.069l-4.375,3.063s-.035,0-.035-.017l-.207-4.953s.009-.061.026-.069l3.987-3.694.008-.017Z" style="fill:#92b6da;"/></g><g style="opacity:.5;"><path d="M135.927,330.3755s.034,0,.026.026l-1.795,5.341s-.034.043-.06.052l-5.255.958s-.035-.009-.026-.035l1.881-4.59s.034-.043.06-.052l5.169-1.691v-.009Z" style="fill:#92b6da;"/></g><g style="opacity:.5;"><path d="M136.479,320.6865s.017-.034.035-.017l4.469,3.426s.035.043.026.069l-.794,5.281s-.017.025-.043.017l-3.736-3.262s-.035-.052-.035-.069l.069-5.436.009-.009Z" style="fill:#92b6da;"/></g><g style="opacity:.5;"><path d="M134.667,308.9235s.035-.008.035.018l.595,5.6s-.009.052-.035.069l-4.374,3.063s-.035,0-.035-.017l-.207-4.953s.009-.061.026-.069l3.986-3.693.009-.018Z" style="fill:#92b6da;"/></g><g style="opacity:.5;"><path d="M127.333,349.9285s.017-.034.034-.017l4.47,3.426s.034.043.026.069l-.794,5.281s-.017.026-.043.017l-3.737-3.262s-.034-.051-.034-.069l.069-5.436.009-.009Z" style="fill:#92b6da;"/></g><g style="opacity:.5;"><path d="M125.52,338.1735s.035-.008.035.018l.595,5.6s-.008.052-.034.069l-4.375,3.063s-.035,0-.035-.017l-.207-4.953s.009-.061.026-.069l3.987-3.693.008-.018Z" style="fill:#92b6da;"/></g><g style="opacity:.5;"><path d="M116.382,348.0465s.017-.035.035-.018l4.469,3.426s.035.043.026.069l-.794,5.281s-.017.026-.043.017l-3.736-3.262s-.035-.051-.035-.069l.069-5.436.009-.008Z" style="fill:#92b6da;"/></g><g style="opacity:.5;"><path d="M114.57,336.2955s.035-.009.035.017l.595,5.6s-.009.052-.035.069l-4.374,3.063s-.035,0-.035-.017l-.207-4.953s.009-.06.026-.069l3.986-3.693.009-.017Z" style="fill:#92b6da;"/></g><g style="opacity:.5;"><path d="M172.2889,366.3485s.035,0,.026.026l-1.795,5.341s-.034.043-.06.052l-5.255.958s-.035-.009-.026-.035l1.881-4.591s.035-.043.061-.051l5.168-1.692v-.008Z" style="fill:#92b6da;"/></g><g style="opacity:.5;"><path d="M161.331,364.4695s.034,0,.026.026l-1.795,5.341s-.035.043-.061.052l-5.255.958s-.034-.009-.025-.035l1.881-4.59s.034-.044.06-.052l5.169-1.691v-.009Z" style="fill:#92b6da;"/></g><g style="opacity:.5;"><path d="M161.883,354.7685s.017-.034.034-.017l4.47,3.426s.035.043.026.069l-.794,5.281s-.017.025-.043.017l-3.736-3.262s-.035-.052-.035-.069l.069-5.436.009-.009Z" style="fill:#92b6da;"/></g><g style="opacity:.5;"><path d="M160.071,343.0135s.034-.008.034.018l.596,5.6s-.009.051-.035.069l-4.374,3.063s-.035,0-.035-.017l-.207-4.953s.009-.061.026-.069l3.986-3.693.009-.018Z" style="fill:#92b6da;"/></g><g style="opacity:.5;"><path d="M164.981,282.7875s.034-.009.034.017l.596,5.6s-.009.052-.035.069l-4.375,3.063s-.034,0-.034-.017l-.207-4.953s.008-.06.026-.069l3.986-3.693.009-.017Z" style="fill:#92b6da;"/></g><g style="opacity:.5;"><path d="M155.29,302.3565s.035,0,.026.026l-1.794,5.341s-.035.043-.061.052l-5.255.957s-.034-.008-.026-.034l1.881-4.591s.035-.043.061-.052l5.168-1.691v-.008Z" style="fill:#92b6da;"/></g><g style="opacity:.5;"><path d="M155.843,292.6595s.017-.035.034-.017l4.47,3.425s.034.043.026.069l-.794,5.281s-.017.026-.043.017l-3.737-3.261s-.034-.052-.034-.069l.069-5.436.009-.009Z" style="fill:#92b6da;"/></g><g style="opacity:.5;"><path d="M154.031,280.9045s.034-.009.034.017l.595,5.6s-.008.052-.034.069l-4.375,3.063s-.034,0-.034-.017l-.208-4.953s.009-.06.026-.069l3.987-3.693.009-.017Z" style="fill:#92b6da;"/></g><g style="opacity:.5;"><path d="M143.831,300.6765s.034,0,.026.026l-1.795,5.341s-.035.043-.061.052l-5.255.958s-.034-.009-.025-.035l1.881-4.59s.034-.044.06-.052l5.169-1.691v-.009Z" style="fill:#92b6da;"/></g><g style="opacity:.5;"><path d="M144.3749,290.9875s.017-.034.034-.017l4.47,3.425s.035.044.026.069l-.794,5.281s-.017.026-.043.018l-3.736-3.262s-.035-.052-.035-.069l.069-5.436.009-.009Z" style="fill:#92b6da;"/></g><g style="opacity:.5;"><path d="M142.563,279.2325s.034-.009.034.017l.595,5.6s-.008.052-.034.069l-4.375,3.064s-.034,0-.034-.018l-.208-4.953s.009-.06.026-.069l3.987-3.693.009-.017Z" style="fill:#92b6da;"/></g><g style="opacity:.5;"><path d="M132.872,298.8055s.035,0,.026.026l-1.795,5.341s-.034.043-.06.052l-5.255.958s-.035-.009-.026-.035l1.881-4.591s.035-.043.061-.051l5.168-1.692v-.008Z" style="fill:#92b6da;"/></g><g style="opacity:.5;"><path d="M133.424,289.1045s.018-.034.035-.017l4.47,3.426s.034.043.026.069l-.794,5.281s-.017.025-.043.017l-3.737-3.262s-.034-.052-.034-.069l.069-5.436.008-.009Z" style="fill:#92b6da;"/></g><g style="opacity:.5;"><path d="M131.612,277.3535s.035-.009.035.017l.595,5.6s-.008.052-.034.069l-4.375,3.064s-.034,0-.034-.018l-.208-4.953s.009-.06.026-.069l3.987-3.693.008-.017Z" style="fill:#92b6da;"/></g><g style="opacity:.5;"><path d="M121.421,297.3015s.035,0,.026.026l-1.795,5.341s-.034.043-.06.052l-5.255.958s-.034-.009-.026-.035l1.881-4.59s.035-.044.061-.052l5.168-1.691v-.009Z" style="fill:#92b6da;"/></g><g style="opacity:.5;"><path d="M121.974,287.6005s.018-.034.035-.017l4.47,3.426s.034.043.026.069l-.794,5.281s-.018.025-.043.017l-3.737-3.262s-.034-.052-.034-.069l.069-5.436.008-.009Z" style="fill:#92b6da;"/></g><g style="opacity:.5;"><path d="M120.162,275.8495s.034-.008.034.017l.596,5.601s-.009.051-.035.069l-4.375,3.063s-.034,0-.034-.017l-.207-4.953s.008-.061.025-.069l3.987-3.694.009-.017Z" style="fill:#92b6da;"/></g><g style="opacity:.5;"><path d="M110.472,295.4225s.034,0,.025.026l-1.794,5.341s-.035.043-.061.052l-5.255.958s-.034-.009-.026-.035l1.882-4.59s.034-.043.06-.052l5.169-1.691v-.009Z" style="fill:#92b6da;"/></g><g style="opacity:.5;"><path d="M111.015,285.7295s.017-.034.035-.017l4.469,3.426s.035.043.026.069l-.794,5.28s-.017.026-.043.018l-3.736-3.262s-.035-.052-.035-.069l.069-5.436.009-.009Z" style="fill:#92b6da;"/></g><g style="opacity:.5;"><path d="M109.203,273.9665s.035-.008.035.018l.595,5.6s-.009.051-.034.069l-4.375,3.063s-.035,0-.035-.017l-.207-4.953s.009-.061.026-.069l3.986-3.693.009-.018Z" style="fill:#92b6da;"/></g></g><g style="opacity:.5;"><g style="opacity:.5;"><path d="M115.114,146.5639s-.034.0173-.034,0l-1.614-5.4016s0-.0518.017-.069l3.737-3.8053s.034-.0087.043.0086l1.113,4.8321s0,.0604-.018.0777l-3.244,4.3661v-.0086Z" style="fill:#92b6da;"/></g><g style="opacity:.5;"><path d="M120.257,154.793s0,.0345-.017.0345l-5.626-.2157s-.052-.0173-.061-.0432l-2.399-4.7717s0-.0345.026-.0345l4.936.5004s.052.0173.069.0432l3.08,4.4783-.008.0087Z" style="fill:#92b6da;"/></g><g style="opacity:.5;"><path d="M128.524,163.3535s-.026.026-.035.009l-3.719-4.228s-.026-.052-.017-.069l1.803-5.0221s.026-.0259.043,0l3.029,3.9261s.026.0518.017.0777l-1.13,5.3243.009-.018Z" style="fill:#92b6da;"/></g><g style="opacity:.5;"><path d="M125.15,141.7749s-.035.0172-.035,0l-1.613-5.4017s0-.0517.017-.069l3.736-3.8053s.035-.0086.043.0086l1.114,4.8322s0,.0604-.018.0776l-3.244,4.3662v-.0086Z" style="fill:#92b6da;"/></g><g style="opacity:.5;"><path d="M130.292,150.0117s0,.0345-.017.0345l-5.626-.2157s-.052-.0173-.06-.0431l-2.399-4.7718s0-.0345.026-.0345l4.936.5005s.051.0172.069.0431l3.08,4.4784-.009.0086Z" style="fill:#92b6da;"/></g><g style="opacity:.5;"><path d="M138.55,158.5648s-.025.0259-.034.0086l-3.719-4.2281s-.026-.0517-.017-.069l1.803-5.022s.026-.0258.043,0l3.029,3.9262s.026.0517.017.0776l-1.13,5.324.008-.0173Z" style="fill:#92b6da;"/></g><g style="opacity:.5;"><path d="M134.434,168.2125s-.034.017-.034,0l-1.614-5.402s0-.052.018-.069l3.736-3.805s.034-.009.043.009l1.113,4.832s0,.06-.017.077l-3.245,4.366v-.008Z" style="fill:#92b6da;"/></g><g style="opacity:.5;"><path d="M139.577,176.4455s0,.034-.017.034l-5.626-.215s-.052-.018-.061-.044l-2.398-4.771s0-.035.025-.035l4.936.501s.052.017.069.043l3.081,4.478-.009.009Z" style="fill:#92b6da;"/></g><g style="opacity:.5;"><path d="M147.835,185.0065s-.026.026-.034.008l-3.719-4.228s-.026-.052-.018-.069l1.804-5.022s.026-.026.043,0l3.029,3.926s.026.052.017.078l-1.13,5.324.008-.017Z" style="fill:#92b6da;"/></g><g style="opacity:.5;"><path d="M144.461,163.4315s-.034.017-.034,0l-1.614-5.402s0-.0518.018-.069l3.736-3.8053s.034-.0087.043.0086l1.113,4.8317s0,.061-.017.078l-3.245,4.366v-.008Z" style="fill:#92b6da;"/></g><g style="opacity:.5;"><path d="M149.604,171.6645s0,.034-.017.034l-5.626-.216s-.052-.017-.06-.043l-2.399-4.772s0-.034.026-.034l4.935.5s.052.018.069.044l3.081,4.478-.009.009Z" style="fill:#92b6da;"/></g><g style="opacity:.5;"><path d="M157.871,180.2135s-.026.026-.035.008l-3.719-4.228s-.026-.051-.017-.069l1.803-5.022s.026-.026.044,0l3.028,3.926s.026.052.018.078l-1.131,5.324.009-.017Z" style="fill:#92b6da;"/></g><g style="opacity:.5;"><path d="M135.055,134.267s-.034.0173-.034,0l-1.614-5.4016s0-.0518.018-.069l3.736-3.8053s.034-.0086.043.0086l1.113,4.8322s0,.0603-.017.0776l-3.245,4.3662v-.0087Z" style="fill:#92b6da;"/></g><g style="opacity:.5;"><path d="M140.198,142.4961s0,.0345-.017.0345l-5.626-.2157s-.052-.0173-.06-.0432l-2.399-4.7717s0-.0345.026-.0345l4.935.5005s.052.0172.069.0431l3.081,4.4784-.009.0086Z" style="fill:#92b6da;"/></g><g style="opacity:.5;"><path d="M148.456,151.0492s-.025.0259-.034.0086l-3.719-4.2281s-.026-.0518-.017-.069l1.803-5.022s.026-.0259.043,0l3.029,3.9261s.026.0518.017.0777l-1.13,5.324.008-.0173Z" style="fill:#92b6da;"/></g><g style="opacity:.5;"><path d="M145.083,129.478s-.035.0172-.035,0l-1.614-5.4016s0-.0518.018-.0691l3.736-3.8053s.034-.0086.043.0087l1.113,4.8321s0,.0604-.017.0776l-3.244,4.3662v-.0086Z" style="fill:#92b6da;"/></g><g style="opacity:.5;"><path d="M150.225,137.707s0,.0345-.017.0345l-5.626-.2157s-.052-.0172-.06-.0431l-2.399-4.7717s0-.0346.026-.0346l4.935.5005s.052.0173.069.0432l3.081,4.4783-.009.0086Z" style="fill:#92b6da;"/></g><g style="opacity:.5;"><path d="M158.492,146.2679s-.026.0259-.034.0087l-3.719-4.2281s-.026-.0518-.018-.0691l1.804-5.0219s.026-.0259.043,0l3.029,3.9261s.025.0517.017.0776l-1.131,5.324.009-.0173Z" style="fill:#92b6da;"/></g><g style="opacity:.5;"><path d="M115.045,177.2435s-.035.017-.035,0l-1.613-5.402s0-.051.017-.069l3.736-3.805s.035-.008.044.009l1.113,4.832s0,.06-.018.078l-3.244,4.366v-.009Z" style="fill:#92b6da;"/></g><g style="opacity:.5;"><path d="M120.188,185.4765s0,.035-.018.035l-5.626-.216s-.051-.017-.06-.043l-2.399-4.772s0-.035.026-.035l4.936.501s.051.017.069.043l3.08,4.478-.008.009Z" style="fill:#92b6da;"/></g><g style="opacity:.5;"><path d="M128.455,194.0295s-.026.026-.035.009l-3.719-4.228s-.026-.052-.017-.069l1.803-5.022s.026-.026.043,0l3.029,3.926s.026.052.017.077l-1.13,5.324.009-.017Z" style="fill:#92b6da;"/></g><g style="opacity:.5;"><path d="M125.081,172.4545s-.035.017-.035,0l-1.614-5.402s0-.051.018-.069l3.736-3.805s.034-.009.043.009l1.113,4.832s0,.06-.017.078l-3.244,4.366v-.009Z" style="fill:#92b6da;"/></g><g style="opacity:.5;"><path d="M130.223,180.6955s0,.034-.017.034l-5.626-.215s-.052-.018-.06-.044l-2.399-4.771s0-.035.026-.035l4.935.501s.052.017.069.043l3.081,4.478-.009.009Z" style="fill:#92b6da;"/></g><g style="opacity:.5;"><path d="M138.481,189.2485s-.026.026-.034.009l-3.719-4.229s-.026-.051-.017-.069l1.803-5.022s.026-.025.043,0l3.029,3.927s.026.051.017.077l-1.13,5.324.008-.017Z" style="fill:#92b6da;"/></g><g style="opacity:.5;"><path d="M107.417,171.8185s-.026.026-.035.009l-3.719-4.228s-.025-.052-.017-.069l1.804-5.022s.026-.026.043,0l3.028,3.926s.026.052.018.078l-1.131,5.323.009-.017Z" style="fill:#92b6da;"/></g><g style="opacity:.5;"><path d="M104.034,150.2475s-.034.0173-.034,0l-1.614-5.4016s0-.0518.017-.069l3.737-3.8053s.034-.0087.043.0086l1.113,4.8321s0,.0604-.017.0777l-3.245,4.3661v-.0086Z" style="fill:#92b6da;"/></g><g style="opacity:.5;"><path d="M109.185,158.4766s0,.0345-.017.0345l-5.626-.2158s-.052-.0172-.06-.0431l-2.399-4.7717s0-.0345.026-.0345l4.936.5004s.051.0173.069.0432l3.08,4.4783-.009.0087Z" style="fill:#92b6da;"/></g><g style="opacity:.5;"><path d="M117.444,167.0295s-.026.026-.035.009l-3.719-4.228s-.026-.052-.017-.069l1.803-5.0223s.026-.0259.043,0l3.029,3.9263s.026.052.017.077l-1.13,5.324.009-.017Z" style="fill:#92b6da;"/></g><g style="opacity:.5;"><path d="M80.408,89.6898s-.0259.0259-.0345.0086l-3.719-4.2281s-.0259-.0517-.0173-.069l1.8035-5.022s.0258-.0258.0431,0l3.0287,3.9262s.0259.0517.0172.0776l-1.1303,5.324.0086-.0173Z" style="fill:#92b6da;"/></g><g style="opacity:.5;"><path d="M77.0255,68.1186s-.0345.0173-.0345,0l-1.6136-5.4016s0-.0518.0173-.069l3.7362-3.8053s.0346-.0086.0432.0086l1.1131,4.8321s0,.0604-.0172.0777l-3.2445,4.3662v-.0086Z" style="fill:#92b6da;"/></g><g style="opacity:.5;"><path d="M82.1769,76.3476s0,.0346-.0173.0346l-5.626-.2158s-.0517-.0172-.0604-.0431l-2.3988-4.7717s0-.0345.0259-.0345l4.9357.5004s.0518.0173.069.0432l3.0805,4.4783-.0086.0086Z" style="fill:#92b6da;"/></g><g style="opacity:.5;"><path d="M90.4346,84.9125s-.0259.0259-.0345.0086l-3.719-4.2281s-.0259-.0518-.0173-.069l1.8035-5.022s.0258-.0259.0431,0l3.0287,3.9261s.0259.0518.0173.0777l-1.1304,5.3239.0086-.0172Z" style="fill:#92b6da;"/></g><g style="opacity:.5;"><path d="M106.839,84.1772s-.035.0173-.035,0l-1.613-5.4016s0-.0518.017-.0691l3.736-3.8052s.035-.0087.043.0086l1.113,4.8321s0,.0604-.017.0777l-3.244,4.3661v-.0086Z" style="fill:#92b6da;"/></g><g style="opacity:.5;"><path d="M111.981,92.4062s0,.0346-.017.0346l-5.626-.2158s-.052-.0172-.06-.0431l-2.399-4.7717s0-.0345.026-.0345l4.936.5004s.051.0173.069.0432l3.08,4.4783-.009.0086Z" style="fill:#92b6da;"/></g><g style="opacity:.5;"><path d="M120.239,100.9593s-.026.0259-.034.0087l-3.719-4.2281s-.026-.0518-.018-.0691l1.804-5.0219s.026-.0259.043,0l3.029,3.9261s.026.0518.017.0776l-1.13,5.324.008-.0173Z" style="fill:#92b6da;"/></g><g style="opacity:.5;"><path d="M116.865,79.3842s-.034.0173-.034,0l-1.614-5.4016s0-.0518.018-.069l3.736-3.8053s.034-.0086.043.0086l1.113,4.8321s0,.0604-.017.0777l-3.245,4.3662v-.0087Z" style="fill:#92b6da;"/></g><g style="opacity:.5;"><path d="M122.008,87.6172s0,.0345-.017.0345l-5.626-.2157s-.052-.0173-.061-.0432l-2.398-4.7717s0-.0345.026-.0345l4.935.5005s.052.0172.069.0431l3.081,4.4784-.009.0086Z" style="fill:#92b6da;"/></g><g style="opacity:.5;"><path d="M130.275,96.1781s-.026.0259-.035.0086l-3.719-4.2281s-.026-.0518-.017-.069l1.803-5.022s.026-.0259.044,0l3.028,3.9261s.026.0518.018.0777l-1.131,5.324.009-.0173Z" style="fill:#92b6da;"/></g><g style="opacity:.5;"><path d="M86.3102,94.5561s-.0345.0173-.0345,0l-1.6136-5.4016s0-.0518.0172-.069l3.7363-3.8053s.0345-.0087.0432.0086l1.1131,4.8321s0,.0604-.0173.0777l-3.2444,4.3661v-.0086Z" style="fill:#92b6da;"/></g><g style="opacity:.5;"><path d="M99.7195,111.3382s-.0259.0259-.0345.0087l-3.719-4.2281s-.0259-.0518-.0173-.0691l1.8034-5.0219s.0259-.0259.0432,0l3.0287,3.9261s.026.0518.017.0776l-1.1301,5.324.0086-.0173Z" style="fill:#92b6da;"/></g><g style="opacity:.5;"><path d="M96.3458,89.767s-.0345.0173-.0345,0l-1.6136-5.4016s0-.0517.0172-.069l3.7363-3.8053s.0345-.0086.0431.0086l1.1132,4.8321s0,.0605-.0173.0777l-3.2444,4.3662v-.0087Z" style="fill:#92b6da;"/></g><g style="opacity:.5;"><path d="M101.488,98s0,.0345-.017.0345l-5.6259-.2157s-.0518-.0173-.0604-.0432l-2.3989-4.7717s0-.0345.026-.0345l4.9356.5005s.0518.0172.069.0431l3.0806,4.4784-.009.0086Z" style="fill:#92b6da;"/></g><g style="opacity:.5;"><path d="M109.755,106.5609s-.026.0259-.034.0086l-3.719-4.2281s-.026-.0517-.018-.069l1.804-5.022s.026-.0258.043,0l3.029,3.9261s.026.0518.017.0777l-1.13,5.324.008-.0173Z" style="fill:#92b6da;"/></g><g style="opacity:.5;"><path d="M92.0827,68.8437s-.0001.0346-.0173.0346l-5.626-.2158s-.0518-.0173-.0604-.0431l-2.3988-4.7717s0-.0345.0259-.0345l4.9357.5005s.0517.0173.069.0431l3.0805,4.4783-.0086.0086Z" style="fill:#92b6da;"/></g><g style="opacity:.5;"><path d="M100.341,77.3929s-.026.0259-.035.0087l-3.7187-4.2281s-.0259-.0518-.0173-.0691l1.8035-5.0219s.0259-.0259.0431,0l3.0284,3.9261s.026.0517.018.0776l-1.131,5.324.009-.0173Z" style="fill:#92b6da;"/></g><g style="opacity:.5;"><path d="M102.11,64.0508s0,.0345-.017.0345l-5.6264-.2157s-.0517-.0173-.0604-.0431l-2.3988-4.7717s0-.0345.0259-.0345l4.9357.5005s.0518.0173.069.0431l3.081,4.4783-.009.0086Z" style="fill:#92b6da;"/></g><g style="opacity:.5;"><path d="M110.377,72.6039s-.026.0259-.035.0086l-3.719-4.2281s-.026-.0518-.017-.069l1.803-5.022s.026-.0259.043,0l3.029,3.9261s.026.0518.017.0777l-1.13,5.3239.009-.0172Z" style="fill:#92b6da;"/></g><g style="opacity:.5;"><path d="M100.0734,145.3968s-.0258.0259-.0345.0087l-3.719-4.2281s-.0259-.0518-.0173-.0691l1.8035-5.0219s.0259-.0259.0431,0l3.0288,3.9261s.026.0518.017.0776l-1.1302,5.324.0086-.0173Z" style="fill:#92b6da;"/></g><g style="opacity:.5;"><path d="M96.6995,123.8256s-.0346.0173-.0346,0l-1.6135-5.4016s0-.0518.0172-.069l3.7363-3.8053s.0345-.0086.0431.0086l1.1132,4.8321s0,.0604-.0173.0777l-3.2444,4.3662v-.0087Z" style="fill:#92b6da;"/></g><g style="opacity:.5;"><path d="M101.842,132.0664s0,.0345-.017.0345l-5.6259-.2157s-.0518-.0173-.0605-.0431l-2.3988-4.7718s0-.0345.0259-.0345l4.9357.5005s.0518.0172.069.0431l3.0806,4.4784-.009.0086Z" style="fill:#92b6da;"/></g><g style="opacity:.5;"><path d="M110.1,140.6156s-.026.0259-.034.0086l-3.719-4.2281s-.026-.0517-.018-.069l1.804-5.022s.026-.0259.043,0l3.029,3.9261s.025.0518.017.0777l-1.131,5.324.009-.0173Z" style="fill:#92b6da;"/></g><g style="opacity:.5;"><path d="M107.028,118.5795s-.034.0173-.034,0l-1.614-5.4016s0-.0518.018-.069l3.736-3.8053s.034-.0086.043.0086l1.113,4.8321s0,.0604-.017.0777l-3.245,4.3662v-.0087Z" style="fill:#92b6da;"/></g><g style="opacity:.5;"><path d="M112.171,126.8203s0,.0345-.017.0345l-5.626-.2157s-.052-.0173-.06-.0431l-2.399-4.7718s0-.0345.026-.0345l4.935.5005s.052.0173.069.0431l3.081,4.4784-.009.0086Z" style="fill:#92b6da;"/></g><g style="opacity:.5;"><path d="M120.429,135.3734s-.026.0259-.035.0086l-3.719-4.2281s-.026-.0517-.017-.069l1.804-5.022s.025-.0258.043,0l3.028,3.9261s.026.0518.018.0777l-1.131,5.324.009-.0173Z" style="fill:#92b6da;"/></g><g style="opacity:.5;"><path d="M117.055,113.7983s-.035.0173-.035,0l-1.613-5.4016s0-.0518.017-.0691l3.736-3.8053s.035-.0086.044.0087l1.113,4.8321s0,.0604-.018.0777l-3.244,4.3661v-.0086Z" style="fill:#92b6da;"/></g><g style="opacity:.5;"><path d="M122.198,122.0312s0,.0346-.017.0346l-5.626-.2158s-.052-.0172-.061-.0431l-2.399-4.7717s0-.0345.026-.0345l4.936.5004s.052.0173.069.0432l3.08,4.4783-.008.0086Z" style="fill:#92b6da;"/></g><g style="opacity:.5;"><path d="M130.465,130.5843s-.026.0259-.035.0087l-3.719-4.2281s-.026-.0518-.017-.0691l1.803-5.0219s.026-.0259.044,0l3.028,3.9261s.026.0518.018.0776l-1.131,5.324.009-.0173Z" style="fill:#92b6da;"/></g><g style="opacity:.5;"><path d="M127.272,108.4155s-.034.0172-.034,0l-1.614-5.4016s0-.0518.017-.0691l3.736-3.8053s.035-.0086.044.0087l1.113,4.8321s0,.0604-.018.0776l-3.244,4.3662v-.0086Z" style="fill:#92b6da;"/></g><g style="opacity:.5;"><path d="M132.423,116.6562s0,.0346-.017.0346l-5.626-.2158s-.052-.0172-.06-.0431l-2.399-4.7717s0-.0345.026-.0345l4.936.5004s.051.0173.069.0432l3.08,4.4783-.009.0086Z" style="fill:#92b6da;"/></g><g style="opacity:.5;"><path d="M140.6809,125.2054s-.026.0259-.034.0087l-3.719-4.2281s-.026-.0518-.018-.0691l1.804-5.0219s.026-.0259.043,0l3.029,3.9261s.026.0517.017.0776l-1.13,5.324.008-.0173Z" style="fill:#92b6da;"/></g><g style="opacity:.5;"><path d="M137.308,103.6342s-.035.0173-.035,0l-1.614-5.4016s0-.0518.018-.069l3.736-3.8053s.034-.0086.043.0086l1.113,4.8321s0,.0604-.017.0777l-3.244,4.3662v-.0087Z" style="fill:#92b6da;"/></g><g style="opacity:.5;"><path d="M142.45,111.8633s0,.0345-.017.0345l-5.626-.2157s-.052-.0173-.06-.0432l-2.399-4.7717s0-.0345.026-.0345l4.935.5005s.052.0172.069.0431l3.081,4.4784-.009.0086Z" style="fill:#92b6da;"/></g><g style="opacity:.5;"><path d="M150.717,120.4164s-.026.0259-.034.0086l-3.719-4.2281s-.026-.0518-.018-.069l1.804-5.022s.026-.0259.043,0l3.029,3.9261s.025.0518.017.0777l-1.131,5.3239.009-.0172Z" style="fill:#92b6da;"/></g></g><g style="mask:url(#d);"><path d="M83.4889,79.4722l.0603,7.1187c.0604,7.369,4.7892,13.297,10.5533,13.2452l5.4536-.0517c4.7459-.0432,8.9139,4.0037,10.1819,9.8454,3.616,16.6622,9.924,53.5587,9.009,104.9347-1.208,67.943-27.3281,124.004-30.8487,130.14-.1899.336-.3624.664-.5264,1.018L11.6351,463.0995c-.768,1.225-3.8744,9.526-4.2714,11.01-.7162,2.71-.7248,5.678,0,8.439,7.9128,30.201,56.8652,193.656,113.5143,195.408,80.768,2.502,116.751,2.485,123.49-1.579.794-.475,1.51-1.061,2.183-1.777,9.527-10.096,74.529-104.012,87.05-199.403.388-2.977-.475-5.989-1.821-8.474-22.272-41.15-68.074-91.128-85.816-129.621-18.336-39.771-29.787-100.724-29.977-122.503-.146-16.973.061-78.1169.915-104.2794.224-6.8253,4.453-12.3046,9.794-12.6929,6.187-.4487,11.399-7.3,11.571-15.2212l.061-2.7353c.164-7.533-4.591-13.7716-10.484-13.7716l-133.9572.1208c-5.7901,0-10.4497,6.0315-10.3807,13.435l-.0172.0173Z" style="fill:#c59b6d; stroke:#c59b6d; stroke-miterlimit:10; stroke-width:9px;"/></g><path d="M203.1411,519.7461c6.4004,9.0166,13.4511,15.82,18.2669,25.3204l-28.7693,18.472c-6.4461-8.4301-10.3946-17.2726-15.2835-27.4686-3.9911,10.1047-6.9104,19.1742-12.1996,28.7607l-31.1316-15.8194c4.9108-9.7893,10.7526-18.0693,16.9401-26.931-10.7603,1.845-20.3519,4.1416-31.3731,4.0346l-1.6112-34.4132c10.6817-1.1376,20.4404-.1594,31.545.9466-6.2232-.6425-1.7537.3571-1.7537.3571l28.2722-18.1283c3.0816,4.9615-2.0472-4.6934,1.4109-.5174,3.9153-9.758,4.2353-17.7476,9.3285-27.0598l31.1128,15.7697c-4.6252,9.9661-10.4896,17.7273-16.787,26.9196,10.7305-2.086,20.6675-3.8236,31.4354-4.0746l1.6771,34.7308c-10.17.8333-19.6619-.0178-31.0655-.8953l-.0144-.0038Z" style="fill:#603813;"/><path d="M149.0462,492.5131c-6.4004-9.0166-13.4511-15.82-18.2669-25.3204l28.7699-18.4711c6.4455,8.4293,10.3941,17.2718,15.283,27.4677,3.9911-10.1047,6.9104-19.1742,12.1996-28.7607l31.1316,15.8194c-4.9108,9.7893-10.7526,18.0694-16.9401,26.931,10.7603-1.845,20.3519-4.1416,31.3731-4.0346l1.6103,34.4137c-10.6817,1.1376-20.4396.1589-31.5442-.9471,6.2232.6425,1.7537-.3571,1.7537-.3571l-28.2722,18.1283c-3.0816-4.9615,1.3519,5.5265-2.1062,1.3505-3.9147,9.7588-3.54,16.9145-8.6332,26.2268l-31.1128-15.7697c4.6252-9.9661,10.4896-17.7273,16.787-26.9196-10.7305,2.086-20.6675,3.8236-31.4354,4.0746l-1.6771-34.7308c10.17-.8333,19.6619.0178,31.0655.8953l.0143.0039Z" style="fill:#603813;"/><line x1="110.1274" y1="579.1278" x2="110.4486" y2="578.9712" style="fill:none; stroke:#511e68; stroke-miterlimit:4; stroke-width:1px;"/><line x1="94.3324" y1="579.4226" x2="94.1325" y2="579.136" style="fill:none; stroke:#511e68; stroke-miterlimit:4; stroke-width:1px;"/></svg>