<?xml version="1.0" encoding="UTF-8"?><svg id="a" xmlns="http://www.w3.org/2000/svg" xmlns:xlink="http://www.w3.org/1999/xlink" viewBox="0 0 340 625"><defs><mask id="b" x=".6546" y="2.6327" width="339.115" height="622.7736" maskUnits="userSpaceOnUse"><g id="c"><path d="M339.2696,519.9275h-118.31l-23.195-21.512-.753-.698-.086,1.024-1.769,21.186h-58.064l-7.723-7.164-.751-.696-.087,1.02-.586,6.84h-16.53l-4.25-8.25-.264-.511-.469.332-11.9489,8.429h-15.5312l-14.8604-28.743-.7979-1.542-.1445,1.73-2.3945,28.555h-14.8447l-28.1563-13.376-.6523-.31-.0606.72-1.0791,12.966H1.1546v-158.912c15.5939,3.981,35.0413,7.343,57.2754,9.882,2.7054.331,5.4627.629,8.2715.908l13.8125,11.177.8144.659v-10.488c3.4057.296,6.8766.562,10.3858.804l33.4944,27.106.815.659v-26.034c10.813.369,21.952.542,33.292.542h2.83l7.595,24.583.977-.148v-24.502c4.382-.038,8.731-.115,13.02-.235l.001.001c2.982-.062,5.921-.142,8.849-.24l-.001-.001c5.763-.183,11.453-.418,17.047-.712l4.865,7.871.298.484.441-.358,11.098-8.981c5.254-.371,10.385-.784,15.432-1.231l17.414,28.176.925,1.497v-31.517c3.651-.415,7.232-.861,10.752-1.316l33.256,13.456.687.278v-19.383c5.644-1.181,10.894-2.42,15.742-3.733l5.785,4.683.305-.378.313.387.012-.009.479-.389-.001-.001,11.833-9.574v164.989Z" style="fill:#c59b6d; stroke:#c59b6d;"/></g></mask></defs><path d="M83.4182,20.3076l.0604,7.1188c.0604,7.3691,4.789,13.2971,10.5531,13.2453l5.4535-.0517c4.746-.0432,8.914,4.0035,10.182,9.8455,3.616,16.662,9.923,53.56,9.009,104.936-1.208,67.944-27.3281,124.006-30.8487,130.141-.1898.336-.3624.664-.5263,1.018L11.5653,403.9396c-.768,1.225-3.8744,9.526-4.2713,11.01-.7162,2.71-.7248,5.678,0,8.439,7.9127,30.201,56.8645,193.658,113.5132,195.41,80.766,2.502,116.749,2.485,123.488-1.579.794-.475,1.51-1.062,2.183-1.778,9.527-10.096,74.528-104.012,87.049-199.405.388-2.977-.475-5.988-1.821-8.473-22.271-41.151-68.073-91.13-85.815-129.623-18.336-39.771-29.786-100.725-29.976-122.505-.147-16.973.06-78.117.914-104.28.225-6.825,4.453-12.3045,9.794-12.6928,6.187-.4487,11.399-7.3,11.572-15.2213l.06-2.7354c.164-7.533-4.591-13.7717-10.484-13.7717l-133.9552.1208c-5.79,0-10.4496,6.0316-10.3806,13.4352l-.0172.0173Z" style="fill:#dcd6cb; stroke:#dcd6cb; stroke-miterlimit:10; stroke-width:9px;"/><path d="M116.3462,63.0545c8.025,27.561,11.356,56.347,11.994,84.995,1.527,71.783-19.147,144.913-63.5431,201.933-8.836,11.321-18.3968,22.047-28.7256,31.961,9.6385-10.579,18.7247-21.632,27.0257-33.221,8.232-11.589,15.834-23.729,22.4783-36.302,40.0377-75.252,48.3307-166.554,30.7707-249.366Z" style="fill:#e2e3e2;"/><path d="M303.6972,378.4675c-78.256-69.67-109.889-173.881-95.143-276.358,2.123-14.298,4.902-28.553,9.311-42.324-.915,3.494-1.674,7.015-2.382,10.553-4.901,24.696-7.067,49.944-6.972,75.088.345,88.938,32.298,169.808,95.177,233.041h.009Z" style="fill:#e2e3e2;"/><path d="M22.4895,403.4965c-1.7948,8.87-3.279,17.663-.9923,26.508.2502,1.354.7421,2.562.9923,3.943-.5436-.44-1.0441-.923-1.5446-1.424-7.4812-7.861-6.0661-21.745,1.5446-29.027Z" style="fill:#e2e3e2;"/><path d="M316.0362,431.6665c1.337-4.919,2.433-9.984,2.148-15.101-.164-5.195-1.147-10.104-2.148-15.351,8.154,7.732,9.103,23.074,0,30.452Z" style="fill:#e2e3e2;"/><path d="M94.7824,346.0575s52.8608-61.654,121.5468-1.381c68.686,60.273-121.5468,1.381-121.5468,1.381Z" style="fill:#609437;"/><path d="M38.2116,435.7235c6.2991,29.855,21.7362,94.382,43.9124,129.683,4.9875,7.947,12.7622,18.483,21.5722,20.217,37.027,7.292,99.526,4.039,128.899,1.916,10.794-.776,20.571-12.149,26.188-22.029,12.115-21.288,32.186-64.605,42.739-131.815,1.338-8.517-.207-17.275-4.444-24.627-17.197-29.856-41.151-59.539-61.532-78.506-5.359-4.987-12.038-8.18-19.139-8.706-8.845-.656-18.44,1.432-27.889,3.926-15.756,4.168-31.892,6.472-48.123,6.756-19.562.345-38.269,7.223-53.6806,19.277-7.7574,6.066-14.6778,13.444-20.4505,21.961l-22.5214,33.204c-5.6261,8.292-7.6366,18.75-5.5311,28.734v.009Z" style="fill:#215523;"/><g style="opacity:.5;"><g style="opacity:.5;"><path d="M152.8202,214.3245s.034,0,.026.026l-1.795,5.341s-.035.043-.06.052l-5.255.957s-.035-.008-.026-.034l1.881-4.591s.034-.043.06-.051l5.169-1.692v-.008Z" style="fill:#92b6da;"/></g><g style="opacity:.5;"><path d="M153.3642,204.6275s.017-.034.035-.017l4.469,3.425s.035.044.026.069l-.794,5.281s-.017.026-.043.018l-3.736-3.262s-.035-.052-.035-.069l.069-5.436.009-.009Z" style="fill:#92b6da;"/></g><g style="opacity:.5;"><path d="M151.5522,192.8725s.034-.009.034.017l.596,5.6s-.009.052-.035.069l-4.375,3.064s-.034,0-.034-.018l-.207-4.953s.008-.06.026-.069l3.986-3.693.009-.017Z" style="fill:#92b6da;"/></g><g style="opacity:.5;"><path d="M141.8622,212.4415s.034,0,.026.026l-1.795,5.341s-.035.043-.061.052l-5.255.958s-.034-.009-.026-.035l1.882-4.59s.034-.044.06-.052l5.169-1.691v-.009Z" style="fill:#92b6da;"/></g><g style="opacity:.5;"><path d="M142.4142,202.7445s.017-.034.034-.017l4.47,3.426s.034.043.026.069l-.794,5.281s-.017.025-.043.017l-3.737-3.262s-.034-.052-.034-.069l.069-5.436.009-.009Z" style="fill:#92b6da;"/></g><g style="opacity:.5;"><path d="M140.6012,190.9895s.035-.009.035.017l.595,5.601s-.008.051-.034.069l-4.375,3.063s-.035,0-.035-.017l-.207-4.953s.009-.061.026-.069l3.987-3.694.008-.017Z" style="fill:#92b6da;"/></g><g style="opacity:.5;"><path d="M126.7782,182.1325s.034,0,.026.026l-1.795,5.341s-.035.044-.06.052l-5.255.958s-.035-.009-.026-.035l1.881-4.59s.034-.043.06-.052l5.169-1.691v-.009Z" style="fill:#92b6da;"/></g><g style="opacity:.5;"><path d="M127.3302,172.4435s.017-.034.035-.017l4.469,3.426s.035.043.026.069l-.794,5.281s-.017.026-.043.017l-3.736-3.262s-.035-.051-.035-.069l.069-5.436.009-.009Z" style="fill:#92b6da;"/></g><g style="opacity:.5;"><path d="M125.5182,160.6885s.034-.008.034.018l.596,5.6s-.009.052-.035.069l-4.375,3.063s-.034,0-.034-.017l-.207-4.953s.008-.061.026-.069l3.986-3.693.009-.018Z" style="fill:#92b6da;"/></g><g style="opacity:.5;"><path d="M115.8282,180.2535s.034,0,.026.026l-1.795,5.342s-.035.043-.061.051l-5.255.958s-.034-.009-.026-.034l1.882-4.591s.034-.043.06-.052l5.169-1.691v-.009Z" style="fill:#92b6da;"/></g><g style="opacity:.5;"><path d="M116.3802,170.5655s.017-.035.035-.018l4.469,3.426s.035.043.026.069l-.794,5.281s-.017.026-.043.017l-3.736-3.262s-.034-.051-.034-.069l.069-5.436.008-.008Z" style="fill:#92b6da;"/></g><g style="opacity:.5;"><path d="M114.5682,158.8095s.035-.008.035.018l.595,5.6s-.009.052-.034.069l-4.375,3.063s-.035,0-.035-.017l-.207-4.953s.009-.061.026-.069l3.987-3.693.008-.018Z" style="fill:#92b6da;"/></g><g style="opacity:.5;"><path d="M149.5322,185.4965s.035,0,.026.025l-1.794,5.342s-.035.043-.061.052l-5.255.957s-.034-.008-.026-.034l1.881-4.591s.035-.043.061-.052l5.168-1.691v-.008Z" style="fill:#92b6da;"/></g><g style="opacity:.5;"><path d="M150.0852,175.7995s.017-.035.034-.017l4.47,3.425s.035.043.026.069l-.794,5.281s-.017.026-.043.017l-3.736-3.261s-.035-.052-.035-.069l.069-5.436.009-.009Z" style="fill:#92b6da;"/></g><g style="opacity:.5;"><path d="M148.2732,164.0445s.034-.009.034.017l.595,5.6s-.008.052-.034.069l-4.375,3.064s-.034-.001-.034-.018l-.208-4.953s.009-.06.026-.069l3.987-3.693.009-.017Z" style="fill:#92b6da;"/></g><g style="opacity:.5;"><path d="M138.5822,183.6175s.035,0,.026.026l-1.795,5.341s-.034.043-.06.052l-5.255.957s-.035-.008-.026-.034l1.881-4.591s.035-.043.061-.051l5.168-1.692v-.008Z" style="fill:#92b6da;"/></g><g style="opacity:.5;"><path d="M139.1262,173.9245s.018-.035.035-.017l4.47,3.425s.034.043.025.069l-.793,5.281s-.018.026-.044.017l-3.736-3.261s-.034-.052-.034-.069l.069-5.436.008-.009Z" style="fill:#92b6da;"/></g><g style="opacity:.5;"><path d="M137.3142,162.1615s.035-.009.035.017l.595,5.6s-.009.052-.035.069l-4.374,3.064s-.035,0-.035-.018l-.207-4.953s.009-.06.026-.069l3.986-3.693.009-.017Z" style="fill:#92b6da;"/></g><g style="opacity:.5;"><path d="M129.4362,212.8555s.035,0,.026.026l-1.795,5.341s-.034.043-.06.052l-5.255.958s-.035-.009-.026-.035l1.881-4.59s.035-.044.061-.052l5.168-1.691v-.009Z" style="fill:#92b6da;"/></g><g style="opacity:.5;"><path d="M129.9882,203.1705s.017-.035.034-.017l4.47,3.425s.035.044.026.069l-.794,5.281s-.017.026-.043.018l-3.736-3.262s-.035-.052-.035-.069l.069-5.436.009-.009Z" style="fill:#92b6da;"/></g><g style="opacity:.5;"><path d="M128.1762,191.4155s.034-.009.034.017l.596,5.6s-.009.052-.035.069l-4.375,3.064s-.034,0-.034-.018l-.207-4.953s.008-.06.026-.069l3.986-3.693.009-.017Z" style="fill:#92b6da;"/></g><g style="opacity:.5;"><path d="M118.4862,210.9845s.034,0,.026.026l-1.795,5.341s-.035.043-.061.052l-5.255.958s-.034-.009-.026-.035l1.882-4.59s.034-.044.06-.052l5.169-1.692v-.008Z" style="fill:#92b6da;"/></g><g style="opacity:.5;"><path d="M119.0292,201.2875s.018-.034.035-.017l4.47,3.426s.034.043.026.069l-.794,5.28s-.018.026-.044.018l-3.736-3.262s-.034-.052-.034-.069l.069-5.436.008-.009Z" style="fill:#92b6da;"/></g><g style="opacity:.5;"><path d="M117.2172,189.5325s.035-.009.035.017l.595,5.601s-.009.051-.034.069l-4.375,3.063s-.035,0-.035-.017l-.207-4.953s.009-.061.026-.069l3.986-3.694.009-.017Z" style="fill:#92b6da;"/></g><g style="opacity:.5;"><path d="M170.5782,189.2965s.035,0,.026.026l-1.795,5.342s-.034.043-.06.051l-5.255.958s-.035-.009-.026-.034l1.881-4.591s.035-.043.06-.052l5.169-1.691v-.009Z" style="fill:#92b6da;"/></g><g style="opacity:.5;"><path d="M171.1222,179.6075s.017-.034.035-.017l4.469,3.426s.035.043.026.069l-.794,5.281s-.017.026-.043.017l-3.736-3.262s-.035-.051-.035-.069l.069-5.436.009-.009Z" style="fill:#92b6da;"/></g><g style="opacity:.5;"><path d="M169.3102,167.8485s.034-.008.034.018l.596,5.6s-.009.052-.035.069l-4.375,3.063s-.034,0-.034-.017l-.207-4.953s.008-.06.026-.069l3.986-3.693.009-.018Z" style="fill:#92b6da;"/></g><g style="opacity:.5;"><path d="M159.6202,187.4215s.034,0,.026.026l-1.795,5.342s-.035.043-.061.051l-5.255.958s-.034-.009-.026-.034l1.882-4.591s.034-.043.06-.052l5.169-1.691v-.009Z" style="fill:#92b6da;"/></g><g style="opacity:.5;"><path d="M160.1722,177.7295s.017-.035.034-.018l4.47,3.426s.034.043.026.069l-.794,5.281s-.017.026-.043.017l-3.736-3.262s-.035-.051-.035-.069l.069-5.436.009-.008Z" style="fill:#92b6da;"/></g><g style="opacity:.5;"><path d="M158.3602,165.9745s.034-.009.034.017l.596,5.6s-.009.052-.035.069l-4.375,3.063s-.034,0-.034-.017l-.207-4.953s.008-.06.026-.069l3.986-3.693.009-.017Z" style="fill:#92b6da;"/></g><g style="opacity:.5;"><path d="M173.6762,198.1385s.034-.009.034.017l.596,5.6s-.009.052-.035.069l-4.375,3.063s-.034,0-.034-.017l-.207-4.953s.008-.06.025-.069l3.987-3.693.009-.017Z" style="fill:#92b6da;"/></g><g style="opacity:.5;"><path d="M163.9852,217.7105s.035,0,.026.026l-1.795,5.342s-.034.043-.06.051l-5.255.958s-.034-.008-.026-.034l1.881-4.591s.035-.043.061-.052l5.168-1.691v-.009Z" style="fill:#92b6da;"/></g><g style="opacity:.5;"><path d="M164.5382,208.0105s.017-.035.034-.017l4.47,3.425s.034.043.026.069l-.794,5.281s-.017.026-.043.017l-3.737-3.261s-.034-.052-.034-.069l.069-5.437.009-.008Z" style="fill:#92b6da;"/></g><g style="opacity:.5;"><path d="M162.7262,196.2595s.034-.009.034.017l.596,5.6s-.009.052-.035.069l-4.375,3.063s-.034,0-.034-.017l-.207-4.953s.008-.06.025-.069l3.987-3.693.009-.017Z" style="fill:#92b6da;"/></g><g style="opacity:.5;"><path d="M168.8962,157.4685s.034,0,.026.026l-1.795,5.341s-.035.044-.061.052l-5.255.958s-.034-.009-.025-.035l1.881-4.59s.034-.043.06-.052l5.169-1.691v-.009Z" style="fill:#92b6da;"/></g><g style="opacity:.5;"><path d="M157.9462,155.5935s.034,0,.025.026l-1.794,5.341s-.035.044-.061.052l-5.255.958s-.034-.009-.026-.035l1.881-4.59s.035-.043.061-.052l5.169-1.691v-.009Z" style="fill:#92b6da;"/></g><g style="opacity:.5;"><path d="M158.4982,145.9005s.017-.034.034-.017l4.47,3.426s.034.043.026.069l-.794,5.281s-.017.026-.043.017l-3.737-3.262s-.034-.051-.034-.069l.069-5.436.009-.009Z" style="fill:#92b6da;"/></g><g style="opacity:.5;"><path d="M156.6772,134.1455s.035-.008.035.018l.595,5.6s-.009.052-.035.069l-4.374,3.063s-.035,0-.035-.017l-.207-4.953s.009-.061.026-.069l3.986-3.693.009-.018Z" style="fill:#92b6da;"/></g><g style="opacity:.5;"><path d="M146.4862,153.9145s.035,0,.026.025l-1.795,5.342s-.034.043-.06.051l-5.255.958s-.034-.008-.026-.034l1.881-4.591s.035-.043.061-.052l5.168-1.691v-.008Z" style="fill:#92b6da;"/></g><g style="opacity:.5;"><path d="M147.0302,144.2215s.017-.035.035-.017l4.469,3.425s.035.043.026.069l-.794,5.281s-.017.026-.043.017l-3.736-3.261s-.035-.052-.035-.069l.069-5.437.009-.008Z" style="fill:#92b6da;"/></g><g style="opacity:.5;"><path d="M145.2182,132.4665s.035-.009.035.017l.595,5.6s-.009.052-.035.069l-4.374,3.063s-.035,0-.035-.017l-.207-4.953s.009-.06.026-.069l3.986-3.693.009-.017Z" style="fill:#92b6da;"/></g><g style="opacity:.5;"><path d="M135.5282,152.0425s.034,0,.026.026l-1.795,5.342s-.035.043-.06.051l-5.255.958s-.035-.008-.026-.034l1.881-4.591s.034-.043.06-.052l5.169-1.691v-.009Z" style="fill:#92b6da;"/></g><g style="opacity:.5;"><path d="M136.0802,142.3425s.017-.035.035-.017l4.469,3.425s.035.043.026.069l-.794,5.281s-.017.026-.043.017l-3.736-3.261s-.035-.052-.035-.069l.069-5.436.009-.009Z" style="fill:#92b6da;"/></g><g style="opacity:.5;"><path d="M134.2682,130.5915s.034-.009.034.017l.596,5.6s-.009.052-.035.069l-4.375,3.063s-.034,0-.034-.017l-.207-4.953s.008-.06.026-.069l3.986-3.693.009-.017Z" style="fill:#92b6da;"/></g><g style="opacity:.5;"><path d="M124.0772,150.5425s.035,0,.026.026l-1.795,5.342s-.034.043-.06.051l-5.255.958s-.035-.008-.026-.034l1.881-4.591s.035-.043.06-.052l5.169-1.691v-.009Z" style="fill:#92b6da;"/></g><g style="opacity:.5;"><path d="M124.6302,140.8425s.017-.035.034-.017l4.47,3.425s.034.043.026.069l-.794,5.281s-.017.026-.043.017l-3.736-3.261s-.035-.052-.035-.069l.069-5.437.009-.008Z" style="fill:#92b6da;"/></g><g style="opacity:.5;"><path d="M122.8092,129.0915s.034-.009.034.017l.596,5.6s-.009.052-.035.069l-4.375,3.063s-.034,0-.034-.017l-.207-4.953s.008-.06.025-.069l3.987-3.693.009-.017Z" style="fill:#92b6da;"/></g><g style="opacity:.5;"><path d="M113.1272,148.6605s.035,0,.026.026l-1.795,5.341s-.034.043-.06.052l-5.255.957s-.035-.008-.026-.034l1.881-4.591s.035-.043.061-.051l5.168-1.692v-.008Z" style="fill:#92b6da;"/></g><g style="opacity:.5;"><path d="M113.6702,138.9635s.018-.035.035-.017l4.47,3.425s.034.044.026.069l-.794,5.281s-.018.026-.043.018l-3.737-3.262s-.034-.052-.034-.069l.069-5.436.008-.009Z" style="fill:#92b6da;"/></g><g style="opacity:.5;"><path d="M149.6102,302.2425s.035,0,.026.026l-1.795,5.341s-.034.043-.06.052l-5.255.957s-.034-.008-.026-.034l1.881-4.591s.035-.043.061-.051l5.168-1.692v-.008Z" style="fill:#92b6da;"/></g><g style="opacity:.5;"><path d="M150.1622,292.5535s.018-.035.035-.017l4.47,3.425s.034.043.026.069l-.794,5.281s-.018.026-.043.017l-3.737-3.261s-.034-.052-.034-.069l.069-5.437.008-.008Z" style="fill:#92b6da;"/></g><g style="opacity:.5;"><path d="M148.3502,280.7945s.035-.009.035.017l.595,5.6s-.009.052-.034.069l-4.375,3.063s-.035.001-.035-.017l-.207-4.953s.009-.06.026-.069l3.987-3.693.008-.017Z" style="fill:#92b6da;"/></g><g style="opacity:.5;"><path d="M138.6602,300.3675s.034,0,.026.026l-1.795,5.341s-.034.043-.06.052l-5.255.957s-.035-.008-.026-.034l1.881-4.591s.034-.043.06-.051l5.169-1.692v-.008Z" style="fill:#92b6da;"/></g><g style="opacity:.5;"><path d="M139.2122,290.6745s.018-.035.035-.017l4.47,3.425s.034.043.026.069l-.794,5.281s-.018.026-.043.017l-3.737-3.261s-.034-.052-.034-.069l.069-5.436.008-.009Z" style="fill:#92b6da;"/></g><g style="opacity:.5;"><path d="M137.3922,278.9195s.034-.009.034.017l.596,5.6s-.009.052-.035.069l-4.375,3.064s-.034-.001-.034-.018l-.207-4.953s.008-.06.026-.069l3.986-3.693.009-.017Z" style="fill:#92b6da;"/></g><g style="opacity:.5;"><path d="M123.5762,270.0545s.035,0,.026.026l-1.794,5.341s-.035.043-.061.052l-5.255.958s-.034-.009-.026-.035l1.881-4.59s.035-.043.061-.052l5.168-1.691v-.009Z" style="fill:#92b6da;"/></g><g style="opacity:.5;"><path d="M124.1292,260.3615s.017-.034.035-.017l4.469,3.426s.035.043.026.069l-.793,5.281s-.018.026-.044.017l-3.736-3.262s-.034-.051-.034-.069l.069-5.436.008-.009Z" style="fill:#92b6da;"/></g><g style="opacity:.5;"><path d="M122.3172,248.6065s.034-.008.034.018l.596,5.6s-.009.051-.035.069l-4.375,3.063s-.034,0-.034-.017l-.207-4.953s.008-.061.026-.069l3.986-3.693.009-.018Z" style="fill:#92b6da;"/></g><g style="opacity:.5;"><path d="M112.6272,268.1755s.034,0,.026.026l-1.795,5.341s-.035.044-.061.052l-5.255.958s-.034-.009-.025-.035l1.881-4.59s.034-.043.06-.052l5.169-1.691v-.009Z" style="fill:#92b6da;"/></g><g style="opacity:.5;"><path d="M113.1792,258.4755s.017-.035.034-.018l4.47,3.426s.035.043.026.069l-.794,5.281s-.017.026-.043.017l-3.736-3.261s-.035-.052-.035-.07l.069-5.436.009-.008Z" style="fill:#92b6da;"/></g><g style="opacity:.5;"><path d="M111.3582,246.7245s.035-.009.035.017l.595,5.6s-.008.052-.034.069l-4.375,3.063s-.035,0-.035-.017l-.207-4.953s.009-.06.026-.069l3.987-3.693.008-.017Z" style="fill:#92b6da;"/></g><g style="opacity:.5;"><path d="M146.3312,273.4175s.035,0,.026.026l-1.795,5.342s-.034.043-.06.051l-5.255.958s-.035-.008-.026-.034l1.881-4.591s.034-.043.06-.052l5.169-1.691v-.009Z" style="fill:#92b6da;"/></g><g style="opacity:.5;"><path d="M145.0632,251.9745s.034-.009.034.017l.596,5.6s-.009.052-.035.069l-4.375,3.063s-.034,0-.034-.017l-.207-4.953s.008-.06.026-.069l3.986-3.693.009-.017Z" style="fill:#92b6da;"/></g><g style="opacity:.5;"><path d="M135.3812,271.5355s.035,0,.026.026l-1.795,5.341s-.034.043-.06.052l-5.255.957s-.035-.008-.026-.034l1.881-4.591s.035-.043.06-.051l5.169-1.692v-.008Z" style="fill:#92b6da;"/></g><g style="opacity:.5;"><path d="M135.9252,261.8465s.017-.035.034-.017l4.47,3.425s.034.043.026.069l-.794,5.281s-.017.026-.043.017l-3.737-3.261s-.034-.052-.034-.069l.069-5.437.009-.008Z" style="fill:#92b6da;"/></g><g style="opacity:.5;"><path d="M134.1122,250.0955s.035-.009.035.017l.595,5.6s-.008.052-.034.069l-4.375,3.063s-.035,0-.035-.017l-.207-4.953s.009-.06.026-.069l3.987-3.693.008-.017Z" style="fill:#92b6da;"/></g><g style="opacity:.5;"><path d="M126.7872,291.0845s.017-.034.034-.017l4.47,3.425s.035.044.026.069l-.794,5.281s-.017.026-.043.018l-3.736-3.262s-.035-.052-.035-.069l.069-5.436.009-.009Z" style="fill:#92b6da;"/></g><g style="opacity:.5;"><path d="M124.9662,279.3335s.034-.009.034.017l.596,5.6s-.009.052-.035.069l-4.375,3.064s-.034,0-.034-.018l-.207-4.953s.008-.06.026-.069l3.986-3.693.009-.017Z" style="fill:#92b6da;"/></g><g style="opacity:.5;"><path d="M115.8282,289.2175s.017-.035.034-.017l4.47,3.425s.034.043.026.069l-.794,5.281s-.017.026-.043.017l-3.736-3.261s-.035-.052-.035-.069l.069-5.436.009-.009Z" style="fill:#92b6da;"/></g><g style="opacity:.5;"><path d="M114.0162,277.4625s.034-.009.034.017l.596,5.6s-.009.052-.035.069l-4.375,3.063s-.034,0-.034-.017l-.207-4.953s.009-.06.026-.069l3.986-3.693.009-.017Z" style="fill:#92b6da;"/></g><g style="opacity:.5;"><path d="M171.7352,307.5075s.034,0,.026.026l-1.795,5.341s-.035.044-.061.052l-5.255.958s-.034-.009-.026-.034l1.882-4.591s.034-.043.06-.052l5.169-1.691v-.009Z" style="fill:#92b6da;"/></g><g style="opacity:.5;"><path d="M160.7842,305.6245s.035,0,.026.026l-1.794,5.342s-.035.043-.061.051l-5.255.958s-.034-.008-.026-.034l1.881-4.591s.035-.043.061-.052l5.168-1.691v-.009Z" style="fill:#92b6da;"/></g><g style="opacity:.5;"><path d="M161.3372,295.9405s.017-.035.034-.018l4.47,3.426s.035.043.026.069l-.794,5.281s-.017.026-.043.017l-3.736-3.262s-.035-.051-.035-.069l.069-5.436.009-.008Z" style="fill:#92b6da;"/></g><g style="opacity:.5;"><path d="M159.5162,284.1845s.034-.008.034.018l.596,5.6s-.009.052-.035.069l-4.375,3.063s-.034,0-.034-.017l-.207-4.953s.009-.061.026-.069l3.986-3.693.009-.018Z" style="fill:#92b6da;"/></g><g style="opacity:.5;"><path d="M164.4352,223.9425s.034-.008.034.018l.596,5.6s-.009.051-.035.069l-4.375,3.063s-.034,0-.034-.017l-.207-4.953s.008-.061.025-.069l3.987-3.693.009-.018Z" style="fill:#92b6da;"/></g><g style="opacity:.5;"><path d="M154.7442,243.5155s.035,0,.026.026l-1.795,5.341s-.034.043-.06.052l-5.255.958s-.034-.009-.026-.035l1.881-4.59s.035-.043.061-.052l5.168-1.691v-.009Z" style="fill:#92b6da;"/></g><g style="opacity:.5;"><path d="M155.2882,233.8225s.017-.034.034-.017l4.47,3.426s.035.043.026.069l-.794,5.281s-.017.026-.043.017l-3.736-3.262s-.035-.052-.035-.069l.069-5.436.009-.009Z" style="fill:#92b6da;"/></g><g style="opacity:.5;"><path d="M153.4762,222.0675s.034-.008.034.018l.596,5.6s-.009.051-.035.069l-4.375,3.063s-.034,0-.034-.017l-.207-4.953s.008-.061.025-.069l3.987-3.693.009-.018Z" style="fill:#92b6da;"/></g><g style="opacity:.5;"><path d="M143.2772,241.8435s.034,0,.026.026l-1.795,5.341s-.035.044-.061.052l-5.255.958s-.034-.009-.026-.035l1.882-4.59s.034-.043.06-.052l5.169-1.691v-.009Z" style="fill:#92b6da;"/></g><g style="opacity:.5;"><path d="M143.8292,232.1545s.017-.034.034-.017l4.47,3.426s.034.043.026.069l-.794,5.281s-.017.026-.043.017l-3.737-3.262s-.034-.052-.034-.069l.069-5.436.009-.009Z" style="fill:#92b6da;"/></g><g style="opacity:.5;"><path d="M142.0162,220.3955s.035-.008.035.018l.595,5.6s-.008.052-.034.069l-4.375,3.063s-.035,0-.035-.017l-.207-4.953s.009-.061.026-.069l3.987-3.693.008-.018Z" style="fill:#92b6da;"/></g><g style="opacity:.5;"><path d="M132.3262,239.9645s.035,0,.026.026l-1.794,5.341s-.035.044-.061.052l-5.255.958s-.034-.009-.026-.034l1.881-4.591s.035-.043.061-.052l5.168-1.691v-.009Z" style="fill:#92b6da;"/></g><g style="opacity:.5;"><path d="M132.8782,230.2755s.018-.034.035-.017l4.47,3.426s.034.043.026.069l-.794,5.281s-.017.026-.043.017l-3.737-3.262s-.034-.051-.034-.069l.069-5.436.008-.009Z" style="fill:#92b6da;"/></g><g style="opacity:.5;"><path d="M131.0582,218.5205s.034-.008.034.018l.596,5.6s-.009.052-.035.069l-4.374,3.063s-.035,0-.035-.017l-.207-4.953s.009-.061.026-.069l3.986-3.693.009-.018Z" style="fill:#92b6da;"/></g><g style="opacity:.5;"><path d="M120.8762,238.4605s.035,0,.026.026l-1.795,5.342s-.034.043-.06.051l-5.255.958s-.035-.008-.026-.034l1.881-4.591s.034-.043.06-.052l5.169-1.691v-.009Z" style="fill:#92b6da;"/></g><g style="opacity:.5;"><path d="M121.4202,228.7725s.017-.035.034-.018l4.47,3.426s.035.043.026.069l-.794,5.281s-.017.026-.043.017l-3.736-3.262s-.035-.051-.035-.069l.069-5.436.009-.008Z" style="fill:#92b6da;"/></g><g style="opacity:.5;"><path d="M119.6082,217.0095s.034-.009.034.017l.595,5.6s-.008.052-.034.069l-4.375,3.063s-.034,0-.034-.017l-.208-4.953s.009-.06.026-.069l3.987-3.693.009-.017Z" style="fill:#92b6da;"/></g><g style="opacity:.5;"><path d="M109.9172,236.5745s.035,0,.026.026l-1.795,5.341s-.034.043-.06.052l-5.255.957s-.035-.008-.026-.034l1.881-4.591s.035-.043.061-.051l5.168-1.692v-.008Z" style="fill:#92b6da;"/></g><g style="opacity:.5;"><path d="M110.4702,226.8895s.017-.035.034-.018l4.47,3.426s.034.043.026.069l-.794,5.281s-.017.026-.043.017l-3.737-3.261s-.034-.052-.034-.069l.069-5.437.009-.008Z" style="fill:#92b6da;"/></g><g style="opacity:.5;"><path d="M108.6572,215.1385s.035-.009.035.017l.595,5.6s-.008.052-.034.069l-4.375,3.063s-.035,0-.035-.017l-.207-4.953s.009-.06.026-.069l3.987-3.693.008-.017Z" style="fill:#92b6da;"/></g></g><g style="opacity:.5;"><g style="opacity:.5;"><path d="M114.5682,87.7275s-.034.017-.034,0l-1.614-5.402s0-.052.017-.069l3.737-3.805s.034-.009.043.008l1.113,4.833s0,.06-.017.077l-3.245,4.367v-.009Z" style="fill:#92b6da;"/></g><g style="opacity:.5;"><path d="M119.7112,95.9685s0,.034-.017.034l-5.626-.216s-.052-.017-.061-.043l-2.398-4.772s0-.034.026-.034l4.935.5s.052.018.069.044l3.081,4.478-.009.009Z" style="fill:#92b6da;"/></g><g style="opacity:.5;"><path d="M127.9692,104.5175s-.026.026-.035.008l-3.719-4.228s-.026-.051-.017-.069l1.803-5.022s.026-.026.044,0l3.028,3.926s.026.052.018.078l-1.131,5.324.009-.017Z" style="fill:#92b6da;"/></g><g style="opacity:.5;"><path d="M124.5952,82.9465s-.035.017-.035,0l-1.613-5.402s0-.052.017-.069l3.736-3.805s.035-.009.043.008l1.113,4.832s0,.061-.017.078l-3.244,4.366v-.008Z" style="fill:#92b6da;"/></g><g style="opacity:.5;"><path d="M129.7382,91.1755s0,.034-.017.034l-5.626-.216s-.052-.017-.061-.043l-2.398-4.771s0-.035.025-.035l4.936.5s.052.018.069.044l3.081,4.478-.009.009Z" style="fill:#92b6da;"/></g><g style="opacity:.5;"><path d="M138.0042,99.7285s-.026.026-.034.008l-3.719-4.228s-.026-.052-.018-.069l1.804-5.022s.026-.026.043,0l3.029,3.926s.026.052.017.078l-1.13,5.324.008-.017Z" style="fill:#92b6da;"/></g><g style="opacity:.5;"><path d="M133.8802,109.3875s-.035.017-.035,0l-1.614-5.402s0-.051.018-.069l3.736-3.805s.035-.009.043.009l1.113,4.832s0,.06-.017.077l-3.244,4.367v-.009Z" style="fill:#92b6da;"/></g><g style="opacity:.5;"><path d="M139.0222,117.6165s0,.035-.017.035l-5.626-.216s-.052-.017-.06-.043l-2.399-4.772s0-.035.026-.035l4.936.501s.051.017.069.043l3.08,4.478-.009.009Z" style="fill:#92b6da;"/></g><g style="opacity:.5;"><path d="M147.2892,126.1695s-.026.026-.035.009l-3.719-4.228s-.026-.052-.017-.069l1.803-5.022s.026-.026.043,0l3.029,3.926s.026.052.017.077l-1.13,5.324.009-.017Z" style="fill:#92b6da;"/></g><g style="opacity:.5;"><path d="M143.9062,104.5945s-.034.017-.034,0l-1.614-5.402s0-.051.017-.069l3.737-3.805s.034-.009.043.009l1.113,4.832s0,.06-.017.077l-3.245,4.367v-.009Z" style="fill:#92b6da;"/></g><g style="opacity:.5;"><path d="M149.0582,112.8275s0,.034-.017.034l-5.626-.215s-.052-.017-.061-.043l-2.398-4.772s0-.035.025-.035l4.936.501s.052.017.069.043l3.081,4.478-.009.009Z" style="fill:#92b6da;"/></g><g style="opacity:.5;"><path d="M157.3162,121.3765s-.026.026-.035.009l-3.719-4.228s-.026-.052-.017-.069l1.803-5.022s.026-.026.043,0l3.029,3.926s.026.052.017.077l-1.13,5.324.009-.017Z" style="fill:#92b6da;"/></g><g style="opacity:.5;"><path d="M134.5012,75.4305s-.035.017-.035,0l-1.613-5.402s0-.051.017-.069l3.736-3.805s.035-.009.043.009l1.113,4.832s0,.06-.017.077l-3.244,4.367v-.009Z" style="fill:#92b6da;"/></g><g style="opacity:.5;"><path d="M139.6442,83.6635s0,.034-.018.034l-5.626-.215s-.052-.018-.06-.043l-2.399-4.772s0-.035.026-.035l4.936.501s.051.017.069.043l3.08,4.478-.008.009Z" style="fill:#92b6da;"/></g><g style="opacity:.5;"><path d="M147.9102,92.2205s-.026.026-.034.009l-3.72-4.229s-.025-.051-.017-.069l1.804-5.022s.026-.025.043,0l3.029,3.927s.025.051.017.077l-1.131,5.324.009-.017Z" style="fill:#92b6da;"/></g><g style="opacity:.5;"><path d="M144.5362,70.6495s-.034.017-.034,0l-1.614-5.402s0-.052.017-.069l3.737-3.805s.034-.009.043.008l1.113,4.833s0,.06-.017.077l-3.245,4.366v-.008Z" style="fill:#92b6da;"/></g><g style="opacity:.5;"><path d="M149.6792,78.8825s0,.034-.017.034l-5.626-.216s-.052-.017-.061-.043l-2.399-4.771s0-.035.026-.035l4.936.5s.052.018.069.044l3.081,4.478-.009.009Z" style="fill:#92b6da;"/></g><g style="opacity:.5;"><path d="M157.9372,87.4315s-.026.026-.035.009l-3.719-4.229s-.026-.051-.017-.069l1.804-5.022s.025-.026.043,0l3.028,3.926s.026.052.018.078l-1.131,5.324.009-.017Z" style="fill:#92b6da;"/></g><g style="opacity:.5;"><path d="M114.4992,118.4035s-.035.017-.035,0l-1.613-5.402s0-.052.017-.069l3.736-3.805s.035-.009.044.008l1.113,4.832s0,.061-.018.078l-3.244,4.366v-.008Z" style="fill:#92b6da;"/></g><g style="opacity:.5;"><path d="M119.6422,126.6475s0,.035-.017.035l-5.626-.216s-.052-.017-.061-.043l-2.399-4.772s0-.034.026-.034l4.936.5s.052.017.069.043l3.08,4.479-.008.008Z" style="fill:#92b6da;"/></g><g style="opacity:.5;"><path d="M127.9092,135.2005s-.026.026-.035.009l-3.719-4.228s-.026-.052-.017-.069l1.803-5.022s.026-.026.043,0l3.029,3.926s.026.052.017.078l-1.13,5.324.009-.018Z" style="fill:#92b6da;"/></g><g style="opacity:.5;"><path d="M124.5262,113.6295s-.035.017-.035,0l-1.614-5.401s0-.052.018-.069l3.736-3.806s.035-.008.043.009l1.113,4.832s0,.06-.017.078l-3.244,4.366v-.009Z" style="fill:#92b6da;"/></g><g style="opacity:.5;"><path d="M129.6682,121.8585s0,.035-.017.035l-5.626-.216s-.052-.017-.06-.043l-2.399-4.772s0-.034.026-.034l4.936.5s.051.017.069.043l3.08,4.479-.009.008Z" style="fill:#92b6da;"/></g><g style="opacity:.5;"><path d="M137.9352,130.4075s-.026.026-.034.009l-3.719-4.228s-.026-.052-.018-.069l1.804-5.022s.026-.026.043,0l3.029,3.926s.026.052.017.078l-1.13,5.324.008-.018Z" style="fill:#92b6da;"/></g><g style="opacity:.5;"><path d="M106.8632,112.9825s-.026.026-.035.008l-3.719-4.228s-.026-.052-.017-.069l1.803-5.022s.026-.026.043,0l3.029,3.926s.026.052.017.078l-1.13,5.324.009-.017Z" style="fill:#92b6da;"/></g><g style="opacity:.5;"><path d="M103.4892,91.4105s-.035.018-.035,0l-1.613-5.401s0-.052.017-.069l3.736-3.806s.035-.008.043.009l1.113,4.832s0,.061-.017.078l-3.244,4.366v-.009Z" style="fill:#92b6da;"/></g><g style="opacity:.5;"><path d="M108.6322,99.6395s0,.035-.018.035l-5.626-.216s-.051-.017-.06-.043l-2.399-4.772s0-.034.026-.034l4.936.5s.051.018.069.043l3.08,4.479-.008.008Z" style="fill:#92b6da;"/></g><g style="opacity:.5;"><path d="M116.8982,108.1975s-.026.025-.035.008l-3.719-4.228s-.026-.052-.017-.069l1.803-5.022s.026-.026.044,0l3.028,3.926s.026.052.018.078l-1.131,5.324.009-.017Z" style="fill:#92b6da;"/></g><g style="opacity:.5;"><path d="M79.8543,30.8611s-.0258.0259-.0345.0086l-3.719-4.2281s-.0259-.0518-.0173-.0691l1.8035-5.022s.0258-.0259.0431,0l3.0288,3.9262s.0258.0518.0172.0776l-1.1304,5.3241.0086-.0173Z" style="fill:#92b6da;"/></g><g style="opacity:.5;"><path d="M76.4804,9.2782s-.0346.0172-.0346,0l-1.6136-5.4017s0-.0518.0173-.069L78.5858.0021s.0345-.0086.0432.0087l1.1131,4.8321s0,.0604-.0173.0777l-3.2444,4.3662v-.0086Z" style="fill:#92b6da;"/></g><g style="opacity:.5;"><path d="M81.623,17.5228s0,.0345-.0172.0345l-5.6261-.2157s-.0518-.0173-.0604-.0432l-2.3988-4.7717s0-.0345.0259-.0345l4.9357.5004s.0518.0173.069.0432l3.0805,4.4784-.0086.0086Z" style="fill:#92b6da;"/></g><g style="opacity:.5;"><path d="M89.8895,26.072s-.0259.0259-.0345.0087l-3.7191-4.2282s-.0259-.0518-.0172-.069l1.8034-5.022s.0259-.0259.0432,0l3.0287,3.9261s.0259.0518.0173.0777l-1.1304,5.324.0086-.0173Z" style="fill:#92b6da;"/></g><g style="opacity:.5;"><path d="M106.2842,25.3368s-.034.0172-.034,0l-1.614-5.4017s0-.0518.018-.069l3.736-3.8054s.034-.0086.043.0086l1.113,4.8322s0,.0604-.017.0777l-3.245,4.3662v-.0086Z" style="fill:#92b6da;"/></g><g style="opacity:.5;"><path d="M111.4272,33.5697s0,.0345-.017.0345l-5.626-.2157s-.052-.0173-.06-.0432l-2.399-4.7717s0-.0346.026-.0346l4.935.5005s.052.0173.069.0432l3.081,4.4783-.009.0087Z" style="fill:#92b6da;"/></g><g style="opacity:.5;"><path d="M119.6942,42.1306s-.026.0259-.035.0087l-3.719-4.2282s-.026-.0518-.017-.069l1.803-5.022s.026-.0259.043,0l3.029,3.9261s.026.0518.017.0777l-1.13,5.324.009-.0173Z" style="fill:#92b6da;"/></g><g style="opacity:.5;"><path d="M116.3202,20.5477s-.035.0173-.035,0l-1.613-5.4017s0-.0517.017-.069l3.736-3.8053s.035-.0087.043.0086l1.113,4.8322s0,.0604-.017.0776l-3.244,4.3662v-.0086Z" style="fill:#92b6da;"/></g><g style="opacity:.5;"><path d="M121.4632,28.7884s0,.0345-.018.0345l-5.626-.2157s-.051-.0173-.06-.0431l-2.399-4.7718s0-.0345.026-.0345l4.936.5005s.052.0172.069.0431l3.08,4.4784-.008.0086Z" style="fill:#92b6da;"/></g><g style="opacity:.5;"><path d="M129.7212,37.3416s-.026.0259-.035.0086l-3.719-4.2282s-.026-.0517-.017-.069l1.803-5.022s.026-.0259.043,0l3.029,3.9261s.026.0518.017.0777l-1.13,5.324.009-.0172Z" style="fill:#92b6da;"/></g><g style="opacity:.5;"><path d="M85.765,35.7196s-.0345.0172-.0345,0l-1.6136-5.4017s0-.0518.0173-.069l3.7363-3.8054s.0345-.0086.0431.0087l1.1132,4.8321s0,.0604-.0173.0777l-3.2445,4.3662v-.0086Z" style="fill:#92b6da;"/></g><g style="opacity:.5;"><path d="M99.1744,52.5135s-.0259.026-.0345.009l-3.7191-4.229s-.0258-.051-.0172-.069l1.8034-5.022s.0259-.026.0432,0l3.0287,3.927s.0259.051.0173.077l-1.1304,5.324.0086-.017Z" style="fill:#92b6da;"/></g><g style="opacity:.5;"><path d="M95.7919,30.9383s-.0345.0173-.0345,0l-1.6136-5.4016s0-.0518.0172-.0691l3.7363-3.8053s.0345-.0086.0432.0086l1.1131,4.8322s0,.0604-.0172.0776l-3.2445,4.3663v-.0087Z" style="fill:#92b6da;"/></g><g style="opacity:.5;"><path d="M100.9432,39.1712s0,.0345-.017.0345l-5.6262-.2157s-.0518-.0172-.0604-.0431l-2.3988-4.7718s0-.0345.0259-.0345l4.9357.5005s.0518.0172.069.0431l3.0808,4.4784-.009.0086Z" style="fill:#92b6da;"/></g><g style="opacity:.5;"><path d="M109.2012,47.7245s-.026.026-.034.009l-3.72-4.229s-.025-.051-.017-.069l1.804-5.0217s.026-.0259.043,0l3.029,3.9262s.025.0517.017.0776l-1.131,5.3239.009-.017Z" style="fill:#92b6da;"/></g><g style="opacity:.5;"><path d="M91.529,10.0033s0,.0345-.0172.0345l-5.6261-.2157s-.0518-.0173-.0604-.0432l-2.3988-4.7718s0-.0345.0259-.0345l4.9357.5005s.0518.0173.069.0431l3.0805,4.4784-.0086.0087Z" style="fill:#92b6da;"/></g><g style="opacity:.5;"><path d="M99.7955,18.5564s-.0259.0259-.0345.0086l-3.7191-4.2281s-.0259-.0518-.0172-.069l1.8034-5.0221s.0259-.0258.0432,0l3.0289,3.9262s.026.0518.017.0777l-1.1303,5.324.0086-.0173Z" style="fill:#92b6da;"/></g><g style="opacity:.5;"><path d="M101.5642,5.2259s0,.0345-.017.0345l-5.6261-.2157s-.0518-.0172-.0604-.0431l-2.3988-4.7718s0-.0345.0259-.0345l4.9357.5005s.0518.0172.069.0431l3.0807,4.4784-.009.0086Z" style="fill:#92b6da;"/></g><g style="opacity:.5;"><path d="M109.8222,13.7752s-.025.0258-.034.0086l-3.719-4.2282s-.026-.0517-.017-.069l1.803-5.022s.026-.0259.043,0l3.029,3.9261s.026.0518.017.0777l-1.13,5.324.008-.0172Z" style="fill:#92b6da;"/></g><g style="opacity:.5;"><path d="M99.5196,86.5685s-.0259.026-.0345.008l-3.7191-4.228s-.0258-.052-.0172-.069l1.8034-5.022s.0259-.026.0432,0l3.0288,3.926s.026.052.017.078l-1.1302,5.324.0086-.017Z" style="fill:#92b6da;"/></g><g style="opacity:.5;"><path d="M96.1456,64.9965s-.0345.018-.0345,0l-1.6136-5.401s0-.052.0173-.069l3.7363-3.806s.0345-.008.0431.009l1.1132,4.832s0,.061-.0173.078l-3.2445,4.366v-.009Z" style="fill:#92b6da;"/></g><g style="opacity:.5;"><path d="M101.2882,73.2295s0,.035-.017.035l-5.626-.216s-.0517-.017-.0604-.043l-2.3988-4.772s0-.034.0259-.034l4.9357.5s.0518.017.0691.043l3.0805,4.479-.009.008Z" style="fill:#92b6da;"/></g><g style="opacity:.5;"><path d="M109.5552,81.7795s-.026.025-.035.008l-3.719-4.228s-.026-.052-.017-.069l1.803-5.022s.026-.026.043,0l3.029,3.926s.026.052.017.078l-1.13,5.324.009-.017Z" style="fill:#92b6da;"/></g><g style="opacity:.5;"><path d="M106.4742,59.7505s-.034.018-.034,0l-1.614-5.401s0-.052.017-.069l3.737-3.806s.034-.008.043.009l1.113,4.832s0,.06-.017.078l-3.245,4.366v-.009Z" style="fill:#92b6da;"/></g><g style="opacity:.5;"><path d="M111.6172,67.9835s0,.035-.017.035l-5.626-.216s-.052-.017-.061-.043l-2.399-4.772s0-.034.026-.034l4.936.5s.052.017.069.043l3.081,4.479-.009.008Z" style="fill:#92b6da;"/></g><g style="opacity:.5;"><path d="M119.8832,76.5365s-.025.026-.034.009l-3.719-4.228s-.026-.052-.017-.069l1.803-5.022s.026-.026.043,0l3.029,3.926s.026.052.017.078l-1.13,5.324.008-.018Z" style="fill:#92b6da;"/></g><g style="opacity:.5;"><path d="M116.5012,54.9615s-.035.018-.035,0l-1.613-5.401s0-.052.017-.069l3.736-3.806s.035-.008.044.009l1.113,4.832s0,.06-.018.078l-3.244,4.366v-.009Z" style="fill:#92b6da;"/></g><g style="opacity:.5;"><path d="M121.6522,63.1945s0,.035-.017.035l-5.626-.216s-.052-.017-.06-.043l-2.399-4.772s0-.034.026-.034l4.935.5s.052.017.069.043l3.081,4.479-.009.008Z" style="fill:#92b6da;"/></g><g style="opacity:.5;"><path d="M129.9112,71.7555s-.026.026-.035.009l-3.719-4.228s-.026-.052-.017-.069l1.803-5.022s.026-.026.043,0l3.029,3.926s.026.051.017.077l-1.13,5.324.009-.017Z" style="fill:#92b6da;"/></g><g style="opacity:.5;"><path d="M126.7262,49.5865s-.035.018-.035,0l-1.613-5.401s0-.052.017-.069l3.736-3.8058s.035-.0086.044.0087l1.113,4.8321s0,.06-.018.078l-3.244,4.366v-.009Z" style="fill:#92b6da;"/></g><g style="opacity:.5;"><path d="M131.8692,57.8115s0,.035-.017.035l-5.626-.216s-.052-.017-.061-.043l-2.398-4.772s0-.034.025-.034l4.936.5s.052.017.069.043l3.081,4.479-.009.008Z" style="fill:#92b6da;"/></g><g style="opacity:.5;"><path d="M140.1352,66.3685s-.026.026-.034.009l-3.719-4.228s-.026-.052-.017-.069l1.803-5.022s.026-.026.043,0l3.029,3.926s.026.052.017.078l-1.13,5.324.008-.018Z" style="fill:#92b6da;"/></g><g style="opacity:.5;"><path d="M136.7532,44.7975s-.035.017-.035,0l-1.613-5.4015s0-.0517.017-.069l3.736-3.8053s.035-.0087.043.0086l1.114,4.8322s0,.0604-.018.0776l-3.244,4.3664v-.009Z" style="fill:#92b6da;"/></g><g style="opacity:.5;"><path d="M141.9052,53.0265s0,.035-.018.035l-5.626-.216s-.052-.017-.06-.043l-2.399-4.772s0-.034.026-.034l4.936.5s.051.017.069.043l3.08,4.479-.008.008Z" style="fill:#92b6da;"/></g><g style="opacity:.5;"><path d="M150.1622,61.5915s-.026.026-.034.009l-3.719-4.228s-.026-.052-.018-.069l1.804-5.022s.026-.026.043,0l3.029,3.926s.026.051.017.077l-1.13,5.324.008-.017Z" style="fill:#92b6da;"/></g></g><path d="M152.2112,502.7625c-6.633,1.191-11.983-2.218-13.082-8.687-2.269-13.401,3.409-26.73,9.848-39.247-10.423-11.727-24.696-25.825-21.626-41.28,8.266-13.318,34.277-3.029,48.16,4.395,8.122-8.913,17.169-16.286,28.126-20.824,4.117-1.705,8.625-2.239,12.753-.514,5.083,2.752,6.418,8.082,6.213,13.678-.432,11.881-4.899,22.868-10.546,33.855,10.022,10.125,22.2,23.413,22.385,37.337-.318,4.765-3.183,7.804-7.65,9.016-13.051,3.542-28.68-3.913-41.341-9.581-8.924,9.458-20.886,19.623-33.25,21.852h.01Z" style="fill:#603813;"/><rect x="94.5486" y="520.2575" width="16.0778" height=".2032" style="fill:#215523;"/><rect x="94.7636" y="520.1285" width="15.8178" height=".2736" style="fill:#215523;"/><line x1="110.3346" y1="520.3659" x2="110.6558" y2="520.2093" style="fill:none; stroke:#215523; stroke-miterlimit:4; stroke-width:1px;"/><line x1="94.5389" y1="520.6606" x2="94.339" y2="520.374" style="fill:none; stroke:#215523; stroke-miterlimit:4; stroke-width:1px;"/><path d="M95.1124,346.4171s52.8608-61.653,121.5468-1.38c68.686,60.273-121.5468,1.38-121.5468,1.38Z" style="fill:#f3c791;"/><path d="M38.5416,436.083c6.2991,29.856,21.7362,94.383,43.9124,129.684,4.9875,7.947,12.7622,18.483,21.5722,20.217,37.027,7.291,99.526,4.038,128.899,1.916,10.794-.777,20.571-12.15,26.188-22.03,12.115-21.287,32.186-64.604,42.739-131.815,1.338-8.516-.207-17.275-4.444-24.627-17.197-29.856-41.151-59.539-61.532-78.505-5.359-4.988-12.038-8.18-19.139-8.707-8.845-.656-18.44,1.433-27.889,3.926-15.756,4.168-31.892,6.472-48.123,6.757-19.562.345-38.269,7.222-53.6806,19.277-7.7574,6.066-14.6778,13.444-20.4505,21.96l-22.5214,33.204c-5.6261,8.293-7.6366,18.751-5.5311,28.734v.009Z" style="fill:#fd9d07;"/><path d="M144.9742,498.3454c-6.7361.2012-11.5257-3.9586-11.66-10.5189-.2708-13.5881,7.3083-25.9355,15.5204-37.3677-8.5823-13.1342-20.6233-29.1814-15.3108-44.0148,10.1372-11.9555,34.3493,2.052,46.9876,11.4396,9.3461-7.6197,19.3803-13.5799,30.8862-16.4558,4.323-1.0791,8.8605-.9434,12.6895,1.3707,4.6223,3.4706,5.1579,8.9381,4.1309,14.4439-2.1769,11.6868-8.2134,21.8972-15.4169,31.9327,8.4216,11.4906,18.51,26.4261,16.6422,40.2266-1.0161,4.6652-4.2976,7.2501-8.8942,7.7901-13.4305,1.5823-27.7912-8.0931-39.4794-15.5639-10.2194,8.0396-23.5482,16.3331-36.1055,16.716l.0099.0015Z" style="fill:#603813;"/><path d="M181.8309,401.2949c3.6043,8.8635,3.0891,19.9169,2.6154,30.4208-.1028,2.2103-2.3131,4.387-.6997,7.2086,6.8443-11.0738,19.0716-23.5277,32.3425-27.7157-5.2658,13.5041-15.9687,24.3447-27.6057,31.7456,2.6846,1.3802,4.7236-.0824,7.0439-.3709,11.7741-1.4553,23.5686-.7346,35.3631,4.4765-13.9086,6.3021-28.8206,6.1717-43.9446,2.9106,7.0228,4.9845,14.8151,10.552,19.882,17.3765,3.57,4.8125,7.3048,9.3569,9.0967,15.694-13.8822-5.2658-24.3104-15.4812-32.2812-27.6809-1.3248,2.6497.5975,4.8876.7346,7.2152.6595,11.5955,1.1812,24.3723-4.5793,35.116-3.5424-6.81-4.3112-13.8816-4.9496-21.0006-.7141-7.8957.5626-14.7262,2.2037-22.7517-7.9708,11.9111-19.1474,24.3855-33.359,28.841,5.8837-14.4376,16.4496-24.7703,29.1987-32.7543-8.7396,1.5304-16.3192,2.8691-24.5713,1.8328-6.6111-.8308-13.3324-1.3249-19.3739-4.8811,13.7583-6.1651,27.1939-5.7533,42.3595-3.5977-11.9184-8.513-22.3333-17.9668-27.6472-32.3425,13.6622,4.9838,25.1069,16.36,33.0777,28.841l-1.8473-12.8723c-1.2148-8.4854,1.0646-21.6739,4.2565-29.8233,1.9224-.3841,2.4442,2.3961,2.6912,4.1122h-.0066Z" style="fill:#603813;"/><path d="M145.0261,498.7336c-6.7361.2012-11.5257-3.9586-11.66-10.5189-.2708-13.5881,7.3083-25.9355,15.5204-37.3677-8.5823-13.1342-20.6233-29.1814-15.3108-44.0148,10.1372-11.9555,34.3493,2.052,46.9876,11.4396,9.3461-7.6197,19.3803-13.5799,30.8862-16.4558,4.323-1.0791,8.8605-.9434,12.6895,1.3707,4.6223,3.4706,5.1579,8.9381,4.1309,14.4439-2.1769,11.6868-8.2134,21.8972-15.4169,31.9327,8.4216,11.4906,18.51,26.4261,16.6422,40.2266-1.0161,4.6652-4.2976,7.2501-8.8942,7.7901-13.4305,1.5823-27.7912-8.0931-39.4794-15.5639-10.2194,8.0396-23.5482,16.3331-36.1055,16.716l.0099.0015Z" style="fill:#603813;"/><path d="M181.8829,401.683c3.6043,8.8635,3.0891,19.9169,2.6154,30.4208-.1028,2.2103-2.3131,4.387-.6997,7.2086,6.8443-11.0738,19.0716-23.5277,32.3425-27.7157-5.2658,13.5041-15.9687,24.3447-27.6057,31.7456,2.6846,1.3802,4.7236-.0824,7.0439-.3709,11.7741-1.4553,23.5686-.7346,35.3631,4.4765-13.9086,6.3021-28.8206,6.1717-43.9446,2.9106,7.0228,4.9845,14.8151,10.552,19.882,17.3765,3.57,4.8125,7.3048,9.3569,9.0967,15.694-13.8822-5.2658-24.3104-15.4812-32.2812-27.6809-1.3248,2.6497.5975,4.8876.7346,7.2152.6595,11.5955,1.1812,24.3723-4.5793,35.116-3.5424-6.81-4.3112-13.8816-4.9496-21.0006-.7141-7.8957.5626-14.7262,2.2037-22.7517-7.9708,11.9111-19.1474,24.3855-33.359,28.841,5.8837-14.4376,16.4496-24.7703,29.1987-32.7543-8.7396,1.5304-16.3192,2.8691-24.5713,1.8328-6.6111-.8308-13.3324-1.3249-19.3739-4.8811,13.7583-6.1651,27.1939-5.7533,42.3595-3.5977-11.9184-8.513-22.3333-17.9668-27.6472-32.3425,13.6622,4.9838,25.1069,16.36,33.0777,28.841l-1.8473-12.8723c-1.2148-8.4854,1.0646-21.6739,4.2565-29.8233,1.9224-.3841,2.4442,2.3961,2.6912,4.1122h-.0066Z" style="fill:#603813;"/><g style="mask:url(#b);"><path d="M84.0445,20.7059l.0604,7.1189c.0604,7.369,4.789,13.2971,10.5531,13.2453l5.4535-.0518c4.7461-.0431,8.9141,4.0041,10.1821,9.8451,3.615,16.663,9.923,53.56,9.009,104.936-1.208,67.944-27.3282,124.006-30.8488,130.141-.1898.337-.3624.665-.5263,1.018L12.1916,404.3374c-.7679,1.225-3.8743,9.526-4.2713,11.01-.7162,2.71-.7248,5.678,0,8.44,7.9127,30.201,56.8645,193.658,113.5133,195.409,80.766,2.503,116.749,2.485,123.488-1.579.794-.474,1.51-1.061,2.183-1.777,9.526-10.096,74.528-104.013,87.048-199.405.389-2.977-.474-5.989-1.82-8.474-22.271-41.151-68.074-91.129-85.815-129.623-18.336-39.77-29.787-100.725-29.976-122.504-.147-16.973.06-78.117.914-104.28.225-6.826,4.453-12.305,9.794-12.6933,6.187-.4487,11.399-7.3,11.571-15.2214l.061-2.7353c.164-7.533-4.591-13.7717-10.484-13.7717l-133.9553.1208c-5.79,0-10.4496,6.0316-10.3806,13.4352l-.0172.0172Z" style="fill:#c59b6d; stroke:#c59b6d; stroke-miterlimit:10; stroke-width:9px;"/></g><path d="M145.0261,497.7336c-6.7361.2012-11.5257-3.9586-11.66-10.5189-.2708-13.5881,7.3083-25.9355,15.5204-37.3677-8.5823-13.1342-20.6233-29.1814-15.3108-44.0148,10.1372-11.9555,34.3493,2.052,46.9876,11.4396,9.3461-7.6197,19.3803-13.5799,30.8862-16.4558,4.323-1.0791,8.8605-.9434,12.6895,1.3707,4.6223,3.4706,5.1579,8.9381,4.1309,14.4439-2.1769,11.6868-8.2134,21.8972-15.4169,31.9327,8.4216,11.4906,18.51,26.4261,16.6422,40.2266-1.0161,4.6652-4.2976,7.2501-8.8942,7.7901-13.4305,1.5823-27.7912-8.0931-39.4794-15.5639-10.2194,8.0396-23.5482,16.3331-36.1055,16.716l.0099.0015Z" style="fill:#603813;"/><path d="M182.578,393.0457c4.2285,10.3985,3.6241,23.3662,3.0684,35.6892-.1206,2.5931-2.7136,5.1467-.8208,8.457,8.0296-12.9916,22.3746-27.6024,37.9438-32.5157-6.1778,15.8428-18.7342,28.5608-32.3866,37.2435,3.1495,1.6192,5.5417-.0966,8.2638-.4351,13.8132-1.7073,27.6503-.8618,41.4875,5.2518-16.3174,7.3935-33.8119,7.2405-51.5552,3.4147,8.2391,5.8477,17.3809,12.3795,23.3252,20.3859,4.1883,5.646,8.5699,10.9774,10.6721,18.4119-16.2864-6.1778-28.5206-18.1623-37.8719-32.4748-1.5543,3.1086.701,5.7341.8618,8.4648.7737,13.6037,1.3858,28.5933-5.3724,41.1976-4.1559-7.9894-5.0578-16.2857-5.8068-24.6376-.8378-9.2632.6601-17.2765,2.5853-26.6919-9.3513,13.9739-22.4634,28.6087-39.1363,33.8358,6.9027-16.938,19.2984-29.0601,34.2555-38.4268-10.2532,1.7954-19.1454,3.366-28.8267,2.1502-7.756-.9746-15.6414-1.5543-22.7292-5.7264,16.1411-7.2328,31.9035-6.7497,49.6956-4.2208-13.9825-9.9873-26.2012-21.0784-32.4353-37.9437,16.0283,5.847,29.455,19.1933,38.8063,33.8358l-2.1672-15.1016c-1.4252-9.9549,1.249-25.4275,4.9937-34.9882,2.2553-.4506,2.8674,2.811,3.1573,4.8244h-.0077Z" style="fill:#603813;"/></svg>