<?xml version="1.0" encoding="UTF-8"?><svg id="a" xmlns="http://www.w3.org/2000/svg" xmlns:xlink="http://www.w3.org/1999/xlink" viewBox="0 0 340 625"><defs><mask id="b" x="-.451" y="1.3848" width="339.12" height="622.7671" maskUnits="userSpaceOnUse"><g id="c"><path d="M338.169,518.671h-118.311l-23.197-21.512-.753-.698-.085,1.022-1.769,21.188h-58.065l-7.723-7.165-.751-.696-.087,1.02-.586,6.841h-16.53l-4.251-8.251-.263-.511-.47.331-11.9499,8.431h-15.5303l-14.8603-28.744-.7979-1.542-.1445,1.73-2.3945,28.556h-14.8428l-28.1592-13.377-.6523-.311-.0606.721-1.0791,12.967H.049v-158.911c15.5941,3.981,35.0419,7.343,57.2764,9.883v-.001c2.706.331,5.4639.628,8.2734.908l13.8106,11.177.8144.659v-10.489c3.4057.296,6.8766.563,10.3857.804l33.4955,27.106.814.659v-26.033c10.813.369,21.953.542,33.293.542h2.831l7.594,24.582.977-.148v-24.502c4.383-.037,8.735-.114,13.025-.234l-.001-.001c2.981-.062,5.919-.142,8.846-.239,5.763-.183,11.452-.418,17.047-.712l4.865,7.871.298.483.441-.357,11.098-8.982c5.254-.371,10.385-.784,15.432-1.23l17.414,28.176.926,1.497v-31.518c3.65-.415,7.231-.861,10.751-1.315l33.256,13.456.688.278v-19.385c5.644-1.18,10.894-2.418,15.742-3.731l5.786,4.682.304-.377.314.386.491-.397-.001-.001,11.833-9.575v164.989Z" style="fill:#c59b6d; stroke:#c59b6d;"/></g></mask><mask id="d" x="-.3531" y="2.7331" width="339.12" height="622.7669" maskUnits="userSpaceOnUse"><g id="e"><path d="M338.2669,520.0195h-118.311l-23.197-21.512-.753-.698-.085,1.022-1.769,21.188h-58.065l-7.723-7.165-.751-.697-.087,1.021-.586,6.8409h-16.53l-4.251-8.251-.263-.511-.47.331-11.9499,8.431h-15.5303l-14.8603-28.744-.7979-1.542-.1445,1.73-2.3945,28.556h-14.8428l-28.1592-13.377-.6523-.311-.0606.721-1.0791,12.967H.1469v-158.911c15.5941,3.98,35.0419,7.343,57.2764,9.882v-.001c2.706.332,5.4639.629,8.2734.909l13.8106,11.176.8144.66v-10.489c3.4057.296,6.8766.562,10.3857.804l33.4955,27.105.814.66v-26.034c10.813.37,21.953.542,33.293.542h2.831l7.594,24.582.977-.147v-24.502c4.383-.037,8.735-.115,13.025-.234l-.001-.001c2.981-.062,5.919-.142,8.846-.24,5.763-.183,11.452-.417,17.047-.711l4.865,7.871.298.483.441-.357,11.098-8.982c5.254-.371,10.385-.784,15.432-1.23l17.414,28.175.926,1.498v-31.518c3.65-.416,7.231-.861,10.751-1.315l33.256,13.456.688.278v-19.385c5.644-1.18,10.894-2.419,15.742-3.731l5.786,4.682.304-.378.314.387.491-.397-.001-.001,11.833-9.576v164.99Z" style="fill:#c59b6d; stroke:#c59b6d;"/></g></mask></defs><path d="M116.793,63.0508c8.025,27.5603,11.356,56.3462,11.995,84.9932,1.527,71.783-19.148,144.912-63.5444,201.931-8.8361,11.321-18.397,22.047-28.7259,31.961,9.6386-10.578,18.725-21.632,27.0261-33.22,8.232-11.589,15.8342-23.738,22.4785-36.302,40.0387-75.251,48.3307-166.553,30.7707-249.3632Z" style="fill:#e2e3e2;"/><path d="M304.147,378.448c-78.257-69.669-109.891-173.879-95.144-276.354,2.123-14.2982,4.902-28.5529,9.311-42.3245-.915,3.4947-1.674,7.0152-2.382,10.553-4.901,24.6956-7.067,49.9435-6.972,75.0875.345,88.937,32.298,169.806,95.187,233.038Z" style="fill:#e2e3e2;"/><path d="M90.0611,595.578c46.1389,9.82,94.9969,15.791,141.5419,5.704,6.627-1.519,13.15-3.469,19.631-5.704-6.11,3.106-12.521,5.635-19.079,7.749-44.215,13.366-98.906,7.36-142.0939-7.749Z" style="fill:#e2e3e2;"/><path d="M22.9443,403.484c-1.7948,8.871-3.2789,17.663-.9923,26.508.2502,1.355.7421,2.563.9923,3.943-.5436-.44-1.0441-.923-1.5446-1.423-7.4725-7.861-6.066-21.745,1.5446-29.028Z" style="fill:#e2e3e2;"/><path d="M316.495,431.659c.604-2.554,1.406-5.1,1.726-7.706.785-5.004.457-9.871-.311-14.893-.397-2.537-.889-5.108-1.415-7.861,8.154,7.732,9.103,23.074,0,30.451v.009Z" style="fill:#e2e3e2;"/><path d="M95.2385,346.049s52.8615-61.652,121.5485-1.38-121.5485,1.38-121.5485,1.38Z" style="fill:#f18cb8;"/><path d="M38.6664,435.702c6.2992,29.856,21.7365,94.382,43.9131,129.682,4.9875,7.947,12.7623,18.483,21.5725,20.218,37.027,7.291,99.527,4.038,128.9,1.915,10.795-.776,20.572-12.149,26.189-22.0291,12.115-21.287,32.186-64.604,42.74-131.814,1.337-8.516-.207-17.274-4.444-24.626-17.198-29.856-41.152-59.539-61.534-78.505-5.358-4.987-12.037-8.18-19.139-8.706-8.845-.656-18.44,1.432-27.889,3.926-15.756,4.168-31.893,6.471-48.124,6.756-19.562.345-38.27,7.222-53.6809,19.277-7.7575,6.066-14.6779,13.444-20.4508,21.96l-22.5217,33.204c-5.6261,8.292-7.6366,18.75-5.5312,28.734v.008Z" style="fill:#d0518e;"/><g style="opacity:.5;"><g style="opacity:.5;"><path d="M153.268,214.313s.034-.001.026.025l-1.795,5.342s-.035.043-.06.051l-5.255.958s-.035-.008-.026-.034l1.881-4.591s.034-.043.06-.052l5.169-1.691v-.008Z" style="fill:#92b6da;"/></g><g style="opacity:.5;"><path d="M153.821,204.624s.017-.035.034-.018l4.47,3.426s.034.043.026.069l-.794,5.281s-.017.026-.043.017l-3.737-3.262s-.034-.051-.034-.069l.069-5.436.009-.008Z" style="fill:#92b6da;"/></g><g style="opacity:.5;"><path d="M152,192.872s.034-.008.034.018l.596,5.6s-.009.052-.035.069l-4.375,3.063s-.034,0-.034-.017l-.207-4.953s.008-.061.025-.069l3.987-3.693.009-.018Z" style="fill:#92b6da;"/></g><g style="opacity:.5;"><path d="M142.318,212.434s.034,0,.026.025l-1.795,5.342s-.035.043-.06.051l-5.255.958s-.035-.008-.026-.034l1.881-4.591s.034-.043.06-.052l5.169-1.691v-.008Z" style="fill:#92b6da;"/></g><g style="opacity:.5;"><path d="M142.862,202.745s.017-.035.034-.018l4.47,3.426s.034.043.026.069l-.794,5.281s-.017.026-.043.017l-3.736-3.261s-.035-.052-.035-.069l.069-5.437.009-.008Z" style="fill:#92b6da;"/></g><g style="opacity:.5;"><path d="M141.049,190.99s.035-.009.035.017l.595,5.6s-.008.052-.034.069l-4.375,3.063s-.035,0-.035-.017l-.207-4.953s.009-.06.026-.069l3.987-3.693.008-.017Z" style="fill:#92b6da;"/></g><g style="opacity:.5;"><path d="M127.234,182.133s.035,0,.026.026l-1.795,5.341s-.034.043-.06.052l-5.255.957s-.035-.008-.026-.034l1.881-4.591s.035-.043.061-.051l5.168-1.692v-.008Z" style="fill:#92b6da;"/></g><g style="opacity:.5;"><path d="M127.787,172.432s.017-.034.034-.017l4.47,3.426s.035.043.026.069l-.794,5.28s-.017.026-.043.018l-3.736-3.262s-.035-.052-.035-.069l.069-5.436.009-.009Z" style="fill:#92b6da;"/></g><g style="opacity:.5;"><path d="M125.966,160.677s.034-.008.034.017l.596,5.601s-.009.051-.035.069l-4.375,3.063s-.034,0-.034-.018l-.207-4.952s.008-.061.026-.069l3.986-3.694.009-.017Z" style="fill:#92b6da;"/></g><g style="opacity:.5;"><path d="M116.284,180.25s.035,0,.026.026l-1.795,5.341s-.034.043-.06.052l-5.255.958s-.035-.009-.026-.035l1.881-4.59s.034-.043.06-.052l5.169-1.691v-.009Z" style="fill:#92b6da;"/></g><g style="opacity:.5;"><path d="M116.828,170.557s.017-.034.034-.017l4.47,3.426s.034.043.026.069l-.794,5.28s-.017.026-.043.018l-3.737-3.262s-.034-.052-.034-.069l.069-5.436.009-.009Z" style="fill:#92b6da;"/></g><g style="opacity:.5;"><path d="M115.016,158.798s.034-.008.034.018l.595,5.6s-.008.051-.034.069l-4.375,3.063s-.034,0-.034-.017l-.207-4.953s.008-.061.025-.069l3.987-3.693.009-.018Z" style="fill:#92b6da;"/></g><g style="opacity:.5;"><path d="M149.989,185.484s.035,0,.026.026l-1.795,5.341s-.034.044-.06.052l-5.255.958s-.035-.009-.026-.034l1.881-4.591s.035-.043.06-.052l5.169-1.691v-.009Z" style="fill:#92b6da;"/></g><g style="opacity:.5;"><path d="M150.533,175.796s.017-.035.035-.018l4.469,3.426s.035.043.026.069l-.794,5.281s-.017.026-.043.017l-3.736-3.262s-.035-.051-.035-.069l.069-5.436.009-.008Z" style="fill:#92b6da;"/></g><g style="opacity:.5;"><path d="M148.721,164.04s.034-.008.034.018l.596,5.6s-.009.052-.035.069l-4.375,3.063s-.034,0-.034-.017l-.207-4.953s.009-.061.026-.069l3.986-3.693.009-.018Z" style="fill:#92b6da;"/></g><g style="opacity:.5;"><path d="M139.03,183.613s.035,0,.026.026l-1.795,5.341s-.034.044-.06.052l-5.255.958s-.035-.009-.026-.035l1.881-4.59s.035-.043.061-.052l5.168-1.691v-.009Z" style="fill:#92b6da;"/></g><g style="opacity:.5;"><path d="M139.583,173.917s.017-.035.034-.018l4.47,3.426s.035.043.026.069l-.794,5.281s-.017.026-.043.017l-3.736-3.262s-.035-.051-.035-.069l.069-5.436.009-.008Z" style="fill:#92b6da;"/></g><g style="opacity:.5;"><path d="M137.77,162.162s.035-.009.035.017l.595,5.6s-.008.052-.034.069l-4.375,3.063s-.034,0-.034-.017l-.208-4.953s.009-.06.026-.069l3.987-3.693.008-.017Z" style="fill:#92b6da;"/></g><g style="opacity:.5;"><path d="M129.892,212.859s.035,0,.026.026l-1.795,5.341s-.034.044-.06.052l-5.255.958s-.035-.009-.026-.034l1.881-4.591s.034-.043.06-.052l5.169-1.691v-.009Z" style="fill:#92b6da;"/></g><g style="opacity:.5;"><path d="M130.436,203.171s.017-.035.035-.018l4.469,3.426s.035.043.026.069l-.794,5.281s-.017.026-.043.017l-3.736-3.262s-.035-.051-.035-.069l.069-5.436.009-.008Z" style="fill:#92b6da;"/></g><g style="opacity:.5;"><path d="M128.624,191.408s.034-.009.034.017l.596,5.6s-.009.052-.035.069l-4.375,3.063s-.034,0-.034-.017l-.207-4.953s.008-.06.025-.069l3.987-3.693.009-.017Z" style="fill:#92b6da;"/></g><g style="opacity:.5;"><path d="M118.933,210.977s.035,0,.026.025l-1.795,5.342s-.034.043-.06.051l-5.255.958s-.035-.008-.026-.034l1.881-4.591s.035-.043.061-.052l5.168-1.691v-.008Z" style="fill:#92b6da;"/></g><g style="opacity:.5;"><path d="M119.486,201.288s.017-.035.034-.018l4.47,3.426s.034.043.026.069l-.794,5.281s-.017.026-.043.017l-3.737-3.261s-.034-.052-.034-.07l.069-5.436.009-.008Z" style="fill:#92b6da;"/></g><g style="opacity:.5;"><path d="M117.673,189.533s.035-.009.035.017l.595,5.6s-.008.052-.034.069l-4.375,3.063s-.034,0-.034-.017l-.208-4.953s.009-.06.026-.069l3.987-3.693.008-.017Z" style="fill:#92b6da;"/></g><g style="opacity:.5;"><path d="M171.026,189.289s.035,0,.026.026l-1.795,5.341s-.034.043-.06.052l-5.255.958s-.034-.009-.026-.035l1.881-4.59s.035-.043.061-.052l5.168-1.691v-.009Z" style="fill:#92b6da;"/></g><g style="opacity:.5;"><path d="M171.579,179.6s.017-.034.035-.017l4.469,3.426s.035.043.026.069l-.794,5.28s-.017.026-.043.018l-3.736-3.262s-.035-.052-.035-.069l.069-5.436.009-.009Z" style="fill:#92b6da;"/></g><g style="opacity:.5;"><path d="M169.766,167.849s.035-.009.035.017l.595,5.6s-.008.052-.034.069l-4.375,3.064s-.035,0-.035-.018l-.207-4.953s.009-.06.026-.069l3.987-3.693.008-.017Z" style="fill:#92b6da;"/></g><g style="opacity:.5;"><path d="M160.076,187.418s.035,0,.026.026l-1.795,5.341s-.034.043-.06.052l-5.255.958s-.034-.009-.026-.035l1.881-4.59s.035-.044.061-.052l5.168-1.691v-.009Z" style="fill:#92b6da;"/></g><g style="opacity:.5;"><path d="M160.62,177.721s.017-.034.034-.017l4.47,3.426s.035.043.026.069l-.794,5.281s-.017.025-.043.017l-3.736-3.262s-.035-.052-.035-.069l.069-5.436.009-.009Z" style="fill:#92b6da;"/></g><g style="opacity:.5;"><path d="M158.808,165.966s.034-.008.034.017l.596,5.601s-.009.051-.035.069l-4.375,3.063s-.034,0-.034-.017l-.207-4.953s.008-.061.026-.069l3.986-3.694.009-.017Z" style="fill:#92b6da;"/></g><g style="opacity:.5;"><path d="M174.133,198.138s.035-.009.035.017l.595,5.6s-.008.052-.034.069l-4.375,3.064s-.035,0-.035-.018l-.207-4.952s.009-.061.026-.07l3.987-3.693.008-.017Z" style="fill:#92b6da;"/></g><g style="opacity:.5;"><path d="M164.443,217.699s.034,0,.026.026l-1.795,5.341s-.035.043-.061.052l-5.255.958s-.034-.009-.025-.035l1.881-4.59s.034-.043.06-.052l5.169-1.691v-.009Z" style="fill:#92b6da;"/></g><g style="opacity:.5;"><path d="M164.986,208.01s.017-.034.035-.017l4.469,3.426s.035.043.026.069l-.793,5.281s-.018.025-.044.017l-3.736-3.262s-.034-.052-.034-.069l.069-5.436.008-.009Z" style="fill:#92b6da;"/></g><g style="opacity:.5;"><path d="M163.174,196.255s.035-.008.035.018l.595,5.6s-.009.051-.034.069l-4.375,3.063s-.035,0-.035-.017l-.207-4.953s.009-.061.026-.069l3.987-3.693.008-.018Z" style="fill:#92b6da;"/></g><g style="opacity:.5;"><path d="M169.353,157.469s.034,0,.026.026l-1.795,5.341s-.035.043-.061.052l-5.255.957s-.034-.008-.026-.034l1.882-4.591s.034-.043.06-.051l5.169-1.692v-.008Z" style="fill:#92b6da;"/></g><g style="opacity:.5;"><path d="M158.394,155.586s.034,0,.026.026l-1.795,5.341s-.035.043-.061.052l-5.255.958s-.034-.009-.025-.035l1.881-4.59s.034-.044.06-.052l5.169-1.691v-.009Z" style="fill:#92b6da;"/></g><g style="opacity:.5;"><path d="M158.946,145.897s.017-.034.035-.017l4.469,3.425s.035.044.026.069l-.794,5.281s-.017.026-.043.018l-3.736-3.262s-.035-.052-.035-.069l.07-5.436.008-.009Z" style="fill:#92b6da;"/></g><g style="opacity:.5;"><path d="M157.134,134.146s.034-.009.034.017l.596,5.6s-.009.052-.035.069l-4.375,3.064s-.034,0-.034-.018l-.207-4.953s.008-.06.026-.069l3.986-3.693.009-.017Z" style="fill:#92b6da;"/></g><g style="opacity:.5;"><path d="M146.934,153.914s.035,0,.026.026l-1.794,5.341s-.035.043-.061.052l-5.255.958s-.034-.009-.026-.035l1.881-4.59s.035-.043.061-.052l5.168-1.691v-.009Z" style="fill:#92b6da;"/></g><g style="opacity:.5;"><path d="M147.487,144.225s.017-.034.035-.017l4.469,3.426s.035.043.026.069l-.794,5.28s-.017.026-.043.018l-3.736-3.262s-.035-.052-.035-.069l.069-5.436.009-.009Z" style="fill:#92b6da;"/></g><g style="opacity:.5;"><path d="M145.675,132.47s.034-.009.034.017l.596,5.6s-.009.052-.035.07l-4.375,3.063s-.034,0-.034-.018l-.207-4.952s.008-.061.026-.069l3.986-3.694.009-.017Z" style="fill:#92b6da;"/></g><g style="opacity:.5;"><path d="M135.984,152.031s.035,0,.026.026l-1.795,5.341s-.034.044-.06.052l-5.255.958s-.035-.009-.026-.035l1.881-4.59s.035-.043.061-.052l5.168-1.691v-.009Z" style="fill:#92b6da;"/></g><g style="opacity:.5;"><path d="M136.528,142.342s.017-.034.034-.017l4.47,3.426s.035.043.026.069l-.794,5.281s-.017.026-.043.017l-3.736-3.262s-.035-.052-.035-.069l.069-5.436.009-.009Z" style="fill:#92b6da;"/></g><g style="opacity:.5;"><path d="M134.716,130.587s.034-.008.034.018l.596,5.6s-.009.051-.035.069l-4.375,3.063s-.034,0-.034-.017l-.207-4.953s.008-.061.026-.069l3.986-3.693.009-.018Z" style="fill:#92b6da;"/></g><g style="opacity:.5;"><path d="M124.525,150.531s.034,0,.026.026l-1.795,5.341s-.035.044-.061.052l-5.255.958s-.034-.009-.025-.035l1.881-4.59s.034-.043.06-.052l5.169-1.691v-.009Z" style="fill:#92b6da;"/></g><g style="opacity:.5;"><path d="M125.077,140.842s.018-.034.035-.017l4.47,3.426s.034.043.026.069l-.794,5.281s-.017.026-.043.017l-3.737-3.262s-.034-.052-.034-.069l.069-5.436.008-.009Z" style="fill:#92b6da;"/></g><g style="opacity:.5;"><path d="M123.265,129.087s.035-.008.035.018l.595,5.6s-.009.051-.035.069l-4.374,3.063s-.035,0-.035-.017l-.207-4.953s.009-.061.026-.069l3.986-3.693.009-.018Z" style="fill:#92b6da;"/></g><g style="opacity:.5;"><path d="M113.575,148.652s.034,0,.026.026l-1.795,5.341s-.035.044-.061.052l-5.254.958s-.035-.009-.026-.034l1.881-4.591s.034-.043.06-.052l5.169-1.691v-.009Z" style="fill:#92b6da;"/></g><g style="opacity:.5;"><path d="M114.127,138.96s.017-.035.034-.018l4.47,3.426s.035.043.026.069l-.794,5.281s-.017.026-.043.017l-3.736-3.262s-.035-.051-.035-.069l.069-5.436.009-.008Z" style="fill:#92b6da;"/></g><g style="opacity:.5;"><path d="M150.067,302.246s.034,0,.026.026l-1.795,5.341s-.034.043-.06.052l-5.255.958s-.035-.009-.026-.035l1.881-4.59s.034-.043.06-.052l5.169-1.691v-.009Z" style="fill:#92b6da;"/></g><g style="opacity:.5;"><path d="M150.611,292.549s.017-.034.034-.017l4.47,3.426s.035.043.026.069l-.794,5.281s-.017.026-.043.017l-3.736-3.262s-.035-.052-.035-.069l.069-5.436.009-.009Z" style="fill:#92b6da;"/></g><g style="opacity:.5;"><path d="M148.799,280.794s.034-.008.034.018l.595,5.6s-.008.051-.034.069l-4.375,3.063s-.034,0-.034-.017l-.207-4.953s.008-.061.025-.069l3.987-3.693.009-.018Z" style="fill:#92b6da;"/></g><g style="opacity:.5;"><path d="M139.108,300.367s.035,0,.026.026l-1.795,5.341s-.034.043-.06.052l-5.255.958s-.035-.009-.026-.035l1.881-4.59s.035-.043.06-.052l5.169-1.691v-.009Z" style="fill:#92b6da;"/></g><g style="opacity:.5;"><path d="M139.661,290.674s.017-.034.034-.017l4.47,3.426s.034.043.026.069l-.794,5.281s-.017.026-.043.017l-3.736-3.262s-.035-.052-.035-.069l.069-5.436.009-.009Z" style="fill:#92b6da;"/></g><g style="opacity:.5;"><path d="M137.848,278.912s.035-.009.035.017l.595,5.6s-.009.052-.034.069l-4.375,3.063s-.035,0-.035-.017l-.207-4.953s.009-.06.026-.069l3.987-3.693.008-.017Z" style="fill:#92b6da;"/></g><g style="opacity:.5;"><path d="M124.033,270.051s.034,0,.026.026l-1.795,5.341s-.035.043-.061.052l-5.254.957s-.035-.008-.026-.034l1.881-4.591s.034-.043.06-.051l5.169-1.692v-.008Z" style="fill:#92b6da;"/></g><g style="opacity:.5;"><path d="M124.577,260.362s.017-.035.035-.017l4.469,3.425s.035.043.026.069l-.794,5.281s-.017.026-.043.017l-3.736-3.261s-.035-.052-.035-.069l.069-5.436.009-.009Z" style="fill:#92b6da;"/></g><g style="opacity:.5;"><path d="M122.765,248.607s.034-.009.034.017l.595,5.6s-.008.052-.034.069l-4.375,3.063s-.034,0-.034-.017l-.207-4.953s.008-.06.025-.069l3.987-3.693.009-.017Z" style="fill:#92b6da;"/></g><g style="opacity:.5;"><path d="M113.074,268.168s.035,0,.026.026l-1.795,5.341s-.034.043-.06.052l-5.255.958s-.034-.009-.026-.035l1.881-4.59s.035-.044.061-.052l5.168-1.691v-.009Z" style="fill:#92b6da;"/></g><g style="opacity:.5;"><path d="M113.626,258.479s.018-.034.035-.017l4.47,3.425s.034.044.025.07l-.793,5.28s-.018.026-.044.018l-3.736-3.262s-.034-.052-.034-.069l.069-5.436.008-.009Z" style="fill:#92b6da;"/></g><g style="opacity:.5;"><path d="M111.814,246.728s.035-.009.035.017l.595,5.6s-.008.052-.034.069l-4.375,3.064s-.035,0-.035-.018l-.207-4.953s.009-.06.026-.069l3.987-3.693.008-.017Z" style="fill:#92b6da;"/></g><g style="opacity:.5;"><path d="M146.779,273.418s.035,0,.026.026l-1.795,5.341s-.034.043-.06.052l-5.255.958s-.035-.009-.026-.035l1.881-4.59s.035-.044.061-.052l5.168-1.691v-.009Z" style="fill:#92b6da;"/></g><g style="opacity:.5;"><path d="M145.519,251.966s.035-.008.035.017l.595,5.601s-.008.051-.034.069l-4.375,3.063s-.035,0-.035-.017l-.207-4.953s.009-.061.026-.069l3.987-3.694.008-.017Z" style="fill:#92b6da;"/></g><g style="opacity:.5;"><path d="M135.829,271.535s.034,0,.026.026l-1.795,5.341s-.034.043-.06.052l-5.255.958s-.035-.009-.026-.035l1.881-4.59s.034-.043.06-.052l5.169-1.691v-.009Z" style="fill:#92b6da;"/></g><g style="opacity:.5;"><path d="M136.381,261.846s.017-.034.035-.017l4.469,3.426s.035.043.026.069l-.794,5.281s-.017.025-.043.017l-3.736-3.262s-.035-.052-.035-.069l.069-5.436.009-.009Z" style="fill:#92b6da;"/></g><g style="opacity:.5;"><path d="M134.569,250.083s.035-.008.035.018l.595,5.6s-.009.052-.035.069l-4.374,3.063s-.035,0-.035-.017l-.207-4.953s.009-.061.026-.069l3.986-3.693.009-.018Z" style="fill:#92b6da;"/></g><g style="opacity:.5;"><path d="M127.235,291.088s.017-.034.034-.017l4.47,3.426s.034.043.026.069l-.794,5.281s-.017.026-.043.017l-3.737-3.262s-.034-.051-.034-.069l.069-5.436.009-.009Z" style="fill:#92b6da;"/></g><g style="opacity:.5;"><path d="M125.422,279.333s.035-.008.035.018l.595,5.6s-.008.052-.034.069l-4.375,3.063s-.035,0-.035-.017l-.207-4.953s.009-.061.026-.069l3.987-3.693.008-.018Z" style="fill:#92b6da;"/></g><g style="opacity:.5;"><path d="M116.284,289.206s.017-.035.035-.018l4.469,3.426s.035.043.026.069l-.794,5.281s-.017.026-.043.017l-3.736-3.262s-.035-.051-.035-.069l.069-5.436.009-.008Z" style="fill:#92b6da;"/></g><g style="opacity:.5;"><path d="M114.472,277.455s.035-.009.035.017l.595,5.6s-.009.052-.035.069l-4.374,3.063s-.035,0-.035-.017l-.207-4.953s.009-.06.026-.069l3.986-3.693.009-.017Z" style="fill:#92b6da;"/></g><g style="opacity:.5;"><path d="M172.191,307.508s.035,0,.026.026l-1.795,5.341s-.034.043-.06.052l-5.255.958s-.035-.009-.026-.035l1.881-4.591s.035-.043.061-.051l5.168-1.692v-.008Z" style="fill:#92b6da;"/></g><g style="opacity:.5;"><path d="M161.233,305.629s.034,0,.026.026l-1.795,5.341s-.035.043-.061.052l-5.255.958s-.034-.009-.025-.035l1.881-4.59s.034-.044.06-.052l5.169-1.691v-.009Z" style="fill:#92b6da;"/></g><g style="opacity:.5;"><path d="M161.785,295.928s.017-.034.034-.017l4.47,3.426s.035.043.026.069l-.794,5.281s-.017.025-.043.017l-3.736-3.262s-.035-.052-.035-.069l.069-5.436.009-.009Z" style="fill:#92b6da;"/></g><g style="opacity:.5;"><path d="M159.973,284.173s.034-.008.034.018l.596,5.6s-.009.051-.035.069l-4.374,3.063s-.035,0-.035-.017l-.207-4.953s.009-.061.026-.069l3.986-3.693.009-.018Z" style="fill:#92b6da;"/></g><g style="opacity:.5;"><path d="M164.883,223.947s.034-.009.034.017l.596,5.6s-.009.052-.035.069l-4.375,3.063s-.034,0-.034-.017l-.207-4.953s.008-.06.026-.069l3.986-3.693.009-.017Z" style="fill:#92b6da;"/></g><g style="opacity:.5;"><path d="M155.192,243.516s.035,0,.026.026l-1.794,5.341s-.035.043-.061.052l-5.255.957s-.034-.008-.026-.034l1.881-4.591s.035-.043.061-.052l5.168-1.691v-.008Z" style="fill:#92b6da;"/></g><g style="opacity:.5;"><path d="M155.745,233.819s.017-.035.034-.017l4.47,3.425s.034.043.026.069l-.794,5.281s-.017.026-.043.017l-3.737-3.261s-.034-.052-.034-.069l.069-5.436.009-.009Z" style="fill:#92b6da;"/></g><g style="opacity:.5;"><path d="M153.933,222.064s.034-.009.034.017l.595,5.6s-.008.052-.034.069l-4.375,3.063s-.034,0-.034-.017l-.208-4.953s.009-.06.026-.069l3.987-3.693.009-.017Z" style="fill:#92b6da;"/></g><g style="opacity:.5;"><path d="M143.733,241.836s.034,0,.026.026l-1.795,5.341s-.035.043-.061.052l-5.255.958s-.034-.009-.025-.035l1.881-4.59s.034-.044.06-.052l5.169-1.691v-.009Z" style="fill:#92b6da;"/></g><g style="opacity:.5;"><path d="M144.277,232.147s.017-.034.034-.017l4.47,3.425s.035.044.026.069l-.794,5.281s-.017.026-.043.018l-3.736-3.262s-.035-.052-.035-.069l.069-5.436.009-.009Z" style="fill:#92b6da;"/></g><g style="opacity:.5;"><path d="M142.465,220.392s.034-.009.034.017l.595,5.6s-.008.052-.034.069l-4.375,3.064s-.034,0-.034-.018l-.208-4.953s.009-.06.026-.069l3.987-3.693.009-.017Z" style="fill:#92b6da;"/></g><g style="opacity:.5;"><path d="M132.774,239.965s.035,0,.026.026l-1.795,5.341s-.034.043-.06.052l-5.255.958s-.035-.009-.026-.035l1.881-4.591s.035-.043.061-.051l5.168-1.692v-.008Z" style="fill:#92b6da;"/></g><g style="opacity:.5;"><path d="M133.326,230.264s.018-.034.035-.017l4.47,3.426s.034.043.026.069l-.794,5.281s-.017.025-.043.017l-3.737-3.262s-.034-.052-.034-.069l.069-5.436.008-.009Z" style="fill:#92b6da;"/></g><g style="opacity:.5;"><path d="M131.514,218.513s.035-.009.035.017l.595,5.6s-.008.052-.034.069l-4.375,3.064s-.034,0-.034-.018l-.208-4.953s.009-.06.026-.069l3.987-3.693.008-.017Z" style="fill:#92b6da;"/></g><g style="opacity:.5;"><path d="M121.323,238.461s.035,0,.026.026l-1.795,5.341s-.034.043-.06.052l-5.255.958s-.034-.009-.026-.035l1.881-4.59s.035-.044.061-.052l5.168-1.691v-.009Z" style="fill:#92b6da;"/></g><g style="opacity:.5;"><path d="M121.876,228.76s.018-.034.035-.017l4.47,3.426s.034.043.026.069l-.794,5.281s-.018.025-.043.017l-3.737-3.262s-.034-.052-.034-.069l.069-5.436.008-.009Z" style="fill:#92b6da;"/></g><g style="opacity:.5;"><path d="M120.064,217.009s.034-.008.034.017l.596,5.601s-.009.051-.035.069l-4.375,3.063s-.034,0-.034-.017l-.207-4.953s.008-.061.025-.069l3.987-3.694.009-.017Z" style="fill:#92b6da;"/></g><g style="opacity:.5;"><path d="M110.374,236.582s.034,0,.025.026l-1.794,5.341s-.035.043-.061.052l-5.255.958s-.034-.009-.026-.035l1.882-4.59s.034-.043.06-.052l5.169-1.691v-.009Z" style="fill:#92b6da;"/></g><g style="opacity:.5;"><path d="M110.917,226.889s.017-.034.035-.017l4.469,3.426s.035.043.026.069l-.794,5.28s-.017.026-.043.018l-3.736-3.262s-.035-.052-.035-.069l.069-5.436.009-.009Z" style="fill:#92b6da;"/></g><g style="opacity:.5;"><path d="M109.105,215.126s.035-.008.035.018l.595,5.6s-.009.051-.034.069l-4.375,3.063s-.035,0-.035-.017l-.207-4.953s.009-.061.026-.069l3.986-3.693.009-.018Z" style="fill:#92b6da;"/></g></g><g style="opacity:.5;"><g style="opacity:.5;"><path d="M115.016,87.7234s-.034.0173-.034,0l-1.614-5.4016s0-.0518.017-.069l3.737-3.8053s.034-.0087.043.0086l1.113,4.8321s0,.0604-.018.0777l-3.244,4.3661v-.0086Z" style="fill:#92b6da;"/></g><g style="opacity:.5;"><path d="M120.159,95.9525s0,.0345-.017.0345l-5.626-.2157s-.052-.0173-.061-.0432l-2.399-4.7717s0-.0345.026-.0345l4.936.5004s.052.0173.069.0432l3.08,4.4783-.008.0087Z" style="fill:#92b6da;"/></g><g style="opacity:.5;"><path d="M128.426,104.513s-.026.026-.035.009l-3.719-4.228s-.026-.052-.017-.069l1.803-5.0221s.026-.0259.043,0l3.029,3.9261s.026.0518.017.0777l-1.13,5.3243.009-.018Z" style="fill:#92b6da;"/></g><g style="opacity:.5;"><path d="M125.052,82.9344s-.035.0172-.035,0l-1.613-5.4017s0-.0517.017-.069l3.736-3.8053s.035-.0086.043.0086l1.114,4.8322s0,.0604-.018.0776l-3.244,4.3662v-.0086Z" style="fill:#92b6da;"/></g><g style="opacity:.5;"><path d="M130.194,91.1712s0,.0345-.017.0345l-5.626-.2157s-.052-.0173-.06-.0431l-2.399-4.7718s0-.0345.026-.0345l4.936.5005s.051.0172.069.0431l3.08,4.4784-.009.0086Z" style="fill:#92b6da;"/></g><g style="opacity:.5;"><path d="M138.452,99.7243s-.025.0259-.034.0086l-3.719-4.2281s-.026-.0517-.017-.069l1.803-5.022s.026-.0258.043,0l3.029,3.9262s.026.0517.017.0776l-1.13,5.324.008-.0173Z" style="fill:#92b6da;"/></g><g style="opacity:.5;"><path d="M134.336,109.372s-.034.017-.034,0l-1.614-5.402s0-.052.018-.069l3.736-3.805s.034-.009.043.009l1.113,4.832s0,.06-.017.077l-3.245,4.366v-.008Z" style="fill:#92b6da;"/></g><g style="opacity:.5;"><path d="M139.479,117.605s0,.034-.017.034l-5.626-.215s-.052-.018-.061-.044l-2.398-4.771s0-.035.025-.035l4.936.501s.052.017.069.043l3.081,4.478-.009.009Z" style="fill:#92b6da;"/></g><g style="opacity:.5;"><path d="M147.737,126.166s-.026.026-.034.008l-3.719-4.228s-.026-.052-.018-.069l1.804-5.022s.026-.026.043,0l3.029,3.926s.026.052.017.078l-1.13,5.324.008-.017Z" style="fill:#92b6da;"/></g><g style="opacity:.5;"><path d="M144.363,104.591s-.034.017-.034,0l-1.614-5.402s0-.0518.018-.069l3.736-3.8053s.034-.0087.043.0086l1.113,4.8317s0,.061-.017.078l-3.245,4.366v-.008Z" style="fill:#92b6da;"/></g><g style="opacity:.5;"><path d="M149.506,112.824s0,.034-.017.034l-5.626-.216s-.052-.017-.06-.043l-2.399-4.772s0-.034.026-.034l4.935.5s.052.018.069.044l3.081,4.478-.009.009Z" style="fill:#92b6da;"/></g><g style="opacity:.5;"><path d="M157.773,121.373s-.026.026-.035.008l-3.719-4.228s-.026-.051-.017-.069l1.803-5.022s.026-.026.044,0l3.028,3.926s.026.052.018.078l-1.131,5.324.009-.017Z" style="fill:#92b6da;"/></g><g style="opacity:.5;"><path d="M134.957,75.4265s-.034.0173-.034,0l-1.614-5.4016s0-.0518.018-.069l3.736-3.8053s.034-.0086.043.0086l1.113,4.8322s0,.0603-.017.0776l-3.245,4.3662v-.0087Z" style="fill:#92b6da;"/></g><g style="opacity:.5;"><path d="M140.1,83.6556s0,.0345-.017.0345l-5.626-.2157s-.052-.0173-.06-.0432l-2.399-4.7717s0-.0345.026-.0345l4.935.5005s.052.0172.069.0431l3.081,4.4784-.009.0086Z" style="fill:#92b6da;"/></g><g style="opacity:.5;"><path d="M148.358,92.2087s-.025.0259-.034.0086l-3.719-4.2281s-.026-.0518-.017-.069l1.803-5.022s.026-.0259.043,0l3.029,3.9261s.026.0518.017.0777l-1.13,5.324.008-.0173Z" style="fill:#92b6da;"/></g><g style="opacity:.5;"><path d="M144.985,70.6375s-.035.0172-.035,0l-1.614-5.4016s0-.0518.018-.0691l3.736-3.8053s.034-.0086.043.0087l1.113,4.8321s0,.0604-.017.0776l-3.244,4.3662v-.0086Z" style="fill:#92b6da;"/></g><g style="opacity:.5;"><path d="M150.127,78.8665s0,.0345-.017.0345l-5.626-.2157s-.052-.0172-.06-.0431l-2.399-4.7717s0-.0346.026-.0346l4.935.5005s.052.0173.069.0432l3.081,4.4783-.009.0086Z" style="fill:#92b6da;"/></g><g style="opacity:.5;"><path d="M158.394,87.4274s-.026.0259-.034.0087l-3.719-4.2281s-.026-.0518-.018-.0691l1.804-5.0219s.026-.0259.043,0l3.029,3.9261s.025.0517.017.0776l-1.131,5.324.009-.0173Z" style="fill:#92b6da;"/></g><g style="opacity:.5;"><path d="M114.947,118.403s-.035.017-.035,0l-1.613-5.402s0-.051.017-.069l3.736-3.805s.035-.008.044.009l1.113,4.832s0,.06-.018.078l-3.244,4.366v-.009Z" style="fill:#92b6da;"/></g><g style="opacity:.5;"><path d="M120.09,126.636s0,.035-.018.035l-5.626-.216s-.051-.017-.06-.043l-2.399-4.772s0-.035.026-.035l4.936.501s.051.017.069.043l3.08,4.478-.008.009Z" style="fill:#92b6da;"/></g><g style="opacity:.5;"><path d="M128.357,135.189s-.026.026-.035.009l-3.719-4.228s-.026-.052-.017-.069l1.803-5.022s.026-.026.043,0l3.029,3.926s.026.052.017.077l-1.13,5.324.009-.017Z" style="fill:#92b6da;"/></g><g style="opacity:.5;"><path d="M124.983,113.614s-.035.017-.035,0l-1.614-5.402s0-.051.018-.069l3.736-3.805s.034-.009.043.009l1.113,4.832s0,.06-.017.078l-3.244,4.366v-.009Z" style="fill:#92b6da;"/></g><g style="opacity:.5;"><path d="M130.125,121.855s0,.034-.017.034l-5.626-.215s-.052-.018-.06-.044l-2.399-4.771s0-.035.026-.035l4.935.501s.052.017.069.043l3.081,4.478-.009.009Z" style="fill:#92b6da;"/></g><g style="opacity:.5;"><path d="M138.383,130.408s-.026.026-.034.009l-3.719-4.229s-.026-.051-.017-.069l1.803-5.022s.026-.025.043,0l3.029,3.927s.026.051.017.077l-1.13,5.324.008-.017Z" style="fill:#92b6da;"/></g><g style="opacity:.5;"><path d="M107.319,112.978s-.026.026-.035.009l-3.719-4.228s-.025-.052-.017-.069l1.804-5.022s.026-.026.043,0l3.028,3.926s.026.052.018.078l-1.131,5.323.009-.017Z" style="fill:#92b6da;"/></g><g style="opacity:.5;"><path d="M103.936,91.407s-.034.0173-.034,0l-1.614-5.4016s0-.0518.017-.069l3.737-3.8053s.034-.0087.043.0086l1.113,4.8321s0,.0604-.017.0777l-3.245,4.3661v-.0086Z" style="fill:#92b6da;"/></g><g style="opacity:.5;"><path d="M109.087,99.6361s0,.0345-.017.0345l-5.626-.2158s-.052-.0172-.06-.0431l-2.399-4.7717s0-.0345.026-.0345l4.936.5004s.051.0173.069.0432l3.08,4.4783-.009.0087Z" style="fill:#92b6da;"/></g><g style="opacity:.5;"><path d="M117.346,108.189s-.026.026-.035.009l-3.719-4.228s-.026-.052-.017-.069l1.803-5.0223s.026-.0259.043,0l3.029,3.9263s.026.052.017.077l-1.13,5.324.009-.017Z" style="fill:#92b6da;"/></g><g style="opacity:.5;"><path d="M80.31,30.8493s-.0259.0259-.0345.0086l-3.719-4.2281s-.0259-.0517-.0173-.069l1.8035-5.022s.0258-.0258.0431,0l3.0287,3.9262s.0259.0517.0172.0776l-1.1303,5.324.0086-.0173Z" style="fill:#92b6da;"/></g><g style="opacity:.5;"><path d="M76.9275,9.2781s-.0345.0173-.0345,0l-1.6136-5.4016s0-.0518.0173-.069L79.0329.0022s.0346-.0086.0432.0086l1.1131,4.8321s0,.0604-.0172.0777l-3.2445,4.3662v-.0086Z" style="fill:#92b6da;"/></g><g style="opacity:.5;"><path d="M82.0789,17.5071s0,.0346-.0173.0346l-5.626-.2158s-.0517-.0172-.0604-.0431l-2.3988-4.7717s0-.0345.0259-.0345l4.9357.5004s.0518.0173.069.0432l3.0805,4.4783-.0086.0086Z" style="fill:#92b6da;"/></g><g style="opacity:.5;"><path d="M90.3366,26.072s-.0259.0259-.0345.0086l-3.719-4.2281s-.0259-.0518-.0173-.069l1.8035-5.022s.0258-.0259.0431,0l3.0287,3.9261s.0259.0518.0173.0777l-1.1304,5.3239.0086-.0172Z" style="fill:#92b6da;"/></g><g style="opacity:.5;"><path d="M106.741,25.3367s-.035.0173-.035,0l-1.613-5.4016s0-.0518.017-.0691l3.736-3.8052s.035-.0087.043.0086l1.113,4.8321s0,.0604-.017.0777l-3.244,4.3661v-.0086Z" style="fill:#92b6da;"/></g><g style="opacity:.5;"><path d="M111.883,33.5657s0,.0346-.017.0346l-5.626-.2158s-.052-.0172-.06-.0431l-2.399-4.7717s0-.0345.026-.0345l4.936.5004s.051.0173.069.0432l3.08,4.4783-.009.0086Z" style="fill:#92b6da;"/></g><g style="opacity:.5;"><path d="M120.141,42.1188s-.026.0259-.034.0087l-3.719-4.2281s-.026-.0518-.018-.0691l1.804-5.0219s.026-.0259.043,0l3.029,3.9261s.026.0518.017.0776l-1.13,5.324.008-.0173Z" style="fill:#92b6da;"/></g><g style="opacity:.5;"><path d="M116.767,20.5437s-.034.0173-.034,0l-1.614-5.4016s0-.0518.018-.069l3.736-3.8053s.034-.0086.043.0086l1.113,4.8321s0,.0604-.017.0777l-3.245,4.3662v-.0087Z" style="fill:#92b6da;"/></g><g style="opacity:.5;"><path d="M121.91,28.7767s0,.0345-.017.0345l-5.626-.2157s-.052-.0173-.061-.0432l-2.398-4.7717s0-.0345.026-.0345l4.935.5005s.052.0172.069.0431l3.081,4.4784-.009.0086Z" style="fill:#92b6da;"/></g><g style="opacity:.5;"><path d="M130.177,37.3376s-.026.0259-.035.0086l-3.719-4.2281s-.026-.0518-.017-.069l1.803-5.022s.026-.0259.044,0l3.028,3.9261s.026.0518.018.0777l-1.131,5.324.009-.0173Z" style="fill:#92b6da;"/></g><g style="opacity:.5;"><path d="M86.2122,35.7156s-.0345.0173-.0345,0l-1.6136-5.4016s0-.0518.0172-.069l3.7363-3.8053s.0345-.0087.0432.0086l1.1131,4.8321s0,.0604-.0173.0777l-3.2444,4.3661v-.0086Z" style="fill:#92b6da;"/></g><g style="opacity:.5;"><path d="M99.6215,52.4977s-.0259.0259-.0345.0087l-3.719-4.2281s-.0259-.0518-.0173-.0691l1.8034-5.0219s.0259-.0259.0432,0l3.0287,3.9261s.026.0518.017.0776l-1.1301,5.324.0086-.0173Z" style="fill:#92b6da;"/></g><g style="opacity:.5;"><path d="M96.2478,30.9265s-.0345.0173-.0345,0l-1.6136-5.4016s0-.0517.0172-.069l3.7363-3.8053s.0345-.0086.0431.0086l1.1132,4.8321s0,.0605-.0173.0777l-3.2444,4.3662v-.0087Z" style="fill:#92b6da;"/></g><g style="opacity:.5;"><path d="M101.39,39.1595s0,.0345-.017.0345l-5.6259-.2157s-.0518-.0173-.0604-.0432l-2.3989-4.7717s0-.0345.026-.0345l4.9356.5005s.0518.0172.069.0431l3.0806,4.4784-.009.0086Z" style="fill:#92b6da;"/></g><g style="opacity:.5;"><path d="M109.657,47.7204s-.026.0259-.034.0086l-3.719-4.2281s-.026-.0517-.018-.069l1.804-5.022s.026-.0258.043,0l3.029,3.9261s.026.0518.017.0777l-1.13,5.324.008-.0173Z" style="fill:#92b6da;"/></g><g style="opacity:.5;"><path d="M91.9847,10.0032s-.0001.0346-.0173.0346l-5.626-.2158s-.0518-.0173-.0604-.0431l-2.3988-4.7717s0-.0345.0259-.0345l4.9357.5005s.0517.0173.069.0431l3.0805,4.4783-.0086.0086Z" style="fill:#92b6da;"/></g><g style="opacity:.5;"><path d="M100.243,18.5524s-.026.0259-.035.0087l-3.7187-4.2281s-.0259-.0518-.0173-.0691l1.8035-5.0219s.0259-.0259.0431,0l3.0284,3.9261s.026.0517.018.0776l-1.131,5.324.009-.0173Z" style="fill:#92b6da;"/></g><g style="opacity:.5;"><path d="M102.012,5.2103s0,.0345-.017.0345l-5.6264-.2157s-.0517-.0173-.0604-.0431l-2.3988-4.7717s0-.0345.0259-.0345l4.9357.5005s.0518.0173.069.0431l3.081,4.4783-.009.0086Z" style="fill:#92b6da;"/></g><g style="opacity:.5;"><path d="M110.279,13.7634s-.026.0259-.035.0086l-3.719-4.2281s-.026-.0518-.017-.069l1.803-5.022s.026-.0259.043,0l3.029,3.9261s.026.0518.017.0777l-1.13,5.3239.009-.0172Z" style="fill:#92b6da;"/></g><g style="opacity:.5;"><path d="M99.9754,86.5563s-.0258.0259-.0345.0087l-3.719-4.2281s-.0259-.0518-.0173-.0691l1.8035-5.0219s.0259-.0259.0431,0l3.0288,3.9261s.026.0518.017.0776l-1.1302,5.324.0086-.0173Z" style="fill:#92b6da;"/></g><g style="opacity:.5;"><path d="M96.6015,64.9851s-.0346.0173-.0346,0l-1.6135-5.4016s0-.0518.0172-.069l3.7363-3.8053s.0345-.0086.0431.0086l1.1132,4.8321s0,.0604-.0173.0777l-3.2444,4.3662v-.0087Z" style="fill:#92b6da;"/></g><g style="opacity:.5;"><path d="M101.744,73.2259s0,.0345-.017.0345l-5.6259-.2157s-.0518-.0173-.0605-.0431l-2.3988-4.7718s0-.0345.0259-.0345l4.9357.5005s.0518.0172.069.0431l3.0806,4.4784-.009.0086Z" style="fill:#92b6da;"/></g><g style="opacity:.5;"><path d="M110.002,81.7751s-.026.0259-.034.0086l-3.719-4.2281s-.026-.0517-.018-.069l1.804-5.022s.026-.0259.043,0l3.029,3.9261s.025.0518.017.0777l-1.131,5.324.009-.0173Z" style="fill:#92b6da;"/></g><g style="opacity:.5;"><path d="M106.93,59.739s-.034.0173-.034,0l-1.614-5.4016s0-.0518.018-.069l3.736-3.8053s.034-.0086.043.0086l1.113,4.8321s0,.0604-.017.0777l-3.245,4.3662v-.0087Z" style="fill:#92b6da;"/></g><g style="opacity:.5;"><path d="M112.073,67.9798s0,.0345-.017.0345l-5.626-.2157s-.052-.0173-.06-.0431l-2.399-4.7718s0-.0345.026-.0345l4.935.5005s.052.0173.069.0431l3.081,4.4784-.009.0086Z" style="fill:#92b6da;"/></g><g style="opacity:.5;"><path d="M120.331,76.5329s-.026.0259-.035.0086l-3.719-4.2281s-.026-.0517-.017-.069l1.804-5.022s.025-.0258.043,0l3.028,3.9261s.026.0518.018.0777l-1.131,5.324.009-.0173Z" style="fill:#92b6da;"/></g><g style="opacity:.5;"><path d="M116.957,54.9578s-.035.0173-.035,0l-1.613-5.4016s0-.0518.017-.0691l3.736-3.8053s.035-.0086.044.0087l1.113,4.8321s0,.0604-.018.0777l-3.244,4.3661v-.0086Z" style="fill:#92b6da;"/></g><g style="opacity:.5;"><path d="M122.1,63.1907s0,.0346-.017.0346l-5.626-.2158s-.052-.0172-.061-.0431l-2.399-4.7717s0-.0345.026-.0345l4.936.5004s.052.0173.069.0432l3.08,4.4783-.008.0086Z" style="fill:#92b6da;"/></g><g style="opacity:.5;"><path d="M130.367,71.7438s-.026.0259-.035.0087l-3.719-4.2281s-.026-.0518-.017-.0691l1.803-5.0219s.026-.0259.044,0l3.028,3.9261s.026.0518.018.0776l-1.131,5.324.009-.0173Z" style="fill:#92b6da;"/></g><g style="opacity:.5;"><path d="M127.174,49.575s-.034.0172-.034,0l-1.614-5.4016s0-.0518.017-.0691l3.736-3.8053s.035-.0086.044.0087l1.113,4.8321s0,.0604-.018.0776l-3.244,4.3662v-.0086Z" style="fill:#92b6da;"/></g><g style="opacity:.5;"><path d="M132.325,57.8157s0,.0346-.017.0346l-5.626-.2158s-.052-.0172-.06-.0431l-2.399-4.7717s0-.0345.026-.0345l4.936.5004s.051.0173.069.0432l3.08,4.4783-.009.0086Z" style="fill:#92b6da;"/></g><g style="opacity:.5;"><path d="M140.583,66.3649s-.026.0259-.034.0087l-3.719-4.2281s-.026-.0518-.018-.0691l1.804-5.0219s.026-.0259.043,0l3.029,3.9261s.026.0517.017.0776l-1.13,5.324.008-.0173Z" style="fill:#92b6da;"/></g><g style="opacity:.5;"><path d="M137.21,44.7937s-.035.0173-.035,0l-1.614-5.4016s0-.0518.018-.069l3.736-3.8053s.034-.0086.043.0086l1.113,4.8321s0,.0604-.017.0777l-3.244,4.3662v-.0087Z" style="fill:#92b6da;"/></g><g style="opacity:.5;"><path d="M142.352,53.0228s0,.0345-.017.0345l-5.626-.2157s-.052-.0173-.06-.0432l-2.399-4.7717s0-.0345.026-.0345l4.935.5005s.052.0172.069.0431l3.081,4.4784-.009.0086Z" style="fill:#92b6da;"/></g><g style="opacity:.5;"><path d="M150.619,61.5759s-.026.0259-.034.0086l-3.719-4.2281s-.026-.0518-.018-.069l1.804-5.022s.026-.0259.043,0l3.029,3.9261s.025.0518.017.0777l-1.131,5.3239.009-.0172Z" style="fill:#92b6da;"/></g></g><path d="M203.0432,460.9056c6.4004,9.0166,13.4511,15.82,18.2669,25.3204l-28.7693,18.472c-6.4461-8.4301-10.3946-17.2726-15.2835-27.4686-3.9911,10.1047-6.9104,19.1742-12.1996,28.7607l-31.1316-15.8194c4.9108-9.7893,10.7526-18.0693,16.9401-26.931-10.7603,1.845-20.3519,4.1416-31.3731,4.0346l-1.6112-34.4132c10.6817-1.1376,20.4404-.1594,31.545.9466-6.2232-.6425-1.7537.3571-1.7537.3571l28.2722-18.1283c3.0816,4.9615-2.0472-4.6934,1.4109-.5174,3.9153-9.758,4.2353-17.7476,9.3285-27.0598l31.1128,15.7697c-4.6252,9.9661-10.4896,17.7273-16.787,26.9196,10.7305-2.086,20.6675-3.8236,31.4354-4.0746l1.6771,34.7308c-10.17.8333-19.6619-.0178-31.0655-.8953l-.0144-.0038Z" style="fill:#603813;"/><path d="M148.9483,433.6726c-6.4004-9.0166-13.4511-15.82-18.2669-25.3204l28.7699-18.4711c6.4455,8.4293,10.3941,17.2718,15.283,27.4677,3.9911-10.1047,6.9104-19.1742,12.1996-28.7607l31.1316,15.8194c-4.9108,9.7893-10.7526,18.0694-16.9401,26.931,10.7603-1.845,20.3519-4.1416,31.3731-4.0346l1.6103,34.4137c-10.6817,1.1376-20.4396.1589-31.5442-.9471,6.2232.6425,1.7537-.3571,1.7537-.3571l-28.2722,18.1283c-3.0816-4.9615,1.3519,5.5265-2.1062,1.3505-3.9147,9.7588-3.54,16.9145-8.6332,26.2268l-31.1128-15.7697c4.6252-9.9661,10.4896-17.7273,16.787-26.9196-10.7305,2.086-20.6675,3.8236-31.4354,4.0746l-1.6771-34.7308c10.17-.8333,19.6619.0178,31.0655.8953l.0143.0039Z" style="fill:#603813;"/><line x1="110.0295" y1="520.2873" x2="110.3506" y2="520.1307" style="fill:none; stroke:#511e68; stroke-miterlimit:4; stroke-width:1px;"/><line x1="94.2344" y1="520.5821" x2="94.0345" y2="520.2955" style="fill:none; stroke:#511e68; stroke-miterlimit:4; stroke-width:1px;"/><path d="M83.4225,19.1297l.0604,7.1188c.0604,7.369,4.7891,13.297,10.5533,13.2452l5.4535-.0518c4.7463-.0431,8.9133,4.0041,10.1823,9.8451,3.616,16.663,9.923,53.559,9.009,104.935-1.208,67.943-27.3284,124.005-30.8491,130.14-.1898.336-.3624.664-.5263,1.018L11.5688,402.757c-.768,1.226-3.8745,9.526-4.2714,11.011-.7162,2.709-.7248,5.677,0,8.439,7.9128,30.2,56.8652,193.656,113.5146,195.407,80.768,2.502,116.751,2.485,123.49-1.579.794-.475,1.51-1.061,2.183-1.777,9.526-10.096,74.529-104.012,87.049-199.403.389-2.977-.474-5.989-1.82-8.474-22.272-41.15-68.075-91.128-85.816-129.621-18.337-39.77-29.787-100.724-29.977-122.503-.147-16.973.06-78.117.915-104.279.224-6.826,4.452-12.305,9.794-12.6933,6.187-.4487,11.398-7.2999,11.571-15.2212l.06-2.7353c.164-7.5329-4.59-13.7715-10.484-13.7715l-133.9565.1208c-5.7901,0-10.4498,6.0315-10.3807,13.435l-.0173.0172Z" style="fill:#dcd6cb; stroke:#dcd6cb; stroke-miterlimit:10; stroke-width:9px;"/><path d="M116.342,61.877c8.025,27.56,11.356,56.346,11.995,84.994,1.527,71.783-19.148,144.912-63.5442,201.931-8.8361,11.321-18.3971,22.046-28.726,31.961,9.6386-10.579,18.725-21.633,27.0261-33.221,8.2321-11.589,15.8342-23.738,22.4785-36.302,40.0386-75.251,48.3316-166.553,30.7706-249.363Z" style="fill:#e2e3e2;"/><path d="M303.696,377.274c-78.257-69.669-109.891-173.879-95.144-276.354,2.123-14.298,4.902-28.553,9.311-42.324-.915,3.494-1.674,7.015-2.382,10.553-4.901,24.695-7.067,49.943-6.972,75.087.345,88.937,32.298,169.806,95.187,233.038Z" style="fill:#e2e3e2;"/><path d="M89.61,594.404c46.139,9.82,94.997,15.791,141.542,5.704,6.627-1.519,13.15-3.469,19.631-5.704-6.11,3.107-12.521,5.635-19.079,7.749-44.215,13.366-98.906,7.36-142.094-7.749Z" style="fill:#e2e3e2;"/><path d="M22.4934,402.311c-1.7948,8.87-3.2789,17.663-.9923,26.507.2503,1.355.7421,2.563.9923,3.944-.5436-.441-1.0441-.924-1.5445-1.424-7.4726-7.861-6.0661-21.745,1.5445-29.027Z" style="fill:#e2e3e2;"/><path d="M316.044,430.485c.604-2.554,1.406-5.1,1.726-7.705.785-5.005.457-9.872-.311-14.894-.397-2.537-.889-5.108-1.415-7.861,8.154,7.732,9.103,23.074,0,30.451v.009Z" style="fill:#e2e3e2;"/><path d="M94.7875,344.875s52.8615-61.652,121.5485-1.38-121.5485,1.38-121.5485,1.38Z" style="fill:#866893;"/><path d="M38.2154,434.528c6.2992,29.856,21.7365,94.382,43.9131,129.683,4.9875,7.947,12.7623,18.482,21.5725,20.217,37.027,7.291,99.527,4.038,128.9,1.915,10.795-.776,20.572-12.149,26.189-22.029,12.115-21.287,32.186-64.604,42.74-131.813,1.337-8.517-.207-17.275-4.444-24.627-17.198-29.856-41.152-59.539-61.534-78.505-5.358-4.987-12.037-8.18-19.139-8.706-8.845-.656-18.44,1.432-27.889,3.926-15.756,4.168-31.893,6.472-48.124,6.756-19.562.345-38.27,7.223-53.6809,19.277-7.7575,6.066-14.6779,13.444-20.4508,21.96l-22.5217,33.204c-5.6261,8.292-7.6366,18.75-5.5312,28.734v.008Z" style="fill:#511e68;"/><g style="opacity:.5;"><g style="opacity:.5;"><path d="M152.817,213.139s.035,0,.026.026l-1.795,5.341s-.034.043-.06.052l-5.255.957s-.035-.008-.026-.034l1.881-4.591s.034-.043.06-.051l5.169-1.692v-.008Z" style="fill:#92b6da;"/></g><g style="opacity:.5;"><path d="M153.37,203.45s.017-.035.034-.017l4.47,3.425s.035.043.026.069l-.794,5.281s-.017.026-.043.017l-3.736-3.261s-.035-.052-.035-.069l.069-5.437.009-.008Z" style="fill:#92b6da;"/></g><g style="opacity:.5;"><path d="M151.549,191.699s.034-.009.034.017l.596,5.6s-.009.052-.035.069l-4.375,3.063s-.034,0-.034-.017l-.207-4.953s.008-.06.026-.069l3.986-3.693.009-.017Z" style="fill:#92b6da;"/></g><g style="opacity:.5;"><path d="M141.867,211.26s.035,0,.026.026l-1.795,5.341s-.034.043-.06.052l-5.255.957s-.035-.008-.026-.034l1.881-4.591s.035-.043.06-.051l5.169-1.692v-.008Z" style="fill:#92b6da;"/></g><g style="opacity:.5;"><path d="M142.411,201.571s.017-.035.034-.017l4.47,3.425s.035.043.026.069l-.794,5.281s-.017.026-.043.017l-3.736-3.261s-.035-.052-.035-.069l.069-5.436.009-.009Z" style="fill:#92b6da;"/></g><g style="opacity:.5;"><path d="M140.599,189.816s.034-.009.034.017l.595,5.6s-.008.052-.034.069l-4.375,3.063s-.034,0-.034-.017l-.207-4.953s.008-.06.025-.069l3.987-3.693.009-.017Z" style="fill:#92b6da;"/></g><g style="opacity:.5;"><path d="M126.783,180.959s.035,0,.026.026l-1.795,5.341s-.034.043-.06.052l-5.255.958s-.034-.009-.026-.035l1.881-4.59s.035-.043.061-.052l5.168-1.691v-.009Z" style="fill:#92b6da;"/></g><g style="opacity:.5;"><path d="M127.336,171.258s.017-.034.034-.017l4.47,3.426s.035.043.026.069l-.794,5.281s-.017.026-.043.017l-3.736-3.262s-.035-.052-.035-.069l.069-5.436.009-.009Z" style="fill:#92b6da;"/></g><g style="opacity:.5;"><path d="M125.515,159.503s.034-.008.034.018l.596,5.6s-.009.051-.035.069l-4.375,3.063s-.034,0-.034-.017l-.207-4.953s.008-.061.026-.069l3.986-3.693.009-.018Z" style="fill:#92b6da;"/></g><g style="opacity:.5;"><path d="M115.833,179.076s.035,0,.026.026l-1.795,5.341s-.034.043-.06.052l-5.255.958s-.035-.009-.026-.035l1.881-4.59s.035-.043.06-.052l5.169-1.691v-.009Z" style="fill:#92b6da;"/></g><g style="opacity:.5;"><path d="M116.377,169.383s.017-.034.034-.017l4.47,3.426s.034.043.026.069l-.794,5.281s-.017.026-.043.017l-3.736-3.262s-.035-.052-.035-.069l.069-5.436.009-.009Z" style="fill:#92b6da;"/></g><g style="opacity:.5;"><path d="M114.565,157.624s.034-.008.034.018l.596,5.6s-.009.052-.035.069l-4.375,3.063s-.034,0-.034-.017l-.207-4.953s.008-.061.026-.069l3.986-3.693.009-.018Z" style="fill:#92b6da;"/></g><g style="opacity:.5;"><path d="M149.538,184.311s.035,0,.026.025l-1.795,5.342s-.034.043-.06.051l-5.255.958s-.035-.008-.026-.034l1.881-4.591s.035-.043.061-.052l5.168-1.691v-.008Z" style="fill:#92b6da;"/></g><g style="opacity:.5;"><path d="M150.082,174.622s.017-.035.035-.018l4.469,3.426s.035.043.026.069l-.794,5.281s-.017.026-.043.017l-3.736-3.261s-.035-.052-.035-.07l.069-5.436.009-.008Z" style="fill:#92b6da;"/></g><g style="opacity:.5;"><path d="M148.27,162.867s.034-.009.034.017l.596,5.6s-.009.052-.035.069l-4.374,3.063s-.035,0-.035-.017l-.207-4.953s.009-.06.026-.069l3.986-3.693.009-.017Z" style="fill:#92b6da;"/></g><g style="opacity:.5;"><path d="M138.579,182.439s.035,0,.026.026l-1.795,5.342s-.034.043-.06.051l-5.255.958s-.035-.009-.026-.034l1.881-4.591s.035-.043.061-.052l5.168-1.691v-.009Z" style="fill:#92b6da;"/></g><g style="opacity:.5;"><path d="M139.132,172.743s.017-.035.034-.017l4.47,3.425s.035.043.026.069l-.794,5.281s-.017.026-.043.017l-3.736-3.261s-.035-.052-.035-.069l.069-5.437.009-.008Z" style="fill:#92b6da;"/></g><g style="opacity:.5;"><path d="M137.32,160.988s.034-.009.034.017l.595,5.6s-.008.052-.034.069l-4.375,3.063s-.034,0-.034-.017l-.207-4.953s.008-.06.025-.069l3.987-3.693.009-.017Z" style="fill:#92b6da;"/></g><g style="opacity:.5;"><path d="M129.441,211.686s.035,0,.026.025l-1.795,5.342s-.034.043-.06.051l-5.255.958s-.034-.008-.026-.034l1.881-4.591s.035-.043.061-.052l5.168-1.691v-.008Z" style="fill:#92b6da;"/></g><g style="opacity:.5;"><path d="M129.985,201.997s.017-.035.035-.018l4.469,3.426s.035.043.026.069l-.794,5.281s-.017.026-.043.017l-3.736-3.261s-.035-.052-.035-.07l.069-5.436.009-.008Z" style="fill:#92b6da;"/></g><g style="opacity:.5;"><path d="M128.173,190.234s.034-.009.034.017l.596,5.6s-.009.052-.035.069l-4.375,3.063s-.034,0-.034-.017l-.207-4.953s.008-.06.026-.069l3.986-3.693.009-.017Z" style="fill:#92b6da;"/></g><g style="opacity:.5;"><path d="M118.482,209.803s.035,0,.026.026l-1.795,5.341s-.034.043-.06.052l-5.255.957s-.034-.008-.026-.034l1.881-4.591s.035-.043.061-.051l5.168-1.692v-.008Z" style="fill:#92b6da;"/></g><g style="opacity:.5;"><path d="M119.035,200.114s.017-.035.034-.017l4.47,3.425s.034.043.026.069l-.794,5.281s-.017.026-.043.017l-3.737-3.261s-.034-.052-.034-.069l.069-5.436.009-.009Z" style="fill:#92b6da;"/></g><g style="opacity:.5;"><path d="M117.223,188.359s.034-.009.034.017l.596,5.6s-.009.052-.035.069l-4.375,3.063s-.034,0-.034-.017l-.207-4.953s.008-.06.025-.069l3.987-3.693.009-.017Z" style="fill:#92b6da;"/></g><g style="opacity:.5;"><path d="M170.576,188.115s.034,0,.025.026l-1.794,5.341s-.035.044-.061.052l-5.255.958s-.034-.009-.026-.035l1.882-4.59s.034-.043.06-.052l5.169-1.691v-.009Z" style="fill:#92b6da;"/></g><g style="opacity:.5;"><path d="M171.128,178.426s.018-.034.035-.017l4.47,3.426s.034.043.025.069l-.793,5.281s-.018.026-.044.017l-3.736-3.262s-.034-.052-.034-.069l.069-5.436.008-.009Z" style="fill:#92b6da;"/></g><g style="opacity:.5;"><path d="M169.316,166.675s.034-.008.034.017l.596,5.601s-.009.051-.035.069l-4.375,3.063s-.034,0-.034-.017l-.207-4.953s.008-.061.025-.069l3.987-3.694.009-.017Z" style="fill:#92b6da;"/></g><g style="opacity:.5;"><path d="M159.626,186.244s.034,0,.026.026l-1.795,5.341s-.035.043-.061.052l-5.255.958s-.034-.009-.026-.035l1.882-4.59s.034-.043.06-.052l5.169-1.691v-.009Z" style="fill:#92b6da;"/></g><g style="opacity:.5;"><path d="M160.169,176.547s.017-.034.035-.017l4.469,3.426s.035.043.026.069l-.794,5.281s-.017.026-.043.017l-3.736-3.262s-.035-.051-.035-.069l.07-5.436.008-.009Z" style="fill:#92b6da;"/></g><g style="opacity:.5;"><path d="M158.357,164.792s.035-.008.035.018l.595,5.6s-.009.052-.034.069l-4.375,3.063s-.035,0-.035-.017l-.207-4.953s.009-.061.026-.069l3.986-3.693.009-.018Z" style="fill:#92b6da;"/></g><g style="opacity:.5;"><path d="M173.682,196.964s.035-.008.035.018l.595,5.6s-.008.051-.034.069l-4.375,3.063s-.035,0-.035-.017l-.207-4.953s.009-.061.026-.069l3.987-3.693.008-.018Z" style="fill:#92b6da;"/></g><g style="opacity:.5;"><path d="M163.992,216.525s.034,0,.026.026l-1.795,5.342s-.035.043-.06.051l-5.255.958s-.035-.009-.026-.034l1.881-4.591s.034-.043.06-.052l5.169-1.691v-.009Z" style="fill:#92b6da;"/></g><g style="opacity:.5;"><path d="M164.535,206.837s.018-.035.035-.018l4.47,3.426s.034.043.025.069l-.793,5.281s-.018.026-.044.017l-3.736-3.262s-.034-.051-.034-.069l.069-5.436.008-.008Z" style="fill:#92b6da;"/></g><g style="opacity:.5;"><path d="M162.723,195.081s.035-.008.035.018l.595,5.6s-.008.052-.034.069l-4.375,3.063s-.035,0-.035-.017l-.207-4.953s.009-.061.026-.069l3.987-3.693.008-.018Z" style="fill:#92b6da;"/></g><g style="opacity:.5;"><path d="M168.902,156.295s.034,0,.026.026l-1.795,5.341s-.035.043-.061.052l-5.255.958s-.034-.009-.025-.035l1.881-4.59s.034-.044.06-.052l5.169-1.691v-.009Z" style="fill:#92b6da;"/></g><g style="opacity:.5;"><path d="M157.943,154.412s.034,0,.026.026l-1.795,5.341s-.035.043-.061.052l-5.255.958s-.034-.009-.025-.035l1.881-4.59s.034-.043.06-.052l5.169-1.691v-.009Z" style="fill:#92b6da;"/></g><g style="opacity:.5;"><path d="M158.495,144.723s.017-.034.035-.017l4.469,3.426s.035.043.026.069l-.794,5.281s-.017.025-.043.017l-3.736-3.262s-.035-.052-.035-.069l.069-5.436.009-.009Z" style="fill:#92b6da;"/></g><g style="opacity:.5;"><path d="M156.683,132.972s.034-.009.034.017l.596,5.6s-.009.052-.035.069l-4.375,3.064s-.034,0-.034-.018l-.207-4.952s.008-.061.026-.07l3.986-3.693.009-.017Z" style="fill:#92b6da;"/></g><g style="opacity:.5;"><path d="M146.483,152.74s.035,0,.026.026l-1.794,5.341s-.035.044-.061.052l-5.255.958s-.034-.009-.026-.035l1.881-4.59s.035-.043.061-.052l5.168-1.691v-.009Z" style="fill:#92b6da;"/></g><g style="opacity:.5;"><path d="M147.036,143.051s.017-.034.035-.017l4.469,3.426s.035.043.026.069l-.794,5.281s-.017.026-.043.017l-3.736-3.262s-.035-.052-.035-.069l.069-5.436.009-.009Z" style="fill:#92b6da;"/></g><g style="opacity:.5;"><path d="M145.224,131.296s.034-.008.034.018l.595,5.6s-.008.051-.034.069l-4.375,3.063s-.034,0-.034-.017l-.207-4.953s.008-.061.025-.069l3.987-3.693.009-.018Z" style="fill:#92b6da;"/></g><g style="opacity:.5;"><path d="M135.533,150.857s.035,0,.026.026l-1.795,5.342s-.034.043-.06.051l-5.255.958s-.034-.009-.026-.034l1.881-4.591s.035-.043.061-.052l5.168-1.691v-.009Z" style="fill:#92b6da;"/></g><g style="opacity:.5;"><path d="M136.077,141.169s.017-.035.034-.018l4.47,3.426s.035.043.026.069l-.794,5.281s-.017.026-.043.017l-3.736-3.262s-.035-.051-.035-.069l.069-5.436.009-.008Z" style="fill:#92b6da;"/></g><g style="opacity:.5;"><path d="M134.265,129.414s.034-.009.034.017l.596,5.6s-.009.052-.035.069l-4.375,3.063s-.034,0-.034-.017l-.207-4.953s.008-.06.026-.069l3.986-3.693.009-.017Z" style="fill:#92b6da;"/></g><g style="opacity:.5;"><path d="M124.074,149.357s.034,0,.026.026l-1.795,5.342s-.035.043-.06.051l-5.255.958s-.035-.009-.026-.034l1.881-4.591s.034-.043.06-.052l5.169-1.691v-.009Z" style="fill:#92b6da;"/></g><g style="opacity:.5;"><path d="M124.627,139.669s.017-.035.034-.018l4.47,3.426s.034.043.026.069l-.794,5.281s-.017.026-.043.017l-3.736-3.262s-.035-.051-.035-.069l.069-5.436.009-.008Z" style="fill:#92b6da;"/></g><g style="opacity:.5;"><path d="M122.814,127.914s.035-.009.035.017l.595,5.6s-.009.052-.034.069l-4.375,3.063s-.035,0-.035-.017l-.207-4.953s.009-.06.026-.069l3.987-3.693.008-.017Z" style="fill:#92b6da;"/></g><g style="opacity:.5;"><path d="M113.124,147.479s.034,0,.026.025l-1.795,5.342s-.035.043-.06.051l-5.255.958s-.035-.008-.026-.034l1.881-4.591s.034-.043.06-.052l5.169-1.691v-.008Z" style="fill:#92b6da;"/></g><g style="opacity:.5;"><path d="M113.676,137.786s.017-.035.034-.017l4.47,3.425s.035.043.026.069l-.794,5.281s-.017.026-.043.017l-3.736-3.261s-.035-.052-.035-.069l.069-5.437.009-.008Z" style="fill:#92b6da;"/></g><g style="opacity:.5;"><path d="M149.616,301.072s.035,0,.026.026l-1.795,5.341s-.034.044-.06.052l-5.255.958s-.035-.009-.026-.035l1.881-4.59s.035-.043.06-.052l5.169-1.691v-.009Z" style="fill:#92b6da;"/></g><g style="opacity:.5;"><path d="M150.16,291.376s.017-.035.034-.018l4.47,3.426s.035.043.026.069l-.794,5.281s-.017.026-.043.017l-3.736-3.262s-.035-.051-.035-.069l.069-5.436.009-.008Z" style="fill:#92b6da;"/></g><g style="opacity:.5;"><path d="M148.348,279.621s.034-.009.034.017l.596,5.6s-.009.052-.035.069l-4.375,3.063s-.034,0-.034-.017l-.207-4.953s.008-.06.025-.069l3.987-3.693.009-.017Z" style="fill:#92b6da;"/></g><g style="opacity:.5;"><path d="M138.657,299.193s.035,0,.026.026l-1.795,5.341s-.034.044-.06.052l-5.255.958s-.035-.009-.026-.034l1.881-4.591s.035-.043.06-.052l5.169-1.691v-.009Z" style="fill:#92b6da;"/></g><g style="opacity:.5;"><path d="M139.21,289.501s.017-.035.034-.018l4.47,3.426s.034.043.026.069l-.794,5.281s-.017.026-.043.017l-3.736-3.262s-.035-.051-.035-.069l.069-5.436.009-.008Z" style="fill:#92b6da;"/></g><g style="opacity:.5;"><path d="M137.397,277.738s.035-.009.035.017l.595,5.6s-.009.052-.034.069l-4.375,3.063s-.035,0-.035-.017l-.207-4.953s.009-.06.026-.069l3.987-3.693.008-.017Z" style="fill:#92b6da;"/></g><g style="opacity:.5;"><path d="M123.582,268.877s.034,0,.026.026l-1.795,5.341s-.035.043-.06.052l-5.255.958s-.035-.009-.026-.035l1.881-4.59s.034-.044.06-.052l5.169-1.691v-.009Z" style="fill:#92b6da;"/></g><g style="opacity:.5;"><path d="M124.126,259.188s.017-.034.035-.017l4.469,3.425s.035.044.026.07l-.794,5.28s-.017.026-.043.018l-3.736-3.262s-.034-.052-.034-.069l.069-5.436.008-.009Z" style="fill:#92b6da;"/></g><g style="opacity:.5;"><path d="M122.314,247.433s.034-.009.034.017l.596,5.6s-.009.052-.035.069l-4.375,3.064s-.034,0-.034-.018l-.207-4.953s.008-.06.026-.069l3.986-3.693.009-.017Z" style="fill:#92b6da;"/></g><g style="opacity:.5;"><path d="M112.623,266.994s.035,0,.026.026l-1.794,5.341s-.035.043-.061.052l-5.255.958s-.034-.009-.026-.035l1.881-4.59s.035-.043.061-.052l5.168-1.691v-.009Z" style="fill:#92b6da;"/></g><g style="opacity:.5;"><path d="M113.175,257.305s.018-.034.035-.017l4.47,3.426s.034.043.026.069l-.794,5.281s-.018.025-.043.017l-3.737-3.262s-.034-.052-.034-.069l.069-5.436.008-.009Z" style="fill:#92b6da;"/></g><g style="opacity:.5;"><path d="M111.363,245.554s.035-.008.035.017l.595,5.6s-.008.052-.034.069l-4.375,3.064s-.034,0-.034-.018l-.208-4.952s.009-.061.026-.069l3.987-3.694.008-.017Z" style="fill:#92b6da;"/></g><g style="opacity:.5;"><path d="M146.328,272.244s.035,0,.026.026l-1.795,5.341s-.034.043-.06.052l-5.255.958s-.035-.009-.026-.035l1.881-4.59s.035-.043.061-.052l5.168-1.691v-.009Z" style="fill:#92b6da;"/></g><g style="opacity:.5;"><path d="M145.068,250.792s.035-.008.035.018l.595,5.6s-.008.052-.034.069l-4.375,3.063s-.035,0-.035-.017l-.207-4.953s.009-.061.026-.069l3.987-3.693.008-.018Z" style="fill:#92b6da;"/></g><g style="opacity:.5;"><path d="M135.378,270.361s.035,0,.026.026l-1.795,5.341s-.034.044-.06.052l-5.255.958s-.035-.009-.026-.034l1.881-4.591s.035-.043.06-.052l5.169-1.691v-.009Z" style="fill:#92b6da;"/></g><g style="opacity:.5;"><path d="M135.93,260.673s.017-.035.035-.018l4.469,3.426s.035.043.026.069l-.794,5.281s-.017.026-.043.017l-3.736-3.262s-.035-.051-.035-.069l.07-5.436.008-.008Z" style="fill:#92b6da;"/></g><g style="opacity:.5;"><path d="M134.118,248.91s.035-.009.035.017l.595,5.6s-.009.052-.034.069l-4.375,3.063s-.035,0-.035-.017l-.207-4.953s.009-.06.026-.069l3.986-3.693.009-.017Z" style="fill:#92b6da;"/></g><g style="opacity:.5;"><path d="M126.784,289.915s.017-.035.034-.018l4.47,3.426s.034.043.026.069l-.794,5.281s-.017.026-.043.017l-3.736-3.262s-.035-.051-.035-.069l.069-5.436.009-.008Z" style="fill:#92b6da;"/></g><g style="opacity:.5;"><path d="M124.971,278.16s.035-.009.035.017l.595,5.6s-.008.052-.034.069l-4.375,3.063s-.035,0-.035-.017l-.207-4.953s.009-.06.026-.069l3.987-3.693.008-.017Z" style="fill:#92b6da;"/></g><g style="opacity:.5;"><path d="M115.833,288.032s.017-.035.035-.017l4.469,3.425s.035.043.026.069l-.794,5.281s-.017.026-.043.017l-3.736-3.261s-.034-.052-.034-.069l.069-5.436.008-.009Z" style="fill:#92b6da;"/></g><g style="opacity:.5;"><path d="M114.021,276.281s.035-.009.035.017l.595,5.6s-.009.052-.034.069l-4.375,3.063s-.035,0-.035-.017l-.207-4.953s.009-.06.026-.069l3.987-3.693.008-.017Z" style="fill:#92b6da;"/></g><g style="opacity:.5;"><path d="M171.74,306.334s.035,0,.026.026l-1.795,5.341s-.034.043-.06.052l-5.255.958s-.034-.009-.026-.035l1.881-4.59s.035-.043.061-.052l5.168-1.691v-.009Z" style="fill:#92b6da;"/></g><g style="opacity:.5;"><path d="M160.782,304.455s.034,0,.026.026l-1.795,5.341s-.035.043-.06.052l-5.255.958s-.035-.009-.026-.035l1.881-4.59s.034-.043.06-.052l5.169-1.691v-.009Z" style="fill:#92b6da;"/></g><g style="opacity:.5;"><path d="M161.334,294.755s.017-.035.034-.018l4.47,3.426s.035.043.026.069l-.794,5.281s-.017.026-.043.017l-3.736-3.262s-.035-.051-.035-.069l.069-5.436.009-.008Z" style="fill:#92b6da;"/></g><g style="opacity:.5;"><path d="M159.522,282.999s.035-.008.035.018l.595,5.6s-.009.052-.034.069l-4.375,3.063s-.035,0-.035-.017l-.207-4.953s.009-.061.026-.069l3.987-3.693.008-.018Z" style="fill:#92b6da;"/></g><g style="opacity:.5;"><path d="M164.432,222.773s.034-.009.034.017l.596,5.6s-.009.052-.035.069l-4.375,3.063s-.034,0-.034-.017l-.207-4.953s.008-.06.026-.069l3.986-3.693.009-.017Z" style="fill:#92b6da;"/></g><g style="opacity:.5;"><path d="M154.742,242.342s.034,0,.025.026l-1.794,5.341s-.035.043-.061.052l-5.255.958s-.034-.009-.026-.035l1.882-4.591s.034-.043.06-.051l5.169-1.692v-.008Z" style="fill:#92b6da;"/></g><g style="opacity:.5;"><path d="M155.294,232.645s.017-.034.034-.017l4.47,3.426s.034.043.026.069l-.794,5.28s-.017.026-.043.018l-3.736-3.262s-.035-.052-.035-.069l.069-5.436.009-.009Z" style="fill:#92b6da;"/></g><g style="opacity:.5;"><path d="M153.482,220.89s.034-.009.034.017l.596,5.6s-.009.052-.035.069l-4.375,3.064s-.034,0-.034-.018l-.207-4.953s.008-.06.026-.069l3.986-3.693.009-.017Z" style="fill:#92b6da;"/></g><g style="opacity:.5;"><path d="M143.282,240.662s.034,0,.026.026l-1.795,5.341s-.035.043-.06.052l-5.255.958s-.035-.009-.026-.035l1.881-4.59s.034-.043.06-.052l5.169-1.691v-.009Z" style="fill:#92b6da;"/></g><g style="opacity:.5;"><path d="M143.826,230.973s.017-.034.035-.017l4.469,3.426s.035.043.026.069l-.794,5.28s-.017.026-.043.018l-3.736-3.262s-.035-.052-.035-.069l.07-5.436.008-.009Z" style="fill:#92b6da;"/></g><g style="opacity:.5;"><path d="M142.014,219.218s.034-.008.034.017l.596,5.601s-.009.051-.035.069l-4.375,3.063s-.034,0-.034-.017l-.207-4.953s.008-.061.025-.069l3.987-3.694.009-.017Z" style="fill:#92b6da;"/></g><g style="opacity:.5;"><path d="M132.323,238.791s.035,0,.026.026l-1.795,5.341s-.034.043-.06.052l-5.255.958s-.034-.009-.026-.035l1.881-4.59s.035-.043.061-.052l5.168-1.691v-.009Z" style="fill:#92b6da;"/></g><g style="opacity:.5;"><path d="M132.876,229.09s.017-.034.034-.017l4.47,3.426s.034.043.026.069l-.794,5.281s-.017.026-.043.017l-3.736-3.262s-.035-.051-.035-.069l.069-5.436.009-.009Z" style="fill:#92b6da;"/></g><g style="opacity:.5;"><path d="M131.064,217.339s.034-.008.034.018l.596,5.6s-.009.051-.035.069l-4.375,3.063s-.034,0-.034-.017l-.207-4.953s.008-.061.026-.069l3.986-3.693.009-.018Z" style="fill:#92b6da;"/></g><g style="opacity:.5;"><path d="M120.872,237.287s.035,0,.026.026l-1.794,5.341s-.035.043-.061.052l-5.255.958s-.034-.009-.026-.035l1.881-4.59s.035-.043.061-.052l5.168-1.691v-.009Z" style="fill:#92b6da;"/></g><g style="opacity:.5;"><path d="M121.425,227.587s.018-.035.035-.018l4.47,3.426s.034.043.026.069l-.794,5.281s-.018.026-.043.017l-3.737-3.262s-.034-.051-.034-.069l.069-5.436.008-.008Z" style="fill:#92b6da;"/></g><g style="opacity:.5;"><path d="M119.613,215.835s.034-.008.034.018l.596,5.6s-.009.051-.035.069l-4.375,3.063s-.034,0-.034-.017l-.207-4.953s.008-.061.026-.069l3.986-3.693.009-.018Z" style="fill:#92b6da;"/></g><g style="opacity:.5;"><path d="M109.923,235.408s.034,0,.026.026l-1.795,5.341s-.035.043-.061.052l-5.255.958s-.034-.009-.025-.035l1.881-4.59s.034-.043.06-.052l5.169-1.691v-.009Z" style="fill:#92b6da;"/></g><g style="opacity:.5;"><path d="M110.466,225.715s.017-.034.035-.017l4.469,3.426s.035.043.026.069l-.793,5.281s-.018.026-.044.017l-3.736-3.262s-.034-.052-.034-.069l.069-5.436.008-.009Z" style="fill:#92b6da;"/></g><g style="opacity:.5;"><path d="M108.654,213.953s.035-.009.035.017l.595,5.6s-.008.052-.034.069l-4.375,3.063s-.035,0-.035-.017l-.207-4.953s.009-.06.026-.069l3.987-3.693.008-.017Z" style="fill:#92b6da;"/></g></g><g style="mask:url(#b);"><path d="M82.9399,19.4579l.0603,7.1187c.0604,7.369,4.7892,13.297,10.5533,13.2452l5.4536-.0517c4.7459-.0432,8.9139,4.0039,10.1819,9.8459,3.616,16.662,9.924,53.558,9.009,104.934-1.208,67.943-27.3281,124.005-30.8487,130.14-.1899.336-.3624.664-.5264,1.018L11.0861,403.085c-.768,1.226-3.8744,9.527-4.2714,11.011-.7162,2.709-.7248,5.677,0,8.439,7.9128,30.2,56.8652,193.656,113.5143,195.407,80.768,2.5031,116.751,2.485,123.49-1.579.794-.474,1.51-1.061,2.183-1.777,9.527-10.096,74.529-104.012,87.05-199.403.388-2.977-.475-5.988-1.821-8.474-22.272-41.15-68.074-91.128-85.816-129.621-18.336-39.77-29.787-100.724-29.977-122.503-.146-16.973.061-78.117.915-104.279.224-6.826,4.453-12.3049,9.794-12.6931,6.187-.4487,11.399-7.3,11.571-15.2212l.061-2.7354c.164-7.5329-4.591-13.7715-10.484-13.7715l-133.9572.1208c-5.7901,0-10.4497,6.0315-10.3807,13.435l-.0172.0173Z" style="fill:#c59b6d; stroke:#c59b6d; stroke-miterlimit:10; stroke-width:9px;"/></g><path d="M190.964,472.178c.521,11.045,2.784,20.577,1.71,31.174l-34.189.021c-.876-10.576.573-20.15,1.961-31.373-8.814,6.352-16.167,12.412-25.794,17.626l-17.668-30.12c9.418-5.591,18.805-9.408,28.797-13.528-10.054-4.255-19.368-7.499-28.588-13.537l17.219-29.84c9.606,4.808,17.293,10.899,26.044,17.825-4.892-3.901-1.669-.647-1.669-.647h33.585c-.084,5.841.81-5.056,1.467.326,8.563-6.101,13.145-12.654,22.459-17.744l17.679,30.069c-9.273,5.893-18.399,9.262-28.662,13.6,10.159,4.037,19.462,7.937,28.662,13.538l-17.335,30.142c-9.011-4.787-16.542-10.628-25.668-17.522l-.01-.01Z" style="fill:#603813;"/><path d="M160.126,420.053c-.521-11.045-2.784-20.578-1.71-31.174l34.189-.021c.876,10.575-.573,20.15-1.961,31.372,8.814-6.351,16.167-12.411,25.794-17.626l17.668,30.121c-9.418,5.59-18.805,9.408-28.797,13.527,10.054,4.256,19.368,7.499,28.588,13.538l-17.22,29.839c-9.606-4.808-17.292-10.899-26.043-17.824,4.892,3.901,1.669.647,1.669.647h-33.585c.084-5.841-1.845,5.381-2.502,0-8.563,6.101-12.11,12.327-21.424,17.417l-17.679-30.069c9.273-5.892,18.399-9.261,28.662-13.6-10.159-4.036-19.462-7.937-28.662-13.538l17.335-30.141c9.011,4.787,16.542,10.627,25.668,17.522l.01.01Z" style="fill:#603813;"/><rect x="93.8437" y="519.0571" width="15.9762" height=".1016" style="fill:#215523; stroke:#511e68; stroke-width:.1016px;"/><rect x="94.0764" y="518.9451" width="15.6811" height=".1368" style="fill:#215523; stroke:#511e68; stroke-width:.1368px;"/><line x1="109.5784" y1="519.1144" x2="109.8996" y2="518.9578" style="fill:none; stroke:#511e68; stroke-miterlimit:4; stroke-width:1px;"/><line x1="93.7832" y1="519.4091" x2="93.5833" y2="519.1225" style="fill:none; stroke:#511e68; stroke-miterlimit:4; stroke-width:1px;"/><path d="M83.5206,20.4781l.0603,7.1187c.0604,7.369,4.7891,13.297,10.5533,13.2452l5.4536-.0518c4.7461-.0431,8.9141,4.0038,10.1821,9.8455,3.616,16.6622,9.923,53.5588,9.009,104.9348-1.208,67.943-27.3283,124.004-30.8489,130.139-.1899.337-.3624.665-.5264,1.019L11.6668,404.1055c-.768,1.225-3.8744,9.526-4.2714,11.01-.7162,2.71-.7248,5.678,0,8.439,7.9128,30.201,56.8652,193.656,113.5145,195.408,80.768,2.502,116.751,2.485,123.49-1.579.794-.475,1.51-1.061,2.183-1.778,9.526-10.095,74.529-104.011,87.049-199.402.389-2.977-.474-5.989-1.82-8.474-22.272-41.151-68.075-91.129-85.816-129.622-18.336-39.77-29.787-100.723-29.977-122.503-.147-16.972.06-78.116.915-104.2785.224-6.8254,4.452-12.3047,9.794-12.693,6.187-.4487,11.399-7.2999,11.571-15.2211l.061-2.7354c.164-7.5329-4.591-13.7715-10.485-13.7715l-133.9564.1208c-5.7901,0-10.4497,6.0315-10.3807,13.435l-.0172.0173Z" style="fill:#dcd6cb; stroke:#dcd6cb; stroke-miterlimit:10; stroke-width:9px;"/><path d="M116.4399,63.2253c8.025,27.5603,11.356,56.3462,11.995,84.9932,1.527,71.783-19.148,144.912-63.5444,201.931-8.8361,11.321-18.397,22.047-28.7259,31.961,9.6386-10.578,18.725-21.632,27.0261-33.22,8.232-11.589,15.8342-23.738,22.4785-36.302,40.0387-75.251,48.3307-166.553,30.7707-249.3632Z" style="fill:#e2e3e2;"/><path d="M303.7939,378.6225c-78.257-69.669-109.891-173.879-95.144-276.354,2.123-14.2982,4.902-28.5529,9.311-42.3245-.915,3.4947-1.674,7.0152-2.382,10.553-4.901,24.6956-7.067,49.9435-6.972,75.0875.345,88.937,32.298,169.806,95.187,233.038Z" style="fill:#e2e3e2;"/><path d="M89.708,595.7525c46.1389,9.82,94.9969,15.791,141.5419,5.704,6.627-1.519,13.15-3.469,19.631-5.704-6.11,3.106-12.521,5.635-19.079,7.749-44.215,13.366-98.906,7.36-142.0939-7.749Z" style="fill:#e2e3e2;"/><path d="M22.5912,403.6585c-1.7948,8.871-3.2789,17.663-.9923,26.508.2502,1.355.7421,2.563.9923,3.943-.5436-.44-1.0441-.923-1.5446-1.423-7.4725-7.861-6.066-21.745,1.5446-29.028Z" style="fill:#e2e3e2;"/><path d="M316.1419,431.8335c.604-2.554,1.406-5.1,1.726-7.706.785-5.004.457-9.871-.311-14.893-.397-2.537-.889-5.108-1.415-7.861,8.154,7.732,9.103,23.074,0,30.451v.009Z" style="fill:#e2e3e2;"/><path d="M94.8854,346.2235s52.8615-61.652,121.5485-1.38-121.5485,1.38-121.5485,1.38Z" style="fill:#584b5a;"/><path d="M38.3133,435.8765c6.2992,29.856,21.7365,94.382,43.9131,129.682,4.9875,7.947,12.7623,18.483,21.5725,20.218,37.027,7.291,99.527,4.038,128.9,1.915,10.795-.776,20.572-12.149,26.189-22.0291,12.115-21.287,32.186-64.604,42.74-131.814,1.337-8.516-.207-17.274-4.444-24.626-17.198-29.856-41.152-59.539-61.534-78.505-5.358-4.987-12.037-8.18-19.139-8.706-8.845-.656-18.44,1.432-27.889,3.926-15.756,4.168-31.893,6.471-48.124,6.756-19.562.345-38.27,7.222-53.6809,19.277-7.7575,6.066-14.6779,13.444-20.4508,21.96l-22.5217,33.204c-5.6261,8.292-7.6366,18.75-5.5312,28.734v.008Z" style="fill:#231f20;"/><g style="opacity:.5;"><g style="opacity:.5;"><path d="M152.9149,214.4875s.034-.001.026.025l-1.795,5.342s-.035.043-.06.051l-5.255.958s-.035-.008-.026-.034l1.881-4.591s.034-.043.06-.052l5.169-1.691v-.008Z" style="fill:#92b6da;"/></g><g style="opacity:.5;"><path d="M153.4679,204.7985s.017-.035.034-.018l4.47,3.426s.034.043.026.069l-.794,5.281s-.017.026-.043.017l-3.737-3.262s-.034-.051-.034-.069l.069-5.436.009-.008Z" style="fill:#92b6da;"/></g><g style="opacity:.5;"><path d="M151.6469,193.0465s.034-.008.034.018l.596,5.6s-.009.052-.035.069l-4.375,3.063s-.034,0-.034-.017l-.207-4.953s.008-.061.025-.069l3.987-3.693.009-.018Z" style="fill:#92b6da;"/></g><g style="opacity:.5;"><path d="M141.9649,212.6085s.034,0,.026.025l-1.795,5.342s-.035.043-.06.051l-5.255.958s-.035-.008-.026-.034l1.881-4.591s.034-.043.06-.052l5.169-1.691v-.008Z" style="fill:#92b6da;"/></g><g style="opacity:.5;"><path d="M142.5089,202.9195s.017-.035.034-.018l4.47,3.426s.034.043.026.069l-.794,5.281s-.017.026-.043.017l-3.736-3.261s-.035-.052-.035-.069l.069-5.437.009-.008Z" style="fill:#92b6da;"/></g><g style="opacity:.5;"><path d="M140.6959,191.1645s.035-.009.035.017l.595,5.6s-.008.052-.034.069l-4.375,3.063s-.035,0-.035-.017l-.207-4.953s.009-.06.026-.069l3.987-3.693.008-.017Z" style="fill:#92b6da;"/></g><g style="opacity:.5;"><path d="M126.8809,182.3075s.035,0,.026.026l-1.795,5.341s-.034.043-.06.052l-5.255.957s-.035-.008-.026-.034l1.881-4.591s.035-.043.061-.051l5.168-1.692v-.008Z" style="fill:#92b6da;"/></g><g style="opacity:.5;"><path d="M127.4339,172.6065s.017-.034.034-.017l4.47,3.426s.035.043.026.069l-.794,5.28s-.017.026-.043.018l-3.736-3.262s-.035-.052-.035-.069l.069-5.436.009-.009Z" style="fill:#92b6da;"/></g><g style="opacity:.5;"><path d="M125.6129,160.8515s.034-.008.034.017l.596,5.601s-.009.051-.035.069l-4.375,3.063s-.034,0-.034-.018l-.207-4.952s.008-.061.026-.069l3.986-3.694.009-.017Z" style="fill:#92b6da;"/></g><g style="opacity:.5;"><path d="M115.9309,180.4245s.035,0,.026.026l-1.795,5.341s-.034.043-.06.052l-5.255.958s-.035-.009-.026-.035l1.881-4.59s.034-.043.06-.052l5.169-1.691v-.009Z" style="fill:#92b6da;"/></g><g style="opacity:.5;"><path d="M116.4749,170.7315s.017-.034.034-.017l4.47,3.426s.034.043.026.069l-.794,5.28s-.017.026-.043.018l-3.737-3.262s-.034-.052-.034-.069l.069-5.436.009-.009Z" style="fill:#92b6da;"/></g><g style="opacity:.5;"><path d="M114.6629,158.9725s.034-.008.034.018l.595,5.6s-.008.051-.034.069l-4.375,3.063s-.034,0-.034-.017l-.207-4.953s.008-.061.025-.069l3.987-3.693.009-.018Z" style="fill:#92b6da;"/></g><g style="opacity:.5;"><path d="M149.6359,185.6585s.035,0,.026.026l-1.795,5.341s-.034.044-.06.052l-5.255.958s-.035-.009-.026-.034l1.881-4.591s.035-.043.06-.052l5.169-1.691v-.009Z" style="fill:#92b6da;"/></g><g style="opacity:.5;"><path d="M150.1799,175.9705s.017-.035.035-.018l4.469,3.426s.035.043.026.069l-.794,5.281s-.017.026-.043.017l-3.736-3.262s-.035-.051-.035-.069l.069-5.436.009-.008Z" style="fill:#92b6da;"/></g><g style="opacity:.5;"><path d="M148.3679,164.2145s.034-.008.034.018l.596,5.6s-.009.052-.035.069l-4.375,3.063s-.034,0-.034-.017l-.207-4.953s.009-.061.026-.069l3.986-3.693.009-.018Z" style="fill:#92b6da;"/></g><g style="opacity:.5;"><path d="M138.6769,183.7875s.035,0,.026.026l-1.795,5.341s-.034.044-.06.052l-5.255.958s-.035-.009-.026-.035l1.881-4.59s.035-.043.061-.052l5.168-1.691v-.009Z" style="fill:#92b6da;"/></g><g style="opacity:.5;"><path d="M139.2299,174.0915s.017-.035.034-.018l4.47,3.426s.035.043.026.069l-.794,5.281s-.017.026-.043.017l-3.736-3.262s-.035-.051-.035-.069l.069-5.436.009-.008Z" style="fill:#92b6da;"/></g><g style="opacity:.5;"><path d="M137.4169,162.3365s.035-.009.035.017l.595,5.6s-.008.052-.034.069l-4.375,3.063s-.034,0-.034-.017l-.208-4.953s.009-.06.026-.069l3.987-3.693.008-.017Z" style="fill:#92b6da;"/></g><g style="opacity:.5;"><path d="M129.5389,213.0335s.035,0,.026.026l-1.795,5.341s-.034.044-.06.052l-5.255.958s-.035-.009-.026-.034l1.881-4.591s.034-.043.06-.052l5.169-1.691v-.009Z" style="fill:#92b6da;"/></g><g style="opacity:.5;"><path d="M130.0829,203.3455s.017-.035.035-.018l4.469,3.426s.035.043.026.069l-.794,5.281s-.017.026-.043.017l-3.736-3.262s-.035-.051-.035-.069l.069-5.436.009-.008Z" style="fill:#92b6da;"/></g><g style="opacity:.5;"><path d="M128.2709,191.5825s.034-.009.034.017l.596,5.6s-.009.052-.035.069l-4.375,3.063s-.034,0-.034-.017l-.207-4.953s.008-.06.025-.069l3.987-3.693.009-.017Z" style="fill:#92b6da;"/></g><g style="opacity:.5;"><path d="M118.5799,211.1515s.035,0,.026.025l-1.795,5.342s-.034.043-.06.051l-5.255.958s-.035-.008-.026-.034l1.881-4.591s.035-.043.061-.052l5.168-1.691v-.008Z" style="fill:#92b6da;"/></g><g style="opacity:.5;"><path d="M119.1329,201.4625s.017-.035.034-.018l4.47,3.426s.034.043.026.069l-.794,5.281s-.017.026-.043.017l-3.737-3.261s-.034-.052-.034-.07l.069-5.436.009-.008Z" style="fill:#92b6da;"/></g><g style="opacity:.5;"><path d="M117.3199,189.7075s.035-.009.035.017l.595,5.6s-.008.052-.034.069l-4.375,3.063s-.034,0-.034-.017l-.208-4.953s.009-.06.026-.069l3.987-3.693.008-.017Z" style="fill:#92b6da;"/></g><g style="opacity:.5;"><path d="M170.6729,189.4635s.035,0,.026.026l-1.795,5.341s-.034.043-.06.052l-5.255.958s-.034-.009-.026-.035l1.881-4.59s.035-.043.061-.052l5.168-1.691v-.009Z" style="fill:#92b6da;"/></g><g style="opacity:.5;"><path d="M171.2259,179.7745s.017-.034.035-.017l4.469,3.426s.035.043.026.069l-.794,5.28s-.017.026-.043.018l-3.736-3.262s-.035-.052-.035-.069l.069-5.436.009-.009Z" style="fill:#92b6da;"/></g><g style="opacity:.5;"><path d="M169.4129,168.0235s.035-.009.035.017l.595,5.6s-.008.052-.034.069l-4.375,3.064s-.035,0-.035-.018l-.207-4.953s.009-.06.026-.069l3.987-3.693.008-.017Z" style="fill:#92b6da;"/></g><g style="opacity:.5;"><path d="M159.7229,187.5925s.035,0,.026.026l-1.795,5.341s-.034.043-.06.052l-5.255.958s-.034-.009-.026-.035l1.881-4.59s.035-.044.061-.052l5.168-1.691v-.009Z" style="fill:#92b6da;"/></g><g style="opacity:.5;"><path d="M160.2669,177.8955s.017-.034.034-.017l4.47,3.426s.035.043.026.069l-.794,5.281s-.017.025-.043.017l-3.736-3.262s-.035-.052-.035-.069l.069-5.436.009-.009Z" style="fill:#92b6da;"/></g><g style="opacity:.5;"><path d="M158.4549,166.1405s.034-.008.034.017l.596,5.601s-.009.051-.035.069l-4.375,3.063s-.034,0-.034-.017l-.207-4.953s.008-.061.026-.069l3.986-3.694.009-.017Z" style="fill:#92b6da;"/></g><g style="opacity:.5;"><path d="M173.7799,198.3125s.035-.009.035.017l.595,5.6s-.008.052-.034.069l-4.375,3.064s-.035,0-.035-.018l-.207-4.952s.009-.061.026-.07l3.987-3.693.008-.017Z" style="fill:#92b6da;"/></g><g style="opacity:.5;"><path d="M164.0899,217.8735s.034,0,.026.026l-1.795,5.341s-.035.043-.061.052l-5.255.958s-.034-.009-.025-.035l1.881-4.59s.034-.043.06-.052l5.169-1.691v-.009Z" style="fill:#92b6da;"/></g><g style="opacity:.5;"><path d="M164.6329,208.1845s.017-.034.035-.017l4.469,3.426s.035.043.026.069l-.793,5.281s-.018.025-.044.017l-3.736-3.262s-.034-.052-.034-.069l.069-5.436.008-.009Z" style="fill:#92b6da;"/></g><g style="opacity:.5;"><path d="M162.8209,196.4295s.035-.008.035.018l.595,5.6s-.009.051-.034.069l-4.375,3.063s-.035,0-.035-.017l-.207-4.953s.009-.061.026-.069l3.987-3.693.008-.018Z" style="fill:#92b6da;"/></g><g style="opacity:.5;"><path d="M168.9999,157.6435s.034,0,.026.026l-1.795,5.341s-.035.043-.061.052l-5.255.957s-.034-.008-.026-.034l1.882-4.591s.034-.043.06-.051l5.169-1.692v-.008Z" style="fill:#92b6da;"/></g><g style="opacity:.5;"><path d="M158.0409,155.7605s.034,0,.026.026l-1.795,5.341s-.035.043-.061.052l-5.255.958s-.034-.009-.025-.035l1.881-4.59s.034-.044.06-.052l5.169-1.691v-.009Z" style="fill:#92b6da;"/></g><g style="opacity:.5;"><path d="M158.5929,146.0715s.017-.034.035-.017l4.469,3.425s.035.044.026.069l-.794,5.281s-.017.026-.043.018l-3.736-3.262s-.035-.052-.035-.069l.07-5.436.008-.009Z" style="fill:#92b6da;"/></g><g style="opacity:.5;"><path d="M156.7809,134.3205s.034-.009.034.017l.596,5.6s-.009.052-.035.069l-4.375,3.064s-.034,0-.034-.018l-.207-4.953s.008-.06.026-.069l3.986-3.693.009-.017Z" style="fill:#92b6da;"/></g><g style="opacity:.5;"><path d="M146.5809,154.0885s.035,0,.026.026l-1.794,5.341s-.035.043-.061.052l-5.255.958s-.034-.009-.026-.035l1.881-4.59s.035-.043.061-.052l5.168-1.691v-.009Z" style="fill:#92b6da;"/></g><g style="opacity:.5;"><path d="M147.1339,144.3995s.017-.034.035-.017l4.469,3.426s.035.043.026.069l-.794,5.28s-.017.026-.043.018l-3.736-3.262s-.035-.052-.035-.069l.069-5.436.009-.009Z" style="fill:#92b6da;"/></g><g style="opacity:.5;"><path d="M145.3219,132.6445s.034-.009.034.017l.596,5.6s-.009.052-.035.07l-4.375,3.063s-.034,0-.034-.018l-.207-4.952s.008-.061.026-.069l3.986-3.694.009-.017Z" style="fill:#92b6da;"/></g><g style="opacity:.5;"><path d="M135.6309,152.2055s.035,0,.026.026l-1.795,5.341s-.034.044-.06.052l-5.255.958s-.035-.009-.026-.035l1.881-4.59s.035-.043.061-.052l5.168-1.691v-.009Z" style="fill:#92b6da;"/></g><g style="opacity:.5;"><path d="M136.1749,142.5165s.017-.034.034-.017l4.47,3.426s.035.043.026.069l-.794,5.281s-.017.026-.043.017l-3.736-3.262s-.035-.052-.035-.069l.069-5.436.009-.009Z" style="fill:#92b6da;"/></g><g style="opacity:.5;"><path d="M134.3629,130.7615s.034-.008.034.018l.596,5.6s-.009.051-.035.069l-4.375,3.063s-.034,0-.034-.017l-.207-4.953s.008-.061.026-.069l3.986-3.693.009-.018Z" style="fill:#92b6da;"/></g><g style="opacity:.5;"><path d="M124.1719,150.7055s.034,0,.026.026l-1.795,5.341s-.035.044-.061.052l-5.255.958s-.034-.009-.025-.035l1.881-4.59s.034-.043.06-.052l5.169-1.691v-.009Z" style="fill:#92b6da;"/></g><g style="opacity:.5;"><path d="M124.7239,141.0165s.018-.034.035-.017l4.47,3.426s.034.043.026.069l-.794,5.281s-.017.026-.043.017l-3.737-3.262s-.034-.052-.034-.069l.069-5.436.008-.009Z" style="fill:#92b6da;"/></g><g style="opacity:.5;"><path d="M122.9119,129.2615s.035-.008.035.018l.595,5.6s-.009.051-.035.069l-4.374,3.063s-.035,0-.035-.017l-.207-4.953s.009-.061.026-.069l3.986-3.693.009-.018Z" style="fill:#92b6da;"/></g><g style="opacity:.5;"><path d="M113.2219,148.8265s.034,0,.026.026l-1.795,5.341s-.035.044-.061.052l-5.254.958s-.035-.009-.026-.034l1.881-4.591s.034-.043.06-.052l5.169-1.691v-.009Z" style="fill:#92b6da;"/></g><g style="opacity:.5;"><path d="M113.7739,139.1345s.017-.035.034-.018l4.47,3.426s.035.043.026.069l-.794,5.281s-.017.026-.043.017l-3.736-3.262s-.035-.051-.035-.069l.069-5.436.009-.008Z" style="fill:#92b6da;"/></g><g style="opacity:.5;"><path d="M149.7139,302.4205s.034,0,.026.026l-1.795,5.341s-.034.043-.06.052l-5.255.958s-.035-.009-.026-.035l1.881-4.59s.034-.043.06-.052l5.169-1.691v-.009Z" style="fill:#92b6da;"/></g><g style="opacity:.5;"><path d="M150.2579,292.7235s.017-.034.034-.017l4.47,3.426s.035.043.026.069l-.794,5.281s-.017.026-.043.017l-3.736-3.262s-.035-.052-.035-.069l.069-5.436.009-.009Z" style="fill:#92b6da;"/></g><g style="opacity:.5;"><path d="M148.4459,280.9685s.034-.008.034.018l.595,5.6s-.008.051-.034.069l-4.375,3.063s-.034,0-.034-.017l-.207-4.953s.008-.061.025-.069l3.987-3.693.009-.018Z" style="fill:#92b6da;"/></g><g style="opacity:.5;"><path d="M138.7549,300.5415s.035,0,.026.026l-1.795,5.341s-.034.043-.06.052l-5.255.958s-.035-.009-.026-.035l1.881-4.59s.035-.043.06-.052l5.169-1.691v-.009Z" style="fill:#92b6da;"/></g><g style="opacity:.5;"><path d="M139.3079,290.8485s.017-.034.034-.017l4.47,3.426s.034.043.026.069l-.794,5.281s-.017.026-.043.017l-3.736-3.262s-.035-.052-.035-.069l.069-5.436.009-.009Z" style="fill:#92b6da;"/></g><g style="opacity:.5;"><path d="M137.4949,279.0865s.035-.009.035.017l.595,5.6s-.009.052-.034.069l-4.375,3.063s-.035,0-.035-.017l-.207-4.953s.009-.06.026-.069l3.987-3.693.008-.017Z" style="fill:#92b6da;"/></g><g style="opacity:.5;"><path d="M123.6799,270.2255s.034,0,.026.026l-1.795,5.341s-.035.043-.061.052l-5.254.957s-.035-.008-.026-.034l1.881-4.591s.034-.043.06-.051l5.169-1.692v-.008Z" style="fill:#92b6da;"/></g><g style="opacity:.5;"><path d="M124.2239,260.5365s.017-.035.035-.017l4.469,3.425s.035.043.026.069l-.794,5.281s-.017.026-.043.017l-3.736-3.261s-.035-.052-.035-.069l.069-5.436.009-.009Z" style="fill:#92b6da;"/></g><g style="opacity:.5;"><path d="M122.4119,248.7815s.034-.009.034.017l.595,5.6s-.008.052-.034.069l-4.375,3.063s-.034,0-.034-.017l-.207-4.953s.008-.06.025-.069l3.987-3.693.009-.017Z" style="fill:#92b6da;"/></g><g style="opacity:.5;"><path d="M112.7209,268.3425s.035,0,.026.026l-1.795,5.341s-.034.043-.06.052l-5.255.958s-.034-.009-.026-.035l1.881-4.59s.035-.044.061-.052l5.168-1.691v-.009Z" style="fill:#92b6da;"/></g><g style="opacity:.5;"><path d="M113.2729,258.6535s.018-.034.035-.017l4.47,3.425s.034.044.025.07l-.793,5.28s-.018.026-.044.018l-3.736-3.262s-.034-.052-.034-.069l.069-5.436.008-.009Z" style="fill:#92b6da;"/></g><g style="opacity:.5;"><path d="M111.4609,246.9025s.035-.009.035.017l.595,5.6s-.008.052-.034.069l-4.375,3.064s-.035,0-.035-.018l-.207-4.953s.009-.06.026-.069l3.987-3.693.008-.017Z" style="fill:#92b6da;"/></g><g style="opacity:.5;"><path d="M146.4259,273.5925s.035,0,.026.026l-1.795,5.341s-.034.043-.06.052l-5.255.958s-.035-.009-.026-.035l1.881-4.59s.035-.044.061-.052l5.168-1.691v-.009Z" style="fill:#92b6da;"/></g><g style="opacity:.5;"><path d="M145.1659,252.1405s.035-.008.035.017l.595,5.601s-.008.051-.034.069l-4.375,3.063s-.035,0-.035-.017l-.207-4.953s.009-.061.026-.069l3.987-3.694.008-.017Z" style="fill:#92b6da;"/></g><g style="opacity:.5;"><path d="M135.4759,271.7095s.034,0,.026.026l-1.795,5.341s-.034.043-.06.052l-5.255.958s-.035-.009-.026-.035l1.881-4.59s.034-.043.06-.052l5.169-1.691v-.009Z" style="fill:#92b6da;"/></g><g style="opacity:.5;"><path d="M136.0279,262.0205s.017-.034.035-.017l4.469,3.426s.035.043.026.069l-.794,5.281s-.017.025-.043.017l-3.736-3.262s-.035-.052-.035-.069l.069-5.436.009-.009Z" style="fill:#92b6da;"/></g><g style="opacity:.5;"><path d="M134.2159,250.2575s.035-.008.035.018l.595,5.6s-.009.052-.035.069l-4.374,3.063s-.035,0-.035-.017l-.207-4.953s.009-.061.026-.069l3.986-3.693.009-.018Z" style="fill:#92b6da;"/></g><g style="opacity:.5;"><path d="M126.8819,291.2625s.017-.034.034-.017l4.47,3.426s.034.043.026.069l-.794,5.281s-.017.026-.043.017l-3.737-3.262s-.034-.051-.034-.069l.069-5.436.009-.009Z" style="fill:#92b6da;"/></g><g style="opacity:.5;"><path d="M125.0689,279.5075s.035-.008.035.018l.595,5.6s-.008.052-.034.069l-4.375,3.063s-.035,0-.035-.017l-.207-4.953s.009-.061.026-.069l3.987-3.693.008-.018Z" style="fill:#92b6da;"/></g><g style="opacity:.5;"><path d="M115.9309,289.3805s.017-.035.035-.018l4.469,3.426s.035.043.026.069l-.794,5.281s-.017.026-.043.017l-3.736-3.262s-.035-.051-.035-.069l.069-5.436.009-.008Z" style="fill:#92b6da;"/></g><g style="opacity:.5;"><path d="M114.1189,277.6295s.035-.009.035.017l.595,5.6s-.009.052-.035.069l-4.374,3.063s-.035,0-.035-.017l-.207-4.953s.009-.06.026-.069l3.986-3.693.009-.017Z" style="fill:#92b6da;"/></g><g style="opacity:.5;"><path d="M171.8379,307.6825s.035,0,.026.026l-1.795,5.341s-.034.043-.06.052l-5.255.958s-.035-.009-.026-.035l1.881-4.591s.035-.043.061-.051l5.168-1.692v-.008Z" style="fill:#92b6da;"/></g><g style="opacity:.5;"><path d="M160.8799,305.8035s.034,0,.026.026l-1.795,5.341s-.035.043-.061.052l-5.255.958s-.034-.009-.025-.035l1.881-4.59s.034-.044.06-.052l5.169-1.691v-.009Z" style="fill:#92b6da;"/></g><g style="opacity:.5;"><path d="M161.4319,296.1025s.017-.034.034-.017l4.47,3.426s.035.043.026.069l-.794,5.281s-.017.025-.043.017l-3.736-3.262s-.035-.052-.035-.069l.069-5.436.009-.009Z" style="fill:#92b6da;"/></g><g style="opacity:.5;"><path d="M159.6199,284.3475s.034-.008.034.018l.596,5.6s-.009.051-.035.069l-4.374,3.063s-.035,0-.035-.017l-.207-4.953s.009-.061.026-.069l3.986-3.693.009-.018Z" style="fill:#92b6da;"/></g><g style="opacity:.5;"><path d="M164.5299,224.1215s.034-.009.034.017l.596,5.6s-.009.052-.035.069l-4.375,3.063s-.034,0-.034-.017l-.207-4.953s.008-.06.026-.069l3.986-3.693.009-.017Z" style="fill:#92b6da;"/></g><g style="opacity:.5;"><path d="M154.8389,243.6905s.035,0,.026.026l-1.794,5.341s-.035.043-.061.052l-5.255.957s-.034-.008-.026-.034l1.881-4.591s.035-.043.061-.052l5.168-1.691v-.008Z" style="fill:#92b6da;"/></g><g style="opacity:.5;"><path d="M155.3919,233.9935s.017-.035.034-.017l4.47,3.425s.034.043.026.069l-.794,5.281s-.017.026-.043.017l-3.737-3.261s-.034-.052-.034-.069l.069-5.436.009-.009Z" style="fill:#92b6da;"/></g><g style="opacity:.5;"><path d="M153.5799,222.2385s.034-.009.034.017l.595,5.6s-.008.052-.034.069l-4.375,3.063s-.034,0-.034-.017l-.208-4.953s.009-.06.026-.069l3.987-3.693.009-.017Z" style="fill:#92b6da;"/></g><g style="opacity:.5;"><path d="M143.3799,242.0105s.034,0,.026.026l-1.795,5.341s-.035.043-.061.052l-5.255.958s-.034-.009-.025-.035l1.881-4.59s.034-.044.06-.052l5.169-1.691v-.009Z" style="fill:#92b6da;"/></g><g style="opacity:.5;"><path d="M143.9239,232.3215s.017-.034.034-.017l4.47,3.425s.035.044.026.069l-.794,5.281s-.017.026-.043.018l-3.736-3.262s-.035-.052-.035-.069l.069-5.436.009-.009Z" style="fill:#92b6da;"/></g><g style="opacity:.5;"><path d="M142.1119,220.5665s.034-.009.034.017l.595,5.6s-.008.052-.034.069l-4.375,3.064s-.034,0-.034-.018l-.208-4.953s.009-.06.026-.069l3.987-3.693.009-.017Z" style="fill:#92b6da;"/></g><g style="opacity:.5;"><path d="M132.4209,240.1395s.035,0,.026.026l-1.795,5.341s-.034.043-.06.052l-5.255.958s-.035-.009-.026-.035l1.881-4.591s.035-.043.061-.051l5.168-1.692v-.008Z" style="fill:#92b6da;"/></g><g style="opacity:.5;"><path d="M132.9729,230.4385s.018-.034.035-.017l4.47,3.426s.034.043.026.069l-.794,5.281s-.017.025-.043.017l-3.737-3.262s-.034-.052-.034-.069l.069-5.436.008-.009Z" style="fill:#92b6da;"/></g><g style="opacity:.5;"><path d="M131.1609,218.6875s.035-.009.035.017l.595,5.6s-.008.052-.034.069l-4.375,3.064s-.034,0-.034-.018l-.208-4.953s.009-.06.026-.069l3.987-3.693.008-.017Z" style="fill:#92b6da;"/></g><g style="opacity:.5;"><path d="M120.9699,238.6355s.035,0,.026.026l-1.795,5.341s-.034.043-.06.052l-5.255.958s-.034-.009-.026-.035l1.881-4.59s.035-.044.061-.052l5.168-1.691v-.009Z" style="fill:#92b6da;"/></g><g style="opacity:.5;"><path d="M121.5229,228.9345s.018-.034.035-.017l4.47,3.426s.034.043.026.069l-.794,5.281s-.018.025-.043.017l-3.737-3.262s-.034-.052-.034-.069l.069-5.436.008-.009Z" style="fill:#92b6da;"/></g><g style="opacity:.5;"><path d="M119.7109,217.1835s.034-.008.034.017l.596,5.601s-.009.051-.035.069l-4.375,3.063s-.034,0-.034-.017l-.207-4.953s.008-.061.025-.069l3.987-3.694.009-.017Z" style="fill:#92b6da;"/></g><g style="opacity:.5;"><path d="M110.0209,236.7565s.034,0,.025.026l-1.794,5.341s-.035.043-.061.052l-5.255.958s-.034-.009-.026-.035l1.882-4.59s.034-.043.06-.052l5.169-1.691v-.009Z" style="fill:#92b6da;"/></g><g style="opacity:.5;"><path d="M110.5639,227.0635s.017-.034.035-.017l4.469,3.426s.035.043.026.069l-.794,5.28s-.017.026-.043.018l-3.736-3.262s-.035-.052-.035-.069l.069-5.436.009-.009Z" style="fill:#92b6da;"/></g><g style="opacity:.5;"><path d="M108.7519,215.3005s.035-.008.035.018l.595,5.6s-.009.051-.034.069l-4.375,3.063s-.035,0-.035-.017l-.207-4.953s.009-.061.026-.069l3.986-3.693.009-.018Z" style="fill:#92b6da;"/></g></g><g style="mask:url(#d);"><path d="M83.0378,20.8062l.0603,7.1187c.0604,7.369,4.7892,13.297,10.5533,13.2452l5.4536-.0517c4.7459-.0432,8.9139,4.0037,10.1819,9.8454,3.616,16.6622,9.924,53.5587,9.009,104.9347-1.208,67.943-27.3281,124.004-30.8487,130.14-.1899.336-.3624.664-.5264,1.018L11.184,404.4335c-.768,1.225-3.8744,9.526-4.2714,11.01-.7162,2.71-.7248,5.678,0,8.439,7.9128,30.201,56.8652,193.656,113.5143,195.408,80.768,2.502,116.751,2.485,123.49-1.579.794-.475,1.51-1.061,2.183-1.777,9.527-10.096,74.529-104.012,87.05-199.403.388-2.977-.475-5.989-1.821-8.474-22.272-41.15-68.074-91.128-85.816-129.621-18.336-39.771-29.787-100.724-29.977-122.503-.146-16.973.061-78.1169.915-104.2794.224-6.8253,4.453-12.3046,9.794-12.6929,6.187-.4487,11.399-7.3,11.571-15.2212l.061-2.7353c.164-7.533-4.591-13.7716-10.484-13.7716l-133.9572.1208c-5.7901,0-10.4497,6.0315-10.3807,13.435l-.0172.0173Z" style="fill:#c59b6d; stroke:#c59b6d; stroke-miterlimit:10; stroke-width:9px;"/></g><line x1="109.6764" y1="520.4619" x2="109.9976" y2="520.3052" style="fill:none; stroke:#511e68; stroke-miterlimit:4; stroke-width:1px;"/><line x1="93.8813" y1="520.7566" x2="93.6815" y2="520.47" style="fill:none; stroke:#511e68; stroke-miterlimit:4; stroke-width:1px;"/><path d="M176.4015,403.3053c3.6043,8.8635,3.0891,19.9169,2.6154,30.4208-.0073.1579-.0254.3156-.0521.4734-.3053,1.8054,1.9215,2.8359,3.0201,1.371,6.2801-8.3741,15.1507-16.6608,24.8311-20.9015,1.4449-.633,2.8866.8996,2.2022,2.3208-4.8119,9.9914-12.5868,18.3638-21.2767,24.7644-1.4992,1.1042-.4134,3.4497,1.3979,3.0183.3157-.0752.6344-.1384.9586-.1787,10.4447-1.291,20.9055-.8696,31.368,2.8798,1.5115.5417,1.5168,2.6731.0074,3.2205-10.4892,3.8039-21.4926,4.2177-32.684,2.6029-1.7365-.2506-2.6568,1.9861-1.2513,3.0364,5.1631,3.8584,10.2165,8.1162,13.8603,13.024,2.8203,3.8018,5.7433,7.4363,7.7302,11.9195.6411,1.4465-.8512,2.9032-2.2876,2.2396-10.1199-4.6748-18.2832-12.0733-24.9317-20.8805-1.1044-1.463-3.341-.437-3.0293,1.3694.0333.193.0571.3863.0685.5803.5905,10.3827,1.0706,21.7125-2.9709,31.6818-.5756,1.42-2.6124,1.4152-3.1689-.0124-2.2361-5.7361-2.8578-11.6286-3.3891-17.5539-.4814-5.3227-.0581-10.1613.7717-15.2082.288-1.7515-1.9379-2.7304-3.0178-1.3216-6.6577,8.6859-15.0225,16.872-25.0272,21.1766-1.4547.6259-2.8865-.9143-2.1913-2.3371,4.9582-10.1479,12.3566-18.1351,21.1835-24.6728,1.4218-1.0531.4847-3.297-1.2654-3.037-5.7504.8544-11.2008,1.2938-16.9814.5679-5.3408-.6711-10.7535-1.1226-15.8217-3.1462-1.4722-.5878-1.4527-2.6503.0346-3.1985,10.5689-3.896,21.0523-4.1376,32.389-2.9353,1.7123.1816,2.5822-1.9784,1.2238-3.0365-8.6571-6.7426-16.1408-14.3666-20.8746-24.6166-.67-1.4508.8249-2.9497,2.2732-2.2743,9.8522,4.5945,18.4062,12.4547,25.1423,21.3936,1.0536,1.3981,3.278.4588,3.0293-1.2741l-.8273-5.7647c-1.1022-7.6984.6719-19.268,3.394-27.4335.5341-1.6022,2.8568-1.5047,3.2598.1355.1353.5507.2252,1.11.2939,1.587h-.0066Z" style="fill:#603813;"/><path d="M192.5063,408.2631c.0639,9.5681-4.5099,19.6439-8.8416,29.2248-.0653.1439-.1405.2837-.2238.4204-.9525,1.5638.7341,3.346,2.2972,2.3924,8.9357-5.4513,20.2453-9.8618,30.8079-10.2141,1.5766-.0526,2.3479,1.905,1.1856,2.9715-8.1712,7.4975-18.4948,12.3935-28.9377,15.119-1.8016.4702-1.6621,3.051.1801,3.3214.3211.0471.6405.1065.9566.1891,10.1797,2.6706,19.7399,6.9378,28.0687,14.2967,1.2032,1.0631.4185,3.0448-1.1863,2.994-11.152-.353-21.5257-4.0455-31.3224-9.6917-1.5201-.8761-3.2035.8604-2.2873,2.3567,3.3661,5.4967,6.4824,11.3237,8.0485,17.2324,1.211,4.5762,2.5794,9.035,2.7639,13.9352.0595,1.5811-1.8663,2.3812-2.9546,1.2327-7.6677-8.0915-12.5088-17.988-15.4212-28.6316-.4838-1.7681-2.9413-1.6438-3.3211.1495-.0406.1916-.0901.38-.1513.5644-3.2983,9.8626-7.0501,20.5639-14.4975,28.3263-1.0608,1.1056-2.9508.3466-2.9388-1.1856.0483-6.1564,1.654-11.8598,3.3558-17.5603,1.5249-5.1223,3.7108-9.4596,6.3514-13.84.9164-1.5202-.7884-3.2541-2.3134-2.3456-9.402,5.601-20.2044,10.1055-31.0919,10.3969-1.583.0424-2.3423-1.9187-1.1695-2.9827,8.3651-7.5887,18.1963-12.2664,28.8171-15.0684,1.7108-.4514,1.6718-2.8828-.0502-3.2897-5.6577-1.3369-10.8831-2.9481-15.9833-5.7641-4.712-2.6021-9.5723-5.0268-13.53-8.7842-1.1496-1.0914-.3674-2.9999,1.2172-2.9581,11.2602.2971,21.0871,3.9567,31.1715,9.2737,1.5231.8031,3.1315-.8809,2.2617-2.367-5.5428-9.4702-9.6693-19.3243-10.2685-30.5987-.0848-1.5958,1.8591-2.4342,2.9541-1.2702,7.4488,7.9177,12.4818,18.3878,15.4267,29.1863.4606,1.689,2.8747,1.6406,3.2858-.0611l1.3674-5.6609c1.8285-7.5588,7.7628-17.6478,13.3166-24.2237,1.0898-1.2903,3.2109-.3392,2.9776,1.3336-.0783.5616-.202,1.1144-.315,1.583l-.0061-.0024Z" style="fill:#603813;"/></svg>