<?xml version="1.0" encoding="UTF-8"?><svg id="a" xmlns="http://www.w3.org/2000/svg" xmlns:xlink="http://www.w3.org/1999/xlink" viewBox="0 0 340 625"><defs><mask id="b" x="0" y="2.5586" width="339.12" height="622.7669" maskUnits="userSpaceOnUse"><g id="c"><path d="M338.62,519.845h-118.311l-23.197-21.512-.753-.698-.085,1.022-1.769,21.188h-58.065l-7.723-7.165-.751-.697-.087,1.021-.586,6.8409h-16.53l-4.251-8.251-.263-.511-.47.331-11.9499,8.431h-15.5303l-14.8603-28.744-.7979-1.542-.1445,1.73-2.3945,28.556h-14.8428l-28.1592-13.377-.6523-.311-.0606.721-1.0791,12.967H.5v-158.911c15.5941,3.98,35.0419,7.343,57.2764,9.882v-.001c2.706.332,5.4639.629,8.2734.909l13.8106,11.176.8144.66v-10.489c3.4057.296,6.8766.562,10.3857.804l33.4955,27.105.814.66v-26.034c10.813.37,21.953.542,33.293.542h2.831l7.594,24.582.977-.147v-24.502c4.383-.037,8.735-.115,13.025-.234l-.001-.001c2.981-.062,5.919-.142,8.846-.24,5.763-.183,11.452-.417,17.047-.711l4.865,7.871.298.483.441-.357,11.098-8.982c5.254-.371,10.385-.784,15.432-1.23l17.414,28.175.926,1.498v-31.518c3.65-.416,7.231-.861,10.751-1.315l33.256,13.456.688.278v-19.385c5.644-1.18,10.894-2.419,15.742-3.731l5.786,4.682.304-.378.314.387.491-.397-.001-.001,11.833-9.576v164.99Z" style="fill:#c59b6d; stroke:#c59b6d;"/></g></mask></defs><path d="M83.8737,20.3036l.0603,7.1187c.0604,7.369,4.7891,13.297,10.5533,13.2452l5.4536-.0518c4.7461-.0431,8.9141,4.0038,10.1821,9.8455,3.616,16.6622,9.923,53.5588,9.009,104.9348-1.208,67.943-27.3283,124.004-30.8489,130.139-.1899.337-.3624.665-.5264,1.019L12.0199,403.931c-.768,1.225-3.8744,9.526-4.2714,11.01-.7162,2.71-.7248,5.678,0,8.439,7.9128,30.201,56.8652,193.656,113.5145,195.408,80.768,2.502,116.751,2.485,123.49-1.579.794-.475,1.51-1.061,2.183-1.778,9.526-10.095,74.529-104.011,87.049-199.402.389-2.977-.474-5.989-1.82-8.474-22.272-41.151-68.075-91.129-85.816-129.622-18.336-39.77-29.787-100.723-29.977-122.503-.147-16.972.06-78.116.915-104.2785.224-6.8254,4.452-12.3047,9.794-12.693,6.187-.4487,11.399-7.2999,11.571-15.2211l.061-2.7354c.164-7.5329-4.591-13.7715-10.485-13.7715l-133.9564.1208c-5.7901,0-10.4497,6.0315-10.3807,13.435l-.0172.0173Z" style="fill:#dcd6cb; stroke:#dcd6cb; stroke-miterlimit:10; stroke-width:9px;"/><path d="M116.793,63.0508c8.025,27.5603,11.356,56.3462,11.995,84.9932,1.527,71.783-19.148,144.912-63.5444,201.931-8.8361,11.321-18.397,22.047-28.7259,31.961,9.6386-10.578,18.725-21.632,27.0261-33.22,8.232-11.589,15.8342-23.738,22.4785-36.302,40.0387-75.251,48.3307-166.553,30.7707-249.3632Z" style="fill:#e2e3e2;"/><path d="M304.147,378.448c-78.257-69.669-109.891-173.879-95.144-276.354,2.123-14.2982,4.902-28.5529,9.311-42.3245-.915,3.4947-1.674,7.0152-2.382,10.553-4.901,24.6956-7.067,49.9435-6.972,75.0875.345,88.937,32.298,169.806,95.187,233.038Z" style="fill:#e2e3e2;"/><path d="M90.0611,595.578c46.1389,9.82,94.9969,15.791,141.5419,5.704,6.627-1.519,13.15-3.469,19.631-5.704-6.11,3.106-12.521,5.635-19.079,7.749-44.215,13.366-98.906,7.36-142.0939-7.749Z" style="fill:#e2e3e2;"/><path d="M22.9443,403.484c-1.7948,8.871-3.2789,17.663-.9923,26.508.2502,1.355.7421,2.563.9923,3.943-.5436-.44-1.0441-.923-1.5446-1.423-7.4725-7.861-6.066-21.745,1.5446-29.028Z" style="fill:#e2e3e2;"/><path d="M316.495,431.659c.604-2.554,1.406-5.1,1.726-7.706.785-5.004.457-9.871-.311-14.893-.397-2.537-.889-5.108-1.415-7.861,8.154,7.732,9.103,23.074,0,30.451v.009Z" style="fill:#e2e3e2;"/><path d="M95.2385,346.049s52.8615-61.652,121.5485-1.38-121.5485,1.38-121.5485,1.38Z" style="fill:#f18cb8;"/><path d="M38.6664,435.702c6.2992,29.856,21.7365,94.382,43.9131,129.682,4.9875,7.947,12.7623,18.483,21.5725,20.218,37.027,7.291,99.527,4.038,128.9,1.915,10.795-.776,20.572-12.149,26.189-22.0291,12.115-21.287,32.186-64.604,42.74-131.814,1.337-8.516-.207-17.274-4.444-24.626-17.198-29.856-41.152-59.539-61.534-78.505-5.358-4.987-12.037-8.18-19.139-8.706-8.845-.656-18.44,1.432-27.889,3.926-15.756,4.168-31.893,6.471-48.124,6.756-19.562.345-38.27,7.222-53.6809,19.277-7.7575,6.066-14.6779,13.444-20.4508,21.96l-22.5217,33.204c-5.6261,8.292-7.6366,18.75-5.5312,28.734v.008Z" style="fill:#d0518e;"/><g style="opacity:.5;"><g style="opacity:.5;"><path d="M153.268,214.313s.034-.001.026.025l-1.795,5.342s-.035.043-.06.051l-5.255.958s-.035-.008-.026-.034l1.881-4.591s.034-.043.06-.052l5.169-1.691v-.008Z" style="fill:#92b6da;"/></g><g style="opacity:.5;"><path d="M153.821,204.624s.017-.035.034-.018l4.47,3.426s.034.043.026.069l-.794,5.281s-.017.026-.043.017l-3.737-3.262s-.034-.051-.034-.069l.069-5.436.009-.008Z" style="fill:#92b6da;"/></g><g style="opacity:.5;"><path d="M152,192.872s.034-.008.034.018l.596,5.6s-.009.052-.035.069l-4.375,3.063s-.034,0-.034-.017l-.207-4.953s.008-.061.025-.069l3.987-3.693.009-.018Z" style="fill:#92b6da;"/></g><g style="opacity:.5;"><path d="M142.318,212.434s.034,0,.026.025l-1.795,5.342s-.035.043-.06.051l-5.255.958s-.035-.008-.026-.034l1.881-4.591s.034-.043.06-.052l5.169-1.691v-.008Z" style="fill:#92b6da;"/></g><g style="opacity:.5;"><path d="M142.862,202.745s.017-.035.034-.018l4.47,3.426s.034.043.026.069l-.794,5.281s-.017.026-.043.017l-3.736-3.261s-.035-.052-.035-.069l.069-5.437.009-.008Z" style="fill:#92b6da;"/></g><g style="opacity:.5;"><path d="M141.049,190.99s.035-.009.035.017l.595,5.6s-.008.052-.034.069l-4.375,3.063s-.035,0-.035-.017l-.207-4.953s.009-.06.026-.069l3.987-3.693.008-.017Z" style="fill:#92b6da;"/></g><g style="opacity:.5;"><path d="M127.234,182.133s.035,0,.026.026l-1.795,5.341s-.034.043-.06.052l-5.255.957s-.035-.008-.026-.034l1.881-4.591s.035-.043.061-.051l5.168-1.692v-.008Z" style="fill:#92b6da;"/></g><g style="opacity:.5;"><path d="M127.787,172.432s.017-.034.034-.017l4.47,3.426s.035.043.026.069l-.794,5.28s-.017.026-.043.018l-3.736-3.262s-.035-.052-.035-.069l.069-5.436.009-.009Z" style="fill:#92b6da;"/></g><g style="opacity:.5;"><path d="M125.966,160.677s.034-.008.034.017l.596,5.601s-.009.051-.035.069l-4.375,3.063s-.034,0-.034-.018l-.207-4.952s.008-.061.026-.069l3.986-3.694.009-.017Z" style="fill:#92b6da;"/></g><g style="opacity:.5;"><path d="M116.284,180.25s.035,0,.026.026l-1.795,5.341s-.034.043-.06.052l-5.255.958s-.035-.009-.026-.035l1.881-4.59s.034-.043.06-.052l5.169-1.691v-.009Z" style="fill:#92b6da;"/></g><g style="opacity:.5;"><path d="M116.828,170.557s.017-.034.034-.017l4.47,3.426s.034.043.026.069l-.794,5.28s-.017.026-.043.018l-3.737-3.262s-.034-.052-.034-.069l.069-5.436.009-.009Z" style="fill:#92b6da;"/></g><g style="opacity:.5;"><path d="M115.016,158.798s.034-.008.034.018l.595,5.6s-.008.051-.034.069l-4.375,3.063s-.034,0-.034-.017l-.207-4.953s.008-.061.025-.069l3.987-3.693.009-.018Z" style="fill:#92b6da;"/></g><g style="opacity:.5;"><path d="M149.989,185.484s.035,0,.026.026l-1.795,5.341s-.034.044-.06.052l-5.255.958s-.035-.009-.026-.034l1.881-4.591s.035-.043.06-.052l5.169-1.691v-.009Z" style="fill:#92b6da;"/></g><g style="opacity:.5;"><path d="M150.533,175.796s.017-.035.035-.018l4.469,3.426s.035.043.026.069l-.794,5.281s-.017.026-.043.017l-3.736-3.262s-.035-.051-.035-.069l.069-5.436.009-.008Z" style="fill:#92b6da;"/></g><g style="opacity:.5;"><path d="M148.721,164.04s.034-.008.034.018l.596,5.6s-.009.052-.035.069l-4.375,3.063s-.034,0-.034-.017l-.207-4.953s.009-.061.026-.069l3.986-3.693.009-.018Z" style="fill:#92b6da;"/></g><g style="opacity:.5;"><path d="M139.03,183.613s.035,0,.026.026l-1.795,5.341s-.034.044-.06.052l-5.255.958s-.035-.009-.026-.035l1.881-4.59s.035-.043.061-.052l5.168-1.691v-.009Z" style="fill:#92b6da;"/></g><g style="opacity:.5;"><path d="M139.583,173.917s.017-.035.034-.018l4.47,3.426s.035.043.026.069l-.794,5.281s-.017.026-.043.017l-3.736-3.262s-.035-.051-.035-.069l.069-5.436.009-.008Z" style="fill:#92b6da;"/></g><g style="opacity:.5;"><path d="M137.77,162.162s.035-.009.035.017l.595,5.6s-.008.052-.034.069l-4.375,3.063s-.034,0-.034-.017l-.208-4.953s.009-.06.026-.069l3.987-3.693.008-.017Z" style="fill:#92b6da;"/></g><g style="opacity:.5;"><path d="M129.892,212.859s.035,0,.026.026l-1.795,5.341s-.034.044-.06.052l-5.255.958s-.035-.009-.026-.034l1.881-4.591s.034-.043.06-.052l5.169-1.691v-.009Z" style="fill:#92b6da;"/></g><g style="opacity:.5;"><path d="M130.436,203.171s.017-.035.035-.018l4.469,3.426s.035.043.026.069l-.794,5.281s-.017.026-.043.017l-3.736-3.262s-.035-.051-.035-.069l.069-5.436.009-.008Z" style="fill:#92b6da;"/></g><g style="opacity:.5;"><path d="M128.624,191.408s.034-.009.034.017l.596,5.6s-.009.052-.035.069l-4.375,3.063s-.034,0-.034-.017l-.207-4.953s.008-.06.025-.069l3.987-3.693.009-.017Z" style="fill:#92b6da;"/></g><g style="opacity:.5;"><path d="M118.933,210.977s.035,0,.026.025l-1.795,5.342s-.034.043-.06.051l-5.255.958s-.035-.008-.026-.034l1.881-4.591s.035-.043.061-.052l5.168-1.691v-.008Z" style="fill:#92b6da;"/></g><g style="opacity:.5;"><path d="M119.486,201.288s.017-.035.034-.018l4.47,3.426s.034.043.026.069l-.794,5.281s-.017.026-.043.017l-3.737-3.261s-.034-.052-.034-.07l.069-5.436.009-.008Z" style="fill:#92b6da;"/></g><g style="opacity:.5;"><path d="M117.673,189.533s.035-.009.035.017l.595,5.6s-.008.052-.034.069l-4.375,3.063s-.034,0-.034-.017l-.208-4.953s.009-.06.026-.069l3.987-3.693.008-.017Z" style="fill:#92b6da;"/></g><g style="opacity:.5;"><path d="M171.026,189.289s.035,0,.026.026l-1.795,5.341s-.034.043-.06.052l-5.255.958s-.034-.009-.026-.035l1.881-4.59s.035-.043.061-.052l5.168-1.691v-.009Z" style="fill:#92b6da;"/></g><g style="opacity:.5;"><path d="M171.579,179.6s.017-.034.035-.017l4.469,3.426s.035.043.026.069l-.794,5.28s-.017.026-.043.018l-3.736-3.262s-.035-.052-.035-.069l.069-5.436.009-.009Z" style="fill:#92b6da;"/></g><g style="opacity:.5;"><path d="M169.766,167.849s.035-.009.035.017l.595,5.6s-.008.052-.034.069l-4.375,3.064s-.035,0-.035-.018l-.207-4.953s.009-.06.026-.069l3.987-3.693.008-.017Z" style="fill:#92b6da;"/></g><g style="opacity:.5;"><path d="M160.076,187.418s.035,0,.026.026l-1.795,5.341s-.034.043-.06.052l-5.255.958s-.034-.009-.026-.035l1.881-4.59s.035-.044.061-.052l5.168-1.691v-.009Z" style="fill:#92b6da;"/></g><g style="opacity:.5;"><path d="M160.62,177.721s.017-.034.034-.017l4.47,3.426s.035.043.026.069l-.794,5.281s-.017.025-.043.017l-3.736-3.262s-.035-.052-.035-.069l.069-5.436.009-.009Z" style="fill:#92b6da;"/></g><g style="opacity:.5;"><path d="M158.808,165.966s.034-.008.034.017l.596,5.601s-.009.051-.035.069l-4.375,3.063s-.034,0-.034-.017l-.207-4.953s.008-.061.026-.069l3.986-3.694.009-.017Z" style="fill:#92b6da;"/></g><g style="opacity:.5;"><path d="M174.133,198.138s.035-.009.035.017l.595,5.6s-.008.052-.034.069l-4.375,3.064s-.035,0-.035-.018l-.207-4.952s.009-.061.026-.07l3.987-3.693.008-.017Z" style="fill:#92b6da;"/></g><g style="opacity:.5;"><path d="M164.443,217.699s.034,0,.026.026l-1.795,5.341s-.035.043-.061.052l-5.255.958s-.034-.009-.025-.035l1.881-4.59s.034-.043.06-.052l5.169-1.691v-.009Z" style="fill:#92b6da;"/></g><g style="opacity:.5;"><path d="M164.986,208.01s.017-.034.035-.017l4.469,3.426s.035.043.026.069l-.793,5.281s-.018.025-.044.017l-3.736-3.262s-.034-.052-.034-.069l.069-5.436.008-.009Z" style="fill:#92b6da;"/></g><g style="opacity:.5;"><path d="M163.174,196.255s.035-.008.035.018l.595,5.6s-.009.051-.034.069l-4.375,3.063s-.035,0-.035-.017l-.207-4.953s.009-.061.026-.069l3.987-3.693.008-.018Z" style="fill:#92b6da;"/></g><g style="opacity:.5;"><path d="M169.353,157.469s.034,0,.026.026l-1.795,5.341s-.035.043-.061.052l-5.255.957s-.034-.008-.026-.034l1.882-4.591s.034-.043.06-.051l5.169-1.692v-.008Z" style="fill:#92b6da;"/></g><g style="opacity:.5;"><path d="M158.394,155.586s.034,0,.026.026l-1.795,5.341s-.035.043-.061.052l-5.255.958s-.034-.009-.025-.035l1.881-4.59s.034-.044.06-.052l5.169-1.691v-.009Z" style="fill:#92b6da;"/></g><g style="opacity:.5;"><path d="M158.946,145.897s.017-.034.035-.017l4.469,3.425s.035.044.026.069l-.794,5.281s-.017.026-.043.018l-3.736-3.262s-.035-.052-.035-.069l.07-5.436.008-.009Z" style="fill:#92b6da;"/></g><g style="opacity:.5;"><path d="M157.134,134.146s.034-.009.034.017l.596,5.6s-.009.052-.035.069l-4.375,3.064s-.034,0-.034-.018l-.207-4.953s.008-.06.026-.069l3.986-3.693.009-.017Z" style="fill:#92b6da;"/></g><g style="opacity:.5;"><path d="M146.934,153.914s.035,0,.026.026l-1.794,5.341s-.035.043-.061.052l-5.255.958s-.034-.009-.026-.035l1.881-4.59s.035-.043.061-.052l5.168-1.691v-.009Z" style="fill:#92b6da;"/></g><g style="opacity:.5;"><path d="M147.487,144.225s.017-.034.035-.017l4.469,3.426s.035.043.026.069l-.794,5.28s-.017.026-.043.018l-3.736-3.262s-.035-.052-.035-.069l.069-5.436.009-.009Z" style="fill:#92b6da;"/></g><g style="opacity:.5;"><path d="M145.675,132.47s.034-.009.034.017l.596,5.6s-.009.052-.035.07l-4.375,3.063s-.034,0-.034-.018l-.207-4.952s.008-.061.026-.069l3.986-3.694.009-.017Z" style="fill:#92b6da;"/></g><g style="opacity:.5;"><path d="M135.984,152.031s.035,0,.026.026l-1.795,5.341s-.034.044-.06.052l-5.255.958s-.035-.009-.026-.035l1.881-4.59s.035-.043.061-.052l5.168-1.691v-.009Z" style="fill:#92b6da;"/></g><g style="opacity:.5;"><path d="M136.528,142.342s.017-.034.034-.017l4.47,3.426s.035.043.026.069l-.794,5.281s-.017.026-.043.017l-3.736-3.262s-.035-.052-.035-.069l.069-5.436.009-.009Z" style="fill:#92b6da;"/></g><g style="opacity:.5;"><path d="M134.716,130.587s.034-.008.034.018l.596,5.6s-.009.051-.035.069l-4.375,3.063s-.034,0-.034-.017l-.207-4.953s.008-.061.026-.069l3.986-3.693.009-.018Z" style="fill:#92b6da;"/></g><g style="opacity:.5;"><path d="M124.525,150.531s.034,0,.026.026l-1.795,5.341s-.035.044-.061.052l-5.255.958s-.034-.009-.025-.035l1.881-4.59s.034-.043.06-.052l5.169-1.691v-.009Z" style="fill:#92b6da;"/></g><g style="opacity:.5;"><path d="M125.077,140.842s.018-.034.035-.017l4.47,3.426s.034.043.026.069l-.794,5.281s-.017.026-.043.017l-3.737-3.262s-.034-.052-.034-.069l.069-5.436.008-.009Z" style="fill:#92b6da;"/></g><g style="opacity:.5;"><path d="M123.265,129.087s.035-.008.035.018l.595,5.6s-.009.051-.035.069l-4.374,3.063s-.035,0-.035-.017l-.207-4.953s.009-.061.026-.069l3.986-3.693.009-.018Z" style="fill:#92b6da;"/></g><g style="opacity:.5;"><path d="M113.575,148.652s.034,0,.026.026l-1.795,5.341s-.035.044-.061.052l-5.254.958s-.035-.009-.026-.034l1.881-4.591s.034-.043.06-.052l5.169-1.691v-.009Z" style="fill:#92b6da;"/></g><g style="opacity:.5;"><path d="M114.127,138.96s.017-.035.034-.018l4.47,3.426s.035.043.026.069l-.794,5.281s-.017.026-.043.017l-3.736-3.262s-.035-.051-.035-.069l.069-5.436.009-.008Z" style="fill:#92b6da;"/></g><g style="opacity:.5;"><path d="M150.067,302.246s.034,0,.026.026l-1.795,5.341s-.034.043-.06.052l-5.255.958s-.035-.009-.026-.035l1.881-4.59s.034-.043.06-.052l5.169-1.691v-.009Z" style="fill:#92b6da;"/></g><g style="opacity:.5;"><path d="M150.611,292.549s.017-.034.034-.017l4.47,3.426s.035.043.026.069l-.794,5.281s-.017.026-.043.017l-3.736-3.262s-.035-.052-.035-.069l.069-5.436.009-.009Z" style="fill:#92b6da;"/></g><g style="opacity:.5;"><path d="M148.799,280.794s.034-.008.034.018l.595,5.6s-.008.051-.034.069l-4.375,3.063s-.034,0-.034-.017l-.207-4.953s.008-.061.025-.069l3.987-3.693.009-.018Z" style="fill:#92b6da;"/></g><g style="opacity:.5;"><path d="M139.108,300.367s.035,0,.026.026l-1.795,5.341s-.034.043-.06.052l-5.255.958s-.035-.009-.026-.035l1.881-4.59s.035-.043.06-.052l5.169-1.691v-.009Z" style="fill:#92b6da;"/></g><g style="opacity:.5;"><path d="M139.661,290.674s.017-.034.034-.017l4.47,3.426s.034.043.026.069l-.794,5.281s-.017.026-.043.017l-3.736-3.262s-.035-.052-.035-.069l.069-5.436.009-.009Z" style="fill:#92b6da;"/></g><g style="opacity:.5;"><path d="M137.848,278.912s.035-.009.035.017l.595,5.6s-.009.052-.034.069l-4.375,3.063s-.035,0-.035-.017l-.207-4.953s.009-.06.026-.069l3.987-3.693.008-.017Z" style="fill:#92b6da;"/></g><g style="opacity:.5;"><path d="M124.033,270.051s.034,0,.026.026l-1.795,5.341s-.035.043-.061.052l-5.254.957s-.035-.008-.026-.034l1.881-4.591s.034-.043.06-.051l5.169-1.692v-.008Z" style="fill:#92b6da;"/></g><g style="opacity:.5;"><path d="M124.577,260.362s.017-.035.035-.017l4.469,3.425s.035.043.026.069l-.794,5.281s-.017.026-.043.017l-3.736-3.261s-.035-.052-.035-.069l.069-5.436.009-.009Z" style="fill:#92b6da;"/></g><g style="opacity:.5;"><path d="M122.765,248.607s.034-.009.034.017l.595,5.6s-.008.052-.034.069l-4.375,3.063s-.034,0-.034-.017l-.207-4.953s.008-.06.025-.069l3.987-3.693.009-.017Z" style="fill:#92b6da;"/></g><g style="opacity:.5;"><path d="M113.074,268.168s.035,0,.026.026l-1.795,5.341s-.034.043-.06.052l-5.255.958s-.034-.009-.026-.035l1.881-4.59s.035-.044.061-.052l5.168-1.691v-.009Z" style="fill:#92b6da;"/></g><g style="opacity:.5;"><path d="M113.626,258.479s.018-.034.035-.017l4.47,3.425s.034.044.025.07l-.793,5.28s-.018.026-.044.018l-3.736-3.262s-.034-.052-.034-.069l.069-5.436.008-.009Z" style="fill:#92b6da;"/></g><g style="opacity:.5;"><path d="M111.814,246.728s.035-.009.035.017l.595,5.6s-.008.052-.034.069l-4.375,3.064s-.035,0-.035-.018l-.207-4.953s.009-.06.026-.069l3.987-3.693.008-.017Z" style="fill:#92b6da;"/></g><g style="opacity:.5;"><path d="M146.779,273.418s.035,0,.026.026l-1.795,5.341s-.034.043-.06.052l-5.255.958s-.035-.009-.026-.035l1.881-4.59s.035-.044.061-.052l5.168-1.691v-.009Z" style="fill:#92b6da;"/></g><g style="opacity:.5;"><path d="M145.519,251.966s.035-.008.035.017l.595,5.601s-.008.051-.034.069l-4.375,3.063s-.035,0-.035-.017l-.207-4.953s.009-.061.026-.069l3.987-3.694.008-.017Z" style="fill:#92b6da;"/></g><g style="opacity:.5;"><path d="M135.829,271.535s.034,0,.026.026l-1.795,5.341s-.034.043-.06.052l-5.255.958s-.035-.009-.026-.035l1.881-4.59s.034-.043.06-.052l5.169-1.691v-.009Z" style="fill:#92b6da;"/></g><g style="opacity:.5;"><path d="M136.381,261.846s.017-.034.035-.017l4.469,3.426s.035.043.026.069l-.794,5.281s-.017.025-.043.017l-3.736-3.262s-.035-.052-.035-.069l.069-5.436.009-.009Z" style="fill:#92b6da;"/></g><g style="opacity:.5;"><path d="M134.569,250.083s.035-.008.035.018l.595,5.6s-.009.052-.035.069l-4.374,3.063s-.035,0-.035-.017l-.207-4.953s.009-.061.026-.069l3.986-3.693.009-.018Z" style="fill:#92b6da;"/></g><g style="opacity:.5;"><path d="M127.235,291.088s.017-.034.034-.017l4.47,3.426s.034.043.026.069l-.794,5.281s-.017.026-.043.017l-3.737-3.262s-.034-.051-.034-.069l.069-5.436.009-.009Z" style="fill:#92b6da;"/></g><g style="opacity:.5;"><path d="M125.422,279.333s.035-.008.035.018l.595,5.6s-.008.052-.034.069l-4.375,3.063s-.035,0-.035-.017l-.207-4.953s.009-.061.026-.069l3.987-3.693.008-.018Z" style="fill:#92b6da;"/></g><g style="opacity:.5;"><path d="M116.284,289.206s.017-.035.035-.018l4.469,3.426s.035.043.026.069l-.794,5.281s-.017.026-.043.017l-3.736-3.262s-.035-.051-.035-.069l.069-5.436.009-.008Z" style="fill:#92b6da;"/></g><g style="opacity:.5;"><path d="M114.472,277.455s.035-.009.035.017l.595,5.6s-.009.052-.035.069l-4.374,3.063s-.035,0-.035-.017l-.207-4.953s.009-.06.026-.069l3.986-3.693.009-.017Z" style="fill:#92b6da;"/></g><g style="opacity:.5;"><path d="M172.191,307.508s.035,0,.026.026l-1.795,5.341s-.034.043-.06.052l-5.255.958s-.035-.009-.026-.035l1.881-4.591s.035-.043.061-.051l5.168-1.692v-.008Z" style="fill:#92b6da;"/></g><g style="opacity:.5;"><path d="M161.233,305.629s.034,0,.026.026l-1.795,5.341s-.035.043-.061.052l-5.255.958s-.034-.009-.025-.035l1.881-4.59s.034-.044.06-.052l5.169-1.691v-.009Z" style="fill:#92b6da;"/></g><g style="opacity:.5;"><path d="M161.785,295.928s.017-.034.034-.017l4.47,3.426s.035.043.026.069l-.794,5.281s-.017.025-.043.017l-3.736-3.262s-.035-.052-.035-.069l.069-5.436.009-.009Z" style="fill:#92b6da;"/></g><g style="opacity:.5;"><path d="M159.973,284.173s.034-.008.034.018l.596,5.6s-.009.051-.035.069l-4.374,3.063s-.035,0-.035-.017l-.207-4.953s.009-.061.026-.069l3.986-3.693.009-.018Z" style="fill:#92b6da;"/></g><g style="opacity:.5;"><path d="M164.883,223.947s.034-.009.034.017l.596,5.6s-.009.052-.035.069l-4.375,3.063s-.034,0-.034-.017l-.207-4.953s.008-.06.026-.069l3.986-3.693.009-.017Z" style="fill:#92b6da;"/></g><g style="opacity:.5;"><path d="M155.192,243.516s.035,0,.026.026l-1.794,5.341s-.035.043-.061.052l-5.255.957s-.034-.008-.026-.034l1.881-4.591s.035-.043.061-.052l5.168-1.691v-.008Z" style="fill:#92b6da;"/></g><g style="opacity:.5;"><path d="M155.745,233.819s.017-.035.034-.017l4.47,3.425s.034.043.026.069l-.794,5.281s-.017.026-.043.017l-3.737-3.261s-.034-.052-.034-.069l.069-5.436.009-.009Z" style="fill:#92b6da;"/></g><g style="opacity:.5;"><path d="M153.933,222.064s.034-.009.034.017l.595,5.6s-.008.052-.034.069l-4.375,3.063s-.034,0-.034-.017l-.208-4.953s.009-.06.026-.069l3.987-3.693.009-.017Z" style="fill:#92b6da;"/></g><g style="opacity:.5;"><path d="M143.733,241.836s.034,0,.026.026l-1.795,5.341s-.035.043-.061.052l-5.255.958s-.034-.009-.025-.035l1.881-4.59s.034-.044.06-.052l5.169-1.691v-.009Z" style="fill:#92b6da;"/></g><g style="opacity:.5;"><path d="M144.277,232.147s.017-.034.034-.017l4.47,3.425s.035.044.026.069l-.794,5.281s-.017.026-.043.018l-3.736-3.262s-.035-.052-.035-.069l.069-5.436.009-.009Z" style="fill:#92b6da;"/></g><g style="opacity:.5;"><path d="M142.465,220.392s.034-.009.034.017l.595,5.6s-.008.052-.034.069l-4.375,3.064s-.034,0-.034-.018l-.208-4.953s.009-.06.026-.069l3.987-3.693.009-.017Z" style="fill:#92b6da;"/></g><g style="opacity:.5;"><path d="M132.774,239.965s.035,0,.026.026l-1.795,5.341s-.034.043-.06.052l-5.255.958s-.035-.009-.026-.035l1.881-4.591s.035-.043.061-.051l5.168-1.692v-.008Z" style="fill:#92b6da;"/></g><g style="opacity:.5;"><path d="M133.326,230.264s.018-.034.035-.017l4.47,3.426s.034.043.026.069l-.794,5.281s-.017.025-.043.017l-3.737-3.262s-.034-.052-.034-.069l.069-5.436.008-.009Z" style="fill:#92b6da;"/></g><g style="opacity:.5;"><path d="M131.514,218.513s.035-.009.035.017l.595,5.6s-.008.052-.034.069l-4.375,3.064s-.034,0-.034-.018l-.208-4.953s.009-.06.026-.069l3.987-3.693.008-.017Z" style="fill:#92b6da;"/></g><g style="opacity:.5;"><path d="M121.323,238.461s.035,0,.026.026l-1.795,5.341s-.034.043-.06.052l-5.255.958s-.034-.009-.026-.035l1.881-4.59s.035-.044.061-.052l5.168-1.691v-.009Z" style="fill:#92b6da;"/></g><g style="opacity:.5;"><path d="M121.876,228.76s.018-.034.035-.017l4.47,3.426s.034.043.026.069l-.794,5.281s-.018.025-.043.017l-3.737-3.262s-.034-.052-.034-.069l.069-5.436.008-.009Z" style="fill:#92b6da;"/></g><g style="opacity:.5;"><path d="M120.064,217.009s.034-.008.034.017l.596,5.601s-.009.051-.035.069l-4.375,3.063s-.034,0-.034-.017l-.207-4.953s.008-.061.025-.069l3.987-3.694.009-.017Z" style="fill:#92b6da;"/></g><g style="opacity:.5;"><path d="M110.374,236.582s.034,0,.025.026l-1.794,5.341s-.035.043-.061.052l-5.255.958s-.034-.009-.026-.035l1.882-4.59s.034-.043.06-.052l5.169-1.691v-.009Z" style="fill:#92b6da;"/></g><g style="opacity:.5;"><path d="M110.917,226.889s.017-.034.035-.017l4.469,3.426s.035.043.026.069l-.794,5.28s-.017.026-.043.018l-3.736-3.262s-.035-.052-.035-.069l.069-5.436.009-.009Z" style="fill:#92b6da;"/></g><g style="opacity:.5;"><path d="M109.105,215.126s.035-.008.035.018l.595,5.6s-.009.051-.034.069l-4.375,3.063s-.035,0-.035-.017l-.207-4.953s.009-.061.026-.069l3.986-3.693.009-.018Z" style="fill:#92b6da;"/></g></g><g style="opacity:.5;"><g style="opacity:.5;"><path d="M115.016,87.7234s-.034.0173-.034,0l-1.614-5.4016s0-.0518.017-.069l3.737-3.8053s.034-.0087.043.0086l1.113,4.8321s0,.0604-.018.0777l-3.244,4.3661v-.0086Z" style="fill:#92b6da;"/></g><g style="opacity:.5;"><path d="M120.159,95.9525s0,.0345-.017.0345l-5.626-.2157s-.052-.0173-.061-.0432l-2.399-4.7717s0-.0345.026-.0345l4.936.5004s.052.0173.069.0432l3.08,4.4783-.008.0087Z" style="fill:#92b6da;"/></g><g style="opacity:.5;"><path d="M128.426,104.513s-.026.026-.035.009l-3.719-4.228s-.026-.052-.017-.069l1.803-5.0221s.026-.0259.043,0l3.029,3.9261s.026.0518.017.0777l-1.13,5.3243.009-.018Z" style="fill:#92b6da;"/></g><g style="opacity:.5;"><path d="M125.052,82.9344s-.035.0172-.035,0l-1.613-5.4017s0-.0517.017-.069l3.736-3.8053s.035-.0086.043.0086l1.114,4.8322s0,.0604-.018.0776l-3.244,4.3662v-.0086Z" style="fill:#92b6da;"/></g><g style="opacity:.5;"><path d="M130.194,91.1712s0,.0345-.017.0345l-5.626-.2157s-.052-.0173-.06-.0431l-2.399-4.7718s0-.0345.026-.0345l4.936.5005s.051.0172.069.0431l3.08,4.4784-.009.0086Z" style="fill:#92b6da;"/></g><g style="opacity:.5;"><path d="M138.452,99.7243s-.025.0259-.034.0086l-3.719-4.2281s-.026-.0517-.017-.069l1.803-5.022s.026-.0258.043,0l3.029,3.9262s.026.0517.017.0776l-1.13,5.324.008-.0173Z" style="fill:#92b6da;"/></g><g style="opacity:.5;"><path d="M134.336,109.372s-.034.017-.034,0l-1.614-5.402s0-.052.018-.069l3.736-3.805s.034-.009.043.009l1.113,4.832s0,.06-.017.077l-3.245,4.366v-.008Z" style="fill:#92b6da;"/></g><g style="opacity:.5;"><path d="M139.479,117.605s0,.034-.017.034l-5.626-.215s-.052-.018-.061-.044l-2.398-4.771s0-.035.025-.035l4.936.501s.052.017.069.043l3.081,4.478-.009.009Z" style="fill:#92b6da;"/></g><g style="opacity:.5;"><path d="M147.737,126.166s-.026.026-.034.008l-3.719-4.228s-.026-.052-.018-.069l1.804-5.022s.026-.026.043,0l3.029,3.926s.026.052.017.078l-1.13,5.324.008-.017Z" style="fill:#92b6da;"/></g><g style="opacity:.5;"><path d="M144.363,104.591s-.034.017-.034,0l-1.614-5.402s0-.0518.018-.069l3.736-3.8053s.034-.0087.043.0086l1.113,4.8317s0,.061-.017.078l-3.245,4.366v-.008Z" style="fill:#92b6da;"/></g><g style="opacity:.5;"><path d="M149.506,112.824s0,.034-.017.034l-5.626-.216s-.052-.017-.06-.043l-2.399-4.772s0-.034.026-.034l4.935.5s.052.018.069.044l3.081,4.478-.009.009Z" style="fill:#92b6da;"/></g><g style="opacity:.5;"><path d="M157.773,121.373s-.026.026-.035.008l-3.719-4.228s-.026-.051-.017-.069l1.803-5.022s.026-.026.044,0l3.028,3.926s.026.052.018.078l-1.131,5.324.009-.017Z" style="fill:#92b6da;"/></g><g style="opacity:.5;"><path d="M134.957,75.4265s-.034.0173-.034,0l-1.614-5.4016s0-.0518.018-.069l3.736-3.8053s.034-.0086.043.0086l1.113,4.8322s0,.0603-.017.0776l-3.245,4.3662v-.0087Z" style="fill:#92b6da;"/></g><g style="opacity:.5;"><path d="M140.1,83.6556s0,.0345-.017.0345l-5.626-.2157s-.052-.0173-.06-.0432l-2.399-4.7717s0-.0345.026-.0345l4.935.5005s.052.0172.069.0431l3.081,4.4784-.009.0086Z" style="fill:#92b6da;"/></g><g style="opacity:.5;"><path d="M148.358,92.2087s-.025.0259-.034.0086l-3.719-4.2281s-.026-.0518-.017-.069l1.803-5.022s.026-.0259.043,0l3.029,3.9261s.026.0518.017.0777l-1.13,5.324.008-.0173Z" style="fill:#92b6da;"/></g><g style="opacity:.5;"><path d="M144.985,70.6375s-.035.0172-.035,0l-1.614-5.4016s0-.0518.018-.0691l3.736-3.8053s.034-.0086.043.0087l1.113,4.8321s0,.0604-.017.0776l-3.244,4.3662v-.0086Z" style="fill:#92b6da;"/></g><g style="opacity:.5;"><path d="M150.127,78.8665s0,.0345-.017.0345l-5.626-.2157s-.052-.0172-.06-.0431l-2.399-4.7717s0-.0346.026-.0346l4.935.5005s.052.0173.069.0432l3.081,4.4783-.009.0086Z" style="fill:#92b6da;"/></g><g style="opacity:.5;"><path d="M158.394,87.4274s-.026.0259-.034.0087l-3.719-4.2281s-.026-.0518-.018-.0691l1.804-5.0219s.026-.0259.043,0l3.029,3.9261s.025.0517.017.0776l-1.131,5.324.009-.0173Z" style="fill:#92b6da;"/></g><g style="opacity:.5;"><path d="M114.947,118.403s-.035.017-.035,0l-1.613-5.402s0-.051.017-.069l3.736-3.805s.035-.008.044.009l1.113,4.832s0,.06-.018.078l-3.244,4.366v-.009Z" style="fill:#92b6da;"/></g><g style="opacity:.5;"><path d="M120.09,126.636s0,.035-.018.035l-5.626-.216s-.051-.017-.06-.043l-2.399-4.772s0-.035.026-.035l4.936.501s.051.017.069.043l3.08,4.478-.008.009Z" style="fill:#92b6da;"/></g><g style="opacity:.5;"><path d="M128.357,135.189s-.026.026-.035.009l-3.719-4.228s-.026-.052-.017-.069l1.803-5.022s.026-.026.043,0l3.029,3.926s.026.052.017.077l-1.13,5.324.009-.017Z" style="fill:#92b6da;"/></g><g style="opacity:.5;"><path d="M124.983,113.614s-.035.017-.035,0l-1.614-5.402s0-.051.018-.069l3.736-3.805s.034-.009.043.009l1.113,4.832s0,.06-.017.078l-3.244,4.366v-.009Z" style="fill:#92b6da;"/></g><g style="opacity:.5;"><path d="M130.125,121.855s0,.034-.017.034l-5.626-.215s-.052-.018-.06-.044l-2.399-4.771s0-.035.026-.035l4.935.501s.052.017.069.043l3.081,4.478-.009.009Z" style="fill:#92b6da;"/></g><g style="opacity:.5;"><path d="M138.383,130.408s-.026.026-.034.009l-3.719-4.229s-.026-.051-.017-.069l1.803-5.022s.026-.025.043,0l3.029,3.927s.026.051.017.077l-1.13,5.324.008-.017Z" style="fill:#92b6da;"/></g><g style="opacity:.5;"><path d="M107.319,112.978s-.026.026-.035.009l-3.719-4.228s-.025-.052-.017-.069l1.804-5.022s.026-.026.043,0l3.028,3.926s.026.052.018.078l-1.131,5.323.009-.017Z" style="fill:#92b6da;"/></g><g style="opacity:.5;"><path d="M103.936,91.407s-.034.0173-.034,0l-1.614-5.4016s0-.0518.017-.069l3.737-3.8053s.034-.0087.043.0086l1.113,4.8321s0,.0604-.017.0777l-3.245,4.3661v-.0086Z" style="fill:#92b6da;"/></g><g style="opacity:.5;"><path d="M109.087,99.6361s0,.0345-.017.0345l-5.626-.2158s-.052-.0172-.06-.0431l-2.399-4.7717s0-.0345.026-.0345l4.936.5004s.051.0173.069.0432l3.08,4.4783-.009.0087Z" style="fill:#92b6da;"/></g><g style="opacity:.5;"><path d="M117.346,108.189s-.026.026-.035.009l-3.719-4.228s-.026-.052-.017-.069l1.803-5.0223s.026-.0259.043,0l3.029,3.9263s.026.052.017.077l-1.13,5.324.009-.017Z" style="fill:#92b6da;"/></g><g style="opacity:.5;"><path d="M80.31,30.8493s-.0259.0259-.0345.0086l-3.719-4.2281s-.0259-.0517-.0173-.069l1.8035-5.022s.0258-.0258.0431,0l3.0287,3.9262s.0259.0517.0172.0776l-1.1303,5.324.0086-.0173Z" style="fill:#92b6da;"/></g><g style="opacity:.5;"><path d="M76.9275,9.2781s-.0345.0173-.0345,0l-1.6136-5.4016s0-.0518.0173-.069L79.0329.0022s.0346-.0086.0432.0086l1.1131,4.8321s0,.0604-.0172.0777l-3.2445,4.3662v-.0086Z" style="fill:#92b6da;"/></g><g style="opacity:.5;"><path d="M82.0789,17.5071s0,.0346-.0173.0346l-5.626-.2158s-.0517-.0172-.0604-.0431l-2.3988-4.7717s0-.0345.0259-.0345l4.9357.5004s.0518.0173.069.0432l3.0805,4.4783-.0086.0086Z" style="fill:#92b6da;"/></g><g style="opacity:.5;"><path d="M90.3366,26.072s-.0259.0259-.0345.0086l-3.719-4.2281s-.0259-.0518-.0173-.069l1.8035-5.022s.0258-.0259.0431,0l3.0287,3.9261s.0259.0518.0173.0777l-1.1304,5.3239.0086-.0172Z" style="fill:#92b6da;"/></g><g style="opacity:.5;"><path d="M106.741,25.3367s-.035.0173-.035,0l-1.613-5.4016s0-.0518.017-.0691l3.736-3.8052s.035-.0087.043.0086l1.113,4.8321s0,.0604-.017.0777l-3.244,4.3661v-.0086Z" style="fill:#92b6da;"/></g><g style="opacity:.5;"><path d="M111.883,33.5657s0,.0346-.017.0346l-5.626-.2158s-.052-.0172-.06-.0431l-2.399-4.7717s0-.0345.026-.0345l4.936.5004s.051.0173.069.0432l3.08,4.4783-.009.0086Z" style="fill:#92b6da;"/></g><g style="opacity:.5;"><path d="M120.141,42.1188s-.026.0259-.034.0087l-3.719-4.2281s-.026-.0518-.018-.0691l1.804-5.0219s.026-.0259.043,0l3.029,3.9261s.026.0518.017.0776l-1.13,5.324.008-.0173Z" style="fill:#92b6da;"/></g><g style="opacity:.5;"><path d="M116.767,20.5437s-.034.0173-.034,0l-1.614-5.4016s0-.0518.018-.069l3.736-3.8053s.034-.0086.043.0086l1.113,4.8321s0,.0604-.017.0777l-3.245,4.3662v-.0087Z" style="fill:#92b6da;"/></g><g style="opacity:.5;"><path d="M121.91,28.7767s0,.0345-.017.0345l-5.626-.2157s-.052-.0173-.061-.0432l-2.398-4.7717s0-.0345.026-.0345l4.935.5005s.052.0172.069.0431l3.081,4.4784-.009.0086Z" style="fill:#92b6da;"/></g><g style="opacity:.5;"><path d="M130.177,37.3376s-.026.0259-.035.0086l-3.719-4.2281s-.026-.0518-.017-.069l1.803-5.022s.026-.0259.044,0l3.028,3.9261s.026.0518.018.0777l-1.131,5.324.009-.0173Z" style="fill:#92b6da;"/></g><g style="opacity:.5;"><path d="M86.2122,35.7156s-.0345.0173-.0345,0l-1.6136-5.4016s0-.0518.0172-.069l3.7363-3.8053s.0345-.0087.0432.0086l1.1131,4.8321s0,.0604-.0173.0777l-3.2444,4.3661v-.0086Z" style="fill:#92b6da;"/></g><g style="opacity:.5;"><path d="M99.6215,52.4977s-.0259.0259-.0345.0087l-3.719-4.2281s-.0259-.0518-.0173-.0691l1.8034-5.0219s.0259-.0259.0432,0l3.0287,3.9261s.026.0518.017.0776l-1.1301,5.324.0086-.0173Z" style="fill:#92b6da;"/></g><g style="opacity:.5;"><path d="M96.2478,30.9265s-.0345.0173-.0345,0l-1.6136-5.4016s0-.0517.0172-.069l3.7363-3.8053s.0345-.0086.0431.0086l1.1132,4.8321s0,.0605-.0173.0777l-3.2444,4.3662v-.0087Z" style="fill:#92b6da;"/></g><g style="opacity:.5;"><path d="M101.39,39.1595s0,.0345-.017.0345l-5.6259-.2157s-.0518-.0173-.0604-.0432l-2.3989-4.7717s0-.0345.026-.0345l4.9356.5005s.0518.0172.069.0431l3.0806,4.4784-.009.0086Z" style="fill:#92b6da;"/></g><g style="opacity:.5;"><path d="M109.657,47.7204s-.026.0259-.034.0086l-3.719-4.2281s-.026-.0517-.018-.069l1.804-5.022s.026-.0258.043,0l3.029,3.9261s.026.0518.017.0777l-1.13,5.324.008-.0173Z" style="fill:#92b6da;"/></g><g style="opacity:.5;"><path d="M91.9847,10.0032s-.0001.0346-.0173.0346l-5.626-.2158s-.0518-.0173-.0604-.0431l-2.3988-4.7717s0-.0345.0259-.0345l4.9357.5005s.0517.0173.069.0431l3.0805,4.4783-.0086.0086Z" style="fill:#92b6da;"/></g><g style="opacity:.5;"><path d="M100.243,18.5524s-.026.0259-.035.0087l-3.7187-4.2281s-.0259-.0518-.0173-.0691l1.8035-5.0219s.0259-.0259.0431,0l3.0284,3.9261s.026.0517.018.0776l-1.131,5.324.009-.0173Z" style="fill:#92b6da;"/></g><g style="opacity:.5;"><path d="M102.012,5.2103s0,.0345-.017.0345l-5.6264-.2157s-.0517-.0173-.0604-.0431l-2.3988-4.7717s0-.0345.0259-.0345l4.9357.5005s.0518.0173.069.0431l3.081,4.4783-.009.0086Z" style="fill:#92b6da;"/></g><g style="opacity:.5;"><path d="M110.279,13.7634s-.026.0259-.035.0086l-3.719-4.2281s-.026-.0518-.017-.069l1.803-5.022s.026-.0259.043,0l3.029,3.9261s.026.0518.017.0777l-1.13,5.3239.009-.0172Z" style="fill:#92b6da;"/></g><g style="opacity:.5;"><path d="M99.9754,86.5563s-.0258.0259-.0345.0087l-3.719-4.2281s-.0259-.0518-.0173-.0691l1.8035-5.0219s.0259-.0259.0431,0l3.0288,3.9261s.026.0518.017.0776l-1.1302,5.324.0086-.0173Z" style="fill:#92b6da;"/></g><g style="opacity:.5;"><path d="M96.6015,64.9851s-.0346.0173-.0346,0l-1.6135-5.4016s0-.0518.0172-.069l3.7363-3.8053s.0345-.0086.0431.0086l1.1132,4.8321s0,.0604-.0173.0777l-3.2444,4.3662v-.0087Z" style="fill:#92b6da;"/></g><g style="opacity:.5;"><path d="M101.744,73.2259s0,.0345-.017.0345l-5.6259-.2157s-.0518-.0173-.0605-.0431l-2.3988-4.7718s0-.0345.0259-.0345l4.9357.5005s.0518.0172.069.0431l3.0806,4.4784-.009.0086Z" style="fill:#92b6da;"/></g><g style="opacity:.5;"><path d="M110.002,81.7751s-.026.0259-.034.0086l-3.719-4.2281s-.026-.0517-.018-.069l1.804-5.022s.026-.0259.043,0l3.029,3.9261s.025.0518.017.0777l-1.131,5.324.009-.0173Z" style="fill:#92b6da;"/></g><g style="opacity:.5;"><path d="M106.93,59.739s-.034.0173-.034,0l-1.614-5.4016s0-.0518.018-.069l3.736-3.8053s.034-.0086.043.0086l1.113,4.8321s0,.0604-.017.0777l-3.245,4.3662v-.0087Z" style="fill:#92b6da;"/></g><g style="opacity:.5;"><path d="M112.073,67.9798s0,.0345-.017.0345l-5.626-.2157s-.052-.0173-.06-.0431l-2.399-4.7718s0-.0345.026-.0345l4.935.5005s.052.0173.069.0431l3.081,4.4784-.009.0086Z" style="fill:#92b6da;"/></g><g style="opacity:.5;"><path d="M120.331,76.5329s-.026.0259-.035.0086l-3.719-4.2281s-.026-.0517-.017-.069l1.804-5.022s.025-.0258.043,0l3.028,3.9261s.026.0518.018.0777l-1.131,5.324.009-.0173Z" style="fill:#92b6da;"/></g><g style="opacity:.5;"><path d="M116.957,54.9578s-.035.0173-.035,0l-1.613-5.4016s0-.0518.017-.0691l3.736-3.8053s.035-.0086.044.0087l1.113,4.8321s0,.0604-.018.0777l-3.244,4.3661v-.0086Z" style="fill:#92b6da;"/></g><g style="opacity:.5;"><path d="M122.1,63.1907s0,.0346-.017.0346l-5.626-.2158s-.052-.0172-.061-.0431l-2.399-4.7717s0-.0345.026-.0345l4.936.5004s.052.0173.069.0432l3.08,4.4783-.008.0086Z" style="fill:#92b6da;"/></g><g style="opacity:.5;"><path d="M130.367,71.7438s-.026.0259-.035.0087l-3.719-4.2281s-.026-.0518-.017-.0691l1.803-5.0219s.026-.0259.044,0l3.028,3.9261s.026.0518.018.0776l-1.131,5.324.009-.0173Z" style="fill:#92b6da;"/></g><g style="opacity:.5;"><path d="M127.174,49.575s-.034.0172-.034,0l-1.614-5.4016s0-.0518.017-.0691l3.736-3.8053s.035-.0086.044.0087l1.113,4.8321s0,.0604-.018.0776l-3.244,4.3662v-.0086Z" style="fill:#92b6da;"/></g><g style="opacity:.5;"><path d="M132.325,57.8157s0,.0346-.017.0346l-5.626-.2158s-.052-.0172-.06-.0431l-2.399-4.7717s0-.0345.026-.0345l4.936.5004s.051.0173.069.0432l3.08,4.4783-.009.0086Z" style="fill:#92b6da;"/></g><g style="opacity:.5;"><path d="M140.583,66.3649s-.026.0259-.034.0087l-3.719-4.2281s-.026-.0518-.018-.0691l1.804-5.0219s.026-.0259.043,0l3.029,3.9261s.026.0517.017.0776l-1.13,5.324.008-.0173Z" style="fill:#92b6da;"/></g><g style="opacity:.5;"><path d="M137.21,44.7937s-.035.0173-.035,0l-1.614-5.4016s0-.0518.018-.069l3.736-3.8053s.034-.0086.043.0086l1.113,4.8321s0,.0604-.017.0777l-3.244,4.3662v-.0087Z" style="fill:#92b6da;"/></g><g style="opacity:.5;"><path d="M142.352,53.0228s0,.0345-.017.0345l-5.626-.2157s-.052-.0173-.06-.0432l-2.399-4.7717s0-.0345.026-.0345l4.935.5005s.052.0172.069.0431l3.081,4.4784-.009.0086Z" style="fill:#92b6da;"/></g><g style="opacity:.5;"><path d="M150.619,61.5759s-.026.0259-.034.0086l-3.719-4.2281s-.026-.0518-.018-.069l1.804-5.022s.026-.0259.043,0l3.029,3.9261s.025.0518.017.0777l-1.131,5.3239.009-.0172Z" style="fill:#92b6da;"/></g></g><g style="mask:url(#b);"><path d="M83.3909,20.6317l.0603,7.1187c.0604,7.369,4.7892,13.297,10.5533,13.2452l5.4536-.0517c4.7459-.0432,8.9139,4.0037,10.1819,9.8454,3.616,16.6622,9.924,53.5587,9.009,104.9347-1.208,67.943-27.3281,124.004-30.8487,130.14-.1899.336-.3624.664-.5264,1.018L11.5371,404.259c-.768,1.225-3.8744,9.526-4.2714,11.01-.7162,2.71-.7248,5.678,0,8.439,7.9128,30.201,56.8652,193.656,113.5143,195.408,80.768,2.502,116.751,2.485,123.49-1.579.794-.475,1.51-1.061,2.183-1.777,9.527-10.096,74.529-104.012,87.05-199.403.388-2.977-.475-5.989-1.821-8.474-22.272-41.15-68.074-91.128-85.816-129.621-18.336-39.771-29.787-100.724-29.977-122.503-.146-16.973.061-78.1169.915-104.2794.224-6.8253,4.453-12.3046,9.794-12.6929,6.187-.4487,11.399-7.3,11.571-15.2212l.061-2.7353c.164-7.533-4.591-13.7716-10.484-13.7716l-133.9572.1208c-5.7901,0-10.4497,6.0315-10.3807,13.435l-.0172.0173Z" style="fill:#c59b6d; stroke:#c59b6d; stroke-miterlimit:10; stroke-width:9px;"/></g><path d="M203.0432,460.9056c6.4004,9.0166,13.4511,15.82,18.2669,25.3204l-28.7693,18.472c-6.4461-8.4301-10.3946-17.2726-15.2835-27.4686-3.9911,10.1047-6.9104,19.1742-12.1996,28.7607l-31.1316-15.8194c4.9108-9.7893,10.7526-18.0693,16.9401-26.931-10.7603,1.845-20.3519,4.1416-31.3731,4.0346l-1.6112-34.4132c10.6817-1.1376,20.4404-.1594,31.545.9466-6.2232-.6425-1.7537.3571-1.7537.3571l28.2722-18.1283c3.0816,4.9615-2.0472-4.6934,1.4109-.5174,3.9153-9.758,4.2353-17.7476,9.3285-27.0598l31.1128,15.7697c-4.6252,9.9661-10.4896,17.7273-16.787,26.9196,10.7305-2.086,20.6675-3.8236,31.4354-4.0746l1.6771,34.7308c-10.17.8333-19.6619-.0178-31.0655-.8953l-.0144-.0038Z" style="fill:#603813;"/><path d="M148.9483,433.6726c-6.4004-9.0166-13.4511-15.82-18.2669-25.3204l28.7699-18.4711c6.4455,8.4293,10.3941,17.2718,15.283,27.4677,3.9911-10.1047,6.9104-19.1742,12.1996-28.7607l31.1316,15.8194c-4.9108,9.7893-10.7526,18.0694-16.9401,26.931,10.7603-1.845,20.3519-4.1416,31.3731-4.0346l1.6103,34.4137c-10.6817,1.1376-20.4396.1589-31.5442-.9471,6.2232.6425,1.7537-.3571,1.7537-.3571l-28.2722,18.1283c-3.0816-4.9615,1.3519,5.5265-2.1062,1.3505-3.9147,9.7588-3.54,16.9145-8.6332,26.2268l-31.1128-15.7697c4.6252-9.9661,10.4896-17.7273,16.787-26.9196-10.7305,2.086-20.6675,3.8236-31.4354,4.0746l-1.6771-34.7308c10.17-.8333,19.6619.0178,31.0655.8953l.0143.0039Z" style="fill:#603813;"/><line x1="110.0295" y1="520.2873" x2="110.3506" y2="520.1307" style="fill:none; stroke:#511e68; stroke-miterlimit:4; stroke-width:1px;"/><line x1="94.2344" y1="520.5821" x2="94.0345" y2="520.2955" style="fill:none; stroke:#511e68; stroke-miterlimit:4; stroke-width:1px;"/></svg>