<?xml version="1.0" encoding="UTF-8"?><svg id="a" xmlns="http://www.w3.org/2000/svg" xmlns:xlink="http://www.w3.org/1999/xlink" viewBox="0 0 340 626"><defs><mask id="b" x="0" y="2.6367" width="339.116" height="622.7765" maskUnits="userSpaceOnUse"><g id="c"><path d="M338.616,519.929h-118.311l-23.195-21.512-.753-.698-.085,1.023-1.769,21.187h-58.065l-7.722-7.164-.751-.698-.088,1.021-.585,6.841h-16.53l-4.251-8.25-.263-.512-.47.332-11.9489,8.43h-15.5303l-14.8613-28.743-.7969-1.543-.1455,1.73-2.3945,28.556h-14.8447l-28.1563-13.377-.6523-.31-.0606.72-1.0791,12.967H.5v-158.913c15.593,3.98,35.0391,7.342,57.2715,9.881v.001c2.7068.332,5.466.628,8.2764.908l13.8115,11.177.8154.66v-10.49c3.4054.296,6.8759.562,10.3848.804l33.4954,27.106.814.66v-26.035c10.813.37,21.952.543,33.292.543h2.831l7.594,24.582.977-.147v-24.503c4.383-.037,8.735-.114,13.025-.233l-.001-.001c2.982-.062,5.92-.142,8.847-.24l-.001-.001c5.763-.183,11.452-.417,17.046-.711l4.865,7.872.299.482.441-.357,11.098-8.982c5.254-.371,10.384-.784,15.431-1.23l17.415,28.176.925,1.497v-31.517c3.651-.416,7.232-.862,10.752-1.316l33.255,13.456.687.278v-19.384c5.644-1.18,10.895-2.419,15.743-3.732l5.785,4.682.304-.378.314.387.012-.009.479-.388-.001-.001,11.833-9.575v164.991Z" style="fill:#c59b6d; stroke:#c59b6d;"/></g></mask></defs><path d="M83.1053,20.3077l.0604,7.1188c.0604,7.3691,4.789,13.2972,10.5532,13.2454l5.4534-.0518c4.7457-.0431,8.9137,4.0039,10.1817,9.8457,3.616,16.6624,9.924,53.5592,9.009,104.9362-1.208,67.944-27.3277,124.006-30.8483,130.141-.1899.337-.3624.665-.5264,1.019L11.2523,403.941c-.768,1.225-3.8744,9.526-4.2714,11.01-.7162,2.71-.7248,5.678,0,8.439,7.9128,30.202,56.8646,193.659,113.5131,195.411,80.767,2.502,116.75,2.485,123.489-1.579.794-.475,1.51-1.061,2.183-1.778,9.526-10.095,74.528-104.013,87.049-199.405.388-2.977-.475-5.989-1.821-8.474-22.271-41.151-68.074-91.13-85.815-129.624-18.336-39.77-29.787-100.725-29.977-122.504-.146-16.973.061-78.118.915-104.2809.224-6.8255,4.453-12.3049,9.794-12.6932,6.187-.4487,11.399-7.3,11.571-15.2214l.061-2.7354c.164-7.533-4.591-13.7717-10.484-13.7717l-133.9559.1208c-5.79,0-10.4496,6.0316-10.3805,13.4352l-.0173.0173Z" style="fill:#dcd6cb; stroke:#dcd6cb; stroke-miterlimit:10; stroke-width:9px;"/><path d="M116.034,63.0547c8.024,27.5608,11.355,56.3473,11.994,84.9953,1.527,71.784-19.148,144.914-63.5437,201.934-8.836,11.321-18.3968,22.046-28.7256,31.961,9.6385-10.579,18.7247-21.633,27.0257-33.221,8.232-11.589,15.8341-23.73,22.4784-36.302,40.0382-75.253,48.3302-166.556,30.7712-249.3673Z" style="fill:#e2e3e2;"/><path d="M303.384,378.468c-78.255-69.669-109.889-173.881-95.142-276.358,2.123-14.2981,4.901-28.5531,9.31-42.3248-.914,3.4947-1.674,7.0153-2.381,10.5531-4.901,24.696-7.067,49.9447-6.972,75.0887.345,88.938,32.298,169.809,95.177,233.041h.008Z" style="fill:#e2e3e2;"/><path d="M89.3009,595.59c46.1391,9.8199,94.9961,15.791,141.5401,5.704,6.627-1.519,13.151-3.469,19.631-5.704-6.109,3.106-12.521,5.6349-19.079,7.749-44.214,13.366-98.904,7.36-142.0921-7.749Z" style="fill:#e2e3e2;"/><path d="M22.1763,403.5c-1.7948,8.871-3.279,17.663-.9923,26.508.2502,1.355.7421,2.563.9923,3.943-.5436-.44-1.0441-.923-1.5446-1.423-7.4812-7.861-6.0661-21.745,1.5446-29.028Z" style="fill:#e2e3e2;"/><path d="M315.724,431.666c1.338-4.918,2.433-9.983,2.149-15.1-.164-5.195-1.148-10.105-2.149-15.351,8.154,7.731,9.104,23.074,0,30.451Z" style="fill:#e2e3e2;"/><path d="M94.4698,346.058s52.8612-61.654,121.5472-1.381-121.5472,1.381-121.5472,1.381Z" style="fill:#f7e79d;"/><path d="M37.8987,435.724c6.2991,29.856,21.7363,94.383,43.9126,129.684,4.9875,7.947,12.7622,18.483,21.5727,20.217,37.026,7.292,99.526,4.038,128.898,1.916,10.795-.777,20.572-12.15,26.189-22.03,12.115-21.287,32.186-64.605,42.739-131.815,1.338-8.517-.207-17.275-4.444-24.627-17.197-29.856-41.151-59.54-61.532-78.506-5.359-4.988-12.038-8.18-19.139-8.707-8.845-.656-18.44,1.433-27.889,3.926-15.757,4.168-31.893,6.472-48.124,6.757-19.561.345-38.269,7.222-53.6801,19.277-7.7574,6.066-14.6778,13.444-20.4506,21.96l-22.5214,33.205c-5.6261,8.292-7.6366,18.75-5.5312,28.734v.009Z" style="fill:#efd000;"/><g style="opacity:.5;"><g style="opacity:.5;"><path d="M152.507,214.324s.035,0,.026.026l-1.794,5.341s-.035.044-.061.052l-5.255.958s-.034-.009-.026-.035l1.881-4.59s.035-.043.061-.052l5.168-1.691v-.009Z" style="fill:#92b6da;"/></g><g style="opacity:.5;"><path d="M153.051,204.628s.017-.035.035-.018l4.469,3.426s.035.043.026.069l-.794,5.281s-.017.026-.043.017l-3.736-3.262s-.035-.051-.035-.069l.069-5.436.009-.008Z" style="fill:#92b6da;"/></g><g style="opacity:.5;"><path d="M151.239,192.872s.034-.008.034.018l.596,5.6s-.009.052-.035.069l-4.375,3.063s-.034,0-.034-.017l-.207-4.953s.008-.06.026-.069l3.986-3.693.009-.018Z" style="fill:#92b6da;"/></g><g style="opacity:.5;"><path d="M141.549,212.445s.034,0,.026.026l-1.795,5.342s-.035.043-.061.051l-5.255.958s-.034-.009-.026-.034l1.882-4.591s.034-.043.06-.052l5.169-1.691v-.009Z" style="fill:#92b6da;"/></g><g style="opacity:.5;"><path d="M142.101,202.745s.017-.035.034-.018l4.47,3.426s.035.043.026.069l-.794,5.281s-.017.026-.043.017l-3.736-3.261s-.035-.052-.035-.069l.069-5.437.009-.008Z" style="fill:#92b6da;"/></g><g style="opacity:.5;"><path d="M140.289,190.994s.034-.009.034.017l.596,5.6s-.009.052-.035.069l-4.375,3.063s-.034,0-.034-.017l-.207-4.953s.008-.06.026-.069l3.986-3.693.009-.017Z" style="fill:#92b6da;"/></g><g style="opacity:.5;"><path d="M126.465,182.133s.035,0,.026.026l-1.795,5.341s-.034.043-.06.052l-5.255.958s-.034-.009-.026-.035l1.881-4.591s.035-.043.061-.051l5.168-1.692v-.008Z" style="fill:#92b6da;"/></g><g style="opacity:.5;"><path d="M127.018,172.444s.017-.035.034-.017l4.47,3.425s.035.044.026.069l-.794,5.281s-.017.026-.043.018l-3.736-3.262s-.035-.052-.035-.069l.069-5.436.009-.009Z" style="fill:#92b6da;"/></g><g style="opacity:.5;"><path d="M125.206,160.689s.034-.009.034.017l.595,5.6s-.008.052-.034.069l-4.375,3.064s-.034,0-.034-.018l-.208-4.953s.009-.06.026-.069l3.987-3.693.009-.017Z" style="fill:#92b6da;"/></g><g style="opacity:.5;"><path d="M115.515,180.254s.035,0,.026.026l-1.795,5.341s-.034.043-.06.052l-5.255.958s-.035-.009-.026-.035l1.881-4.59s.035-.044.061-.052l5.168-1.691v-.009Z" style="fill:#92b6da;"/></g><g style="opacity:.5;"><path d="M116.067,170.565s.018-.034.035-.017l4.47,3.425s.034.044.025.07l-.793,5.28s-.018.026-.044.018l-3.736-3.262s-.034-.052-.034-.069l.069-5.436.008-.009Z" style="fill:#92b6da;"/></g><g style="opacity:.5;"><path d="M114.256,158.81s.034-.009.034.017l.595,5.6s-.008.052-.034.069l-4.375,3.064s-.034,0-.034-.018l-.208-4.953s.009-.06.026-.069l3.987-3.693.009-.017Z" style="fill:#92b6da;"/></g><g style="opacity:.5;"><path d="M149.22,185.496s.034,0,.026.026l-1.795,5.341s-.035.043-.061.052l-5.255.958s-.034-.009-.026-.035l1.882-4.59s.034-.043.06-.052l5.169-1.691v-.009Z" style="fill:#92b6da;"/></g><g style="opacity:.5;"><path d="M149.772,175.799s.017-.034.034-.017l4.47,3.426s.035.043.026.069l-.794,5.281s-.017.026-.043.017l-3.736-3.262s-.035-.051-.035-.069l.069-5.436.009-.009Z" style="fill:#92b6da;"/></g><g style="opacity:.5;"><path d="M147.96,164.044s.034-.008.034.018l.596,5.6s-.009.052-.035.069l-4.375,3.063s-.034,0-.034-.017l-.207-4.953s.008-.061.026-.069l3.986-3.693.009-.018Z" style="fill:#92b6da;"/></g><g style="opacity:.5;"><path d="M138.27,183.617s.034,0,.025.026l-1.794,5.341s-.035.044-.061.052l-5.255.958s-.034-.009-.026-.035l1.881-4.59s.035-.043.061-.052l5.169-1.691v-.009Z" style="fill:#92b6da;"/></g><g style="opacity:.5;"><path d="M138.813,173.924s.017-.034.035-.017l4.469,3.426s.035.043.026.069l-.794,5.281s-.017.026-.043.017l-3.736-3.262s-.035-.051-.035-.069l.069-5.436.009-.009Z" style="fill:#92b6da;"/></g><g style="opacity:.5;"><path d="M137.001,162.162s.035-.009.035.017l.595,5.6s-.009.052-.035.069l-4.374,3.063s-.035,0-.035-.017l-.207-4.953s.009-.06.026-.069l3.986-3.693.009-.017Z" style="fill:#92b6da;"/></g><g style="opacity:.5;"><path d="M129.123,212.859s.035,0,.026.026l-1.795,5.342s-.034.043-.06.051l-5.255.958s-.035-.008-.026-.034l1.881-4.591s.034-.043.06-.052l5.169-1.691v-.009Z" style="fill:#92b6da;"/></g><g style="opacity:.5;"><path d="M129.675,203.171s.018-.035.035-.018l4.47,3.426s.034.043.026.069l-.794,5.281s-.018.026-.043.017l-3.737-3.262s-.034-.051-.034-.069l.069-5.436.008-.008Z" style="fill:#92b6da;"/></g><g style="opacity:.5;"><path d="M127.863,191.415s.035-.008.035.018l.595,5.6s-.008.052-.034.069l-4.375,3.063s-.035,0-.035-.017l-.207-4.953s.009-.06.026-.069l3.987-3.693.008-.018Z" style="fill:#92b6da;"/></g><g style="opacity:.5;"><path d="M118.173,210.988s.035,0,.026.026l-1.795,5.341s-.034.044-.06.052l-5.255.958s-.035-.009-.026-.034l1.881-4.591s.035-.043.06-.052l5.169-1.691v-.009Z" style="fill:#92b6da;"/></g><g style="opacity:.5;"><path d="M118.716,201.292s.018-.035.035-.018l4.47,3.426s.034.043.026.069l-.794,5.281s-.018.026-.043.017l-3.737-3.261s-.034-.052-.034-.07l.069-5.436.008-.008Z" style="fill:#92b6da;"/></g><g style="opacity:.5;"><path d="M116.905,189.537s.034-.009.034.017l.596,5.6s-.009.052-.035.069l-4.375,3.063s-.034,0-.034-.017l-.207-4.953s.008-.06.025-.069l3.987-3.693.009-.017Z" style="fill:#92b6da;"/></g><g style="opacity:.5;"><path d="M170.266,189.301s.034,0,.025.026l-1.794,5.341s-.035.043-.061.052l-5.255.958s-.034-.009-.026-.035l1.881-4.591s.035-.043.061-.051l5.169-1.692v-.008Z" style="fill:#92b6da;"/></g><g style="opacity:.5;"><path d="M170.809,179.612s.018-.035.035-.017l4.47,3.425s.034.043.026.069l-.794,5.281s-.018.026-.043.018l-3.737-3.262s-.034-.052-.034-.069l.069-5.436.008-.009Z" style="fill:#92b6da;"/></g><g style="opacity:.5;"><path d="M168.997,167.853s.035-.009.035.017l.595,5.6s-.009.052-.035.069l-4.374,3.064s-.035,0-.035-.018l-.207-4.953s.009-.06.026-.069l3.986-3.693.009-.017Z" style="fill:#92b6da;"/></g><g style="opacity:.5;"><path d="M159.307,187.422s.034,0,.026.026l-1.795,5.341s-.035.043-.06.052l-5.255.958s-.035-.009-.026-.035l1.881-4.59s.034-.044.06-.052l5.169-1.691v-.009Z" style="fill:#92b6da;"/></g><g style="opacity:.5;"><path d="M159.859,177.733s.017-.034.035-.017l4.469,3.425s.035.044.026.069l-.794,5.281s-.017.026-.043.018l-3.736-3.262s-.035-.052-.035-.069l.07-5.436.008-.009Z" style="fill:#92b6da;"/></g><g style="opacity:.5;"><path d="M158.047,165.978s.034-.009.034.017l.596,5.6s-.009.052-.035.069l-4.375,3.064s-.034,0-.034-.018l-.207-4.953s.009-.06.026-.069l3.986-3.693.009-.017Z" style="fill:#92b6da;"/></g><g style="opacity:.5;"><path d="M173.363,198.138s.035-.009.035.017l.595,5.601s-.008.051-.034.069l-4.375,3.063s-.035,0-.035-.017l-.207-4.953s.009-.061.026-.069l3.987-3.694.008-.017Z" style="fill:#92b6da;"/></g><g style="opacity:.5;"><path d="M163.673,217.711s.035,0,.026.026l-1.795,5.341s-.034.043-.06.052l-5.255.958s-.034-.009-.026-.035l1.881-4.59s.035-.044.061-.052l5.168-1.691v-.009Z" style="fill:#92b6da;"/></g><g style="opacity:.5;"><path d="M164.226,208.01s.017-.034.034-.017l4.47,3.426s.034.043.026.069l-.794,5.281s-.017.026-.043.017l-3.737-3.262s-.034-.052-.034-.069l.069-5.436.009-.009Z" style="fill:#92b6da;"/></g><g style="opacity:.5;"><path d="M162.413,196.259s.035-.008.035.017l.595,5.601s-.008.051-.034.069l-4.375,3.063s-.035,0-.035-.017l-.207-4.953s.009-.061.026-.069l3.987-3.694.008-.017Z" style="fill:#92b6da;"/></g><g style="opacity:.5;"><path d="M168.583,157.469s.034,0,.026.026l-1.795,5.341s-.035.043-.061.052l-5.255.958s-.034-.009-.025-.035l1.881-4.591s.034-.043.06-.051l5.169-1.692v-.008Z" style="fill:#92b6da;"/></g><g style="opacity:.5;"><path d="M157.633,155.598s.034,0,.025.026l-1.794,5.341s-.035.043-.061.052l-5.255.957s-.034-.008-.026-.034l1.881-4.591s.035-.043.061-.051l5.169-1.692v-.008Z" style="fill:#92b6da;"/></g><g style="opacity:.5;"><path d="M158.185,145.901s.017-.035.035-.017l4.469,3.425s.035.044.026.069l-.793,5.281s-.018.026-.044.018l-3.736-3.262s-.034-.052-.034-.069l.069-5.436.008-.009Z" style="fill:#92b6da;"/></g><g style="opacity:.5;"><path d="M156.364,134.146s.035-.009.035.017l.595,5.6s-.008.052-.034.069l-4.375,3.064s-.035,0-.035-.018l-.207-4.953s.009-.06.026-.069l3.987-3.693.008-.017Z" style="fill:#92b6da;"/></g><g style="opacity:.5;"><path d="M146.173,153.914s.035,0,.026.026l-1.794,5.341s-.035.043-.061.052l-5.255.958s-.034-.009-.026-.035l1.881-4.59s.035-.043.061-.052l5.168-1.691v-.009Z" style="fill:#92b6da;"/></g><g style="opacity:.5;"><path d="M146.717,144.225s.018-.034.035-.017l4.47,3.426s.034.043.025.069l-.793,5.281s-.018.025-.044.017l-3.736-3.262s-.034-.052-.034-.069l.069-5.436.008-.009Z" style="fill:#92b6da;"/></g><g style="opacity:.5;"><path d="M144.905,132.47s.035-.008.035.017l.595,5.601s-.009.051-.035.069l-4.374,3.063s-.035,0-.035-.017l-.207-4.953s.009-.061.026-.069l3.986-3.694.009-.017Z" style="fill:#92b6da;"/></g><g style="opacity:.5;"><path d="M135.215,152.043s.034,0,.026.026l-1.795,5.341s-.035.043-.06.052l-5.255.958s-.035-.009-.026-.035l1.881-4.59s.034-.044.06-.052l5.169-1.691v-.009Z" style="fill:#92b6da;"/></g><g style="opacity:.5;"><path d="M135.767,142.342s.018-.034.035-.017l4.47,3.426s.034.043.026.069l-.794,5.281s-.018.026-.043.017l-3.737-3.262s-.034-.052-.034-.069l.069-5.436.008-.009Z" style="fill:#92b6da;"/></g><g style="opacity:.5;"><path d="M133.955,130.591s.035-.008.035.017l.595,5.601s-.009.051-.035.069l-4.374,3.063s-.035,0-.035-.017l-.207-4.953s.009-.061.026-.069l3.986-3.694.009-.017Z" style="fill:#92b6da;"/></g><g style="opacity:.5;"><path d="M123.764,150.543s.035,0,.026.026l-1.795,5.341s-.034.043-.06.052l-5.255.958s-.035-.009-.026-.035l1.881-4.59s.035-.044.06-.052l5.169-1.691v-.009Z" style="fill:#92b6da;"/></g><g style="opacity:.5;"><path d="M124.317,140.842s.017-.034.034-.017l4.47,3.426s.034.043.026.069l-.794,5.281s-.017.026-.043.017l-3.737-3.262s-.034-.051-.034-.069l.069-5.436.009-.009Z" style="fill:#92b6da;"/></g><g style="opacity:.5;"><path d="M122.496,129.091s.034-.008.034.017l.596,5.601s-.009.051-.035.069l-4.375,3.063s-.034,0-.034-.017l-.207-4.953s.008-.061.026-.069l3.986-3.694.009-.017Z" style="fill:#92b6da;"/></g><g style="opacity:.5;"><path d="M112.814,148.66s.035,0,.026.026l-1.795,5.341s-.034.043-.06.052l-5.255.958s-.035-.009-.026-.035l1.881-4.59s.034-.043.06-.052l5.169-1.691v-.009Z" style="fill:#92b6da;"/></g><g style="opacity:.5;"><path d="M113.358,138.96s.017-.035.034-.018l4.47,3.426s.034.043.026.069l-.794,5.281s-.017.026-.043.017l-3.736-3.262s-.035-.051-.035-.069l.069-5.436.009-.008Z" style="fill:#92b6da;"/></g><g style="opacity:.5;"><path d="M149.297,302.246s.035,0,.026.026l-1.795,5.341s-.034.043-.06.052l-5.255.958s-.034-.009-.026-.035l1.881-4.59s.035-.043.061-.052l5.168-1.691v-.009Z" style="fill:#92b6da;"/></g><g style="opacity:.5;"><path d="M149.85,292.557s.017-.034.035-.017l4.469,3.426s.035.043.026.069l-.794,5.281s-.017.025-.043.017l-3.736-3.262s-.035-.052-.035-.069l.069-5.436.009-.009Z" style="fill:#92b6da;"/></g><g style="opacity:.5;"><path d="M148.038,280.798s.034-.008.034.018l.596,5.6s-.009.051-.035.069l-4.375,3.063s-.034,0-.034-.017l-.207-4.953s.008-.061.025-.069l3.987-3.693.009-.018Z" style="fill:#92b6da;"/></g><g style="opacity:.5;"><path d="M138.348,300.367s.034,0,.025.026l-1.794,5.341s-.035.044-.061.052l-5.255.958s-.034-.009-.026-.035l1.881-4.59s.035-.043.061-.052l5.169-1.691v-.009Z" style="fill:#92b6da;"/></g><g style="opacity:.5;"><path d="M138.9,290.678s.017-.034.034-.017l4.47,3.426s.034.043.026.069l-.794,5.281s-.017.026-.043.017l-3.737-3.262s-.034-.052-.034-.069l.069-5.436.009-.009Z" style="fill:#92b6da;"/></g><g style="opacity:.5;"><path d="M137.079,278.923s.034-.008.034.018l.596,5.6s-.009.051-.035.069l-4.374,3.063s-.035,0-.035-.017l-.207-4.953s.009-.061.026-.069l3.986-3.693.009-.018Z" style="fill:#92b6da;"/></g><g style="opacity:.5;"><path d="M123.264,270.059s.034,0,.026.025l-1.795,5.342s-.035.043-.06.052l-5.256.957s-.034-.008-.025-.034l1.881-4.591s.034-.043.06-.052l5.169-1.691v-.008Z" style="fill:#92b6da;"/></g><g style="opacity:.5;"><path d="M123.816,260.362s.017-.035.035-.017l4.469,3.425s.035.044.026.069l-.794,5.281s-.017.026-.043.018l-3.736-3.262s-.035-.052-.035-.069l.069-5.436.009-.009Z" style="fill:#92b6da;"/></g><g style="opacity:.5;"><path d="M122.004,248.607s.035-.009.035.017l.595,5.6s-.009.052-.035.069l-4.374,3.064s-.035,0-.035-.018l-.207-4.953s.009-.06.026-.069l3.986-3.693.009-.017Z" style="fill:#92b6da;"/></g><g style="opacity:.5;"><path d="M112.314,268.18s.034,0,.026.026l-1.795,5.341s-.035.043-.061.052l-5.255.957s-.034-.008-.026-.034l1.882-4.591s.034-.043.06-.051l5.169-1.692v-.008Z" style="fill:#92b6da;"/></g><g style="opacity:.5;"><path d="M112.866,258.479s.017-.034.034-.017l4.47,3.426s.035.043.026.069l-.794,5.28s-.017.026-.043.018l-3.736-3.262s-.035-.052-.035-.069l.069-5.436.009-.009Z" style="fill:#92b6da;"/></g><g style="opacity:.5;"><path d="M111.045,246.728s.035-.009.035.017l.595,5.6s-.009.052-.034.069l-4.375,3.064s-.035,0-.035-.018l-.207-4.953s.009-.06.026-.069l3.986-3.693.009-.017Z" style="fill:#92b6da;"/></g><g style="opacity:.5;"><path d="M146.018,273.418s.035,0,.026.026l-1.795,5.341s-.034.043-.06.052l-5.255.958s-.034-.009-.026-.035l1.881-4.59s.035-.044.061-.052l5.168-1.691v-.009Z" style="fill:#92b6da;"/></g><g style="opacity:.5;"><path d="M144.75,251.974s.035-.009.035.017l.595,5.6s-.009.052-.035.069l-4.374,3.064s-.035,0-.035-.017l-.207-4.954s.009-.06.026-.069l3.986-3.693.009-.017Z" style="fill:#92b6da;"/></g><g style="opacity:.5;"><path d="M135.069,271.535s.034,0,.025.026l-1.794,5.341s-.035.043-.061.052l-5.255.958s-.034-.009-.026-.035l1.881-4.59s.035-.043.061-.052l5.169-1.691v-.009Z" style="fill:#92b6da;"/></g><g style="opacity:.5;"><path d="M135.612,261.846s.017-.034.034-.017l4.47,3.426s.035.043.026.069l-.794,5.281s-.017.026-.043.017l-3.736-3.262s-.035-.052-.035-.069l.069-5.436.009-.009Z" style="fill:#92b6da;"/></g><g style="opacity:.5;"><path d="M133.8,250.095s.035-.008.035.017l.595,5.601s-.009.051-.035.069l-4.374,3.063s-.035,0-.035-.017l-.207-4.953s.009-.061.026-.069l3.986-3.694.009-.017Z" style="fill:#92b6da;"/></g><g style="opacity:.5;"><path d="M126.474,291.088s.017-.034.035-.017l4.469,3.426s.035.043.026.069l-.794,5.281s-.017.026-.043.017l-3.736-3.262s-.035-.051-.035-.069l.069-5.436.009-.009Z" style="fill:#92b6da;"/></g><g style="opacity:.5;"><path d="M124.653,279.337s.035-.008.035.018l.595,5.6s-.008.052-.034.069l-4.375,3.063s-.035,0-.035-.017l-.207-4.953s.009-.061.026-.069l3.987-3.693.008-.018Z" style="fill:#92b6da;"/></g><g style="opacity:.5;"><path d="M115.515,289.217s.017-.034.035-.017l4.469,3.426s.035.043.026.069l-.794,5.281s-.017.026-.043.017l-3.736-3.262s-.034-.052-.034-.069l.069-5.436.008-.009Z" style="fill:#92b6da;"/></g><g style="opacity:.5;"><path d="M113.703,277.462s.035-.008.035.018l.595,5.6s-.009.052-.034.069l-4.375,3.063s-.035,0-.035-.017l-.207-4.953s.009-.061.026-.069l3.987-3.693.008-.018Z" style="fill:#92b6da;"/></g><g style="opacity:.5;"><path d="M171.422,307.508s.035,0,.026.026l-1.795,5.341s-.034.043-.06.052l-5.255.958s-.035-.009-.026-.035l1.881-4.591s.034-.043.06-.051l5.169-1.692v-.008Z" style="fill:#92b6da;"/></g><g style="opacity:.5;"><path d="M160.472,305.629s.034,0,.026.026l-1.795,5.341s-.034.043-.06.052l-5.255.958s-.035-.009-.026-.035l1.881-4.59s.034-.044.06-.052l5.169-1.691v-.009Z" style="fill:#92b6da;"/></g><g style="opacity:.5;"><path d="M161.024,295.94s.017-.034.035-.017l4.469,3.425s.035.044.026.07l-.794,5.28s-.017.026-.043.018l-3.736-3.262s-.035-.052-.035-.069l.069-5.436.009-.009Z" style="fill:#92b6da;"/></g><g style="opacity:.5;"><path d="M159.203,284.185s.035-.009.035.017l.595,5.6s-.008.052-.034.069l-4.375,3.064s-.035,0-.035-.018l-.207-4.953s.009-.06.026-.069l3.987-3.693.008-.017Z" style="fill:#92b6da;"/></g><g style="opacity:.5;"><path d="M164.122,223.947s.034-.009.034.017l.596,5.6s-.009.052-.035.069l-4.375,3.063s-.034,0-.034-.017l-.207-4.953s.008-.06.026-.069l3.986-3.693.009-.017Z" style="fill:#92b6da;"/></g><g style="opacity:.5;"><path d="M154.432,243.516s.034,0,.026.026l-1.795,5.341s-.035.043-.061.052l-5.255.957s-.034-.008-.026-.034l1.882-4.591s.034-.043.06-.051l5.169-1.692v-.008Z" style="fill:#92b6da;"/></g><g style="opacity:.5;"><path d="M154.975,233.827s.018-.035.035-.017l4.47,3.425s.034.043.026.069l-.794,5.281s-.018.026-.043.017l-3.737-3.261s-.034-.052-.034-.069l.069-5.437.008-.008Z" style="fill:#92b6da;"/></g><g style="opacity:.5;"><path d="M153.163,222.072s.035-.009.035.017l.595,5.6s-.008.052-.034.069l-4.375,3.063s-.035,0-.035-.017l-.207-4.953s.009-.06.026-.069l3.987-3.693.008-.017Z" style="fill:#92b6da;"/></g><g style="opacity:.5;"><path d="M142.964,241.844s.034,0,.026.026l-1.795,5.341s-.035.043-.06.052l-5.255.958s-.035-.009-.026-.035l1.881-4.591s.034-.043.06-.051l5.169-1.692v-.008Z" style="fill:#92b6da;"/></g><g style="opacity:.5;"><path d="M143.516,232.155s.018-.035.035-.017l4.47,3.425s.034.043.026.069l-.794,5.281s-.018.026-.044.018l-3.736-3.262s-.034-.052-.034-.069l.069-5.436.008-.009Z" style="fill:#92b6da;"/></g><g style="opacity:.5;"><path d="M141.704,220.396s.035-.009.035.017l.595,5.6s-.009.052-.034.069l-4.375,3.064s-.035,0-.035-.018l-.207-4.953s.009-.06.026-.069l3.986-3.693.009-.017Z" style="fill:#92b6da;"/></g><g style="opacity:.5;"><path d="M132.014,239.965s.034,0,.026.026l-1.795,5.341s-.035.043-.06.052l-5.255.958s-.035-.009-.026-.035l1.881-4.59s.034-.044.06-.052l5.169-1.692v-.008Z" style="fill:#92b6da;"/></g><g style="opacity:.5;"><path d="M132.566,230.276s.018-.035.035-.017l4.47,3.425s.034.044.025.069l-.793,5.281s-.018.026-.044.018l-3.736-3.262s-.034-.052-.034-.069l.069-5.436.008-.009Z" style="fill:#92b6da;"/></g><g style="opacity:.5;"><path d="M130.746,218.521s.034-.009.034.017l.595,5.6s-.008.052-.034.069l-4.375,3.064s-.034,0-.034-.018l-.208-4.953s.009-.06.026-.069l3.987-3.693.009-.017Z" style="fill:#92b6da;"/></g><g style="opacity:.5;"><path d="M120.563,238.461s.035,0,.026.026l-1.795,5.341s-.034.043-.06.052l-5.255.958s-.035-.009-.026-.035l1.881-4.59s.034-.044.06-.052l5.169-1.691v-.009Z" style="fill:#92b6da;"/></g><g style="opacity:.5;"><path d="M121.107,228.772s.017-.034.034-.017l4.47,3.426s.035.043.026.069l-.794,5.28s-.017.026-.043.018l-3.736-3.262s-.035-.052-.035-.069l.069-5.436.009-.009Z" style="fill:#92b6da;"/></g><g style="opacity:.5;"><path d="M119.295,217.009s.034-.008.034.017l.596,5.601s-.009.051-.035.069l-4.375,3.063s-.034,0-.034-.017l-.207-4.953s.008-.061.026-.069l3.986-3.694.009-.017Z" style="fill:#92b6da;"/></g><g style="opacity:.5;"><path d="M109.605,236.578s.034,0,.025.026l-1.794,5.341s-.035.043-.061.052l-5.255.958s-.034-.009-.026-.035l1.881-4.59s.035-.043.061-.052l5.169-1.691v-.009Z" style="fill:#92b6da;"/></g><g style="opacity:.5;"><path d="M110.157,226.889s.017-.034.034-.017l4.47,3.426s.034.043.026.069l-.794,5.281s-.017.026-.043.017l-3.737-3.262s-.034-.052-.034-.069l.069-5.436.009-.009Z" style="fill:#92b6da;"/></g><g style="opacity:.5;"><path d="M108.345,215.138s.034-.009.034.017l.596,5.601s-.009.051-.035.069l-4.375,3.063s-.034,0-.034-.017l-.207-4.953s.008-.061.026-.069l3.986-3.694.009-.017Z" style="fill:#92b6da;"/></g></g><g style="opacity:.5;"><g style="opacity:.5;"><path d="M114.255,87.7275s-.034.0172-.034,0l-1.614-5.4017s0-.0518.018-.0691l3.736-3.8053s.034-.0086.043.0086l1.113,4.8322s0,.0604-.017.0777l-3.245,4.3662v-.0086Z" style="fill:#92b6da;"/></g><g style="opacity:.5;"><path d="M119.398,95.9682s0,.0345-.017.0345l-5.626-.2157s-.052-.0173-.061-.0432l-2.398-4.7718s0-.0345.025-.0345l4.936.5005s.052.0172.069.0431l3.081,4.4784-.009.0087Z" style="fill:#92b6da;"/></g><g style="opacity:.5;"><path d="M127.656,104.517s-.026.026-.034.009l-3.719-4.228s-.026-.052-.018-.069l1.804-5.0222s.026-.0259.043,0l3.029,3.9262s.026.0518.017.0776l-1.13,5.3244.008-.018Z" style="fill:#92b6da;"/></g><g style="opacity:.5;"><path d="M124.282,82.9462s-.034.0173-.034,0l-1.614-5.4017s0-.0518.017-.069l3.737-3.8054s.034-.0086.043.0087l1.113,4.8322s0,.0604-.017.0776l-3.245,4.3662v-.0086Z" style="fill:#92b6da;"/></g><g style="opacity:.5;"><path d="M129.425,91.1752s0,.0345-.017.0345l-5.626-.2157s-.052-.0173-.061-.0432l-2.398-4.7718s0-.0345.026-.0345l4.935.5005s.052.0173.069.0431l3.081,4.4785-.009.0086Z" style="fill:#92b6da;"/></g><g style="opacity:.5;"><path d="M137.692,99.7284s-.026.0259-.035.0086l-3.719-4.2282s-.026-.0518-.017-.069l1.803-5.022s.026-.0259.043,0l3.029,3.9261s.026.0518.017.0777l-1.13,5.324.009-.0172Z" style="fill:#92b6da;"/></g><g style="opacity:.5;"><path d="M133.567,109.388s-.035.017-.035,0l-1.613-5.402s0-.052.017-.069l3.736-3.805s.035-.009.043.008l1.114,4.832s0,.061-.018.078l-3.244,4.366v-.008Z" style="fill:#92b6da;"/></g><g style="opacity:.5;"><path d="M138.71,117.617s0,.034-.017.034l-5.626-.216s-.052-.017-.061-.043l-2.399-4.772s0-.034.026-.034l4.936.5s.052.018.069.044l3.081,4.478-.009.009Z" style="fill:#92b6da;"/></g><g style="opacity:.5;"><path d="M146.976,126.17s-.025.026-.034.008l-3.719-4.228s-.026-.052-.017-.069l1.803-5.022s.026-.026.043,0l3.029,3.926s.026.052.017.078l-1.13,5.324.008-.017Z" style="fill:#92b6da;"/></g><g style="opacity:.5;"><path d="M143.594,104.595s-.035.017-.035,0l-1.613-5.4021s0-.0517.017-.069l3.736-3.8053s.035-.0087.043.0086l1.114,4.8318s0,.061-.018.078l-3.244,4.366v-.008Z" style="fill:#92b6da;"/></g><g style="opacity:.5;"><path d="M148.745,112.828s0,.034-.017.034l-5.626-.216s-.052-.017-.061-.043l-2.398-4.772s0-.034.026-.034l4.935.5s.052.018.069.043l3.081,4.479-.009.009Z" style="fill:#92b6da;"/></g><g style="opacity:.5;"><path d="M157.003,121.377s-.025.026-.034.008l-3.719-4.228s-.026-.052-.017-.069l1.803-5.022s.026-.026.043,0l3.029,3.926s.026.052.017.078l-1.13,5.324.008-.017Z" style="fill:#92b6da;"/></g><g style="opacity:.5;"><path d="M134.188,75.4306s-.034.0172-.034,0l-1.614-5.4017s0-.0518.017-.069l3.737-3.8054s.034-.0086.043.0086l1.113,4.8322s0,.0604-.017.0777l-3.245,4.3662v-.0086Z" style="fill:#92b6da;"/></g><g style="opacity:.5;"><path d="M139.331,83.6635s0,.0345-.017.0345l-5.626-.2157s-.052-.0173-.061-.0432l-2.398-4.7718s0-.0345.025-.0345l4.936.5005s.052.0173.069.0431l3.081,4.4785-.009.0086Z" style="fill:#92b6da;"/></g><g style="opacity:.5;"><path d="M147.597,92.2205s-.025.0259-.034.0087l-3.719-4.2282s-.026-.0518-.017-.069l1.803-5.0221s.026-.0258.043,0l3.029,3.9262s.026.0518.017.0777l-1.13,5.324.008-.0173Z" style="fill:#92b6da;"/></g><g style="opacity:.5;"><path d="M144.224,70.6493s-.035.0173-.035,0l-1.613-5.4017s0-.0517.017-.069l3.736-3.8053s.035-.0087.043.0086l1.114,4.8322s0,.0604-.018.0776l-3.244,4.3663v-.0087Z" style="fill:#92b6da;"/></g><g style="opacity:.5;"><path d="M149.366,78.8822s0,.0345-.017.0345l-5.626-.2157s-.052-.0172-.06-.0431l-2.399-4.7718s0-.0345.026-.0345l4.936.5004s.051.0173.069.0432l3.08,4.4784-.009.0086Z" style="fill:#92b6da;"/></g><g style="opacity:.5;"><path d="M157.624,87.4315s-.025.0259-.034.0086l-3.719-4.2282s-.026-.0517-.017-.069l1.803-5.022s.026-.0259.043,0l3.029,3.9261s.026.0518.017.0777l-1.13,5.324.008-.0172Z" style="fill:#92b6da;"/></g><g style="opacity:.5;"><path d="M114.186,118.407s-.034.017-.034,0l-1.614-5.402s0-.051.017-.069l3.737-3.805s.034-.009.043.009l1.113,4.832s0,.06-.017.078l-3.245,4.366v-.009Z" style="fill:#92b6da;"/></g><g style="opacity:.5;"><path d="M119.329,126.652s0,.034-.017.034l-5.626-.215s-.052-.018-.061-.044l-2.399-4.771s0-.035.026-.035l4.936.501s.052.017.069.043l3.081,4.478-.009.009Z" style="fill:#92b6da;"/></g><g style="opacity:.5;"><path d="M127.595,135.201s-.025.026-.034.009l-3.719-4.229s-.026-.051-.017-.069l1.803-5.022s.026-.025.043,0l3.029,3.927s.026.051.017.077l-1.13,5.324.008-.017Z" style="fill:#92b6da;"/></g><g style="opacity:.5;"><path d="M124.213,113.63s-.034.017-.034,0l-1.614-5.402s0-.052.017-.069l3.737-3.805s.034-.009.043.008l1.113,4.833s0,.06-.017.077l-3.245,4.366v-.008Z" style="fill:#92b6da;"/></g><g style="opacity:.5;"><path d="M129.356,121.859s0,.034-.017.034l-5.626-.215s-.052-.018-.061-.044l-2.398-4.771s0-.035.025-.035l4.936.501s.052.017.069.043l3.081,4.478-.009.009Z" style="fill:#92b6da;"/></g><g style="opacity:.5;"><path d="M137.623,130.412s-.026.026-.035.009l-3.719-4.229s-.026-.051-.017-.069l1.803-5.022s.026-.026.043,0l3.029,3.927s.026.051.017.077l-1.13,5.324.009-.017Z" style="fill:#92b6da;"/></g><g style="opacity:.5;"><path d="M106.55,112.982s-.026.026-.035.009l-3.719-4.228s-.026-.052-.017-.069l1.803-5.022s.026-.026.043,0l3.029,3.926s.026.052.017.077l-1.13,5.325.009-.018Z" style="fill:#92b6da;"/></g><g style="opacity:.5;"><path d="M103.176,91.4111s-.035.0172-.035,0l-1.613-5.4017s0-.0518.017-.0691l3.736-3.8053s.035-.0087.043.0086l1.114,4.8322s0,.0604-.018.0776l-3.244,4.3663v-.0086Z" style="fill:#92b6da;"/></g><g style="opacity:.5;"><path d="M108.318,99.64s0,.0345-.017.0345l-5.626-.2157s-.052-.0172-.06-.0431l-2.399-4.7718s0-.0345.026-.0345l4.936.5005s.051.0172.069.0431l3.08,4.4784-.009.0086Z" style="fill:#92b6da;"/></g><g style="opacity:.5;"><path d="M116.585,108.201s-.026.026-.034.009l-3.719-4.229s-.026-.051-.018-.069l1.804-5.0216s.026-.0259.043,0l3.029,3.9266s.026.051.017.077l-1.13,5.324.008-.017Z" style="fill:#92b6da;"/></g><g style="opacity:.5;"><path d="M79.5415,30.8612s-.0259.0259-.0345.0086l-3.7191-4.2282s-.0258-.0517-.0172-.069l1.8034-5.022s.0259-.0259.0432,0l3.0287,3.9261s.0259.0518.0173.0777l-1.1304,5.324.0086-.0172Z" style="fill:#92b6da;"/></g><g style="opacity:.5;"><path d="M76.1678,9.2782s-.0345.0173-.0345,0l-1.6136-5.4017s0-.0518.0172-.069L78.2732.0022s.0345-.0086.0432.0086l1.1131,4.8322s0,.0604-.0172.0777l-3.2445,4.3662v-.0086Z" style="fill:#92b6da;"/></g><g style="opacity:.5;"><path d="M81.3107,17.5229s0,.0345-.0173.0345l-5.626-.2158s-.0518-.0172-.0604-.0431l-2.3989-4.7718s0-.0345.0259-.0345l4.9358.5005s.0517.0172.069.0431l3.0805,4.4784-.0086.0087Z" style="fill:#92b6da;"/></g><g style="opacity:.5;"><path d="M89.5772,26.0721s-.0259.0259-.0345.0086l-3.7191-4.2281s-.0259-.0518-.0173-.0691l1.8035-5.022s.0259-.0259.0431,0l3.0288,3.9262s.0259.0517.0172.0776l-1.1304,5.3241.0087-.0173Z" style="fill:#92b6da;"/></g><g style="opacity:.5;"><path d="M105.972,25.3368s-.034.0173-.034,0l-1.614-5.4017s0-.0517.017-.069l3.737-3.8053s.034-.0087.043.0086l1.113,4.8322s0,.0604-.017.0776l-3.245,4.3663v-.0087Z" style="fill:#92b6da;"/></g><g style="opacity:.5;"><path d="M111.115,33.5697s0,.0345-.017.0345l-5.627-.2157s-.051-.0172-.06-.0431l-2.399-4.7718s0-.0345.026-.0345l4.936.5004s.052.0173.069.0432l3.08,4.4784-.008.0086Z" style="fill:#92b6da;"/></g><g style="opacity:.5;"><path d="M119.381,42.1307s-.026.0259-.034.0086l-3.719-4.2281s-.026-.0518-.018-.0691l1.804-5.022s.026-.0259.043,0l3.029,3.9262s.026.0517.017.0776l-1.13,5.3241.008-.0173Z" style="fill:#92b6da;"/></g><g style="opacity:.5;"><path d="M116.007,20.5478s-.034.0172-.034,0l-1.614-5.4017s0-.0518.017-.0691l3.737-3.8053s.034-.0086.043.0086l1.113,4.8322s0,.0604-.017.0777l-3.245,4.3662v-.0086Z" style="fill:#92b6da;"/></g><g style="opacity:.5;"><path d="M121.15,28.7885s0,.0345-.017.0345l-5.626-.2157s-.052-.0173-.061-.0432l-2.399-4.7718s0-.0345.026-.0345l4.936.5005s.052.0172.069.0431l3.081,4.4784-.009.0087Z" style="fill:#92b6da;"/></g><g style="opacity:.5;"><path d="M129.408,37.3416s-.026.0259-.034.0087l-3.719-4.2282s-.026-.0518-.018-.069l1.804-5.0221s.026-.0259.043,0l3.029,3.9262s.026.0518.017.0777l-1.13,5.324.008-.0173Z" style="fill:#92b6da;"/></g><g style="opacity:.5;"><path d="M85.4523,35.7197s-.0345.0172-.0345,0l-1.6136-5.4018s0-.0517.0173-.069l3.7363-3.8053s.0345-.0087.0431.0086l1.1132,4.8322s0,.0604-.0173.0776l-3.2445,4.3663v-.0086Z" style="fill:#92b6da;"/></g><g style="opacity:.5;"><path d="M98.8615,52.5135s-.0259.0259-.0345.0086l-3.7191-4.2281s-.0259-.0518-.0173-.0691l1.8035-5.022s.0259-.0259.0431,0l3.0288,3.9262s.0259.0517.0172.0776l-1.1304,5.3241.0087-.0173Z" style="fill:#92b6da;"/></g><g style="opacity:.5;"><path d="M95.4794,30.9384s-.0345.0173-.0345,0l-1.6136-5.4017s0-.0518.0172-.069l3.7364-3.8054s.0345-.0086.0431.0086l1.1131,4.8322s.0001.0604-.0172.0777l-3.2445,4.3662v-.0086Z" style="fill:#92b6da;"/></g><g style="opacity:.5;"><path d="M100.631,39.1713s0,.0345-.017.0345l-5.6264-.2157s-.0518-.0173-.0604-.0432l-2.3989-4.7718s0-.0345.0259-.0345l4.9358.5005s.0517.0173.069.0432l3.081,4.4784-.009.0086Z" style="fill:#92b6da;"/></g><g style="opacity:.5;"><path d="M108.889,47.7245s-.026.0258-.035.0086l-3.719-4.2282s-.026-.0518-.017-.069l1.803-5.0221s.026-.0258.043,0l3.029,3.9262s.026.0518.017.0777l-1.13,5.324.009-.0172Z" style="fill:#92b6da;"/></g><g style="opacity:.5;"><path d="M91.2167,10.0033s0,.0345-.0173.0345l-5.626-.2157s-.0518-.0173-.0604-.0431l-2.3989-4.7718s0-.0345.0259-.0345l4.9358.5005s.0517.0173.069.0431l3.0805,4.4784-.0086.0086Z" style="fill:#92b6da;"/></g><g style="opacity:.5;"><path d="M99.483,18.5565s-.0258.0259-.0345.0086l-3.719-4.2282s-.0259-.0517-.0173-.069l1.8035-5.022s.0258-.0259.0431,0l3.0292,3.9261s.025.0518.017.0777l-1.1306,5.324.0086-.0172Z" style="fill:#92b6da;"/></g><g style="opacity:.5;"><path d="M101.252,5.226s0,.0345-.017.0345l-5.6265-.2157s-.0517-.0173-.0604-.0431l-2.3988-4.7718s0-.0345.0259-.0345l4.9357.5005s.0518.0173.0691.0431l3.08,4.4784-.008.0086Z" style="fill:#92b6da;"/></g><g style="opacity:.5;"><path d="M109.51,13.7752s-.026.0259-.035.0087l-3.719-4.2282s-.026-.0518-.017-.069l1.803-5.022s.026-.0259.044,0l3.028,3.9262s.026.0518.018.0777l-1.131,5.324.009-.0173Z" style="fill:#92b6da;"/></g><g style="opacity:.5;"><path d="M99.2068,86.5682s-.0259.0259-.0345.0086l-3.7191-4.2281s-.0259-.0518-.0172-.0691l1.8034-5.022s.0259-.0259.0432,0l3.0284,3.9262s.026.0517.018.0776l-1.1308,5.3241.0086-.0173Z" style="fill:#92b6da;"/></g><g style="opacity:.5;"><path d="M95.8328,64.997s-.0345.0173-.0345,0l-1.6136-5.4017s0-.0518.0173-.069l3.7363-3.8054s.0345-.0086.0431.0086l1.1132,4.8322s0,.0604-.0173.0777l-3.2445,4.3662v-.0086Z" style="fill:#92b6da;"/></g><g style="opacity:.5;"><path d="M100.975,73.2299s0,.0345-.017.0345l-5.6258-.2157s-.0518-.0173-.0604-.0432l-2.3989-4.7718s0-.0345.0259-.0345l4.9358.5005s.0517.0172.069.0431l3.0804,4.4784-.009.0087Z" style="fill:#92b6da;"/></g><g style="opacity:.5;"><path d="M109.242,81.7791s-.026.0259-.035.0087l-3.719-4.2282s-.026-.0518-.017-.069l1.804-5.0221s.025-.0259.043,0l3.028,3.9262s.026.0518.018.0777l-1.131,5.324.009-.0173Z" style="fill:#92b6da;"/></g><g style="opacity:.5;"><path d="M106.162,59.7509s-.035.0173-.035,0l-1.613-5.4017s0-.0518.017-.069l3.736-3.8054s.035-.0086.044.0086l1.113,4.8322s0,.0604-.018.0777l-3.244,4.3662v-.0086Z" style="fill:#92b6da;"/></g><g style="opacity:.5;"><path d="M111.305,67.9838s0,.0345-.017.0345l-5.626-.2157s-.052-.0173-.061-.0432l-2.399-4.7718s0-.0345.026-.0345l4.936.5005s.052.0173.069.0432l3.08,4.4784-.008.0086Z" style="fill:#92b6da;"/></g><g style="opacity:.5;"><path d="M119.571,76.537s-.026.0258-.034.0086l-3.719-4.2282s-.026-.0518-.018-.069l1.804-5.0221s.026-.0258.043,0l3.029,3.9262s.026.0518.017.0777l-1.13,5.324.008-.0172Z" style="fill:#92b6da;"/></g><g style="opacity:.5;"><path d="M116.189,54.9618s-.035.0173-.035,0l-1.614-5.4017s0-.0517.018-.069l3.736-3.8053s.035-.0087.043.0086l1.113,4.8322s0,.0604-.017.0776l-3.244,4.3663v-.0087Z" style="fill:#92b6da;"/></g><g style="opacity:.5;"><path d="M121.34,63.1947s0,.0345-.017.0345l-5.626-.2157s-.052-.0172-.061-.0431l-2.399-4.7718s0-.0345.026-.0345l4.936.5004s.052.0173.069.0432l3.081,4.4784-.009.0086Z" style="fill:#92b6da;"/></g><g style="opacity:.5;"><path d="M129.598,71.7557s-.026.0259-.034.0086l-3.72-4.2281s-.025-.0518-.017-.0691l1.804-5.022s.026-.0259.043,0l3.029,3.9261s.025.0518.017.0777l-1.131,5.3241.009-.0173Z" style="fill:#92b6da;"/></g><g style="opacity:.5;"><path d="M126.414,49.5868s-.035.0173-.035,0l-1.613-5.4017s0-.0517.017-.069l3.736-3.8054s.035-.0086.043.0087l1.114,4.8322s0,.0604-.018.0776l-3.244,4.3663v-.0087Z" style="fill:#92b6da;"/></g><g style="opacity:.5;"><path d="M131.557,57.8158s0,.0345-.018.0345l-5.626-.2157s-.051-.0173-.06-.0431l-2.399-4.7718s0-.0345.026-.0345l4.936.5004s.051.0173.069.0432l3.08,4.4784-.008.0086Z" style="fill:#92b6da;"/></g><g style="opacity:.5;"><path d="M139.823,66.369s-.026.0259-.035.0086l-3.719-4.2282s-.025-.0517-.017-.069l1.804-5.022s.025-.0259.043,0l3.029,3.9261s.025.0518.017.0777l-1.131,5.324.009-.0172Z" style="fill:#92b6da;"/></g><g style="opacity:.5;"><path d="M136.44,44.7978s-.034.0172-.034,0l-1.614-5.4017s0-.0518.018-.0691l3.736-3.8053s.034-.0086.043.0086l1.113,4.8322s0,.0604-.017.0777l-3.245,4.3662v-.0086Z" style="fill:#92b6da;"/></g><g style="opacity:.5;"><path d="M141.592,53.0268s0,.0345-.017.0345l-5.627-.2158s-.051-.0172-.06-.0431l-2.399-4.7718s0-.0345.026-.0345l4.936.5005s.052.0172.069.0431l3.08,4.4784-.008.0087Z" style="fill:#92b6da;"/></g><g style="opacity:.5;"><path d="M149.85,61.5916s-.026.0259-.035.0087l-3.719-4.2282s-.025-.0518-.017-.069l1.804-5.0221s.025-.0259.043,0l3.028,3.9262s.026.0518.018.0777l-1.131,5.324.009-.0173Z" style="fill:#92b6da;"/></g></g><g style="mask:url(#b);"><path d="M83.3901,20.71l.0604,7.1189c.0604,7.3691,4.789,13.2971,10.5532,13.2454l5.4534-.0518c4.7459-.0431,8.9139,4.0038,10.1819,9.8456,3.616,16.6625,9.924,53.5599,9.009,104.9359-1.208,67.945-27.3279,124.007-30.8485,130.142-.1899.336-.3624.664-.5264,1.018L11.537,404.343c-.7679,1.226-3.8743,9.527-4.2713,11.011-.7162,2.709-.7248,5.678,0,8.439,7.9128,30.201,56.8646,193.659,113.5133,195.41,80.767,2.503,116.75,2.486,123.489-1.579.794-.474,1.51-1.061,2.183-1.777,9.526-10.096,74.528-104.013,87.048-199.406.389-2.977-.474-5.988-1.82-8.474-22.272-41.151-68.074-91.13-85.815-129.623-18.336-39.771-29.787-100.726-29.977-122.505-.147-16.973.061-78.1177.915-104.2806.224-6.8255,4.452-12.3048,9.794-12.6931,6.187-.4487,11.398-7.3001,11.571-15.2214l.06-2.7354c.164-7.5331-4.59-13.7718-10.484-13.7718l-133.9551.1208c-5.79,0-10.4496,6.0316-10.3806,13.4353l-.0172.0172Z" style="fill:#c59b6d; stroke:#c59b6d; stroke-miterlimit:10; stroke-width:9px;"/></g><line x1="110.0425" y1="520.3733" x2="110.3636" y2="520.2167" style="fill:none; stroke:#41810b; stroke-miterlimit:4; stroke-width:1px;"/><line x1="94.2473" y1="520.6681" x2="94.0474" y2="520.3815" style="fill:none; stroke:#41810b; stroke-miterlimit:4; stroke-width:1px;"/><path d="M151.3183,439.0777c1.0385-2.1744.1924-3.5671-1.7594-5.4016-.6063-.5698-1.2475-1.0005-1.9603-1.4295-1.258-.7572-3.6522-2.5473-5.3382-3.4198-6.2623-3.2246-11.496-5.5816-14.2297-8.9432-2.8785-3.5397,1.4889-8.4316,5.4397-6.1499,6.3134,3.6462,15.3556,8.8683,19.3838,11.1947,1.322.7635,5.9921,3.6226,7.1469,2.6241.648-.5603,1.2432-1.1529,1.7921-1.7907.975-1.133-1.8793-5.7647-2.5984-7.0752l-11.5416-21.0358c-.2421-.4427-.3811-.9257-.4316-1.4314-.4468-4.4703,5.7618-6.2279,8.0197-2.3439l11.5711,19.9047c.7519,1.2934,3.2225,5.9903,4.6996,5.7533l2.3576-.3783c1.7538-.2814,2.0437-5.7947,2.0437-7.571v-21.4234c0-.245.0099-.4868.0293-.7249.4573-5.6026,8.9298-5.078,8.9357.5432l.0226,21.5629c.0019,1.8133.3463,7.3449,2.144,7.5818l2.102.277c1.4625.1928,3.8956-4.5221,4.6213-5.8064l9.516-16.8406c.1311-.2321.2691-.4578.4134-.6767,3.1973-4.8507,10.5859-.1165,7.6944,4.9225l-10.0382,17.4937c-.7122,1.2412-2.6434,4.7972-1.7827,5.9404.5574.7404,1.2714,1.4361,1.9818,2.0205,1.0683.8789,4.5416-.9221,5.7972-1.5027,9.5163-4.4006,19.9329-13.1993,24.2111-11.7598l.0671.0225c3.5732,1.2008,4.0403,6.0643.761,7.9233l-20.2241,11.4648c-1.3138.7448-4.0204,2.2254-3.7912,3.7181.1564,1.0184.4349,2.0568.832,2.9405.5653,1.258,3.8167,2.0658,5.1954,2.0995,5.5371.1353,23.7958.5823,23.7958.5823.3797.0095.75.0675,1.1084.1677,4.701,1.3142,3.5248,8.4018-1.3561,8.4628l-26.4063-.6825c-1.89.026-3.262,6.118-1.631,7.058l19.949,11.976c.2349.1357.4629.2793.6834.4304,4.6069,3.1573.0153,10.2107-4.8531,7.4737l-18.139-10.1981c-1.2807-.72-3.8726-1.6008-5.0208-.6841-.6676.5329-1.3267,1.1507-1.8516,1.7987-.917,1.1323-.004,3.7272.7135,4.9954l8.9236,15.7721c.1611.2843.3151.5713.4615.8605,2.5918,5.1205-4.9998,9.185-7.9516,4.2633l-10.3289-17.2218c-.8136-1.3573-3.54-2.3197-5.4983-1.5211-1.3378.5456-1.9619,3.2423-1.9712,4.687l-.1325,20.5981c-.0004.0502-.0011,1.1003-.0021,1.1504-.1209,5.7454-8.809,5.5802-8.8595-.1663l-.18-21.489c-.0118-1.3407-.4867-4.9009-1.7483-5.3546-.9602-.3453-1.9753-.5675-3.0055-.6768-1.3842-.1469-3.2633,2.5665-3.9758,3.7623-3.0789,5.1678-11.7228,19.676-11.7228,19.676-.1074.1804-.2239.3532-.3486.5185-3.2989,4.3742-10.0383-.4561-7.2177-5.153l10.6128-17.6726c1.6469-2.7425,2.5764-5.3291,1.7009-6.5003-.6796-.9092-1.4696-1.663-2.3934-2.3724-1.1546-.8867-3.7448.0421-5.0001.7792l-17.0799,10.0287c-.2551.1496-.5135.2885-.7747.4166-5.1222,2.5136-9.0406-5.1614-4.109-8.031l17.3055-10.07c1.3716-.7981,4.0627-3.3972,3.7041-4.943l-.3635-1.567c-.3751-1.6174-3.8034-1.7717-5.4636-1.799l-21.3008-.3505c-.045-.0008-.0899-.002-.1348-.0035-5.5851-.1947-5.347-8.6315.2414-8.6597l22.3374-.1128c1.588,0,3.82-1.398,4.2-2.485v-.026Z" style="fill:#603813;"/></svg>